/* XPM */
static char * OperPtaCerrUp_icon[] = {
/* width height ncolors cpp [x_hot y_hot] */
"43 43 8 1 0 0",
/* colors */
" 	s iconGray2	m white	c #c8c8c8c8c8c8",
".	s bottomShadowColor	m black	c #646464646464",
"X	s iconGray9	m white	c #b6b6b6b6aaaa",
"o	s iconGray3	m white	c #afafafafafaf",
"O	s iconGray1	m white	c #e1e1e1e1e1e1",
"+	s iconGray5	m black	c #7d7d7d7d7d7d",
"@	s iconGray4	m white	c #969696969696",
"#	s iconGray8	m black	c #323232323232",
/* pixels */
"                                          .",
" XXXXXXXXXXXXXXXXXXXXXXXXXXXXXXXXXXXXXXXXX.",
" XXXXXXXXXXXXXXXXXXXXXXXXXXXXXXXXXXXXXXXXX.",
" XXXXXXXXXXXXXXXXXXXXXXXXXXXXXXoooooXXXXXX.",
" XXXXXXXXXXXXXXXXXXXXXXooooooooooOOOOOXXXX.",
" XXXXXXXXXXXXXXXXXXXooooooooooOOOOOOOOXXXX.",
" XXXXXXXXXXXXXXXooooooooooOOOOOOOOOOOOXXXX.",
" XXXXXXXXXXXXoooooooooOOOOOOOOOOOOOOOOXXXX.",
" XXXXXXXXooooooooooOOOOOOOOOOOOOOOOOOOXXXX.",
" XXXXooooooooooOOOOOOOOOOOOOOOO  ++OOOXXXX.",
" XXXX@@oooooOOOOOOOOOOOOOOOO     ++OOOXXXX.",
" XXXX@@@@OOOOOOOOOOOOOOO         ++OOOXXXX.",
" XXXX@@@@OOOOOOOOOOOO            ++OOOXXXX.",
" XXXX@@@@OOOOOOOO+               ++OOOXXXX.",
" XXXX@@@@OOO+++OO+               ++OOOXXXX.",
" XXXX@@@@O++OO+OO+               ++OOOXXXX.",
" XXXX@@@@O+OOO+OO+               ++OOOXXXX.",
" XXXX@@@@O+O##+OO+               ++OOOXXXX.",
" XXXX@@@@O+#OO+OO+               ++OOOXXXX.",
" XXXX@@@@O+O##+OO+           ....++OOOXXXX.",
" XXXX@@@@O+#OO+OO+              .++OOOXXXX.",
" XXXX@@@@O+OOO+OO+               ++OOOXXXX.",
" XXXX@@@@O+O++OOO+               ++OOOXXXX.",
" XXXX@@@@O++OOOOO+               ++OOOXXXX.",
" XXXX@@@@OOOOOOOO+               ++OOOXXXX.",
" XXXX@@@@OOOOOOOO+               ++OOOXXXX.",
" XXXX@@@@OOOOOOOO+               ++OOOXXXX.",
" XXXX@@@@OOOOOOOO+               ++OOOXXXX.",
" XXXX@@@@OOOOOOOO+               ++OOOXXXX.",
" XXXX@@@@OOOOOOOO+               ++OOOXXXX.",
" XXXX@@@@OOOOOOOO+               ++OOOXXXX.",
" XXXX@@@@OOOOOOOO+               ++OOOXXXX.",
" XXXX@@@@OOOOOOOO+             XXX+OOOXXXX.",
" XXXX@@@@OOOOOOOO+          XXXXXXXXXXXXXX.",
" XXXX@@@@OOOOOOOO+        XXXXXXXXXXXXXXXX.",
" XXXX@@@@OOOOOOOO+     XXXXXXXXXXXXXXXXXXX.",
" XXXX@@@@OOOOOOOO+  XXXXXXXXXXXXXXXXXXXXXX.",
" XXXX@@@@OOOOOOOOXXXXXXXXXXXXXXXXXXXXXXXXX.",
" XXXX@@@@OOOOOOOOXXXXXXXXXXXXXXXXXXXXXXXXX.",
" XXXX@@@@OOOOOOXXXXXXXXXXXXXXXXXXXXXXXXXXX.",
" XXXXXXXXXXXXXXXXXXXXXXXXXXXXXXXXXXXXXXXXX.",
" XXXXXXXXXXXXXXXXXXXXXXXXXXXXXXXXXXXXXXXXX.",
"..........................................."};
