/* XPM */
static char * AscensorCerrBaj_xpm[] = {
/* width height ncolors cpp [x_hot y_hot] */
"43 43 10 1 0 0",
/* colors */
" 	c #C8C8C8C8C8C8",
".	c #646464646464",
"X	s none	m none	c none",
"o	c #AFAFAFAFAFAF",
"O	c #E1E1E1E1E1E1",
"+	c #E0E0E0E0E0E0",
"@	c #969696969696",
"#	c #7D7D7D7D7D7D",
"$	c #B6B6B6B6AAAA",
"%	c #FFFF00000000",
/* pixels */
"                                          .",
" XXXXXXXXXXXXXXXXXXXXXXXXXXXXXXXXXXXXXXXXX.",
" XXXXXXXXXXXXXXXXXXXXXXXXXXXXXXXXXXXXXXXXX.",
" XXXXXXXXXXXXXXXXXXXXXXXXXXXXXXoooooXXXXXX.",
" XXXXXXXXXXXXXXXXXXXXXXooooooooooOOOOOXXXX.",
" XXXXXXXXXXXXXXXXXXXooooooooooOOOOOOOOXXXX.",
" XXXXXXXXXXXXXXXooooooooooOOOOOOOOOOOOXXXX.",
" XXXXXXXXXXXXoooooooooOOOOOOOOOOOOOO+OXXXX.",
" XXXXXXXXooooooooooOOOOOOOOOOOOOOOOOOOXXXX.",
" XXXXooooooooooOOOOOOOOOOOOOOOO+OOOOOOXXXX.",
" XXXX@@oooooOOOOOOOOOOOOOOOO####OOOOOOXXXX.",
" XXXX@@@@OOOOOOOOOOOOOOO####$$##OOOOOOXXXX.",
" XXXX@@@@OOOOOOOOOOOO###$$$$$$##OOOOOOXXXX.",
" XXXX@@@@OOOOOOOO####$$$$$$$$$##OOOOOOXXXX.",
" XXXX@@@@OOOOO###$$$#$$$$$$$$$##OOOOOOXXXX.",
" XXXX@@@@O####$$$$$$%%%$$$$$$$##OOOOOOXXXX.",
" XXXX@@@@O#$$$$$$$$$%%%$$$$$$$##OOOOOOXXXX.",
" XXXX@@@@O#$$$$$$$$$%%%$$$$$$$##OOOOOOXXXX.",
" XXXX@@@@O#$$$$$$$$$%%%$$$$$$$##OO%%OOXXXX.",
" XXXX@@@@O#$$$$$$$$$%%%$$$$$$$##OO%%OOXXXX.",
" XXXX@@@@O#$$$$$$$$$%%%$$$$$$$##OOOOOOXXXX.",
" XXXX@@@@O#$$$$$$$$$%%%$$$$$$$##OO%%OOXXXX.",
" XXXX@@@@O#$$$$$$$$$%%%$$$$$$$##OO%%OOXXXX.",
" XXXX@@@@O#$$$$$$$$$%%%$$$$$$$##OOOOOOXXXX.",
" XXXX@@@@O#$$$$$$$$$%%%$$$$$$$##OOOOOOXXXX.",
" XXXX@@@@O#$$$$$$$$$%%%$$$$$$$##OOOOOOXXXX.",
" XXXX@@@@O#$$$$$$$$$%%%$%%%%$$##OOOOOOXXXX.",
" XXXX@@@@O#$$$$$$$$$%%%%%%%$$$##OOOOOOXXXX.",
" XXXX@@@@O#$$$$$$%%%%%%%%%$$$$##OOOOOOXXXX.",
" XXXX@@@@O#$$$$$%%%%%%%%%$$$$$##OOOOOOXXXX.",
" XXXX@@@@O#$$$$$$%%%%%%%$$$$$$##OOOOOOXXXX.",
" XXXX@@@@O#$$$$$$$%%%%%%$$$$$$##OOOOOOXXXX.",
" XXXX@@@@O#$$$$$$$$$%%%$$$$$$$##OOOOOOXXXX.",
" XXXX@@@@O#$$$$$$$$$#%$$$$$$$$##++++++XXXX.",
" XXXX@@@@O#$$$$$$$$$#$$$$$$$####++++++XXXX.",
" XXXX@@@@O#$$$$$$$$$#$$$####XXX#+XXXXXXXXX.",
" XXXX@@@@O#$$$$$$$$$####XXXXXXXXXXXXXXXXXX.",
" XXXX@@@@O#$$$$$$####XXXXXXXXXXXXXXXXXXXXX.",
" XXXX@@@@O#$$$###XXXXXXXXXXXXXXXXXXXXXXXXX.",
" XXXX@@@@O####XXXXXXXXXXXXXXXXXXXXXXXXXXXX.",
" XXXXXXXXXXXXXXXXXXXXXXXXXXXXXXXXXXXXXXXXX.",
" XXXXXXXXXXXXXXXXXXXXXXXXXXXXXXXXXXXXXXXXX.",
"..........................................."};
