/* XPM */
static char* XpmIconoDetector[] = {
"62 61 8 1",
"  c #2D2929",
"! c #606060",
"# c #8A8686",
"$ c #9EA1A1",
"% c #BDB4AB",
"& c #DCD9D9",
"' c #F16057",
"( c #FFFFFF",
"(((((('''''''((((((((((((((((((((((((((((((((((((''''''(((((((",
"((((''''''''''(((((((((((((((((((((((((((((((((('''''''''(((((",
"((('''''((((((((((((((((((((((((((((((((((((((((''(''''''''(((",
"((''''((((((((((((((((((((((((((((((((((((((((((((((((('''''((",
"(''''(((((((((((((((((((((((((((((((((((((((((((((((((((('''((",
"('''(((((((''''((((((((((((((((((((((((((((((((((((((((((('''(",
"'''(((((''''''''(((((((((((((((((((((((((((((('''''''((((('''(",
"'''((((''''''(('((((((((((((((((((((((((((((((''''''''((((('''",
"'''(((''''(((((((((((((((((((((((((((((((((((((((((''''(((('''",
"''(((('''(((((((((((((((((((((((((((((((((((((((((((('''((((''",
"''((('''((((((((((((((((((((((((((((((((((((((((((((((''((((''",
"''((('''(((((((((((((((((&&&&&&&&&&((((((((((((((((((('''(((''",
"('(((''(((((((((((((((&&&&&&&%%&&&&&&%(((((((((((((((('''(((''",
"(((((''(((((((((((((&&&&$!!!####!!!$&&&%(((((((((((((((''(((((",
"(((((''(((((((((((&&&$!!%&&&&&&&&&&$!!%&%$(((((((((((((''(((((",
"(((((((((((((((((&&&!!%&&&&&&&&&&&&&&&!!%%$(((((((((((('((((((",
"((((((((((((((((&&#!%&&&&&&%%&&$%&&&&&&%!$%$((((((((((((((((((",
"(((((((((((((((&&##&&&&&%!   %$   !$&&&&&##%$(((((((((((((((((",
"((((((((((((((&&#$&&&&#  !!$$&&%$#  !#&&&&$#%$((((((((((((((((",
"(((((((((((((&&#$&&&%  !$&&$$$%#$&&%!  &&&&$$%#(((((((((((((((",
"((((((((((((&&$#&&&$  $&$!   $$   !%&$  $&&&##$$((((((((((((((",
"((((((((((((&&!&&&# !%%! !#$&&&&%#  !%%! $&&&!%#((((((((((((((",
"(((((((((((&&#%&&% !&$  $&$! ## !#&#  %&! &&&$!$$(((((((((((((",
"(((((((((((&%#&&&  %$ !%$ !$$&&$#  #%! $%  &&&!##(((((((((((((",
"((((((((((&&#&&&# $% !&! #$! ## !%# !&! %# !&&$!$$((((((((((((",
"((((((((((&&!&&& !&! %!!%!!##%%## !% !% !&! %%%!$#((((((((((((",
"((((((((((&%$&&$ %$ $$ %!####%&# ## % ## $$ #%%###((((((((((((",
"(((((((((&&#&&&! &! & $!#!#&&&&&&#!#!# &!!&!!%%#!$#(((((((((((",
"(((((((((&&!&&& !% #$ % ##&&&&&&&&##!$!#$ &! %$%!##(((((((((((",
"(((((((((&&!&&% $$ %!#!#!&&&&&&&&&&!#!$!$ $# #%$!##(((((((((((",
"(((((((((&&#&&# %# & $ $#&&&&&&&&&&## $ & #$ #$$!##(((((((((((",
"(((((((((&%#&&# %! & % #$&&&&&&&&&&## % & #% !$$!!#(((((((((((",
"(((((((((&%#&&# %! & % ##&&&&&&&&&&$# % & #% !$$!!!(((((((((((",
"(((((((((&&!&&$ $# & $ ##&&&&&&&&&&## $ & #% !$$!#!(((((((((((",
"(((((((((&&!&&$ $$ %!#!#$&&&&&&&&&&##!#!% $$ #$$!!#(((((((((((",
"(((((((((&&!&&& !& $$!$&%$&&&&&&&&#%$& ## &! #$$!##(((((((((((",
"(((((((((%&!%&&!!&!!&$%$#!#&&&&&&#!#$%$& !&  $$#!##(((((((((((",
"((((((((((%$$&&$ $$$&%!% ## #$##!## % %%#%% !$$!!#((((((((((((",
"((((((((((%&!&&& %&$!%! $! ######!!% !%!%&# #$$!#!((((((((((((",
"((((((((((%%!$&&&&%% !&! #$!    !## !&  %$%$#$#!##((((((((((((",
"(((((((((((%$!&&&! %$ !%#  #$%%$#! $%! $%  $$#!!!(((((((((((((",
"((((((((((($%!$&&$ !&$  #%#!!%%!!#&#  $&  ####!!!(((((((((((((",
"(((((((((((($%!%%%# !%%!  #%%&&&%#! !%%! !###!!!((((((((((((((",
"(((((((((((($$#!%%%#  #&$! $%'!%# !$&$  !###!!!!((((((((((((((",
"(((((((((((((#%##%%%$  !%&%&%''$%&&#!  ####!!!!(((((((((((((((",
"((((((((((((((#%#!%%%$!   !&$!!##!!  !####!!!!((((((((((((((((",
"(((((((((((((((#$#!$%%%$!  &&&%##  !#####!!!!(((((((((((((((((",
"((((((''((((((((!$$!#%$$$$#%&%$%#######!!!!!((((((((((''((((((",
"((((((''(((((((((!#$###$$$$#!!!!!####!!!!!!(((((((((((('((((((",
"(''(((''((((((((((!!#$#!##$$$$$$$#!!!!!!!!((((((((((((''(((''(",
"(''(((''((((((((((((!!#$$#!!!!!!!!!!!!!!((((((((((((((''(((''(",
"(''(((''((((((((((((((!!!!##$####!!!!!((((((((((((((((''(((''(",
"(''((('''((((((((((((((((!!!  !  !!(((((((((((((((((('''(((''(",
"(''(((('''(((((((((((((((((((((((((((((((((((((((((('''((((''(",
"('''(((('''''((((((((((((((((((((((((((((((((((((('''''((((''(",
"((''(((((''''''((((((((((((((((((((((((((((((((('''''((((('''(",
"(('''(((((((((((((((((((((((((((((((((((((((((((((((((((('''((",
"((('''((((((((((((((((((((((((((((((((((((((((((((((((((''''((",
"(((''''''((((((((((((((((((((((((((((((((((((((((((((('''''(((",
"((((('''''''((((((((((((((((((((((((((((((((((((((''''''''((((",
"((((((('''''(((((((((((((((((((((((((((((((((((((('''''((((((("};