/* XPM */
static char *dummy[]={
"30 30 228 2",
"#A c #202020",
"#z c #212121",
"#y c #2d2d2d",
"bH c #353535",
"bF c #373737",
"bG c #3a3a3a",
"#P c #3b2e27",
"#J c #3e352f",
"#T c #3f342e",
"bD c #3f3f3f",
"bA c #424242",
"#Q c #433229",
"bB c #434343",
"bw c #444444",
"bx c #454545",
"bt c #464646",
"bu c #474747",
"bj c #484848",
"bk c #494949",
"a8 c #4a4a4a",
"bE c #4b4b4b",
"a9 c #4c4c4c",
"aY c #4d4d4d",
"aN c #4e4e4e",
"bC c #4f4f4f",
"aE c #505050",
"by c #515151",
"au c #525252",
"#q c #535353",
"av c #545454",
"#G c #555555",
"ao c #565656",
"ag c #575757",
"bv c #585858",
"#9 c #595959",
"a7 c #5a5a5a",
"#W c #5b5b5b",
"aX c #5c5c5c",
"#L c #5d5d5d",
"#6 c #5e4a3f",
"#0 c #5e5a57",
"b. c #5e5e5e",
"#M c #5f5f5f",
"#C c #606060",
"aD c #616161",
"#t c #626262",
"#p c #636363",
"#h c #646464",
"aw c #656565",
"bs c #666666",
"#i c #676767",
".8 c #686868",
".9 c #696969",
"ah c #6a6a6a",
"ap c #6b6b6b",
".Z c #6c6c6c",
".Y c #6d6d6d",
"#V c #6e6e6e",
"aG c #6f5b47",
"#X c #6f6f6f",
"ay c #706151",
"aQ c #706a65",
".Q c #707070",
"#K c #717171",
".R c #727272",
"#Y c #737373",
"a4 c #744d25",
"#B c #747474",
"#N c #757575",
"#s c #767676",
"#u c #777777",
"#x c #787878",
"aP c #794817",
"#D c #797979",
"a3 c #7a4611",
"#g c #7a7a7a",
"ai c #7b7b7b",
"a2 c #7c440c",
"#v c #7c7c7c",
"#. c #7d7d7d",
"bb c #7e4103",
".7 c #7e7e7e",
"aT c #7f3f00",
"#w c #7f7f7f",
"aC c #804000",
"aK c #804305",
".0 c #808080",
"#O c #818181",
"bc c #826446",
"#j c #828282",
"aB c #835322",
".X c #838383",
"as c #845322",
"#1 c #845539",
".1 c #848484",
"## c #858585",
"#a c #868686",
".S c #878787",
"a1 c #885016",
"#d c #888888",
".2 c #898989",
"aL c #8a5017",
".H c #8a8a8a",
".W c #8b8b8b",
".T c #8c8c8c",
"aA c #8e7f72",
"#b c #8e8e8e",
".P c #8f8f8f",
"be c #905e2c",
"aJ c #906438",
".U c #909090",
"ar c #918b85",
".G c #919191",
"am c #928c86",
".6 c #929292",
"aH c #939393",
".I c #949494",
"ae c #95918f",
"aZ c #959595",
".O c #969696",
"aj c #97928f",
".J c #979797",
"#o c #989898",
"ba c #996a3c",
".N c #999999",
"bf c #9a6b3d",
".K c #9a9a9a",
"#5 c #9b603f",
".L c #9b9b9b",
"#2 c #9c613f",
"#E c #9c9c9c",
".M c #9d9d9d",
"aF c #9e7348",
"ax c #9e774e",
"#H c #9f7e6c",
"al c #9f8f86",
".F c #9f9f9f",
"bo c #a17850",
"#c c #a1a1a1",
".3 c #a2a2a2",
"#R c #a36441",
"ak c #a38d81",
"bd c #a58f79",
"#e c #a5a5a5",
"bp c #a68667",
".z c #a6a6a6",
".y c #a7a7a7",
"a5 c #a88562",
"aq c #a8a098",
".x c #a8a8a8",
".D c #a9a9a9",
"ad c #aa8b78",
".E c #aaaaaa",
".C c #ababab",
"aO c #ac8a6a",
".A c #acacac",
"a. c #ad8a77",
"#f c #adadad",
"aW c #aeaeae",
".s c #afafaf",
"aU c #b09172",
".B c #b0b0b0",
"#n c #b1b1b1",
".5 c #b2b2b2",
"af c #b3b3b3",
"#8 c #b4b4b4",
"#r c #b5b5b5",
"#U c #b6b6b6",
"#k c #b7b7b7",
"aR c #b8b8b8",
".q c #b9b9b9",
"aS c #baa794",
"az c #bababa",
"br c #bbb9b7",
"#Z c #bbbbbb",
".r c #bcbcbc",
"bq c #bfb6ac",
"bi c #bfbfbf",
".i c #c0c0c0",
"ac c #c1805c",
".h c #c1c1c1",
".# c #c2c2c2",
"#3 c #c37549",
"bn c #c3b2a1",
"aI c #c3bdb8",
"Qt c #c3c3c3",
"#S c #c47649",
"a# c #c47f58",
".a c #c4c4c4",
".4 c #c5c5c5",
"bg c #c6b6a5",
".g c #c6c6c6",
"bz c #c8c8c8",
".p c #c9c9c9",
"b# c #cabcaf",
"#l c #cacaca",
"ab c #cb7d50",
"#m c #cbcbcb",
".t c #cccccc",
".V c #cdcdcd",
"#4 c #ce7b4b",
".f c #cecece",
"bm c #cfc5bc",
".j c #cfcfcf",
"aa c #d07c4c",
"at c #d0c8bf",
".b c #d0d0d0",
"a0 c #d1c9c2",
".u c #d2d2d2",
"#I c #d3b6a6",
"an c #d3d1cf",
"#7 c #d3d3d3",
"#F c #d4d4d4",
"aM c #d5cfc9",
".w c #d7d7d7",
"bh c #d8d6d4",
".v c #d8d8d8",
"bl c #dbd9d7",
"a6 c #dbd9d8",
"aV c #dcdcdc",
".c c #dedede",
".d c #e2e2e2",
".e c #e3e3e3",
".o c #efefef",
".k c #f5f5f5",
".n c #fafafa",
".l c #fbfbfb",
".m c #fcfcfc",
"Qt.#.a.b.c.d.e.d.d.e.d.d.e.d.d.e.d.d.e.d.d.e.d.d.e.c.f.g.#.h",
"Qt.i.j.k.l.l.m.l.l.m.l.l.m.l.l.m.l.l.m.l.l.m.l.l.m.n.o.p.q.#",
".r.s.t.u.v.w.w.w.w.w.w.w.w.w.w.w.w.w.w.w.w.w.w.w.v.w.bQt.x.q",
".y.z.A.B.C.D.E.D.D.E.D.D.E.D.D.E.D.D.E.D.D.E.D.D.E.E.C.x.F.G",
".H.I.J.K.K.K.L.K.K.L.K.K.L.K.K.L.K.K.L.K.K.L.F.M.L.K.N.O.P.Q",
".R.S.T.U.U.U.U.U.U.U.U.U.U.U.U.U.U.U.O.F.r.#.v.V.J.U.U.W.X.Y",
".Z.0.1.H.2.2.H.2.2.H.2.2.H.2.2.H.W.G.3.w.4.5.6.G.L.2.2.1.7.8",
".9#..0##.1.1#a.H.T#b#c#c.W#d.I.M#e#f.J.w#c.z.G.1#a.1.1.0#g#h",
"#i#g.7#j.X.X#d.L#k.j.a#l#m#n.F#o#p#q.X.v#r#f#n.T.X.X#j#.#s#t",
"#h#u#v#w#w#w#j.O#b.O.O#b.w#x#y#z#A#A#v.w#w.D.C.z#j#w#w#g#B#C",
"#t#B#D#v#v.7#E.C.B#f.C.6#F#G#A#z#A#A#H#I#J.8.r.B#.#v#v#x#K#L",
"#M#K#N#D#D#O#o#o#f#f#b#N#F#G#z#z#P#Q#R#S#T#B#F#U#D#D#D#N#V#W",
"#L#X#Y#s#u#w#o#N#o#Z##.Y#F#0#1#2#3#4#5#6#B.I#7#8#u#u#s.R.Z#9",
"#W.Z.Q#Y#B#..J.R#O.c.C#D.Ba.a#aaabacadae.6.I#7af#B#B#B#X.9ag",
"#9ah#V#K.Rai.J#Y#j.c.A#N#E.Lajakal.I.I.I.Iamanaf.R.R#K.Y#i#G",
"ao#iap#V#X#x.J.R#O.caq#N.L.N.6.P.F.J.I.6arasat#n#X#X#Vah#hau",
"avaw.9.Z.Z#s.O.R#O.caxay.L.N.1.2#Zaz#oaAaBaCat.B.Z.Z.Z#iaDaE",
"au#p#iahah#B.O#Y#j.caFaGaH.D#j#o#ZaIaJaKaCaLaM.Bahahahaw#MaN",
"aE#C#h#i.8.R.O.R#O.caOaPaQ#D#Y.7aRaSaCaTaTaUaVaW.8.8.8#paXaY",
"aN#LaD#haw#XaZ.R#O.ca0a1a2a3a4.7aRaSaCaTa5a6aV#fawaw#h#Ca7a8",
"a9a7b.aD#t.ZaZ#Y#j.c.cb#baaCbbbcbdbebfbgbh.bbi.S#t#taD#Lagbj",
"bkag#Wb.b..9aZ.R#O.caVaVblbmbnbobpbqbr.L.Sapbsb.b.b.b.#W#Gbt",
"bu#G#9#WaX#p#E.R#O.caVaV.c.g.C.y#B#i#paXaXaXaXaXaXaX#Wbv#qbw",
"bxby#G#9#9#9.Y#o#jbz.D.T.8#t#9#9#9#9#9#9#9#9#9#9#9#9#9aoaEbA",
"bBbC#qaoagagag.8###Cagagagagagagagagagagagagagagagagag#qaYbD",
"aNbEaEavavavavavavavavavavavavavavavavavavavavavavav#qbCbkbF",
"#XbwbEbCbybybybybybybybybybybybybybybybybybybybybyaEaNbjbAav",
".EbGbta9bCbCaEbCbCaEbCbCaEbCbCaEbCbCaEbCbCaEbCbCaEaNbkbBbH.P",
".4#bbDbuaYbCbCbCbCbCbCbCbCbCbCbCbCbCbCbCbCbCbCbCbCa9bwbH.0Qt",
".4.aaW#K#9#qauauauauauauauauauauauauauauauauauauauav.9.EQt.4"};
