/* XPM */
static char *dummy[]={
"30 30 493 2",
"aq c #202020",
"ap c #212121",
"ao c #2d2d2d",
"a5 c #3b2e27",
"aP c #3e352f",
"a9 c #3f342e",
"a6 c #433229",
"#5 c #535353",
"aM c #555555",
"bs c #5e4a3f",
"bm c #5e5a57",
"#4 c #636363",
"fF c #640505",
"fu c #680101",
"aQ c #686868",
"bl c #6d6d6d",
"cU c #6f5b47",
"cD c #706151",
"dc c #706a65",
"bF c #727272",
"b0 c #737373",
"dz c #744d25",
"b. c #747474",
"e2 c #750000",
"fy c #750909",
"a4 c #757575",
"an c #787878",
"eP c #790000",
"db c #794817",
"bI c #797979",
"fM c #7a2f2f",
"dy c #7a4611",
"fN c #7b2f2f",
"fL c #7b3030",
"fO c #7b3737",
"eA c #7c0000",
"fl c #7c0202",
"f# c #7c2121",
"dx c #7c440c",
"ar c #7c7c7c",
"fK c #7e3939",
"dM c #7e4103",
"dd c #7e7e7e",
"ek c #7f0000",
"dg c #7f3f00",
"as c #7f7f7f",
"fE c #800c0c",
"cJ c #804000",
"cY c #804305",
"fj c #814747",
"bG c #818181",
"dN c #826446",
"b1 c #828282",
"dZ c #830000",
"cI c #835322",
"fP c #835353",
"#6 c #838383",
"cp c #845322",
"bn c #845539",
"cE c #848484",
"fa c #851f1f",
"bk c #858585",
"dG c #860000",
"ft c #870303",
"fi c #880000",
"dw c #885016",
"dn c #890000",
"fJ c #895151",
"cF c #898989",
"fz c #8a1010",
"cZ c #8a5017",
"fD c #8c1111",
"c5 c #8e0000",
"cH c #8e7f72",
"am c #8e8e8e",
"fm c #8f0505",
"cl c #8f8f8f",
"cO c #900000",
"fs c #900606",
"fA c #901212",
"dP c #905e2c",
"cX c #906438",
"ak c #908b8b",
"eQ c #910000",
"fB c #911212",
"co c #918b85",
"fb c #920101",
"fC c #921212",
"b8 c #928c86",
"aK c #929292",
"cV c #939393",
"cv c #940000",
"bt c #949494",
"f. c #950000",
"fh c #950202",
"bQ c #95918f",
"eB c #960000",
"al c #969696",
"fn c #970a0a",
"b5 c #97928f",
"cn c #979797",
"fr c #980a0a",
"#3 c #989898",
"cc c #990000",
"dL c #996a3c",
"fG c #998080",
"ck c #999999",
"fc c #9a0303",
"fp c #9a0a0a",
"fo c #9a0b0b",
"dQ c #9a6b3d",
"bV c #9b0000",
"br c #9b603f",
"#J c #9b9393",
"b4 c #9b9b9b",
"e3 c #9c0000",
"fq c #9c0a0a",
"bo c #9c613f",
"fx c #9c7474",
"b3 c #9c9c9c",
"e1 c #9d0000",
"bz c #9e0000",
"fg c #9e0404",
"cT c #9e7348",
"cC c #9e774e",
"aN c #9f7e6c",
"#r c #9f8282",
"#q c #9f8484",
"b7 c #9f8f86",
"cm c #9f9f9f",
"d0 c #a00000",
"e9 c #a00303",
"fd c #a10404",
"e. c #a17850",
"d6 c #a18989",
"#K c #a1a1a1",
"du c #a28989",
"bd c #a30000",
"e4 c #a30202",
"a7 c #a36441",
"d# c #a38989",
"b6 c #a38d81",
"dH c #a40000",
"ff c #a40505",
"cS c #a48989",
"eR c #a50000",
"fe c #a50505",
"ci c #a58989",
"dO c #a58f79",
"#2 c #a59898",
"aX c #a60000",
"bZ c #a68989",
"bi c #a78989",
"ez c #a80000",
"e0 c #a80303",
"e8 c #a80404",
"dA c #a88562",
"cj c #a8a098",
"do c #a90000",
"e6 c #a90404",
"at c #a9a9a9",
"aA c #aa0000",
"eS c #aa0303",
"e5 c #aa0404",
"e7 c #aa0505",
"fk c #aa8383",
"a3 c #aa8888",
"bP c #aa8b78",
"eC c #ab0000",
"au c #ababab",
"ej c #ac0000",
"e# c #ac8263",
"eH c #ac8585",
"da c #ac8a6a",
"fv c #aca2a2",
"b2 c #acacac",
"c6 c #ad0000",
"eO c #ad0303",
"bK c #ad8a77",
"#9 c #adadad",
"eU c #ae0404",
"ad c #af0000",
"eZ c #af0404",
"eT c #af0505",
"fQ c #afa5a5",
"eY c #b00505",
"dh c #b09172",
"bJ c #b0b0b0",
"dY c #b10000",
"#P c #b10202",
"eD c #b10303",
"cP c #b20000",
"ey c #b20303",
"eX c #b21414",
"fI c #b2a5a5",
"#u c #b30505",
"#e c #b30d0d",
"ep c #b38888",
"d1 c #b40000",
"eN c #b40404",
".1 c #b43636",
"dF c #b50000",
"eE c #b50505",
"eV c #b51f1f",
"aJ c #b5abab",
"#p c #b5afaf",
"#8 c #b5b5b5",
"cw c #b60000",
"el c #b60303",
"eF c #b60505",
"ei c #b70303",
"eM c #b81212",
"#L c #b89292",
"de c #b8b8b8",
"ex c #b90404",
"dm c #ba0000",
"d2 c #ba0303",
"en c #ba0404",
"em c #ba0505",
"eL c #ba1d1d",
"df c #baa794",
"cG c #bababa",
"cd c #bb0000",
"dX c #bb0303",
"ew c #bb0505",
"bj c #bbbbbb",
"ev c #bc1010",
"eu c #bc1818",
"aR c #bcbcbc",
"eo c #bd0f0f",
"eG c #bd2424",
".Q c #bd7070",
"dp c #be0000",
"eh c #be0404",
"eW c #be5151",
"bW c #bf0000",
"d4 c #bf0404",
"d3 c #bf0505",
"c4 c #c00000",
"dE c #c00303",
"eg c #c00505",
"ef c #c01212",
"et c #c02d2d",
"#m c #c08181",
"bO c #c1805c",
".F c #c1b3b3",
".i c #c1c1c1",
".# c #c2c1c1",
".u c #c2c2c2",
"bA c #c30000",
"dW c #c30404",
"d5 c #c31515",
"ee c #c31a1a",
"bp c #c37549",
"d9 c #c3b2a1",
"cW c #c3bdb8",
".j c #c3c2c2",
"Qt c #c3c3c3",
"cN c #c40000",
"dq c #c40303",
"dI c #c40505",
"a8 c #c47649",
"bL c #c47f58",
"fH c #c4c3c3",
"dl c #c50303",
"eK c #c55959",
"aI c #c59191",
"fw c #c5c4c4",
"#o c #c5c5c5",
"#V c #c67070",
"#W c #c6a8a8",
"dR c #c6b6a5",
"be c #c70000",
"dD c #c70404",
".h c #c7c0bf",
"#Y c #c7c1c1",
"ds c #c80404",
"dJ c #c81515",
"ed c #c84b4b",
".t c #c8afaf",
".a c #c8c0c0",
"cu c #c90000",
"c7 c #c90303",
"dr c #c90505",
".v c #c9aaaa",
"#I c #ca8d8d",
"dK c #cabcaf",
"c3 c #cb0303",
"dt c #cb1515",
"bN c #cb7d50",
"ea c #cbaba2",
"aY c #cc0000",
"dV c #cc4747",
"ec c #cc6e6e",
"#Z c #ccc8c8",
"cx c #cd0000",
"dk c #cd0404",
"eJ c #cd8888",
"cb c #ce0000",
"c9 c #ce0404",
"bq c #ce7b4b",
"es c #ce8282",
"c8 c #cf0505",
"er c #cf8b8b",
".k c #cfa3a3",
"d8 c #cfc5bc",
"cM c #d00303",
"bM c #d07c4c",
"cq c #d0c8bf",
"aB c #d10000",
"d. c #d11515",
"dv c #d1c9c2",
"bU c #d20000",
"cy c #d30303",
"c2 c #d30404",
"#1 c #d38d8d",
"eb c #d3a3a1",
"aO c #d3b6a6",
"b9 c #d3d1cf",
"bu c #d3d3d3",
"cQ c #d40505",
"#H c #d47373",
"dC c #d48787",
"aL c #d4d4d4",
"ct c #d50303",
"aj c #d55959",
"a. c #d58b8b",
"c0 c #d5cfc9",
"ae c #d60000",
".G c #d66161",
"eq c #d6b8b8",
"by c #d70000",
"cL c #d70404",
"cR c #d71515",
"dj c #d78787",
"dU c #d7a9a9",
"eI c #d7bbbb",
"#n c #d7d7d7",
"ce c #d80303",
"cA c #d80404",
"#7 c #d8d8d8",
"ca c #d90303",
"cz c #d90505",
"av c #d97474",
"cB c #da1515",
"c1 c #da8888",
"dS c #dad4d2",
"#Q c #db0000",
"cK c #db8787",
".g c #dbb2b2",
"dT c #dbc6c6",
"## c #dbd4d4",
"d7 c #dbd9d7",
"dB c #dbd9d8",
"bc c #dc0000",
"cs c #dc0404",
".R c #dc2d2d",
"di c #dcdcdc",
"cg c #dd0404",
"aS c #dd8484",
"cr c #dd8787",
"#X c #ddc0c0",
"#v c #de0101",
"bT c #de0303",
"cf c #de0505",
"bH c #dedede",
"ch c #df1515",
"aW c #e00000",
"#f c #e00505",
"c. c #e08888",
"#a c #e0b7b7",
".2 c #e10f0f",
".E c #e16160",
"bR c #e18787",
"bB c #e20303",
"c# c #e20404",
".b c #e2bab9",
"bx c #e30303",
"bX c #e30505",
"bv c #e38787",
"az c #e50000",
"bY c #e51515",
"#0 c #e5b1b1",
"aZ c #e60000",
"bS c #e60404",
"b# c #e68888",
"bb c #e70303",
"bD c #e70404",
"bC c #e80505",
"aH c #e85252",
"#. c #e89999",
"bE c #e91515",
".f c #eabbba",
"aC c #eb0000",
"bw c #eb0404",
".c c #ebbebc",
"ac c #ec0000",
"bg c #ec0404",
".9 c #ec8686",
"aV c #ed0303",
"bf c #ed0505",
"bh c #ed1515",
".d c #eebcbb",
".P c #ef4444",
".s c #ef8a89",
".e c #efbdbc",
"af c #f00000",
"#O c #f00202",
".0 c #f02828",
"aD c #f10303",
"ba c #f10404",
"a0 c #f10505",
".w c #f16564",
"ay c #f20303",
"a1 c #f20505",
"#t c #f20606",
"#d c #f31010",
"a2 c #f31414",
"#D c #f34b4b",
"#E c #f34c4c",
"#G c #f44141",
"aU c #f50404",
"#s c #f53939",
"#R c #f60000",
"aF c #f60404",
"aG c #f60808",
"#F c #f62e2e",
"ag c #f70303",
"aE c #f70505",
".l c #f79896",
"ab c #f80303",
"aT c #f80606",
".8 c #f83c3c",
"#w c #f90202",
"ax c #fa0404",
"#N c #fb0404",
"#g c #fb0707",
"#B c #fb1919",
".Z c #fb2b2b",
".X c #fb3c3c",
"ai c #fc0404",
"#C c #fc1a1a",
"#M c #fc2020",
".S c #fc2b2b",
".Y c #fc3737",
".H c #fc4c4b",
"#S c #fd0303",
"#x c #fd0404",
"ah c #fd0505",
"#z c #fd0606",
"aw c #fd0808",
"#h c #fd0909",
"#j c #fd0a0a",
"#k c #fd0e0e",
".3 c #fd1111",
"#A c #fd1212",
"#c c #fd1313",
"a# c #fd1919",
"#l c #fd1c1c",
".7 c #fd2525",
"#b c #fd2727",
".T c #fd2c2c",
".V c #fd2d2d",
".O c #fd4a4a",
".L c #fd4c4c",
".K c #fd4d4d",
".N c #fd4e4e",
".I c #fd4f4f",
".r c #fdaaa8",
".q c #fdbdbc",
".n c #fdc3c1",
".o c #fdc4c3",
"aa c #fe0404",
".W c #fe2f2f",
".M c #fe4c4c",
".D c #fe7271",
"#T c #ff0505",
"#y c #ff0606",
"#i c #ff0a0a",
"#U c #ff0e0e",
".4 c #ff1313",
".5 c #ff1515",
".6 c #ff1616",
".U c #ff2d2d",
".J c #ff5050",
".x c #ff7c7c",
".C c #ff7e7d",
".y c #ff8281",
".B c #ff8585",
".A c #ff8786",
".z c #ff8787",
".m c #ffb8b6",
".p c #ffc5c4",
"Qt.#.a.b.c.d.e.d.d.e.d.d.e.d.d.e.d.d.e.d.d.e.d.d.e.f.g.h.#.i",
".j.k.l.m.n.o.p.o.o.p.o.o.p.o.o.p.o.o.p.o.o.p.o.o.p.q.r.s.t.u",
".v.w.x.y.z.A.A.A.A.A.A.A.A.A.A.A.A.A.A.A.A.A.A.A.A.B.C.D.E.F",
".G.H.I.J.K.L.M.L.L.M.L.L.M.L.L.M.L.L.M.L.L.M.L.L.M.N.K.O.P.Q",
".R.S.T.U.V.V.U.V.V.U.V.V.U.V.V.U.V.V.U.V.V.W.X.Y.U.V.V.Z.0.1",
".2.3.4.5.6.6.6.6.6.6.6.6.6.6.6.6.6.6.7.8.9#.###a#b.6.6#c#d#e",
"#f#g#h#i#j#j#i#j#j#i#j#j#i#j#j#i#k#l#m#n#o#p#q#r#s#j#j#h#t#u",
"#v#w#x#y#z#z#y#A#B#C#D#E#A#k#F#G#H#I#J#n#K#L#M#z#y#z#z#N#O#P",
"#Q#R#S#T#T#T#U#V#W#X#Y#Z#0#1#2#3#4#5#6#7#8#9a.a##T#Taaabacad",
"aeafagahaiai#jajakalalam#nanaoapaqaqar#nasatauavawaiaxayazaA",
"aBaCaDaEaFaGaHaIaJ#9auaKaLaMaqapaqaqaNaOaPaQaRaSaTaFaUaVaWaX",
"aYaZaVa0a1a2a3#3#9#9ama4aLaMapapa5a6a7a8a9b.aLb#a1a1babbbcbd",
"beaWbbbfbgbhbia4#3bjbkblaLbmbnbobpbqbrbsb.btbubvbfbgbwbxbybz",
"bA#QbBbCbDbEbibFbGbHaubIbJbKbLbMbNbObPbQaKbtbubRbCbDbSbTbUbV",
"bWbybTbXbXbYbZb0b1bHb2a4b3b4b5b6b7btbtbtbtb8b9c.bXbXc#cacbcc",
"cdaBcecfcgchcibFbGbHcja4b4ckaKclcmcnbtaKcocpcqcrcfcgcsctcucv",
"cwcxcyczcAcBcibFbGbHcCcDb4ckcEcFbjcG#3cHcIcJcqcKczcAcLcMcNcO",
"cPcucMcQcQcRcSb0b1bHcTcUcVatb1#3bjcWcXcYcJcZc0c1cQcQc2c3c4c5",
"c6bAc7c8c9d.d#bFbGbHdadbdcbIb0dddedfcJdgdgdhdidjc8c9dkdldmdn",
"dodpdqdrdsdtdubFbGbHdvdwdxdydzdddedfcJdgdAdBdidCdrdsdDdEdFdG",
"dHdmdEdIdIdJdub0b1bHbHdKdLcJdMdNdOdPdQdRdSdTdUdVdIdIdWdXdYdZ",
"d0d1d2d3d4d5d6bFbGbHdidid7d8d9e.e#eaebecedeeefd4egd4eheiejek",
"bVadelemeneoepbFbGbHdidibHeqereseteuevenenewenenewenexeyezeA",
"eBeCeDeEeFeFeGeHb1eIeJeKeLeMeFeFeFeFeFeFeFeFeFeFeFeFeNeObdeP",
"eQeReSeTeUeUeTeVeWeXeUeUeTeUeUeTeUeUeTeUeUeTeUeUeYeZeUe0e1e2",
"dGe3e4e5e6e6e7e6e6e7e6e6e7e6e6e7e6e6e7e6e6e7e6e6e7e6e8e9f.f#",
"fafbfcfdfefefefefefefefefefefefefefefefefefefefefefffgfhfifj",
"fkflfmfnfofpfqfpfpfqfpfpfqfpfpfqfpfpfqfpfpfqfpfpfqfrfsftfufv",
"fwfxfyfzfAfBfCfBfBfCfBfBfCfBfBfCfBfBfCfBfBfCfBfBfCfDfEfFfGQt",
"#ofHfIfJfKfLfMfMfMfMfMfMfMfMfMfMfMfMfMfMfMfMfMfMfNfOfPfQQt#o"};
