/* XPM */
static char *dummy[]={
"30 30 565 2",
"eR c #0404fb",
"ds c #07c8c8",
"dt c #09cccb",
"eS c #0c0cfb",
"e9 c #0f0ffc",
"dr c #0f9595",
"ey c #1616ec",
"e4 c #1919dd",
"c7 c #1f2c2b",
"af c #212120",
"e5 c #2222cb",
"c8 c #22706f",
"ag c #252321",
"cJ c #252525",
"dS c #27e2e1",
"du c #289292",
"#V c #2a2a2a",
"fq c #2d2de1",
"dT c #30dbdb",
"cI c #353535",
"d. c #354949",
"e8 c #3939f1",
"eM c #3a3add",
"#W c #3c3c3a",
"dq c #3d6e6e",
"c9 c #3edada",
"#U c #3f3f3e",
"c6 c #444443",
"fp c #4444f2",
"cK c #464c4b",
"er c #4a4ac8",
"ah c #4d3d33",
"aj c #4f433c",
"eQ c #5656e8",
"ae c #575756",
"dU c #5bbbbb",
"fr c #5c5cde",
"ex c #6060b9",
"dR c #62b8b8",
"e6 c #65658c",
"cH c #666666",
"aC c #674531",
"aB c #675f5a",
"fs c #6765e8",
"aG c #6d6965",
"eN c #71718a",
"e3 c #7171ec",
"az c #727272",
"cB c #75522e",
"cC c #75695c",
"eh c #7575a7",
"dv c #757a79",
"bf c #797978",
"aU c #797979",
"cA c #7b4c1c",
"ca c #7c766f",
"ea c #7f7f7e",
"dP c #7f7f7f",
"ez c #7f7fea",
"#T c #808080",
"cc c #818180",
"f. c #8181e9",
"eP c #828281",
"fo c #8383e9",
"bM c #858585",
"bK c #878786",
"bi c #878787",
"cM c #878988",
"aF c #885c42",
"cl c #888480",
"dV c #889696",
"eu c #898988",
"ef c #8a9695",
"bQ c #8b6137",
"c2 c #8b6339",
"ec c #8c8c98",
"ed c #8d8d8d",
"es c #8d8d8e",
"bP c #8e8174",
"ax c #8e8e8e",
"gB c #8f4e16",
"aD c #8f5a3b",
"eO c #8f8f8e",
"gM c #904f19",
"bo c #918a82",
"ei c #9191dc",
"a3 c #929291",
"c1 c #936331",
"c# c #936b42",
"bJ c #937557",
"dW c #939392",
"bn c #939393",
"eg c #939c9b",
"a2 c #948b85",
"bm c #949493",
"cb c #949494",
"ck c #95877c",
"aX c #959594",
"et c #959595",
"do c #96908b",
"bk c #96908d",
"ee c #969696",
"#Y c #979795",
"fl c #98897b",
"eK c #98897c",
"#B c #98918a",
"dQ c #989b9b",
"e# c #998a7c",
"bL c #999999",
"dO c #9a8b7e",
"bl c #9a9591",
"bj c #9a9a99",
"gV c #9b6234",
"aW c #9b9b9b",
"gU c #9d5b25",
"gW c #9d7957",
"bh c #9d9b98",
"cG c #9d9d9d",
"gT c #9e5f2a",
"#R c #9e9e9d",
"aE c #9f6340",
"ac c #9f9f9e",
"gr c #a07f5e",
"ak c #a0a0a0",
"f8 c #a16a39",
"ew c #a1a1ae",
"cF c #a2a2a2",
"gi c #a37449",
"fQ c #a46a39",
"fz c #a46c39",
"gS c #a4754b",
"fE c #a49080",
"#Q c #a4a4a4",
"fd c #a56c3a",
"eX c #a76d3a",
"eE c #a76e3a",
"c3 c #a7a19b",
"aY c #a88d7e",
"cY c #a8927f",
"dI c #a89686",
"cE c #a8a6a4",
"gF c #a95f21",
"el c #a96e3b",
"b9 c #a9937f",
"bO c #a9a8a6",
"bH c #aa9380",
"aT c #aa9480",
"be c #aa9580",
"c4 c #aaaaaa",
"d1 c #ab6f3b",
"dB c #ab703b",
"bR c #ab8a69",
"aw c #ab9581",
"gE c #ac7c4f",
"cn c #acabaa",
"ab c #acacab",
"de c #ad713c",
"fZ c #ad9a89",
"#Z c #adaba9",
"ay c #adadad",
"gj c #ae6528",
"cS c #af723c",
"cN c #afadac",
"ct c #b0733c",
"#A c #b09c87",
"gN c #b09e86",
"bp c #b09e8b",
"#D c #b0afae",
"bN c #b0b0b0",
"gt c #b1611c",
"b4 c #b1743c",
"a1 c #b1856c",
"di c #b19780",
"aA c #b1b1b1",
"c0 c #b29678",
"bB c #b3753c",
"cz c #b3977a",
"cf c #b39d88",
"aH c #b3b3b2",
"gL c #b46623",
"b. c #b4763c",
"aO c #b4773d",
"#P c #b4a08b",
"ad c #b4b4b3",
"a4 c #b4b4b4",
"eT c #b4b4e3",
"ft c #b5aad0",
"ev c #b5b5b5",
"e7 c #b5b5b8",
"#6 c #b6783e",
"bX c #b6b5b3",
"gq c #b7621b",
"aq c #b7783d",
"cD c #b7b7b7",
"dp c #b7b8b7",
"#J c #b8793e",
"cd c #b8b8b7",
"cg c #b9aa9b",
"#n c #ba7b3f",
"ce c #bab3ab",
"c5 c #babab9",
"f9 c #bb641b",
"gA c #bb661e",
"#X c #bbbab9",
"eq c #bbbbd0",
"cL c #bbc3c3",
"cj c #bc9d81",
"aa c #bcb2a8",
"dw c #bcbcbc",
"gR c #bda68b",
"#C c #bdbdbd",
"eL c #bdbdd1",
"gs c #be9b76",
"gC c #beb7a4",
"dX c #bebebe",
"#S c #bfbfbf",
"aZ c #c17f5a",
"ai c #c1947a",
"gX c #c1b9a7",
"#g c #c1c0bd",
"#h c #c2b19f",
"gG c #c3702a",
"gK c #c3712a",
"a0 c #c3805a",
"bI c #c3c1be",
"aV c #c3c3c3",
"c. c #c4c1bd",
"fR c #c56a1d",
".7 c #c58f59",
"bg c #c5c5c4",
"eb c #c5c5c8",
"gh c #c66b1e",
"fA c #c76b1d",
"gu c #c76e22",
"cm c #c7c7c6",
"gH c #c8742c",
"bY c #c8a88c",
"cy c #c8c8c7",
"dj c #c8c8c8",
"gI c #c9752c",
"fe c #ca6d1e",
"gp c #ca6d20",
"gJ c #ca752c",
".T c #caa47a",
"ch c #cbc1b7",
"eY c #cc6e1e",
"e2 c #ccccce",
"f7 c #cd6f1f",
"#z c #cda67e",
"eF c #ce701f",
"fI c #ceb2af",
"fm c #cececd",
"#f c #cfc4b8",
"bW c #cfc8c1",
"fF c #cfcfcf",
"em c #d07120",
"d2 c #d17220",
"gz c #d17526",
"gv c #d17527",
"fn c #d2d2de",
"g. c #d37220",
"gk c #d37321",
"dC c #d37420",
"#i c #d3af8a",
"gg c #d57422",
"gw c #d57728",
"gx c #d57827",
"fJ c #d59a79",
"dJ c #d5bca6",
"df c #d67521",
"go c #d67523",
"gy c #d67827",
"ci c #d6c4b2",
"eD c #d77622",
"f0 c #d7b495",
"fS c #d87521",
"cT c #d87622",
"#E c #d8b188",
"dn c #d8bca3",
"gQ c #d8d4c2",
"gY c #d8d5c3",
"cZ c #d8d5d1",
"a# c #d9a979",
"gO c #d9d5c3",
"f# c #d9d8dc",
"f6 c #da7723",
"ek c #da7822",
"bV c #daa16f",
"gD c #dad4c1",
"fB c #db7721",
"cu c #db7822",
"g# c #db7823",
"co c #dbae86",
"fH c #dbcac1",
"dm c #dbcec1",
".# c #dbd7c1",
".v c #dbd7c2",
"fP c #dc7823",
"gl c #dc7824",
"ff c #dc7922",
"bZ c #dca778",
".u c #dccdaf",
".H c #dcd5be",
"dk c #dcdcdc",
"b5 c #dd7923",
"d0 c #dd7a22",
".j c #ddd8c2",
"Qt c #ddd9c3",
"gP c #dddac5",
"dl c #dddcdb",
"fG c #dddddd",
"gn c #de7924",
"fy c #de7a23",
"dA c #de7b23",
"fY c #de914f",
"fu c #debfa8",
".i c #ded8c2",
"eZ c #df7a22",
"fT c #df7a24",
"gf c #df7a25",
"bC c #df7b23",
".w c #dfc098",
"gm c #e07a25",
"fc c #e07b24",
"dd c #e07c24",
".a c #e0d3b8",
"gb c #e17b25",
"b# c #e17c24",
"ge c #e17f2b",
"gd c #e18234",
"#w c #e1bf9d",
"ga c #e27b25",
"eG c #e27c23",
"eW c #e27c24",
"gc c #e27c26",
"f5 c #e27d25",
"fg c #e37d25",
"fV c #e37e25",
"fX c #e37e27",
"f3 c #e38332",
"f2 c #e38c42",
"fK c #e3985c",
"aP c #e47d24",
"fU c #e47d26",
"cR c #e47e24",
"eC c #e47e25",
"fW c #e47e26",
"f1 c #e4a874",
"#0 c #e4af7a",
"fv c #e4b287",
".k c #e4bb88",
"fO c #e57e26",
"cs c #e57f25",
"f4 c #e5812c",
"d3 c #e67f24",
"ar c #e67f25",
"fx c #e67f26",
"fL c #e68939",
".I c #e69142",
"bv c #e6bf9b",
".h c #e6c493",
"b3 c #e77f25",
"fC c #e77f26",
"fN c #e78129",
"fM c #e7832d",
"al c #e7bd93",
"fi c #e88026",
"fb c #e88027",
"#7 c #e88125",
"dZ c #e88127",
"fD c #e88937",
"fa c #e8af7d",
"dD c #e98025",
"fh c #e98027",
"eH c #e98126",
"fj c #e98127",
"#K c #e98226",
"fw c #e99043",
".G c #e99340",
"dH c #e99852",
"cO c #e9a86f",
"eU c #e9b07f",
"dg c #ea8125",
"e0 c #ea8127",
"bA c #ea8226",
"fk c #ea8c3c",
"#e c #eaa660",
"#u c #eaac6c",
"eA c #eab180",
"dK c #eaba8f",
"en c #eb8127",
"a9 c #eb8226",
"dz c #eb8227",
"#o c #eb8326",
".U c #eb8527",
"d# c #ebb280",
"eV c #ec8328",
".8 c #ec8426",
"e1 c #ec8d3c",
"cU c #ed8226",
"d4 c #ed8227",
"eB c #ed8328",
"dc c #ed8427",
"dY c #edb381",
"#v c #edb77f",
".2 c #edbb86",
"bS c #edbf96",
"aI c #edc096",
"aN c #ee8327",
"eI c #ee8428",
"#y c #eeac68",
"dx c #eeb481",
"bw c #eeb581",
"bq c #eec097",
".b c #eec485",
"ej c #ef8428",
"eJ c #ef8f3d",
"d8 c #ef9241",
"dL c #efa15d",
"#x c #efb880",
"cQ c #f08527",
"dE c #f08528",
"eo c #f08529",
"d9 c #f08d38",
"ep c #f0903e",
".3 c #f0b87e",
".g c #f0c27d",
"cv c #f18526",
"d6 c #f18529",
"ap c #f18628",
"d7 c #f1862a",
".c c #f1c77f",
"b6 c #f28527",
"#5 c #f28628",
"d5 c #f28629",
"cr c #f28728",
"e. c #f2913e",
"dM c #f29645",
"cV c #f38729",
".d c #f3c77b",
"bD c #f48728",
"#I c #f48729",
"b2 c #f48829",
"dF c #f4882a",
".t c #f4a74e",
"bu c #f4b378",
".f c #f4c87a",
".e c #f4c87b",
"dy c #f5882a",
"dG c #f5892a",
"dh c #f58c31",
"dN c #f59a4b",
"#m c #f68928",
"bz c #f68929",
"db c #f6892a",
"cw c #f78a29",
".S c #f78e2b",
"ba c #f88928",
"a8 c #f88a2a",
"da c #f88a2b",
".6 c #f88b29",
"cX c #f88f33",
"bU c #f89946",
"aQ c #f98a29",
"cW c #f98b2b",
"bt c #f9a152",
".1 c #f9b063",
"cP c #fa8b2a",
"#O c #fa9f44",
"as c #fb8b29",
"bE c #fb8b2a",
"aM c #fb8c2b",
"cx c #fb9133",
".x c #fb9d34",
".0 c #fba041",
".l c #fbb54d",
"cq c #fc8d2b",
"b1 c #fc8d2c",
"ao c #fc8e2c",
"b8 c #fc9234",
"b0 c #fc9235",
"#t c #fc9c39",
"#F c #fc9d3c",
"#j c #fca143",
"#L c #fd8e2a",
"#4 c #fd8f2c",
"#p c #fd902b",
"at c #fd902c",
"a7 c #fd902d",
"aL c #fd922e",
"#M c #fd932d",
"aK c #fd932e",
"bG c #fd9335",
"#q c #fd942e",
"a5 c #fd9432",
"cp c #fd9437",
".V c #fd952d",
"#3 c #fd962f",
"aS c #fd9637",
"#2 c #fd972f",
"#G c #fd9730",
"av c #fd9737",
".W c #fd982e",
".Y c #fd982f",
"#s c #fd9830",
".Z c #fd9a31",
".J c #fd9e34",
".N c #fd9f34",
"#d c #fd9f3c",
".P c #fda036",
".M c #fda136",
".K c #fda337",
".s c #fdc051",
".r c #fdd969",
".n c #fde170",
".o c #fde473",
"bb c #fe8e2b",
"b7 c #fe8e2c",
"by c #fe8f2d",
"#H c #fe902d",
"#l c #fe912c",
"bx c #fe9332",
".5 c #fe942d",
"a6 c #fe9431",
"bs c #fe9435",
"bd c #fe9536",
"a. c #fe9833",
".4 c #fe9c35",
"bF c #ff8f2c",
".9 c #ff912b",
"bc c #ff912d",
"br c #ff912e",
"#8 c #ff932d",
"aR c #ff932e",
"bT c #ff9334",
"au c #ff942e",
"aJ c #ff942f",
"an c #ff952e",
"#. c #ff962e",
"#9 c #ff962f",
"#N c #ff972f",
"am c #ff9730",
"#k c #ff982f",
"#r c #ff9830",
"## c #ff9930",
"#1 c #ff9931",
".X c #ff9a2f",
"#a c #ff9a30",
"#b c #ff9a31",
"#c c #ff9b33",
".R c #ff9c32",
".O c #ffa034",
".Q c #ffa035",
".L c #ffa438",
".F c #ffa93e",
".E c #ffb749",
".y c #ffb949",
".z c #ffc050",
".D c #ffc051",
".B c #ffc253",
".C c #ffc353",
".A c #ffc454",
".m c #ffd664",
".q c #ffe572",
".p c #ffe573",
"Qt.#.a.b.c.d.e.d.d.e.d.d.e.d.d.e.d.d.e.d.d.e.d.d.f.g.h.i.#.#",
".j.k.l.m.n.o.p.o.o.p.o.o.p.o.o.p.o.o.p.o.o.p.o.o.q.r.s.t.u.v",
".w.x.y.z.A.B.B.B.B.B.B.B.B.B.B.B.B.B.B.B.B.B.B.B.C.D.E.F.G.H",
".I.J.K.L.M.N.O.N.N.O.N.N.O.N.N.O.P.P.O.N.N.O.N.N.Q.M.N.R.S.T",
".U.V.W.X.Y.Y.X.Y.Y.X.Y.Y.X.Z.0.1.2.3.4.Y.Y.X.Y.Y.X.Y.Y.5.6.7",
".8.9#.###a#a#a#a.4#b#a#c#d#e#f#g#h#i#j#a#a#a#a#a#a#a#k#l#m#n",
"#o#p#q#r#s#t#u#v#w#x#y#z#A#B#C#D#E#F###s#s###s#s###s#G#H#I#J",
"#K#L#M#N#G#O#P#Q#R#S#T#U#V#W#X#Y#Z#0#1#2#2#r#2#2#r#2#3#4#5#6",
"#7#L#8#9a.a#aaabacadaeafagahaiajakalam#9#9#9#9#9#9#9anaoapaq",
"arasatauavawaxayazaAaBaCaDaEaFaGaHaIaJaKaKaJaKaKaJaKaLaMaNaO",
"aPaQ#4aRaSaTaUaVaWaXaYaZa0a1a2a3a4aIaRaLaLaRaLa5a6aLa7a8a9b.",
"b#babbbcbdbebfbgbhbibjbkblbmbnbobpbqbrbrbsbtbubvbwbxbybzbAbB",
"bCbDbEbFbGbHaUbIbJbKbLbMbNbObPbQbRbSbTbUbVbWbXbYbZb0b1b2b3b4",
"b5b6a8b7b8b9bfc.c#cacbcccdcecfcgchcicjckclcmcncocpcqaMcrcsct",
"cucvcwcqcxaTaUcyczcAcBcCcDcEcFcGaVcHcIcJcKcLcMcNcOb1cPcQcRcS",
"cTcUcVcWcXcYbfcycZc0c1c2c3cNc4cbc5c6afc7c8c9d.bNd#dadbdcddde",
"dfdgapdbdhdiaUdjdkdldmdndoaxbNazdpdqdrdsdtdudvdwdxdy#IdzdAdB",
"dCdDdEdFdGdHdIdJdKdLdMdNdOdPcybndQdRdSdTdUdVdWdXdYdFcVdZd0d1",
"d2d3d4d5d6d7d8d9d6d5d6e.e#eaebecedeeefegdWbneheid#d6ejarekel",
"emaPeneoejejeoejejeoejepe#eaeqereseteuevewexeyezeAejeBeCeDeE",
"eFeGeHeIeIeIeIeIeIeIeIeJeKeaeLeMeNeOePc5eQeReSeTeUeIeVeWdfeX",
"eYeZardze0e0dze0e0dze0e1eKeae2e3e4e5e6e7e8e9f.f#fae0fbfcdCfd",
"fefffgfhfififjfififjfifkfleafmfnfofpfqfrfsftfufvfwfifxfyd2fz",
"fAfBeWfCfCfCfCfCfCfCfCfDfEeafFfGdkfHfIfJfKfLfMfNfCfCfOfPemfQ",
"fRfSfTfUfVfVfWfVfVfWfVfXfYfZf0f1f2f3f4fXfVfWfVfVfWfVf5f6f7f8",
"f9g.g#gagbgbgagbgbgagbgbgcgdgegagbgbgagbgbgagbgbgagbgfggghgi",
"gjfegkglgmgmgmgmgmgmgmgmgmgmgmgmgmgmgmgmgmgmgmgmgmgngogpgqgr",
"gsgtgugvgwgxgygxgxgygxgxgygxgxgygxgxgygxgxgygxgxgygzgugAgBgC",
"gDgEgFgGgHgIgJgIgIgJgIgIgJgIgIgJgIgIgJgIgIgJgIgIgIgKgLgMgNgO",
"gPgQgRgSgTgUgUgUgUgUgUgUgUgUgUgUgUgUgUgUgUgUgUgUgUgVgWgXgYgP"};
