/* XPM */
static char *dummy[]={
"30 30 504 2",
"dr c #0000fd",
"cT c #0000ff",
"bw c #00fdfd",
"bU c #00ffff",
"bv c #02eeee",
"bc c #02f0f0",
"d0 c #0303f8",
"c9 c #0505fa",
"bb c #08c6c6",
"bx c #09bcbc",
"bu c #09bdbd",
"bV c #09f7f7",
"dI c #0c0ceb",
"bt c #0d9f9f",
"dJ c #1111e1",
"dH c #1616fa",
"dm c #1717da",
"d. c #1717fb",
"bT c #19ebeb",
"ba c #1a4c4c",
"b# c #1c4242",
"ax c #202020",
"aw c #212121",
"bW c #21e5e5",
"cS c #2222e5",
"cz c #2222e6",
"bd c #244646",
"dK c #2525c2",
"aV c #274343",
"d3 c #2c2cf3",
"av c #2d2d2d",
"fG c #2d4f77",
"by c #2d6969",
"fP c #2e4d71",
"fl c #30537d",
"fb c #345a88",
"fy c #35557c",
"e2 c #355c8c",
"fJ c #365577",
"eN c #365e8d",
"fn c #375e8d",
"fv c #375e8e",
"c8 c #3838e8",
"fF c #385e8d",
"ex c #385f90",
"fz c #39608e",
"eb c #396193",
"dR c #3a6394",
"fw c #3b5472",
"dz c #3b6497",
"fk c #3b6597",
"fd c #3b6699",
"dZ c #3c3cf6",
"de c #3c669a",
"fo c #3c6799",
"d4 c #3d3df6",
"fK c #3d6089",
"fE c #3d6695",
"fu c #3d6698",
"cX c #3d689c",
"fa c #3d699c",
"cF c #3e6a9e",
"e4 c #3e6aa0",
"e1 c #3e6ba0",
"fA c #3f6899",
"cm c #3f6ba2",
"eM c #3f6ca2",
"eP c #3f6ca4",
"fe c #3f6da1",
"fp c #406ca0",
"fj c #406ca1",
"b3 c #406da3",
"ez c #406ea6",
"ft c #416da1",
"ew c #416fa4",
"bF c #416fa5",
"e5 c #416fa6",
"ed c #4170a8",
"e3 c #42638a",
"fs c #4270a5",
"fr c #4270a6",
"f# c #4270a7",
"ea c #4271a8",
"bi c #4271a9",
"eQ c #4271aa",
"eO c #43648d",
"fO c #436992",
"fL c #436993",
"fB c #436c9d",
"fC c #436d9e",
"fD c #436d9f",
"fq c #4370a5",
"ff c #4371a8",
"fi c #4372a7",
"e0 c #4372a9",
"a2 c #4372ab",
"dT c #4372ac",
"dQ c #4373a9",
"eA c #4373ac",
"ey c #44668e",
"fM c #446b96",
"fN c #446b97",
"fg c #4472a8",
"fh c #4472a9",
"e6 c #4473ac",
"eL c #4474ac",
"dB c #4474ad",
"ec c #456891",
"e7 c #4574ab",
"dy c #4574ac",
"aG c #4574ad",
"ee c #4575ae",
"eR c #4575af",
"dg c #4576b0",
"d1 c #4646bd",
"dS c #466993",
"eS c #4675af",
"ak c #4675b1",
"ev c #4676af",
"dd c #4676b1",
"eB c #4677b2",
"cZ c #4678b5",
"c5 c #474796",
"dA c #476b95",
"df c #476c97",
"eC c #4777b1",
"#V c #4777b2",
"eK c #4777b3",
"e# c #4778b1",
"dU c #4778b2",
"cW c #4778b3",
"c4 c #4848f4",
"cY c #486d99",
"ef c #4879b4",
"dC c #487ab4",
"cH c #487ab7",
"cG c #496f9c",
"eg c #4979b4",
"eu c #4979b5",
"cE c #497bb5",
"dh c #497bb7",
"co c #497cba",
"#x c #4a79b5",
"dx c #4a7bb7",
"e. c #4a7bb8",
"cl c #4a7cb9",
"c0 c #4a7ebc",
"b5 c #4a7ebe",
"cn c #4b709e",
"dV c #4b7cb8",
"dc c #4b7dba",
"dD c #4b7eba",
"b2 c #4b7ebb",
"bH c #4b7fbf",
"b4 c #4c71a0",
"dP c #4c7eb9",
"dO c #4c7ebb",
"dE c #4c7fb9",
"dw c #4c7fbc",
"bE c #4c7fbd",
"cI c #4c7fbe",
"bk c #4c81c2",
"fX c #4d637e",
"fW c #4d637f",
"bG c #4d73a1",
"bj c #4d74a4",
"di c #4d7fbd",
"dv c #4d80be",
"cp c #4d80c0",
"bh c #4d82c1",
"cM c #4e4eee",
"fY c #4e637f",
"a3 c #4e76a6",
"#e c #4e7db8",
"cD c #4e82c0",
"c1 c #4e82c1",
"db c #4e83c1",
"b6 c #4e83c4",
"a4 c #4e84c5",
"aT c #4eb1b1",
"aH c #4f77a8",
"f. c #4f7bb0",
"eZ c #4f7cb2",
"eD c #4f7db5",
"a1 c #4f82c3",
"cK c #4f83c3",
"ck c #4f83c4",
"cJ c #4f84c4",
"cV c #4f84c5",
"bI c #4f84c6",
"aI c #4f85c8",
"em c #5050f3",
"fZ c #50657f",
"al c #5079ab",
"aF c #5084c6",
"bl c #5086c8",
"cN c #51518e",
"#W c #517aad",
"cq c #5185c6",
"cC c #5186c7",
"bD c #5186c9",
"aj c #5187ca",
"am c #5187cb",
"#y c #527caf",
"et c #527fb7",
"b7 c #5287c9",
"cj c #5287ca",
"b8 c #5288ca",
"bg c #5289cb",
"a5 c #5289cc",
"#X c #528acf",
"aa c #535353",
"bs c #536060",
"b1 c #5388cb",
"#U c #5388cc",
"bK c #5389cb",
"bJ c #5389cc",
"b0 c #538acc",
"#f c #547eb1",
"eJ c #547fb5",
"aJ c #548ace",
"a0 c #548bce",
"bm c #548bcf",
"#z c #548bd1",
"bC c #548cd0",
"aS c #555555",
".1 c #557fb6",
"eh c #5581b9",
"an c #558cd2",
"a6 c #558dd1",
"a7 c #558ed2",
"dW c #5684bd",
"#w c #568acf",
"#Y c #568fd6",
"eY c #5781b5",
"dF c #5786be",
"#g c #578dd3",
"ai c #578ed5",
"aL c #578fd4",
"aK c #578fd5",
"bS c #57c1c1",
"e8 c #5881b3",
"es c #5883b9",
"dj c #5887c1",
"aZ c #5890d6",
"#A c #5890d7",
"ao c #5891d8",
"fV c #596c84",
".2 c #5981b3",
"aM c #5990d5",
"aE c #5990d8",
"#T c #5991d8",
"#Z c #5993db",
"c2 c #5a8bc5",
"ah c #5a93db",
"#0 c #5a94dc",
"cL c #5b8bc7",
"#d c #5b90d3",
"#h c #5b92da",
"aD c #5b93d9",
"#B c #5b96de",
"fc c #5c7593",
"eT c #5c85b8",
".3 c #5c93d7",
"#v c #5c93db",
"ap c #5c94da",
"#D c #5c95dd",
"#C c #5c95de",
"#E c #5c96de",
"bX c #5cbcbc",
"cr c #5d8dc9",
"b9 c #5e8fcd",
"bL c #5e90ce",
"#i c #5e98e0",
"bn c #5f92d2",
"#u c #5f97e0",
"#j c #5f98e0",
"#k c #5f99e1",
"a8 c #6095d5",
"#1 c #6098dd",
".4 c #6098de",
"#K c #6198de",
"#l c #6199e0",
"dL c #6262ef",
"a# c #636363",
"eI c #6389b9",
"#F c #639ade",
".5 c #639ce3",
".6 c #649de4",
".7 c #649ee4",
"dn c #65657c",
".0 c #6596d7",
"en c #6669eb",
"f0 c #677587",
"#G c #679cdd",
"ag c #679cde",
"#H c #679dde",
"aW c #686868",
".R c #689cdd",
".P c #698bb6",
"dl c #6a6aee",
".Z c #6a9fe1",
"#m c #6a9fe2",
".S c #6b9fe2",
"fQ c #6c7887",
"#S c #6c9fdf",
"br c #6d6d6d",
".U c #6da2e5",
".T c #6da3e6",
".V c #6da4e6",
"ce c #6db0b0",
".8 c #6ea3e4",
".W c #6ea4e6",
"#c c #6fa4e4",
"fm c #708299",
"fU c #718091",
"bN c #727272",
"cR c #7272ab",
"ds c #7272ee",
"c. c #737373",
"#L c #73a1db",
".Y c #73a6e5",
"be c #747474",
".O c #74a4e1",
"b. c #757575",
".Q c #7595be",
".X c #76a7e5",
".F c #76a8e5",
"d9 c #7799c3",
"au c #787878",
"cf c #78a8a8",
"bQ c #797979",
"d2 c #7979d1",
"er c #7999c1",
".N c #79aceb",
"#t c #7aa7de",
".L c #7aaded",
".K c #7aaeee",
"e9 c #7b98bc",
".9 c #7baae3",
".J c #7baeed",
"ay c #7c7c7c",
".M c #7caeee",
".I c #7dafee",
".G c #7db0ef",
"do c #7e7e7e",
".v c #7ea7da",
"#M c #7ea9dd",
"az c #7f7f7f",
"eX c #809ec1",
".C c #80ade4",
".H c #80b4f4",
"bO c #818181",
"c# c #828282",
"ab c #838383",
"aq c #839fc3",
"cO c #848484",
"#I c #84acdd",
"bq c #858585",
"cy c #85859c",
"aN c #85a8d3",
"#J c #85addd",
"cg c #86869d",
"fH c #868f99",
"cP c #898989",
"cd c #8a9a9a",
"bY c #8b9898",
"#s c #8c939b",
"aU c #8ce3e3",
"ar c #8d8e8f",
"#r c #8d949b",
"at c #8e8e8e",
"#2 c #8ea2ba",
"cv c #8f8f8f",
"eq c #90a9c8",
"aQ c #929292",
"ei c #9298a0",
"dX c #9298a1",
"dk c #9299a1",
"c3 c #9299a2",
"fI c #929ca8",
"c6 c #939393",
"cs c #939aa2",
"bM c #939aa3",
"bo c #939ba3",
"a9 c #939ba5",
"eU c #939eab",
"bz c #949494",
"dq c #9494df",
".E c #94a9c3",
"#N c #94abc7",
".B c #94c5fb",
"aC c #95adca",
"as c #969696",
"#P c #96989a",
"cx c #979797",
"#n c #97a6b9",
"a. c #989898",
"ct c #9898b8",
"eE c #98a3b1",
".l c #98c1ec",
".w c #98cafd",
"cu c #999999",
"cc c #9b9b9b",
"cb c #9c9c9c",
"#9 c #9c9fa3",
".r c #9cc8f6",
"eH c #9eb2cb",
"cw c #9f9f9f",
"f1 c #9fa3a9",
"#R c #9fa8b3",
".D c #a0adbd",
".A c #a0d1fe",
"#Q c #a1a1a1",
"el c #a1a1e5",
".x c #a1d3fe",
"#O c #a2b1c3",
"eW c #a2b4cb",
"aO c #a3afbe",
"dN c #a3b7cf",
"aY c #a3b7d1",
"du c #a3b8d0",
"eG c #a4b6cb",
"d5 c #a5a5e6",
"#8 c #a5b5c9",
"af c #a5b6cb",
"cU c #a5b9d3",
"da c #a5bad2",
"cB c #a5bad3",
".z c #a5d6fe",
".s c #a6b8ce",
"bZ c #a6bbd6",
"bB c #a6bcd7",
".y c #a6d8fe",
"ci c #a7bcd6",
"bf c #a8bed9",
"#. c #a8c1e1",
"aA c #a9a9a9",
"eo c #aaafdc",
"aB c #ababab",
"ca c #acacac",
"ae c #adadad",
"fT c #aeb1b6",
"dY c #afafe4",
"aP c #afb1b4",
"bR c #b0b0b0",
".k c #b0bac5",
"#q c #b1b3b4",
"#3 c #b2b9c2",
"ep c #b2bed4",
"## c #b3c7df",
".h c #b3cbe1",
".b c #b4c9dd",
"ad c #b5b5b5",
"fx c #b6b9bc",
"dp c #b8b8b8",
"c7 c #b8b8ce",
"cQ c #bababa",
"d8 c #bac6d4",
".c c #bad7ea",
"bp c #bbbbbb",
".d c #bbdcef",
"aX c #bcbcbc",
"ek c #bcbce1",
".g c #bcdaed",
".f c #bcdcef",
".e c #bddef0",
"cA c #bfbfe1",
".u c #bfc2c5",
".q c #bfedfd",
"fR c #c0c0c1",
".m c #c0eefe",
".# c #c1c1c1",
".t c #c1c1c2",
".j c #c1c2c2",
"dG c #c2c2e0",
".a c #c2c3c6",
".i c #c2c6cb",
"#7 c #c2cfdd",
"Qt c #c3c3c3",
"#5 c #c3c5c6",
"eF c #c3cbd5",
"fS c #c4c4c4",
"#p c #c5c5c5",
"eV c #c5cdd6",
"#b c #c5cfdc",
"d# c #c9c9e1",
"#6 c #cacbcc",
"#4 c #cad1d9",
"d7 c #ced3d9",
"ch c #cfcfd7",
".n c #cff9fd",
".o c #d2fafd",
"bA c #d3d3d3",
".p c #d3fbff",
"aR c #d4d4d4",
"d6 c #d4d5dd",
"#a c #d6d8db",
"#o c #d7d7d7",
"ej c #d7d7df",
"ac c #d8d8d8",
"dM c #d8d8de",
"dt c #dcdcdc",
"bP c #dedede",
"Qt.#.a.b.c.d.e.f.f.e.f.f.e.f.f.e.f.f.e.f.f.e.f.f.e.g.h.i.j.#",
"Qt.k.l.m.n.o.p.o.o.p.o.o.p.o.o.p.o.o.p.o.o.p.o.o.p.n.q.r.s.t",
".u.v.w.x.y.z.z.z.z.z.z.z.z.z.z.z.z.z.z.z.z.z.z.z.z.z.A.B.C.D",
".E.F.G.H.I.J.K.L.L.K.L.L.K.L.L.K.L.L.K.L.L.K.L.L.K.M.I.N.O.P",
".Q.R.S.T.U.U.V.U.U.V.U.U.V.U.U.V.U.U.V.U.U.W.X.Y.V.U.U.Z.0.1",
".2.3.4.5.6.6.7.6.6.7.6.6.7.6.6.7.6.6.8.9#.###a#b#c.6.6.4#d#e",
"#f#g#h#i#j#j#k#j#j#k#j#j#k#j#j#k#l#m#n#o#p#q#r#s#t#j#u#v#w#x",
"#y#z#A#B#C#D#E#F#G#H#I#J#F#K#L#M#N#O#P#o#Q#R#S#D#E#D#D#T#U#V",
"#W#X#Y#Z#0#0#1#2#3#4#5#6#7#8#9a.a#aaabacadaeafag#0#0ahaiajak",
"alamanao#T#Tapaqarasasat#oauavawaxaxay#oazaAaBaCaD#TaEanaFaG",
"aHaIaJaKaLaMaNaOaPaeaBaQaRaSaxawaxaxaTaUaVaWaXaYaZaLaLa0a1a2",
"a3a4a5a6a7a8a9a.aeaeatb.aRaSawawb#babbbcbdbeaRbfa7a7a7bgbhbi",
"bjbkblbmbmbnbob.a.bpbqbraRbsbtbubvbwbxbybebzbAbBbCbma0bDbEbF",
"bGbHbIbJbKbLbMbNbObPaBbQbRbSbTbUbVbWbXbYaQbzbAbZb0bKb1aFb2b3",
"b4b5b6b7b8b9bMc.c#bPcab.cbcccdcecfbzbzbzbzcgchcib8b8cjckclcm",
"cncocpcqcqcrcsbNbObPctb.cccuaQcvcwcxbzaQcyczcAcBcCcqcqcDcEcF",
"cGcHcIcJcKcLcsbNbObPcMcNcccucOcPbpcQa.cRcScTcAcUcVcKcKcIcWcX",
"cYcZc0bhc1c2c3c.c#bPc4c5c6aAc#a.bpc7c8c9cTd.d#dadbc1c1dcddde",
"dfdgdhbEdidjdkbNbObPdldmdnbQc.dodpdqcTdrdrdsdtdudvdidwdxdydz",
"dAdBdCdDdEdFdkbNbObPdGdHdIdJdKdodpdqcTdrdLdMdtdNdOdEdPdCdQdR",
"dSdTdUdxdVdWdXc.c#bPbPdYdZcTd0d1d2d3d4d5d6d7d8d9dVdVe.e#eaeb",
"ecedeeefegeheibNbObPdtdtejekelemeneoepeqeresetegeuegegevewex",
"eyezeAeBeCeDeEbNbObPdtdtbPeFeGeHeIeJeDeCeCeKeCeCeKeCeCeLeMeN",
"eOePeQeReSeSeTeUc#eVeWeXeYeZeSeSeSeSeSeSeSeSeSeSeSeSeSe0e1e2",
"e3e4e5e6dye7dye8e9f.e7e7dye7e7dye7e7dye7e7dye7e7aGdydyf#fafb",
"fcfdfefffgfgfhfgfgfhfgfgfhfgfgfhfgfgfhfgfgfhfgfgfhfgfifjfkfl",
"fmfnfofpfqfrfrfrfrfrfrfrfrfrfrfrfrfrfrfrfrfrfrfrfrfsftfufvfw",
"fxfyfzfAfBfCfDfCfCfDfCfCfDfCfCfDfCfCfDfCfCfDfCfCfDfBfEfFfGfH",
"#pfIfJfKfLfMfNfMfMfNfMfMfNfMfMfNfMfMfNfMfMfNfMfMfNfOfKfPfQfR",
"#pfSfTfUfVfWfXfXfXfXfXfXfXfXfXfXfXfXfXfXfXfXfXfXfYfZf0f1Qt#p"};
