/* XPM */
static char *dummy[]={
"30 30 301 2",
"bU c #0404fb",
"bi c #07c8c8",
"bj c #08cbcb",
"bV c #0b0bfb",
"b8 c #0f0ffc",
"bh c #0f9595",
"bM c #1616ec",
"b3 c #1818dd",
"a7 c #1f2b2b",
"a6 c #202020",
"#F c #212121",
"b4 c #2222cb",
"a8 c #226f6f",
"#G c #252322",
"aP c #252525",
"bt c #27e1e1",
"bk c #289292",
"#s c #2a2a2a",
"cf c #2d2de1",
"bu c #30dbdb",
"aO c #353535",
"b. c #354949",
"cA c #373737",
"cv c #383838",
"b7 c #3939f1",
"cz c #3a3a3a",
"bR c #3a3add",
"cE c #3b3b3b",
"#t c #3c3c3b",
"bg c #3d6e6e",
"a9 c #3edada",
"#r c #3f3f3f",
"ct c #424242",
"a5 c #434343",
"ck c #444444",
"ce c #4444f2",
"cl c #454545",
"aQ c #454b4b",
"cM c #464645",
"c# c #464646",
"ca c #474747",
"bY c #494949",
"bZ c #4a4a4a",
"bI c #4a4ac8",
"cu c #4b4a4a",
"cx c #4b4b49",
"bO c #4b4b4b",
"bP c #4c4c4c",
"#H c #4d3d34",
"cL c #4d4d4b",
"bF c #4d4d4d",
"bG c #4e4e4e",
"#J c #4f433d",
"by c #4f4f4f",
"cs c #505050",
"bn c #515151",
"b# c #525252",
"bo c #535353",
"ba c #545454",
"aU c #555555",
"bT c #5555e8",
"aV c #565656",
"#E c #575757",
"bX c #585858",
"aF c #595959",
"at c #5a5a5a",
"bv c #5abbbb",
"au c #5b5b5b",
"cg c #5b5bde",
"ai c #5c5c5c",
"a# c #5d5d5d",
"b0 c #5e5e5e",
"bx c #5f5f5f",
"#Z c #606060",
"bL c #6060b9",
"cN c #61605d",
"#N c #626262",
"bs c #62b8b8",
"bp c #636363",
"#y c #646464",
"ch c #6464e9",
"bb c #656565",
"b5 c #65658c",
"aN c #666666",
"#Q c #674532",
"#P c #675f5b",
"#z c #676767",
"#k c #686868",
"#l c #696969",
"aG c #6a6a6a",
"aW c #6b6b6b",
"## c #6c6c6c",
"#U c #6d6966",
"cK c #6d6c67",
"#. c #6d6d6d",
"ah c #6e6e6e",
"cw c #6f6e6a",
"aj c #6f6f6f",
"av c #707070",
"bS c #70708a",
"a. c #717171",
"b2 c #7171ec",
".Y c #727272",
"aw c #737373",
"aL c #74685c",
"#Y c #747474",
"bD c #7474a7",
"bl c #747979",
"aK c #75522e",
"#0 c #757575",
"cF c #76756f",
".X c #777776",
"#M c #777777",
"#9 c #787878",
"#1 c #797979",
"#x c #7a7a7a",
"aJ c #7b4b1c",
"#X c #7b7b7b",
"az c #7c756f",
"#O c #7c7c7c",
"#m c #7d7d7d",
"cr c #7d7d81",
"#j c #7e7e7e",
"#W c #7f7f7f",
"bN c #7f7fea",
"#a c #808080",
"b9 c #8080e9",
"#n c #818181",
"#A c #828282",
"cd c #8282e9",
"#L c #838383",
".9 c #848484",
"cq c #848496",
"#b c #858585",
"#o c #868686",
"aS c #868888",
"am c #878686",
"#w c #878787",
"#T c #885c43",
".Z c #888888",
"bw c #889696",
"#d c #898989",
"#c c #8a8a8a",
"bB c #8a9595",
"ap c #8b6137",
"a1 c #8b6239",
"bq c #8b8b8b",
".8 c #8c8c8c",
"bJ c #8c8c8e",
"bA c #8c8c98",
".L c #8d8c8b",
".0 c #8d8d8d",
"ao c #8e8174",
"#e c #8e8e8e",
"#R c #8f5a3c",
"#i c #8f8f8f",
"ae c #908982",
"cD c #908f87",
".W c #909090",
"bf c #918f8d",
".1 c #919191",
"bE c #9191dc",
"ay c #926a42",
".3 c #929292",
"a0 c #936231",
"al c #937557",
"cB c #939187",
".2 c #939393",
"bC c #939b9b",
"#7 c #948b85",
"aA c #949494",
"ac c #95908d",
"#2 c #959594",
"ar c #959595",
".M c #969696",
"#v c #979796",
".4 c #979797",
".K c #989894",
"aT c #989898",
"br c #989b9b",
".V c #999999",
"ad c #9a9491",
".N c #9a9a9a",
".P c #9b9b9b",
"ab c #9c9a98",
"cO c #9c9b91",
".O c #9c9c9c",
".Q c #9d9d9d",
"#q c #9e9e9e",
"#S c #9f6340",
".U c #9f9f9f",
"#B c #a0a0a0",
"bK c #a0a0ae",
".J c #a1a1a1",
"#g c #a2a2a2",
".R c #a3a3a3",
"#p c #a4a4a4",
".A c #a6a6a6",
"cp c #a6a6bd",
"ci c #a6a6d5",
"a2 c #a7a19b",
"#3 c #a88d7e",
"cJ c #a8a69c",
"aM c #a8a6a4",
".D c #a8a8a8",
"an c #a9a7a6",
"ag c #aaaaaa",
"aq c #ab8a69",
".I c #ababab",
".7 c #acacac",
".H c #adadad",
".C c #aeaca5",
".t c #aeaead",
".G c #aeaeae",
"af c #af9d8b",
"a3 c #afadac",
".E c #afafaf",
"#C c #b0b0b0",
"#6 c #b1856c",
"#f c #b1b1b1",
"aZ c #b29578",
"aI c #b3977a",
"aC c #b39d88",
".F c #b3b3b3",
"bW c #b3b3e3",
"cy c #b4b2a5",
"#D c #b4b4b4",
"cj c #b4b4b7",
"#K c #b5b5b5",
"b6 c #b5b5b8",
"#8 c #b7b7b7",
"#V c #b8b8b8",
"aD c #b9aa9b",
"a4 c #b9b9b9",
"aB c #bab2ab",
"bH c #babad0",
"aR c #bac3c3",
"#u c #bbbab9",
".T c #bbbbbb",
"bm c #bcbcbc",
"bQ c #bcbcd1",
"#h c #bdbdbd",
".S c #bebebe",
".6 c #bfbfbf",
"#4 c #c07f5a",
"be c #c0b7ae",
"#I c #c1947a",
"#5 c #c3805a",
"ax c #c3c0bd",
"ak c #c3c0be",
".5 c #c3c3c3",
"co c #c3c3c9",
"aa c #c4c4c4",
"bz c #c4c4c8",
"as c #c6c6c6",
"aX c #c7c7c7",
".r c #c8c6ba",
"aH c #c8c7c7",
".z c #c8c8c8",
".q c #c9c9c8",
".k c #cacac9",
"aE c #cbc1b7",
".B c #cbc9b9",
"b1 c #ccccce",
"cb c #cdcdcd",
"bd c #cecbc8",
".j c #ceccbc",
".u c #cfcfcf",
"cc c #d2d2de",
".s c #d3cfbe",
".g c #d4d2c7",
"cP c #d5d1c1",
"cG c #d5d2c0",
".b c #d5d3c8",
".y c #d5d5d5",
"aY c #d7d4d1",
"cI c #d8d5c4",
".v c #d8d8d8",
"c. c #d8d8dc",
".h c #d9d6c4",
"cC c #dad7c5",
".# c #dbd7c1",
".i c #dbd7c2",
".a c #dbd7c4",
"cn c #dbdbdd",
"bc c #dcdcdb",
".x c #dcdcdc",
"Qt c #ddd9c3",
"cQ c #ddd9c5",
"cH c #dddac5",
"cm c #dddddd",
".w c #dedede",
".f c #e0ded8",
".c c #e0dfd8",
".d c #e5e4de",
".e c #e6e5e0",
".p c #eeeeee",
".l c #f4f4f4",
".o c #fbfbfb",
".m c #fcfcfc",
".n c #fdfdfd",
"Qt.#.a.b.c.d.e.d.d.e.d.d.e.d.d.e.d.d.e.d.d.e.d.d.e.f.g.h.i.#",
"Qt.j.k.l.m.m.n.m.m.n.m.m.n.m.m.n.m.m.n.m.m.n.m.m.n.o.p.q.r.i",
".s.t.u.v.w.x.x.x.x.x.x.x.x.x.x.x.x.x.x.x.x.x.x.x.x.x.y.z.A.B",
".C.D.E.F.E.G.E.H.H.E.H.H.E.H.H.E.G.G.E.H.H.E.H.H.E.E.G.I.J.K",
".L.M.N.O.P.P.Q.P.P.Q.P.P.Q.Q.R.F.S.T.U.P.P.Q.P.P.Q.P.P.V.W.X",
".Y.Z.0.W.1.1.1.1.2.3.1.3.4.J.5.6.E.7.V.1.1.1.1.1.1.1.1.8.9#.",
"###a#b#c#d#e.R.E.T#f#g.J.V.W#h.E.I#i#c#d#d#c#d#d#c#d#d.9#j#k",
"#l#m#n#o#b.W.O#p#q.6#a#r#s#t#u#v.I.A#w#b#b#o#b#b#o#b#b#n#x#y",
"#z#x#j#A#b#B#C.7.U#D#E#F#G#H#I#J#B#K#L#L#L#L#L#L#L#L#A#j#M#N",
"#y#M#O#a#b.3#e.H.Y#f#P#Q#R#S#T#U.F#V#n#W#W#n#W#W#n#W#W#X#Y#Z",
"#N#0#1#m#n.W#1.5.P#2#3#4#5#6#7.1#D#8#j#m#m#j#j#W#W#m#m#9a.a#",
"#Z.Y#M#x#W.W#9aaab#w.Vacad.2.2aeaf#8#x#x#W.W.A#8ag#m#x#0ahai",
"a#aj#Y#M#m#i#1akalam.V#b#Canaoapaq#K#O#baras#D.J.P#O#M.Y##at",
"au##avaw#1.0#9axayazaA#a#8aBaCaDaE.6.M.9#Lasag.R#X#Y#Yaj#l#E",
"aFaGaha.#M#i#1aHaIaJaKaL#8aM#g.Q.5aNaOaPaQaRaS.HaT.Ya.#.#zaU",
"aV#zaWah#Y.8#9aXaYaZa0a1a2a3agaAa4a5a6a7a8a9b.#C.RajahaG#yb#",
"babb#l##a..W#1.z.xbcbdbebf#e#C.Y#8bgbhbibjbkblbm#p#####k#Nbn",
"bobp#zaGaW#A.1#K.7bq#O#n#w#WaX.2brbsbtbubvbw.3.S.RaGaGaNbxby",
"bn#Z#y#k#k#l#9.Y#k#k#k#M#b#jbzbA.0.MbBbC.3.2bDbE#g#k#kbpa#bF",
"bGa##NbbaNaNaNaNaNaNaN#Y#b#jbHbIbJar.Z#KbKbLbMbN#Bbbbb#ZatbO",
"bPaubx#Nbpbpbpbpbpbpbp.Y.9#jbQbRbS#e#na4bTbUbVbW.Ubp#Na#bXbY",
"bZbXaib0b0bxbxbxb0b0b0ah.9#jb1b2b3b4b5b6b7b8b9c..Pb0b0auaUc#",
"caaUaFauaiaiaiaiaiaiai###L#jcbcccdcecfcgchcicj#Ba.aiaubXbock",
"clbnaUaFaFaFaFaFaFaFaFaN#d#j.ucmcncocpcqcr#zbxauaFaFaFaVcsct",
"a5byboaV#E#E#E#E#E#E#EbX#Y.3.A.W###ZaibX#E#E#E#E#E#E#EbobF#r",
"cubPcsbababababababababaaUbxaFbabababababababababababacsbZcv",
"cwclbObyb#b#b#b#b#b#b#b#b#b#b#b#b#b#b#b#b#b#b#b#b#bnbybZa5cx",
"cyczcabPcscscscscscscscscscscscscscscscscscscscscsbybYckcAcB",
"cCcDcEbYbGbybybybybybybybybybybybybybybybybybybybybFc#cAcFcG",
"cHcIcJcKcL#r#r#r#r#r#r#r#r#r#r#r#r#r#r#r#r#r#r#r#rcMcNcOcPcQ"};
