/* XPM */
static char *dummy[]={
"30 30 502 2",
"dj c #0000fd",
"cH c #0000ff",
"bi c #00fdfd",
"bG c #00ffff",
"bh c #02eeee",
"aY c #02f0f0",
"dS c #0303f8",
"c0 c #0505fa",
"aX c #08c6c6",
"bj c #09bcbc",
"bg c #09bdbd",
"bH c #09f7f7",
"dA c #0c0ceb",
"bf c #0d9f9f",
"dB c #1111e1",
"dz c #1616fa",
"de c #1717da",
"c1 c #1717fb",
"bF c #19ebeb",
"aW c #1a4c4c",
"aV c #1c4242",
"af c #202020",
"ae c #212121",
"bI c #21e5e5",
"cG c #2222e5",
"cn c #2222e6",
"aZ c #244646",
"dC c #2525c2",
"aE c #274343",
"dV c #2c2cf3",
"ad c #2d2d2d",
"bk c #2d6969",
"cZ c #3838e8",
"dR c #3c3cf6",
"dW c #3d3df6",
"dT c #4646bd",
"cW c #474796",
"cV c #4848f4",
"cA c #4e4eee",
"aC c #4eb1b1",
"ee c #5050f3",
"cB c #51518e",
"#T c #535353",
"be c #536060",
"aB c #555555",
"bE c #57c1c1",
"bJ c #5cbcbc",
"dD c #6262ef",
"#S c #636363",
"df c #65657c",
"aF c #686868",
"dd c #6a6aee",
"bd c #6d6d6d",
"b3 c #6db0b0",
"ef c #706ee3",
"bz c #727272",
"cF c #7272ab",
"dk c #7272ee",
"bX c #737373",
"a0 c #747474",
"aU c #757575",
"ac c #787878",
"b4 c #78a8a8",
"bC c #797979",
"dU c #7979d1",
"ag c #7c7c7c",
"dg c #7e7e7e",
"ah c #7f7f7f",
"bA c #818181",
"bY c #828282",
"#U c #838383",
"cC c #848484",
"bc c #858585",
"cm c #85859c",
"b5 c #86869d",
"cD c #898989",
"b2 c #8a9a9a",
"bK c #8b9898",
"aD c #8ce3e3",
"ab c #8e8e8e",
"cj c #8f8f8f",
"a# c #90908d",
"az c #929292",
"cX c #939393",
"bl c #949494",
"di c #9494df",
"aa c #969696",
"cl c #979797",
"#R c #989898",
"ch c #9898b8",
"ci c #999999",
"#y c #9b9b96",
"b1 c #9b9b9b",
"b0 c #9c9c9c",
"#h c #9f9f8c",
"#g c #9f9f8d",
"ck c #9f9f9f",
"#z c #a1a1a1",
"ed c #a1a1e5",
"fP c #a38421",
"#Q c #a5a59c",
"dX c #a5a5e6",
"fD c #a78821",
"fr c #a89b6c",
"ai c #a9a9a9",
"ea c #aaa68d",
"dP c #aaa68e",
"dx c #aaa78e",
"cU c #aaa78f",
"cg c #aaa890",
"bW c #aaa891",
"by c #aaa991",
"ba c #aaa992",
"aj c #ababab",
"aT c #acab92",
"bZ c #acacac",
"#X c #adadad",
"fg c #af9847",
"fX c #af9a59",
"fY c #afa27a",
"dQ c #afafe4",
"bD c #b0b0b0",
"fW c #b19b51",
"fV c #b29b51",
"fU c #b29c54",
"eG c #b49c36",
"ep c #b49d38",
"dJ c #b5a03c",
"dq c #b5a23e",
"cN c #b5a442",
"ct c #b5a644",
"bQ c #b5a948",
"br c #b5aa4a",
"ay c #b5b5ae",
"#f c #b5b5b1",
"#W c #b5b5b5",
"eV c #b69c33",
"d5 c #b6a03a",
"c8 c #b6a440",
"aM c #b6ad4e",
"ap c #b6af50",
"#E c #b6b255",
"fQ c #b6b2a6",
"#l c #b6b357",
"e8 c #b79c37",
"fT c #b7a469",
"c# c #b7a846",
"a5 c #b7ad4c",
"#3 c #b7b253",
"## c #b8b558",
"#A c #b8b89f",
"dh c #b8b8b8",
"cY c #b8b8ce",
".Z c #bab864",
"cE c #bababa",
"bb c #bbbbbb",
"eM c #bcb58a",
"fE c #bcbbb7",
"fZ c #bcbbb8",
"aG c #bcbcbc",
"ec c #bcbce1",
"fG c #bead77",
"co c #bfbfe1",
"fS c #c0baa9",
"eg c #c0bccb",
"#c c #c0c096",
"fH c #c19714",
".O c #c1bf7c",
".j c #c1c1c1",
".F c #c2c1b2",
".# c #c2c2c1",
".v c #c2c2c2",
"dy c #c2c2e0",
".k c #c3c3c0",
"Qt c #c3c3c3",
"ew c #c4bc8e",
"fR c #c4c4c4",
"fs c #c5b786",
"fF c #c5c5c4",
"#e c #c5c5c5",
"#J c #c6c68c",
"ax c #c6c6a1",
"#K c #c6c6b2",
"#M c #c7c7c3",
"fh c #c8a327",
"c2 c #c9c9e1",
"#x c #cacaa2",
"fO c #cb9d0f",
"ft c #cca00b",
"#N c #ccccca",
".i c #cdcdbc",
".u c #cece9e",
"b6 c #cfcfd7",
"#P c #d3d3a4",
"bm c #d3d3d3",
".w c #d4d38c",
"#w c #d4d493",
"aA c #d4d4d4",
"fq c #d5a80a",
"#Y c #d5d5a4",
"a. c #d6d67f",
".a c #d6d6a9",
"#d c #d7d7d7",
"eb c #d7d7df",
"#V c #d8d8d8",
"dE c #d8d8de",
"dY c #d9d8da",
"e9 c #daad0d",
"ak c #dada93",
"fC c #dbab0b",
".7 c #dbdbd6",
"dl c #dcdcdc",
"fI c #ddae15",
"#L c #ddddc9",
"bB c #dedede",
"eh c #dfd8b0",
"aH c #e0df9f",
".8 c #e0e0c3",
"fN c #e1b115",
"dZ c #e1deca",
"ex c #e2ddbc",
"eN c #e3ddbe",
".l c #e3e27d",
"#O c #e5e5c2",
"d0 c #e6dfb1",
".G c #e6e456",
"fJ c #e8b618",
"eW c #e8ba11",
".h c #e8e78e",
".6 c #e8e8af",
"ey c #e9dd95",
"dF c #e9e097",
"dm c #e9e198",
"cI c #e9e39b",
"cp c #e9e49d",
"bL c #e9e69f",
"bn c #e9e7a1",
"ff c #eab90f",
"eH c #eabf15",
"eq c #eac118",
"d6 c #eac21b",
"dK c #eac51f",
"dr c #eac723",
"c9 c #eaca26",
"fK c #ebb918",
"fM c #ebba18",
"cO c #ebcd29",
"cu c #ebcf2c",
"ca c #ebd12f",
"bR c #ebd333",
"bs c #ebd536",
"a6 c #ebd73a",
"aN c #ebda3d",
"aq c #ebdd41",
"eO c #ebdd91",
"ez c #ebde8d",
"#4 c #ebe044",
"c3 c #ebe39b",
"#m c #ebe44b",
"b7 c #ebe79f",
".P c #ebe84f",
".E c #ebe951",
"a1 c #ebe9a4",
"fL c #ecba18",
"#F c #ece347",
"#a c #ece64d",
".0 c #ece84f",
"aw c #ecec80",
".5 c #ececa3",
"fB c #edb90f",
"fu c #edba0f",
"ei c #edde7e",
"fi c #efbc0d",
"fp c #efbc0e",
"e3 c #f1d95e",
"eP c #f2dd67",
".b c #f2f18b",
"e7 c #f3c212",
"eF c #f3c81a",
"eo c #f3ca1e",
"dI c #f3cf25",
"dp c #f3d228",
"cM c #f3d62f",
"cs c #f3d832",
"ej c #f3df60",
"#s c #f3f383",
"#t c #f3f384",
"eU c #f4c716",
"d4 c #f4ce22",
"c7 c #f4d52b",
"bP c #f4de39",
"bq c #f4e03e",
"d1 c #f4e25f",
"aL c #f4e644",
"ao c #f4e847",
"#D c #f4ed4f",
"#k c #f4ef52",
"#v c #f4f47d",
"c. c #f5dc35",
"a4 c #f5e441",
"#2 c #f5ec4b",
"#. c #f5f152",
"#i c #f5f578",
".Y c #f6f353",
".g c #f6f57a",
"#u c #f6f672",
"eA c #f7de43",
"fA c #f8c313",
".N c #f8f655",
".4 c #f8f875",
"fv c #f9c414",
".t c #f9f862",
".c c #f9f97c",
"fj c #fac70f",
"f. c #fac710",
"fe c #fac811",
"fw c #fbc715",
"fo c #fbc810",
"eQ c #fbdd33",
"eB c #fbde30",
"el c #fbe030",
"ek c #fbe137",
".V c #fbfb66",
".d c #fbfb7b",
"fx c #fcc814",
"e2 c #fcdb31",
"eR c #fcdd29",
".W c #fcfc62",
"#r c #fcfc66",
"#B c #fcfc6b",
"fz c #fdc814",
"fy c #fdc914",
"eX c #fdce14",
"f# c #fdcf13",
"fd c #fdd314",
"er c #fdd31c",
"eY c #fdd517",
"d7 c #fdd520",
"fb c #fdd615",
"e5 c #fdd718",
"e0 c #fdd919",
"es c #fdda1f",
"e4 c #fdda26",
"ds c #fddb27",
"eD c #fddc20",
"d8 c #fddc23",
"d. c #fddd2b",
"eu c #fdde20",
"em c #fddf24",
"eC c #fddf2a",
"eL c #fddf39",
"e. c #fde024",
"ev c #fde02a",
"dt c #fde22a",
"cv c #fde232",
"e# c #fde233",
"dG c #fde42b",
"d# c #fde42e",
"cb c #fde536",
"dv c #fde62c",
"dn c #fde72f",
"dw c #fde83a",
"db c #fde930",
"cw c #fde935",
"bt c #fdea3d",
"dc c #fdea3e",
"cc c #fdeb39",
"cK c #fdec37",
"cy c #fded37",
"a7 c #fded41",
"cq c #fdee3b",
"cz c #fdee44",
"ce c #fdf03b",
"bu c #fdf141",
"cf c #fdf148",
"ar c #fdf249",
"a8 c #fdf344",
"bN c #fdf442",
"#5 c #fdf44c",
"bw c #fdf542",
"bo c #fdf646",
"bx c #fdf64e",
"b. c #fdf847",
"as c #fdf84c",
"b# c #fdf853",
"#n c #fdf954",
"#6 c #fdfa4f",
"aJ c #fdfb4e",
"#b c #fdfb57",
"am c #fdfc51",
".f c #fdfc7b",
"au c #fdfd4e",
"av c #fdfd51",
"#8 c #fdfd52",
"#o c #fdfd57",
".Q c #fdfd59",
"#q c #fdfd5a",
".R c #fdfd5b",
".T c #fdfd5c",
".L c #fdfd5d",
".K c #fdfd5e",
".H c #fdfd5f",
".I c #fdfd61",
".x c #fdfd62",
"#Z c #fdfd63",
".3 c #fdfd67",
".9 c #fdfd68",
".m c #fdfd79",
".e c #fdfd7b",
".s c #fdfd82",
".r c #fdfd93",
".o c #fdfd99",
".p c #fdfd9a",
"e6 c #fece15",
"eT c #fed119",
"eI c #fed218",
"eE c #fed31d",
"en c #fed621",
"dL c #fed923",
"d3 c #fed925",
"dH c #fedc28",
"do c #fedf2c",
"cP c #fee12e",
"c6 c #fee130",
"cL c #fee333",
"cr c #fee537",
"b9 c #fee83b",
"bS c #fee93a",
"bO c #feeb3e",
"bp c #feed42",
"a3 c #fef046",
"aK c #fef249",
"an c #fef54d",
"#1 c #fef751",
"#C c #fef954",
"#j c #fefb57",
".X c #fefd58",
".U c #fefe5e",
"fk c #ffcf12",
"fn c #ffd112",
"fl c #ffd312",
"fm c #ffd412",
"fa c #ffd615",
"fc c #ffd715",
"eZ c #ffd919",
"eJ c #ffd91b",
"e1 c #ffda19",
"eS c #ffdb1c",
"eK c #ffdd1d",
"et c #ffdf20",
"dM c #ffe026",
"d9 c #ffe124",
"d2 c #ffe328",
"dN c #ffe428",
"dO c #ffe636",
"du c #ffe72c",
"cQ c #ffe831",
"da c #ffea30",
"c5 c #ffeb33",
"cR c #ffec33",
"cS c #ffec34",
"c4 c #ffed34",
"cx c #ffee37",
"cT c #ffee41",
"cJ c #ffef37",
"bT c #fff03d",
"aO c #fff044",
"cd c #fff13b",
"b8 c #fff23e",
"bU c #fff43f",
"bV c #fff54b",
"bv c #fff642",
"bM c #fff742",
"aP c #fff748",
"#G c #fff850",
"a9 c #fff947",
"a2 c #fffa4a",
"aQ c #fffb4a",
"aR c #fffb4b",
"aS c #fffb56",
".1 c #fffd57",
"at c #fffe4e",
"aI c #fffe50",
"#H c #fffe53",
"#0 c #fffe55",
"#7 c #ffff52",
"al c #ffff54",
"#9 c #ffff55",
"#I c #ffff56",
"#p c #ffff5a",
".2 c #ffff5b",
".S c #ffff5c",
".M c #ffff5d",
".J c #ffff62",
".D c #ffff66",
".C c #ffff6f",
".y c #ffff72",
".z c #ffff75",
".B c #ffff77",
".A c #ffff78",
".n c #ffff94",
".q c #ffff9b",
"Qt.#.a.b.c.d.e.d.d.e.d.d.e.d.d.e.d.d.e.d.d.e.d.d.f.g.h.i.#.j",
".k.l.m.n.o.p.q.p.p.q.p.p.q.p.p.q.p.p.q.p.p.q.p.p.q.r.s.t.u.v",
".w.x.y.z.A.B.B.B.B.B.B.B.B.B.B.B.B.B.B.B.B.B.B.B.A.B.C.D.E.F",
".G.H.I.J.K.L.M.L.L.M.L.L.M.L.L.M.L.L.M.L.L.M.L.L.M.H.H.M.N.O",
".P.Q.R.S.T.T.S.T.T.S.T.T.S.T.T.S.T.T.S.T.T.U.V.W.S.T.T.X.Y.Z",
".0.1.2.M.M.M.M.M.M.M.M.M.M.M.M.M.M.M.3.4.5.6.7.8.9.M.M.X#.##",
"#a#b.R.M.T.L.M.L.L.M.L.L.M.L.L.M.H.9#c#d#e#f#g#h#i.L.T#j#k#l",
"#m#n#o#p#q#q#p.x.V#r#s#t.I.H#u#v#w#x#y#d#z#A#B#q#p#q.Q#C#D#E",
"#F#G#H#I#I#I.S#J#K#L#M#N#O#P#Q#R#S#T#U#V#W#X#Y#Z#I#I#0#1#2#3",
"#4#5#6#7#8#8#9a.a#aaaaab#dacadaeafafag#dahaiajakal#8amanaoap",
"aqarasatauavawaxay#XajazaAaBafaeafafaCaDaEaFaGaHaIauaJaKaLaM",
"aNaOaPaQaRaSaT#R#X#XabaUaAaBaeaeaVaWaXaYaZa0aAa1aRaRa2a3a4a5",
"a6a7a8a9b.b#baaU#RbbbcbdaAbebfbgbhbibjbka0blbmbna9b.bobpbqbr",
"bsbtbubvbwbxbybzbAbBajbCbDbEbFbGbHbIbJbKazblbmbLbMbwbNbObPbQ",
"bRbSbTbUbUbVbWbXbYbBbZaUb0b1b2b3b4blblblblb5b6b7bUbUb8b9c.c#",
"cacbcccdcecfcgbzbAbBchaUb1ciazcjckclblazcmcncocpcdcecqcrcsct",
"cucvcwcxcyczcgbzbAbBcAcBb1cicCcDbbcE#RcFcGcHcocIcJcycKcLcMcN",
"cOcPcQcRcScTcUbXbYbBcVcWcXaibY#RbbcYcZc0cHc1c2c3c4cSc5c6c7c8",
"c9d.d#dadbdccUbzbAbBdddedfbCbXdgdhdicHdjdjdkdldmdadbdndodpdq",
"drdsdtdudvdwdxbzbAbBdydzdAdBdCdgdhdicHdjdDdEdldFdudvdGdHdIdJ",
"dKdLdMdNdNdOdPbXbYbBbBdQdRcHdSdTdUdVdWdXdYdZd0d1dNdNd2d3d4d5",
"d6d7d8d9e.e#eabzbAbBdldlebecedeeefegeheiejekele.d9e.emeneoep",
"eqereseteuevewbzbAbBdldlbBexeyezeAeBeCeueueteueueteueDeEeFeG",
"eHeIeJeKeKeKeLeMbYeNeOePeQeReKeKeKeKeKeKeKeKeKeKeKeKeSeTeUeV",
"eWeXeYeZe0e0e1e2e3e4e0e0e1e0e0e1e0e0e1e0e0e1e0e0e1e0e5e6e7e8",
"e9f.f#fafbfbfcfbfbfcfbfbfcfbfbfcfbfbfcfbfbfcfbfbfcfbfdfefffg",
"fhfifjfkflfmfmfmfmfmfmfmfmfmfmfmfmfmfmfmfmfmfmfmfmfnfofpfqfr",
"fsftfufvfwfxfyfxfxfyfxfxfyfxfxfyfxfxfyfxfxfyfxfxfzfAfBfCfDfE",
"fFfGfHfIfJfKfLfKfKfLfKfKfLfKfKfLfKfKfLfKfKfLfKfKfMfNfOfPfQQt",
"#efRfSfTfUfVfVfVfVfVfVfVfVfVfVfVfVfVfVfVfVfVfVfWfWfXfYfZfR#e"};
