/* XPM */
static char *dummy[]={
"30 30 506 2",
"ar c #202020",
"aq c #212121",
"ap c #2d2d2d",
"a3 c #3b2e27",
"aN c #3e352f",
"a7 c #3f342e",
"a4 c #433229",
"#7 c #535353",
"aK c #555555",
"br c #5e4a3f",
"bl c #5e5a57",
"#6 c #636363",
"aO c #686868",
"bk c #6d6d6d",
"cZ c #6f5b47",
"cF c #706151",
"di c #706a65",
"bD c #727272",
"b0 c #737373",
"dF c #744d25",
"a8 c #747474",
"a2 c #757575",
"ao c #787878",
"dh c #794817",
"bG c #797979",
"dE c #7a4611",
"dD c #7c440c",
"as c #7c7c7c",
"dX c #7e4103",
"dj c #7e7e7e",
"dm c #7f3f00",
"at c #7f7f7f",
"cL c #804000",
"c3 c #804305",
"bE c #818181",
"dY c #826446",
"b1 c #828282",
"cK c #835322",
"#8 c #838383",
"cp c #845322",
"bm c #845539",
"cG c #848484",
"bj c #858585",
"dC c #885016",
"cH c #898989",
"c4 c #8a5017",
"cJ c #8e7f72",
"an c #8e8e8e",
"cl c #8f8f8f",
"d0 c #905e2c",
"c2 c #906438",
"al c #908c8c",
"co c #918b85",
"b8 c #928c86",
"aI c #929292",
"c0 c #939393",
"bs c #949494",
"fV c #957978",
"bO c #95918f",
"am c #969696",
"b5 c #97928f",
"cn c #979797",
"#5 c #989898",
"dW c #996a3c",
"ck c #999999",
"d1 c #9a6b3d",
"bq c #9b603f",
"fK c #9b7979",
"#L c #9b9393",
"b4 c #9b9b9b",
"bn c #9c613f",
"fo c #9c7271",
"b3 c #9c9c9c",
"cY c #9e7348",
"cE c #9e774e",
"aL c #9f7e6c",
"#s c #9f8383",
"#r c #9f8585",
"b7 c #9f8f86",
"cm c #9f9f9f",
"ej c #a17850",
"#M c #a1a1a1",
"a5 c #a36441",
"fe c #a36665",
"b6 c #a38d81",
"dZ c #a58f79",
"#4 c #a59999",
"eO c #a85d5c",
"dG c #a88562",
"fz c #a89493",
"cj c #a8a098",
"ev c #a95857",
"e4 c #a96262",
"ef c #a99999",
"au c #a9a9a9",
"dN c #aa4c4c",
"bN c #aa8b78",
"bh c #aa9090",
"bC c #aa9191",
"bZ c #aa9292",
"ci c #aa9393",
"cD c #aa9494",
"cX c #aa9595",
"df c #aa9696",
"dA c #aa9797",
"dU c #aa9898",
"f0 c #aa9a9a",
"e. c #ab5252",
"f1 c #ab9b9b",
"av c #ababab",
"dt c #ac4747",
"dg c #ac8a6a",
"a1 c #ac8e8e",
"b2 c #acacac",
"cQ c #ad3c3b",
"d. c #ad4241",
"bI c #ad8a77",
"fO c #ad8b8b",
"a# c #adadad",
"cw c #ae3736",
"fZ c #ae9e9e",
"bT c #af2b2b",
"ek c #af8969",
"bw c #b02525",
"cb c #b03131",
"dn c #b09172",
"bH c #b0b0b0",
"f2 c #b1a9a9",
"aA c #b21515",
"aU c #b21b1b",
"ba c #b22020",
"fU c #b38b8b",
"#w c #b40808",
"#R c #b40a0a",
"ae c #b40f0f",
".2 c #b42828",
"#f c #b50a0a",
"fB c #b58686",
"aH c #b5adad",
"#q c #b5b0b0",
"a. c #b5b5b5",
"fW c #b6b3b3",
".R c #b75858",
"fY c #b7adac",
"#N c #b89494",
"dk c #b8b8b8",
"dl c #baa794",
"cI c #bababa",
"fp c #bb9595",
"eV c #bba5a5",
"bi c #bbbbbb",
"aP c #bcbcbc",
"fL c #bdbcbc",
"fN c #beb3b3",
"ff c #c07d7c",
"#n c #c08282",
"fP c #c09695",
"f3 c #c0bfbf",
"bM c #c1805c",
".F c #c1a5a5",
".k c #c1c1c1",
"fA c #c2bcbc",
".j c #c2c1c1",
"bo c #c37549",
"eC c #c3a8a8",
"ei c #c3b2a1",
"c1 c #c3bdb8",
".# c #c3c1c1",
"Qt c #c3c3c3",
"a6 c #c47649",
"bJ c #c47f58",
"fy c #c48887",
".l c #c4c2c2",
"fX c #c4c4c4",
"#p c #c5c5c5",
"#X c #c67777",
"aG c #c69898",
"#Y c #c6aaaa",
"d2 c #c6b6a5",
"fM c #c6c6c6",
"fJ c #c79190",
"#0 c #c7c1c1",
"fT c #c99d9c",
"#K c #ca8f8f",
"dV c #cabcaf",
"bL c #cb7d50",
".v c #cb9191",
"#1 c #ccc9c9",
"bp c #ce7b4b",
".u c #ce9898",
"fQ c #cea1a0",
"e5 c #cf807f",
"eh c #cfc5bc",
"bK c #d07c4c",
".i c #d0b0af",
"cq c #d0c8bf",
"dB c #d1c9c2",
"eP c #d27a7a",
"fR c #d2a4a3",
"el c #d2bbb1",
"ew c #d37474",
"#3 c #d39393",
"fS c #d3a5a4",
"aM c #d3b6a6",
"b9 c #d3d1cf",
"bt c #d3d3d3",
"e# c #d46d6c",
"#J c #d47777",
"fC c #d49b9a",
".a c #d4a8a7",
"aJ c #d4d4d4",
"aa c #d59191",
"fq c #d59392",
"c5 c #d5cfc9",
"du c #d65f5e",
"dO c #d66665",
"ak c #d66868",
"d# c #d75858",
"#o c #d7d7d7",
".G c #d84d4d",
"cR c #d85150",
"fn c #d88c8b",
"fI c #d89f9e",
"#9 c #d8d8d8",
"cx c #d94a49",
".m c #d98b8b",
"cc c #da4342",
"aw c #da7f7f",
"bU c #db3b3b",
"fx c #db9897",
"#a c #dbd4d4",
"eg c #dbd9d7",
"dH c #dbd9d8",
"d3 c #dcd7d5",
"do c #dcdcdc",
".S c #dd1e1e",
"bx c #dd3535",
"#Z c #ddc2c2",
"bb c #de2e2e",
"bF c #dedede",
"aB c #df1f1f",
"aV c #df2727",
"af c #e01919",
"aQ c #e09292",
"#b c #e0b6b6",
"#S c #e11212",
"fd c #e18a89",
"eD c #e1cfcf",
"d4 c #e1d3d3",
"#g c #e20909",
".3 c #e20b0b",
"#x c #e20c0c",
"fD c #e2a6a5",
"em c #e2c3c1",
"eW c #e2d2d2",
"eN c #e37d7c",
"fH c #e3a8a7",
"eu c #e47575",
"e3 c #e48584",
"fg c #e49493",
"fr c #e49d9d",
"#2 c #e5b4b4",
"d5 c #e5c6c6",
".E c #e65555",
"fE c #e6a9a8",
"fF c #e6aaa9",
"dM c #e76666",
"d9 c #e76e6d",
"fm c #e79796",
"fG c #e7abaa",
"eE c #e7bfbe",
"ds c #e85f5f",
"## c #e89797",
"fw c #e8a1a0",
"bu c #e99c9c",
"bP c #e99f9f",
"cr c #e9a6a5",
"cM c #e9a9a9",
"dp c #e9afaf",
"dI c #e9b2b2",
"eX c #e9c2c1",
"cP c #ea504f",
"c9 c #ea5757",
".h c #eaa5a4",
"eF c #eabcbc",
"cv c #eb4948",
"e6 c #eb9190",
"a9 c #eb9a9a",
"c. c #eba4a4",
"c6 c #ebadad",
"aF c #ec6868",
"#. c #ec8484",
"en c #ecaeae",
"bS c #ed3a3a",
"ca c #ed4241",
"ex c #ed8281",
"eQ c #ed8a89",
"fh c #ed9b9a",
"fs c #eda5a4",
"bv c #ee3232",
"fc c #ee9493",
"f# c #eeb3b2",
".Q c #ef3c3c",
"ea c #ef7b7a",
"eY c #efb1b1",
".1 c #f02121",
"aT c #f02323",
"e2 c #f08c8c",
"b# c #f12a2a",
"dv c #f16a6a",
"dP c #f17372",
"eM c #f18584",
"eo c #f1a0a0",
".b c #f1adac",
"az c #f21c1c",
"da c #f26363",
"et c #f27d7c",
"e7 c #f29796",
"fv c #f2a8a7",
"#E c #f35252",
"#F c #f35454",
"d8 c #f37574",
"fl c #f39f9e",
"#v c #f40b0b",
"#e c #f40d0d",
"#Q c #f40e0e",
"ad c #f41414",
"#I c #f44949",
"cS c #f45c5b",
"dL c #f46d6c",
"d6 c #f49999",
"eG c #f49a9a",
"ft c #f4a9a8",
"#t c #f53c3c",
"cy c #f55453",
"dr c #f56565",
"ey c #f58786",
"eR c #f58f8f",
"fu c #f5aaa9",
"#H c #f63838",
"cd c #f64c4b",
"c8 c #f65d5d",
"eb c #f67f7f",
"fi c #f6a2a1",
".g c #f6b3b1",
"cO c #f75555",
".w c #f76160",
"eH c #f79291",
"fb c #f79a99",
"eZ c #f79c9c",
"fj c #f7a2a1",
"f. c #f7a4a4",
".9 c #f83939",
"by c #f83c3c",
"bV c #f84444",
"cu c #f84e4d",
"e0 c #f89898",
"e9 c #f89b9a",
"fa c #f8a1a0",
"fk c #f8a3a2",
"bc c #f93434",
"c# c #f94646",
"dw c #f96f6e",
"dQ c #f97777",
".t c #f98685",
"eq c #f98787",
"eL c #f98a89",
"ep c #f98c8c",
"e1 c #f99392",
"e8 c #f99c9b",
"eU c #f9a0a0",
".c c #f9b9b7",
"bR c #fa3e3e",
"db c #fa6767",
"es c #fa8181",
"eA c #fa8a89",
"eK c #fa8a8a",
"eB c #fa8f8f",
"eI c #fa908f",
"eS c #fa9392",
"eT c #fa9393",
"ag c #fb1d1d",
".T c #fb2323",
"#C c #fb2424",
".0 c #fb2525",
".Y c #fb3636",
"cz c #fb5857",
"er c #fb8181",
"ed c #fb8281",
"ee c #fb8989",
"ez c #fb8b8a",
"eJ c #fb8b8b",
".d c #fbc2c0",
"#h c #fc0b0b",
"#y c #fc0e0e",
"#D c #fc2525",
"aS c #fc2626",
"#O c #fc2b2b",
"aW c #fc2c2c",
"b. c #fc2e2e",
".Z c #fc3131",
".P c #fc4241",
".H c #fc4242",
"ce c #fc504f",
"cT c #fc605f",
"dK c #fc7271",
"ec c #fc8382",
".n c #fc9392",
".4 c #fd0d0d",
"#i c #fd0e0e",
"#k c #fd0f0f",
"#z c #fd1111",
"#l c #fd1313",
"#T c #fd1515",
"#G c #fd1a1a",
"#B c #fd1e1e",
"ay c #fd1f1f",
"#m c #fd2020",
"ai c #fd2121",
".8 c #fd2222",
"#c c #fd2424",
".U c #fd2525",
".W c #fd2727",
"aD c #fd2929",
"aE c #fd2b2b",
"ab c #fd2d2d",
"bd c #fd3737",
"bf c #fd3939",
"bz c #fd4040",
"bQ c #fd4141",
".L c #fd4241",
".K c #fd4242",
".O c #fd4343",
".I c #fd4444",
"bg c #fd4646",
"bB c #fd4e4e",
"ct c #fd5252",
"cg c #fd5352",
"cN c #fd5a59",
"cB c #fd5a5a",
"ch c #fd5e5d",
"cC c #fd6564",
"dq c #fd6a69",
"dd c #fd6a6a",
"dy c #fd7272",
"de c #fd7474",
"d7 c #fd7a79",
"dR c #fd7a7a",
"dz c #fd7b7b",
".s c #fda3a1",
".r c #fdafae",
".p c #fdb3b1",
".f c #fdc2c1",
".e c #fdc3c1",
"#u c #fe0d0d",
"#d c #fe0f0f",
"#P c #fe1010",
"ac c #fe1717",
".X c #fe2929",
".M c #fe4241",
".N c #fe4242",
"bW c #fe4747",
"c7 c #fe6261",
".D c #fe6665",
"dx c #fe7271",
"dS c #fe7a7a",
"dT c #fe8382",
"#j c #ff0f0f",
".5 c #ff1010",
".6 c #ff1111",
".7 c #ff1212",
"#A c #ff1313",
"#U c #ff1818",
"#V c #ff1a1a",
"ah c #ff2222",
"#W c #ff2323",
"ax c #ff2424",
"aj c #ff2626",
".V c #ff2727",
"aC c #ff2929",
"aR c #ff2a2a",
"aX c #ff2f2f",
"aY c #ff3131",
"aZ c #ff3232",
"be c #ff3939",
"a0 c #ff3e3e",
"bA c #ff4242",
".J c #ff4545",
"bX c #ff4a4a",
"cf c #ff5252",
"cs c #ff5352",
"bY c #ff5656",
"cA c #ff5a5a",
"cV c #ff6262",
"cU c #ff6362",
"dc c #ff6a6a",
"cW c #ff6d6c",
".C c #ff6f6f",
".x c #ff706f",
"dJ c #ff7272",
".y c #ff7372",
".B c #ff7473",
".A c #ff7474",
".z c #ff7675",
".o c #ffadac",
".q c #ffb4b2",
"Qt.#.a.b.c.d.e.d.d.e.d.d.e.d.d.e.d.d.e.d.d.e.d.d.f.g.h.i.j.k",
".l.m.n.o.p.p.q.p.p.q.p.p.q.p.p.q.p.p.q.p.p.q.p.p.q.r.s.t.u.j",
".v.w.x.y.z.A.B.B.B.B.B.B.B.B.B.B.B.B.B.B.B.B.B.B.B.A.C.D.E.F",
".G.H.I.J.K.L.M.L.L.M.L.L.M.L.L.M.L.L.M.L.L.M.L.L.N.O.O.P.Q.R",
".S.T.U.V.W.W.V.W.W.V.W.W.V.W.W.V.W.W.V.W.W.X.Y.Z.V.W.W.0.1.2",
".3.4.5.6.6.7.7.7.7.7.7.7.7.7.7.7.7.7.8.9#.###a#b#c.6.6#d#e#f",
"#g#h#i#j#k#k#j#k#k#j#k#k#j#k#k#j#l#m#n#o#p#q#r#s#t#k#k#u#v#w",
"#x#y#z#A#l#l#A#B#C#D#E#F#B#G#H#I#J#K#L#o#M#N#O#l#A#l#l#P#Q#R",
"#S#T#U#V#V#V#W#X#Y#Z#0#1#2#3#4#5#6#7#8#9a.a#aaab#V#V#Vacadae",
"afag#mah.8aiajakalamaman#oaoapaqararas#oatauavawax.8aiayazaA",
"aB#C.WaCaDaEaFaGaHa#avaIaJaKaraqararaLaMaNaOaPaQaRaDaDaSaTaU",
"aVaWaXaYaZa0a1#5a#a#ana2aJaKaqaqa3a4a5a6a7a8aJa9aZaZaYb.b#ba",
"bbbcbdbebfbgbha2#5bibjbkaJblbmbnbobpbqbra8bsbtbubebfbf.Ybvbw",
"bxbybzbA.KbBbCbDbEbFavbGbHbIbJbKbLbMbNbOaIbsbtbPbA.KbQbRbSbT",
"bUbVbWbXbXbYbZb0b1bFb2a2b3b4b5b6b7bsbsbsbsb8b9c.bXbXbXc#cacb",
"cccdcecfcgchcibDbEbFcja2b4ckaIclcmcnbsaIcocpcqcrcscgctcucvcw",
"cxcyczcAcBcCcDbDbEbFcEcFb4ckcGcHbicI#5cJcKcLcqcMcAcBcNcOcPcQ",
"cRcScTcUcVcWcXb0b1bFcYcZc0aub1#5bic1c2c3cLc4c5c6cUcUc7c8c9d.",
"d#dadbdcdddedfbDbEbFdgdhdibGb0djdkdlcLdmdmdndodpdcdddqdrdsdt",
"dudvdwdxdydzdAbDbEbFdBdCdDdEdFdjdkdlcLdmdGdHdodIdJdydKdLdMdN",
"dOdPdQdRdSdTdUb0b1bFbFdVdWcLdXdYdZd0d1d2d3d4d5d6dSdSd7d8d9e.",
"e#eaebecedeeefbDbEbFdodoegeheiejekelemeneoepeqerecedeseteuev",
"ewexeyezeAeBeCbDbEbFdodobFeDeEeFeGeHeIeAeAeJeAeAeJeKeLeMeNeO",
"ePeQeReSeTeTeUeVb1eWeXeYeZe0eTeTeTeTeTeTeTeTeTeTeTeTe1e2e3e4",
"e5e6e7e8e9e9e8f.f#fae9e9e8e9e9e8e9e9e8e9e9e8e9e9e8e9fbfcfdfe",
"fffgfhfifjfjfkfjfjfkfjfjfkfjfjfkfjfjfkfjfjfkfjfjfkfjflfmfnfo",
"fpfqfrfsftfufufufufufufufufufufufufufufufufufufufufvfwfxfyfz",
"fAfBfCfDfEfFfGfFfFfGfFfFfGfFfFfGfFfFfGfFfFfGfFfFfGfHfIfJfKfL",
"fMfNfOfPfQfRfSfRfRfSfRfRfSfRfRfSfRfRfSfRfRfSfRfRfSfTfUfVfWfX",
"fXfM.jfYfZf0f0f0f0f0f0f0f0f0f0f0f0f0f0f0f0f0f0f0f0f1f2f3#p#p"};
