/* XPM */
static char *dummy[]={
"30 30 501 2",
"az c #202020",
"ay c #212121",
"ax c #2d2d2d",
"b# c #3b2e27",
"aX c #3e352f",
"bd c #3f342e",
"ba c #433229",
"#D c #497ab6",
"#Z c #4a7ab6",
"#k c #4a7ab7",
"al c #4b7bb7",
"aI c #4d7cb6",
"a3 c #4e7db6",
".6 c #507db6",
"bh c #517eb8",
"ac c #535353",
"#l c #537eb2",
"bE c #537fb8",
"#E c #547eb2",
"#C c #548acf",
"aU c #555555",
".7 c #557eb2",
"#0 c #557fb2",
"#j c #558cd0",
"#m c #558dd4",
"b1 c #5680b8",
"#Y c #568bcf",
"#F c #568ed4",
".8 c #568fd5",
"am c #5780b2",
"ak c #578cd1",
"#1 c #5790d6",
"aJ c #5980b2",
"ck c #5983ba",
"aH c #598dd0",
"an c #5990d5",
"#n c #5992da",
"#G c #5a93da",
"#B c #5a93db",
"a4 c #5b82b3",
"a2 c #5b8ed0",
"#X c #5b94db",
".9 c #5b94dc",
"#2 c #5b95dc",
"aK c #5c91d5",
"aj c #5c95dc",
"bi c #5d83b3",
"cD c #5d84b9",
"bg c #5d91d2",
"ao c #5d95db",
"#A c #5d97e0",
"#p c #5d98e0",
"#o c #5d98e1",
"#q c #5d99e2",
"bx c #5e4a3f",
"br c #5e5a57",
".5 c #5e91d3",
"aG c #5e96dc",
"#H c #5e98e0",
"#. c #5e99e1",
"#i c #5e99e2",
"## c #5e9ae2",
"a5 c #5f93d7",
"#r c #5f99e1",
"#a c #5f9ae2",
"bF c #6084b3",
"cX c #6087ba",
"bD c #6091d2",
"aL c #6096db",
".V c #6195d8",
"a1 c #6197dc",
"ap c #619ae2",
"fD c #627d9d",
"b2 c #6286b4",
"bj c #6294d6",
"aq c #629ae1",
"ab c #636363",
"b0 c #6393d2",
".4 c #6399dd",
"#O c #639be1",
"de c #648abc",
".W c #6499de",
"aN c #649be1",
"aM c #649be2",
"aF c #649de3",
"cl c #6587b5",
".T c #6588b7",
"bG c #6596d7",
"#N c #659de1",
"ar c #659de3",
"bk c #669add",
"bC c #669bde",
"aO c #669ce2",
"#I c #669de1",
"a6 c #669de3",
"#3 c #669ee3",
"fP c #677c98",
"dx c #678bbc",
"cj c #6796d4",
".3 c #679de2",
"a7 c #679de3",
".X c #679ee3",
"aY c #686868",
"cE c #6889b5",
".Y c #689ee2",
"#s c #689fe2",
".Z c #689fe3",
"fi c #6985aa",
"b3 c #699ad9",
"#J c #699ee0",
".0 c #699fe3",
"#b c #69a0e2",
"dP c #6a8dbd",
"bH c #6a9cdd",
"bZ c #6a9dde",
"bl c #6a9ee3",
"bB c #6a9fe4",
"#K c #6aa0e1",
"#h c #6aa1e2",
"cY c #6b8cb6",
"cC c #6b97d3",
".U c #6c8fbb",
"e. c #6c90be",
"ai c #6ca2e3",
"bq c #6d6d6d",
"df c #6d8db6",
"cm c #6d9bd9",
"bI c #6da1e4",
"bY c #6da1e5",
"cW c #6e9ad4",
"ci c #6e9fdf",
"b4 c #6e9fe0",
".2 c #6ea1e2",
"#W c #6ea2e2",
"c6 c #6f5b47",
"et c #6f90be",
"cM c #706151",
"dm c #706a65",
"dy c #708fb7",
"cF c #709ed9",
".S c #709fde",
"a8 c #70a3e5",
"eK c #7193be",
".1 c #71a3e2",
"b5 c #71a4e6",
"b6 c #71a5e6",
"bL c #727272",
"dd c #729dd6",
"cn c #72a1df",
"cB c #72a1e0",
"b9 c #737373",
"fs c #73859b",
"dQ c #7391b8",
"e0 c #7395c0",
".K c #73a3e3",
"bm c #73a5e4",
"dI c #744d25",
"be c #747474",
"e# c #7492b9",
"f# c #7494bd",
"cZ c #74a0db",
"b. c #757575",
"cG c #75a3e0",
"#P c #75a4de",
"cV c #75a4e1",
"co c #75a6e7",
"eu c #7694b9",
"dw c #76a0d7",
"cp c #76a6e6",
".O c #76a6e7",
".R c #76a7e7",
".P c #76a7e8",
"dg c #77a2db",
"#c c #77a7e1",
"bJ c #77a7e5",
".N c #77a7e8",
".L c #77a8e9",
"aw c #787878",
"fI c #7893b6",
"fO c #7894b8",
"eL c #7895b9",
".Q c #78a8e8",
"cH c #78a9e7",
"dl c #794817",
"bO c #797979",
"#z c #79a6df",
"c0 c #79a6e2",
"cI c #79a9e7",
"cU c #79aae8",
"dH c #7a4611",
"fu c #7a91ae",
"fk c #7a9bc5",
"dO c #7aa2d7",
".M c #7aabed",
"dz c #7ba5dc",
"b7 c #7baae7",
"dG c #7c440c",
"aA c #7c7c7c",
"fr c #7c9ec8",
"fH c #7d91ab",
"d9 c #7da5d9",
"dh c #7da8e2",
"dv c #7da9e3",
"c1 c #7dabe9",
"c2 c #7dace9",
"dY c #7e4103",
"dn c #7e7e7e",
"cq c #7eabe8",
"dc c #7eace9",
"dq c #7f3f00",
"aB c #7f7f7f",
"fv c #7f9fc9",
"fC c #7fa0c9",
"es c #7fa5d9",
"dR c #7fa8de",
"cS c #804000",
"d. c #804305",
"e1 c #809abb",
".x c #80aae1",
"#Q c #80abdf",
"dA c #80abe3",
"di c #80ade9",
"bM c #818181",
"eJ c #81a7da",
"ea c #81a9de",
"dN c #81ace4",
"cJ c #81aee9",
"du c #81aeea",
"dZ c #826446",
"c. c #828282",
"fh c #82a7d4",
"cR c #835322",
"ad c #838383",
"ev c #83abde",
"cy c #845322",
"bs c #845539",
"cN c #848484",
"fJ c #84a2c8",
"fN c #84a3c9",
"fb c #84aad8",
"eZ c #84aadb",
"dS c #84aee5",
".H c #84afe7",
"dB c #84b0ea",
"bp c #858585",
"f. c #85aada",
"#L c #85aedf",
"dM c #85b1eb",
"#M c #86aedf",
"eM c #86aee0",
"eb c #86afe5",
"c3 c #86b1eb",
"fq c #87abd7",
"e2 c #87aede",
"er c #87b0e6",
"dF c #885016",
"fa c #889db8",
"as c #88a4c8",
"fK c #88a7ce",
"fM c #88a7cf",
"fB c #88abd6",
"dT c #88b3eb",
"d8 c #88b4ec",
"cO c #898989",
"fL c #89a8d0",
"fl c #89adda",
"ew c #89b1e6",
"dj c #89b3eb",
"dU c #89b4ec",
"d# c #8a5017",
"eI c #8ab2e6",
"ed c #8ab5ec",
"ec c #8bb5ec",
"eq c #8bb6ed",
"#y c #8c939b",
"fw c #8cafdb",
"fc c #8cb2e2",
"fg c #8cb3e3",
"eN c #8cb4e7",
"dC c #8cb5ec",
"at c #8d8e90",
"#x c #8d949c",
".J c #8da4c4",
"aP c #8dafdb",
"e3 c #8db5e6",
"e9 c #8db5e7",
"ey c #8db7ed",
"cQ c #8e7f72",
"av c #8e8e8e",
"fV c #8e99a9",
"fW c #8e9aa9",
"eH c #8eb7ec",
"ex c #8eb8ed",
"eG c #8eb8ee",
"cu c #8f8f8f",
"#4 c #8fa3bc",
"fA c #8fb3df",
"fp c #8fb5e3",
"fm c #8fb5e4",
"ep c #8fb7eb",
"d1 c #905e2c",
"c9 c #906438",
"fx c #90b4e0",
"dV c #90b9ed",
"eO c #90baee",
"cx c #918b85",
".u c #91add2",
"fy c #91b5e1",
"eY c #91baee",
"eP c #91baef",
"eX c #91bbef",
".G c #91bff6",
"cf c #928c86",
"aS c #929292",
"fz c #92b6e3",
"ee c #92b9ed",
"fd c #92baec",
"eF c #92baed",
"ez c #92baee",
"e4 c #92bbee",
"c7 c #939393",
"fe c #93bcee",
"e5 c #93bcef",
"by c #949494",
"#R c #94acc8",
"eo c #94baeb",
"fn c #94bbec",
"ff c #94bdf0",
"bW c #95918f",
"fU c #95a0ae",
"fo c #95bced",
"au c #969696",
"#T c #96989a",
"bn c #969da6",
"a9 c #969ea8",
"#t c #96a6b9",
"eW c #96bdee",
"cc c #97928f",
"cw c #979797",
"bK c #979da6",
"b8 c #979ea6",
"aa c #989898",
"cr c #989ea6",
"cK c #989fa7",
"e8 c #98bfee",
".y c #98c6fb",
"dX c #996a3c",
"ct c #999999",
"c4 c #999fa7",
".I c #99aac1",
"aE c #99b1ce",
"d2 c #9a6b3d",
"dD c #9aa0a7",
"fX c #9aa3ad",
"eV c #9abfed",
"bw c #9b603f",
"cb c #9b9b9b",
".F c #9bc9fc",
"bt c #9c613f",
"ca c #9c9c9c",
"fQ c #9ca2aa",
"eE c #9cbeea",
"e6 c #9cc1ee",
".z c #9ccafe",
"a# c #9da0a4",
".D c #9dcbfc",
".C c #9dccfc",
"c5 c #9e7348",
"cL c #9e774e",
"fj c #9eaaba",
"eQ c #9ec2ef",
".B c #9eccfc",
".E c #9ecdfc",
"aV c #9f7e6c",
"ce c #9f8f86",
"cv c #9f9f9f",
".A c #9fcdfc",
"#V c #a0a9b4",
"ei c #a17850",
"#U c #a1a1a1",
"#S c #a2b1c3",
"bb c #a36441",
"cd c #a38d81",
"fE c #a3a7ad",
"d7 c #a3c1e8",
".l c #a3cdf7",
"eR c #a4adb9",
"d0 c #a58f79",
"aQ c #a5b1c0",
"#d c #a5c0df",
"en c #a5c2e7",
"a. c #a6b7cb",
"ah c #a6b8cd",
"a0 c #a7bcd5",
"dJ c #a88562",
"cs c #a8a098",
"ej c #a98b6f",
"aC c #a9a9a9",
"eA c #a9b3bf",
"bV c #aa8b78",
"fT c #aab2bb",
".k c #aab9cd",
".t c #aad4fd",
"aD c #ababab",
".h c #abbfd7",
"dk c #ac8a6a",
"c# c #acacac",
"e7 c #acc6e7",
"bQ c #ad8a77",
"ag c #adadad",
"aR c #afb1b4",
"bA c #afc4df",
"bf c #afc4e0",
"eU c #afc8e8",
".g c #afd3f0",
"dr c #b09172",
"bP c #b0b0b0",
"bX c #b0c5df",
"#w c #b1b3b4",
"#e c #b1c5de",
"em c #b2c8e5",
"#5 c #b3b9c2",
"ch c #b3c7e1",
".w c #b4bbc4",
"cA c #b4c7e0",
"af c #b5b5b5",
"cT c #b5c8e1",
".b c #b6d5ee",
"do c #b8b8b8",
".a c #b8c3cf",
"dt c #b8cae1",
"db c #b8cae2",
"fG c #b9bcbf",
"dp c #baa794",
"cP c #bababa",
"dL c #bacbe2",
"bo c #bbbbbb",
"aZ c #bcbcbc",
".c c #bce3f8",
"fY c #bdbebf",
"eD c #bdcee5",
"eC c #bfcfe3",
"ft c #c0c2c4",
"eT c #c0d0e4",
".f c #c0e6fa",
"bU c #c1805c",
".j c #c1c1c1",
"fS c #c1c1c2",
".v c #c1c2c3",
".# c #c2c2c2",
".i c #c2c3c4",
"bu c #c37549",
"eh c #c3b2a1",
"c8 c #c3bdb8",
"Qt c #c3c3c3",
"#7 c #c3c5c7",
"#g c #c3cedb",
"#9 c #c3d0de",
".s c #c3edfd",
"bc c #c47649",
"bR c #c47f58",
"fR c #c4c4c4",
"ek c #c5c0be",
"#v c #c5c5c5",
".m c #c5efff",
"d3 c #c6b6a5",
"fF c #c6c6c6",
"el c #c7cfdb",
"d6 c #c9d4e1",
".d c #c9ecfc",
"dW c #cabcaf",
"#8 c #cacbcc",
"#6 c #cad1d9",
".e c #caedfe",
"bT c #cb7d50",
".r c #cdf5fd",
"bv c #ce7b4b",
".n c #cef6fd",
"eg c #cfc5bc",
"eB c #cfd6df",
".q c #cff5fd",
".o c #cff6fd",
"bS c #d07c4c",
"cz c #d0c8bf",
".p c #d0f6ff",
"dE c #d1c9c2",
"eS c #d1d8e1",
"aW c #d3b6a6",
"cg c #d3d1cf",
"bz c #d3d3d3",
"aT c #d4d4d4",
"da c #d5cfc9",
"d5 c #d5d9df",
"#f c #d6d8da",
"#u c #d7d7d7",
"ae c #d8d8d8",
"d4 c #d9d8d8",
"ef c #dbd9d7",
"dK c #dbd9d8",
"ds c #dcdcdc",
"bN c #dedede",
"Qt.#.a.b.c.d.e.d.d.e.d.d.e.d.d.e.d.d.e.d.d.e.d.d.e.f.g.h.i.j",
"Qt.k.l.m.n.o.p.q.q.p.q.q.p.q.q.p.q.q.p.q.q.p.q.q.p.r.s.t.u.v",
".w.x.y.z.A.B.C.D.D.C.D.D.C.D.D.C.D.D.C.D.D.C.D.D.C.E.F.G.H.I",
".J.K.L.M.N.O.P.O.O.P.O.O.P.O.O.P.O.O.P.O.O.P.O.O.P.N.Q.R.S.T",
".U.V.W.X.Y.Y.Z.Y.Y.Z.Y.Y.Z.Y.Y.Z.Y.Y.Z.Y.Y.0.1.2.Z.Y.3.4.5.6",
".7.8.9#.#####a#a#a#a#a#a#a#a#a#a#a#a#b#c#d#e#f#g#h###i.9#j#k",
"#l#m#n#o#p#p#q#p#p#q#p#p#q#p#p#q#r#s#t#u#v#w#x#y#z#p#A#B#C#D",
"#E#F#G#.#H#H###I#J#K#L#M#N#O#P#Q#R#S#T#u#U#V#W#H###H#H#X#Y#Z",
"#0#1#2#r#a#a#3#4#5#6#7#8#9a.a#aaabacadaeafagahai#a#a#aajakal",
"amanaoapaqaqarasatauauav#uawaxayazazaA#uaBaCaDaEaFaqaqaGaHaI",
"aJaKaLaMaNaOaPaQaRagaDaSaTaUazayazazaVaWaXaYaZa0araNaNa1a2a3",
"a4a5.4a6a7a8a9aaagagavb.aTaUayayb#babbbcbdbeaTbf.Xa7a6.4bgbh",
"bibjbk.0blbmbnb.aabobpbqaTbrbsbtbubvbwbxbebybzbAbBblblbCbDbE",
"bFbGbHbIbIbJbKbLbMbNaDbObPbQbRbSbTbUbVbWaSbybzbXbYbIbIbZb0b1",
"b2b3b4b5b6b7b8b9c.bNc#b.cacbcccdcebybybybycfcgchb5b6b5cicjck",
"clcmcncocpcqcrbLbMbNcsb.cbctaScucvcwbyaScxcyczcA.PcpcpcBcCcD",
"cEcFcGcHcIcJcKbLbMbNcLcMcbctcNcObocPaacQcRcSczcTcUcIcIcVcWcX",
"cYcZc0c1c2c3c4b9c.bNc5c6c7aCc.aaboc8c9d.cSd#dadbdcc2c2c0ddde",
"dfdgdhcJdidjc4bLbMbNdkdldmbOb9dndodpcSdqdqdrdsdtdudididvdwdx",
"dydzdAdBdBdCdDbLbMbNdEdFdGdHdIdndodpcSdqdJdKdsdLdMdBdBdNdOdP",
"dQdRdSdTdUdVdDb9c.bNbNdWdXcSdYdZd0d1d2d3d4d5d6d7dUdUd8dSd9e.",
"e#eaebecedeedDbLbMbNdsdsefegeheiejekelemeneoepedeqededereset",
"euevewexeyezeAbLbMbNdsdsbNeBeCeDeEeoeFeyeyeGeyeyeGexeHeIeJeK",
"eLeMeNeOePePeQeRc.eSeTeUeVeWePeXePePeXePePeXePePeXePeYeNeZe0",
"e1e2e3e4e4e4e5e6e7e8e4e4e5e4e4e5e4e4e5e4e4e5e4e4e5e4eFe9f.f#",
"fafbfcfdfefefffefefffefefffefefffefefffefefffefefffefdfgfhfi",
"fjfkflfmfnfofofofofofofofofofofofofofofofofofofofofnfpfqfrfs",
"ftfufvfwfxfyfzfyfyfzfyfyfzfyfyfzfyfyfzfyfyfzfyfyfzfAfBfCfDfE",
"fFfGfHfIfJfKfLfMfMfLfMfMfLfMfMfLfMfMfLfMfMfLfMfMfLfNfOfPfQfR",
"fRfFfSfTfUfVfVfVfVfVfVfVfVfVfVfVfVfVfVfVfVfVfVfVfVfWfXfY#v#v"};
