/* XPM */
static char *dummy[]={
"30 30 562 2",
"eE c #0404fb",
"d. c #07c8c8",
"d# c #09cccb",
"eF c #0c0cfc",
"e0 c #0f0ffc",
"c9 c #0f9595",
"ek c #1616ed",
"eV c #1919dd",
"cM c #1f2c2b",
"#1 c #212120",
"eW c #2222cb",
"cN c #22706f",
"#2 c #252321",
"cn c #252525",
"dx c #27e2e1",
"da c #289292",
"#H c #2a2a2a",
"ff c #2d2de1",
"dy c #30dbdb",
"cm c #353535",
"cP c #354949",
"eZ c #3939f1",
"ey c #3a3add",
"#I c #3c3c3a",
"c8 c #3d6e6e",
"cO c #3edada",
"#G c #3f3f3e",
"cL c #444443",
"fe c #4444f2",
"co c #464c4b",
"ed c #4a4ac8",
"#3 c #4d3d33",
"#5 c #4f433c",
"eD c #5656e9",
"#0 c #575756",
"dz c #5bbbbb",
"fg c #5c5cdf",
"ej c #6060b9",
"dw c #62b8b8",
"eX c #65658d",
"cl c #666666",
"ak c #674531",
"aj c #675f5a",
"fh c #6868ea",
"ao c #6d6965",
"ez c #71718a",
"eU c #7171ec",
"ah c #727272",
"cf c #75522e",
"cg c #75695c",
"dZ c #7575a7",
"db c #757a79",
"aZ c #797978",
"aA c #797979",
"ce c #7b4c1c",
"bQ c #7c766f",
"dS c #7f7f7e",
"du c #7f7f7f",
"el c #7f7fea",
"#F c #808080",
"bS c #818180",
"e1 c #8181ea",
"eB c #828282",
"fd c #8383e9",
"bs c #858585",
"bq c #878786",
"a2 c #878787",
"cq c #878988",
"an c #885c42",
"b1 c #888882",
"dA c #889696",
"eg c #898989",
"dX c #8a9695",
"bw c #8b6137",
"cG c #8b6339",
"dU c #8c8c98",
"dV c #8d8d8d",
"ee c #8d8d8e",
"bv c #8e8174",
"af c #8e8e8e",
"al c #8f5a3b",
"eA c #8f8f8f",
"a8 c #918a82",
"d0 c #9191dc",
"aJ c #929291",
"cF c #936331",
"bP c #936b42",
"bp c #937557",
"dB c #939392",
"a7 c #939393",
"dY c #939c9b",
"aI c #948b85",
"a6 c #949493",
"bR c #949494",
"b0 c #959583",
"aD c #959594",
"ef c #959595",
"a4 c #96908d",
"c6 c #96948d",
"dW c #969696",
"#K c #979795",
"#n c #98988d",
"dv c #989b9b",
"br c #999999",
"a5 c #9a9591",
"a3 c #9a9a99",
"eb c #9b9a89",
"dR c #9b9b88",
"dt c #9b9b89",
"aC c #9b9b9b",
"a1 c #9d9b98",
"ck c #9d9d9d",
"#D c #9e9e9d",
"am c #9f6340",
"#Y c #9f9f9e",
"#6 c #a0a0a0",
"ei c #a1a1ae",
"cj c #a2a2a2",
"gH c #a49665",
"#C c #a4a4a4",
"cH c #a7a19b",
"aE c #a88d7e",
"gv c #a89965",
"ci c #a8a6a4",
"fu c #a8a792",
"bu c #a9a8a6",
"bN c #a9a98d",
"cC c #a9a98e",
"az c #aaaa8c",
"aY c #aaaa8d",
"dn c #aaaa93",
"cJ c #aaaaaa",
"bx c #ab8a69",
"ae c #abab8c",
"cb c #abab8f",
"b3 c #acacaa",
"#X c #acacab",
"#L c #adadaa",
"ag c #adadad",
"cI c #afadac",
"cr c #afafad",
"a9 c #b09e8b",
"#m c #b0b090",
"#p c #b0b0ae",
"bt c #b0b0b0",
"aH c #b1856c",
"gl c #b1a989",
"ai c #b1b1b1",
"cE c #b29678",
"cd c #b3977a",
"bV c #b39d88",
"ga c #b3a879",
"fR c #b3b19c",
"c0 c #b3b393",
"ap c #b3b3b2",
"#B c #b4b495",
"#Z c #b4b4b3",
"aK c #b4b4b4",
"eG c #b4b4e3",
"gS c #b5ab87",
"eh c #b5b5b5",
"eY c #b5b5b8",
"gR c #b6ab85",
"gQ c #b6ab86",
"bC c #b6b6b4",
"gP c #b7ab86",
"e6 c #b7ac6b",
"gO c #b7ac86",
"d5 c #b7ae68",
"eq c #b7ae69",
"ch c #b7b7b7",
"fi c #b7b7da",
"c7 c #b7b8b7",
"fI c #b8ac6d",
"eL c #b8ae6a",
"dh c #b8af65",
"cU c #b8b064",
"b8 c #b8b161",
"bI c #b8b260",
"au c #b8b45c",
"aS c #b8b45d",
"#Q c #b8b559",
"#u c #b8b659",
"bT c #b8b8b7",
"bW c #b9aa9b",
"dH c #b9af67",
"cw c #b9b262",
"bi c #b9b45f",
"a. c #b9b65b",
"f0 c #baad72",
"gT c #bab297",
"bU c #bab3ab",
"#c c #bab859",
"cK c #babab9",
"eC c #bababa",
"#J c #bbbab9",
"ec c #bbbbd0",
"cp c #bbc3c3",
"bZ c #bcbc94",
"#W c #bcbcae",
"dc c #bcbcbc",
"#o c #bdbdbd",
"ex c #bdbdd2",
"dC c #bebebe",
".0 c #bfbc64",
"#E c #bfbfbf",
"gN c #c0b693",
"aF c #c17f5a",
"#4 c #c1947a",
".9 c #c1c1be",
"gz c #c2af70",
"#. c #c2c2a6",
"aG c #c3805a",
"bo c #c3c1be",
"aB c #c3c3c3",
"gI c #c4c0ae",
"bO c #c4c1bd",
"a0 c #c5c5c4",
"dT c #c5c5c8",
"b2 c #c7c7c6",
"gG c #c8b471",
"gy c #c8bf9c",
"bD c #c8c89f",
"cc c #c8c8c7",
"c1 c #c8c8c8",
"gb c #cab976",
".O c #cac87c",
"bX c #cbc1b7",
"gn c #ccb86f",
"eT c #cccccf",
"gU c #cdcaba",
"#l c #cdcd8f",
"gw c #cecab9",
"fb c #cecece",
"gM c #cfcab5",
".8 c #cfcfbd",
"bB c #cfcfc5",
"fv c #cfcfcf",
"gm c #d2c9a6",
"fc c #d2d2de",
"## c #d3d39a",
"gk c #d4c06f",
"fz c #d5d3cb",
"bY c #d6d6be",
".E c #d7d4b3",
"do c #d7d7b9",
"gV c #d8d5c4",
"cD c #d8d5d1",
"#q c #d8d89a",
"c5 c #d9d0b0",
"gJ c #d9d6c3",
"gL c #d9d6c4",
"#V c #d9d992",
"e2 c #d9d9dd",
"f1 c #dac66f",
"bA c #dada8f",
"gu c #dbc575",
".j c #dbd7c1",
".u c #dbd7c2",
"gx c #dbd7c5",
"b4 c #dbdba1",
".# c #dcd8c1",
"c4 c #dcd9c9",
"bE c #dcdc97",
"c2 c #dcdcdc",
"fx c #dcdcdd",
"gA c #ddc87f",
".t c #ddd99d",
".k c #ddd9c1",
"Qt c #ddd9c3",
"gK c #dddac5",
"c3 c #dddcdb",
"fw c #dddddd",
"gF c #e0ca80",
"fy c #e0ded1",
".v c #e1dd8c",
"fS c #e1deb8",
"#i c #e1e1ac",
".i c #e2debc",
"fA c #e3dfb1",
"#M c #e4e493",
"fj c #e5e3c4",
"bc c #e6e6b1",
"gB c #e7d185",
".a c #e7e4aa",
"#7 c #e7e7a9",
"fJ c #e8d475",
".F c #e8e456",
"gC c #ead386",
"g# c #ead478",
"gE c #ead487",
"fp c #ead673",
"e7 c #ead771",
"eM c #ead86f",
"er c #ead96d",
"d6 c #eada6b",
"dI c #eadb6a",
".7 c #eaea7e",
"#g c #eaea88",
"gD c #ebd487",
"di c #ebdc68",
"cV c #ebdd66",
"cx c #ebde64",
"b9 c #ebdf61",
"bJ c #ebe05f",
"bj c #ebe15d",
"aT c #ebe25b",
"av c #ebe359",
"a# c #ebe457",
"#v c #ebe753",
".P c #ebe84f",
"cs c #ebeb98",
"#R c #ece655",
"#d c #ece751",
".1 c #ece84f",
".D c #ecea51",
".l c #ecea7e",
"go c #edd680",
"#h c #eded97",
".V c #eded9c",
"aq c #ededae",
"aL c #ededaf",
"by c #ededb1",
"gc c #eed87d",
"fk c #eeebb4",
"#k c #eeee85",
"bd c #eeeea1",
"b. c #eeeeb0",
"gj c #efd97e",
"dp c #efeeb4",
"#j c #efef99",
"cQ c #efefa6",
".W c #f0f096",
".h c #f1ef90",
"dm c #f1f08e",
"fQ c #f2eb9a",
"d1 c #f2f0ac",
"em c #f2f0ae",
"eH c #f2f0af",
"dD c #f2f1ab",
"dd c #f2f2aa",
"fZ c #f3dd7b",
"fo c #f3df77",
"e5 c #f3e075",
"ep c #f3e270",
"d4 c #f3e36f",
"dg c #f3e56b",
"cT c #f3e668",
"fH c #f4e078",
"eK c #f4e273",
"dG c #f4e56d",
"b7 c #f4e863",
"bH c #f4e961",
"aR c #f4ec5d",
"at c #f4ed5b",
"#P c #f4ef57",
"fB c #f4efa2",
"fT c #f4efaf",
"#t c #f4f055",
"bb c #f4f49d",
"cv c #f5e865",
"bh c #f5ec5f",
"#9 c #f5ef59",
"#b c #f5f153",
".Z c #f6f253",
".b c #f6f58d",
"dq c #f7f597",
"gt c #f8e088",
".N c #f8f655",
".g c #f8f77c",
"bz c #f8f87d",
"gp c #f9e189",
".s c #f9f863",
"ba c #f9f983",
".U c #f9f984",
"f2 c #fae380",
"gd c #fae385",
"g. c #fae582",
"fU c #faf296",
"dO c #faf789",
"#A c #fafa72",
"gq c #fbe48b",
"gr c #fbe58b",
"gi c #fbe686",
"f7 c #fbf292",
"dP c #fbf983",
"dr c #fbf98a",
".c c #fbfa7e",
".T c #fbfb69",
"gs c #fce68c",
"fV c #fcf48f",
"fC c #fcf590",
"fl c #fcf794",
".d c #fcfb7e",
"#f c #fcfc66",
"#r c #fcfc68",
"#a c #fcfc6b",
"bF c #fcfc73",
"fK c #fde980",
"eN c #fdec7b",
"e8 c #fdec7d",
"f3 c #fdec86",
"d7 c #fdee77",
"dJ c #fdef75",
"fL c #fdf085",
"f9 c #fdf088",
"cW c #fdf171",
"cy c #fdf36e",
"e9 c #fdf381",
"eO c #fdf47f",
"fX c #fdf487",
"f5 c #fdf48b",
"f8 c #fdf48e",
"bK c #fdf569",
"d8 c #fdf57b",
"fN c #fdf588",
"fO c #fdf589",
"bk c #fdf667",
"dK c #fdf679",
"fm c #fdf683",
"e3 c #fdf781",
"f# c #fdf784",
"fa c #fdf78f",
"aw c #fdf862",
"cX c #fdf875",
"en c #fdf87e",
"eQ c #fdf882",
"eS c #fdf88e",
"aa c #fdf960",
"d2 c #fdf97b",
"ea c #fdf98a",
"cz c #fdfa73",
"e. c #fdfa7f",
"dQ c #fdfa87",
"#w c #fdfb5c",
"bL c #fdfb6d",
"de c #fdfb77",
"dM c #fdfb7c",
"dN c #fdfb7d",
"#e c #fdfc59",
"bl c #fdfc6b",
"cR c #fdfc74",
".f c #fdfc7d",
"ds c #fdfc8e",
".Q c #fdfd59",
".R c #fdfd5b",
".S c #fdfd5c",
".J c #fdfd5d",
".L c #fdfd5e",
".G c #fdfd5f",
"#x c #fdfd60",
".H c #fdfd61",
".w c #fdfd62",
"#z c #fdfd63",
"ab c #fdfd64",
".6 c #fdfd66",
"ar c #fdfd67",
"aP c #fdfd68",
"aM c #fdfd69",
"aN c #fdfd6c",
"ad c #fdfd6d",
"ay c #fdfd6f",
"bn c #fdfd73",
"bM c #fdfd75",
"b5 c #fdfd77",
".m c #fdfd79",
"cB c #fdfd7a",
"cZ c #fdfd7c",
".e c #fdfd7e",
".r c #fdfd82",
".q c #fdfd93",
".o c #fdfd98",
"fY c #feea82",
"fq c #feec7f",
"fG c #feec80",
"e4 c #feed7c",
"fn c #feed7e",
"es c #feee79",
"eJ c #feee7a",
"eo c #feef78",
"d3 c #fef076",
"dj c #fef173",
"dF c #fef174",
"df c #fef272",
"cS c #fef36f",
"cu c #fef46c",
"c. c #fef56b",
"b6 c #fef669",
"fW c #fef68d",
"bG c #fef767",
"fE c #fef788",
"fD c #fef78b",
"ft c #fef790",
"bg c #fef865",
"aQ c #fef963",
"#8 c #fefa5f",
"as c #fefa61",
"ew c #fefa8d",
"#O c #fefb5d",
"#s c #fefc5b",
".Y c #fefd58",
".X c #fefe61",
"#U c #fefe68",
"aO c #fefe6b",
"be c #fefe6e",
"b# c #fefe70",
"aX c #fefe71",
"ca c #fefe77",
"ge c #ffed8b",
"gh c #ffef8c",
"gf c #fff28d",
"gg c #fff28e",
"fr c #fff384",
"f4 c #fff48b",
"f6 c #fff58c",
"et c #fff67d",
"fF c #fff686",
"fM c #fff689",
"fP c #fff68a",
"fs c #fff787",
"eI c #fff880",
"aU c #fff965",
"dk c #fff977",
"eP c #fff982",
"eR c #fff983",
"f. c #fff985",
"eu c #fffa80",
"ev c #fffa81",
"dE c #fffb79",
"d9 c #fffb7e",
"e# c #fffb7f",
"#S c #fffc5e",
"c# c #fffc70",
"dL c #fffc7c",
".2 c #fffd57",
"dl c #fffd7a",
"aV c #fffe69",
"bf c #fffe6b",
"ct c #fffe71",
"cY c #fffe78",
".3 c #ffff5b",
".M c #ffff5c",
".K c #ffff5d",
".4 c #ffff5e",
".5 c #ffff5f",
".I c #ffff62",
"#y c #ffff63",
"#N c #ffff64",
"#T c #ffff65",
".C c #ffff66",
"ac c #ffff67",
"ax c #ffff69",
"aW c #ffff6b",
"bm c #ffff6d",
".B c #ffff6f",
".x c #ffff72",
".y c #ffff74",
"cA c #ffff75",
".A c #ffff76",
".z c #ffff77",
".n c #ffff93",
".p c #ffff99",
"Qt.#.a.b.c.d.e.d.d.e.d.d.e.d.d.e.d.d.e.d.d.e.d.d.f.g.h.i.#.j",
".k.l.m.n.o.o.p.o.o.p.o.o.p.o.o.p.o.o.p.o.o.p.o.o.p.q.r.s.t.u",
".v.w.x.y.z.A.A.A.A.A.A.A.A.A.A.A.A.A.A.A.A.A.A.A.A.A.B.C.D.E",
".F.G.H.I.J.J.K.J.J.K.J.J.K.J.J.K.L.L.K.J.J.K.J.J.K.L.L.M.N.O",
".P.Q.R.M.S.S.M.S.S.M.S.S.M.L.T.U.V.W.X.S.S.M.S.S.M.S.S.Y.Z.0",
".1.2.3.K.K.K.K.K.X.4.K.5.6.7.8.9#.###a.K.K.K.K.K.K.K.K.Y#b#c",
"#d#e.J.5.G#f#g#h#i#j#k#l#m#n#o#p#q#r.5.G.G.5.G.G.5.G.G#s#t#u",
"#v#w#x#y#z#A#B#C#D#E#F#G#H#I#J#K#L#M#N#z#z#y#z#z#y#z.w#O#P#Q",
"#R#S.I#T#U#V#W#X#Y#Z#0#1#2#3#4#5#6#7.C#T#T#T#T#T#T#T#N#8#9a.",
"a#aaabacadaeafagahaiajakalamanaoapaqacararacararacar.6asatau",
"avaw.6axayazaAaBaCaDaEaFaGaHaIaJaKaLaxaMaMaxaMaNaOaMaPaQaRaS",
"aTaUaVaWaXaYaZa0a1a2a3a4a5a6a7a8a9b.aWaWb#babbbcbdbebfbgbhbi",
"bjbkblbmbnaYaAbobpbqbrbsbtbubvbwbxby.xbzbAbBbCbDbEbFadbGbHbI",
"bJbKbL.BbMbNaZbObPbQbRbSbTbUbVbWbXbYbZb0b1b2b3b4b5ayayb6b7b8",
"b9c.c#.xcacbaAcccdcecfcgchcicjckaBclcmcncocpcqcrcs.xctcucvcw",
"cxcyczcAcBcCaZcccDcEcFcGcHcIcJbRcKcL#1cMcNcOcPbtcQbMcRcScTcU",
"cVcWcXcYcZc0aAc1c2c3c4c5c6afbtahc7c8c9d.d#dadbdcddb5dedfdgdh",
"didjdkdldldmdndodpdqdrdsdtducca7dvdwdxdydzdAdBdCdDdldEdFdGdH",
"dIdJdKdLdMdNdOdPdMdLdMdQdRdSdTdUdVdWdXdYdBa7dZd0d1dMd2d3d4d5",
"d6d7d8d9e.e.e#e.e.e#e.eaebdSecedeeefegeheiejekeleme.eneoepeq",
"ereseteuevevevevevevevewebduexeyezeAeBeCeDeEeFeGeHeveIeJeKeL",
"eMeNeOePeQeQeReQeQeReQeSebdueTeUeVeWeXeYeZe0e1e2eHeQe3e4e5e6",
"e7e8e9f.f#f#f.f#f#f.f#faebdufbfcfdfefffgfhfifjfkflf#fmfnfoe6",
"fpfqfrfsfsfsfsfsfsfsfsftfudufvfwfxfyfzfAfBfCfDfEfsfsfFfGfHfI",
"fJfKfLfMfNfOfPfOfOfPfOfOfQfRfSfTfUfVfWfOfOfPfOfOfPfNfXfYfZf0",
"f1f2f3f4f5f5f6f5f5f6f5f5f6f7f8f6f5f5f6f5f5f6f5f5f6f5f9g.g#ga",
"gbgcgdgegfgfgggfgfgggfgfgggfgfgggfgfgggfgfgggfgfggghgigjgkgl",
"gmgngogpgqgrgsgrgrgsgrgrgsgrgrgsgrgrgsgrgrgsgrgrgsgtgogugvgw",
"gxgygzgAgBgCgDgCgCgDgCgCgDgCgCgDgCgCgDgCgCgDgCgCgEgFgGgHgIgJ",
"gKgLgMgNgOgPgQgQgQgQgQgQgQgQgQgQgQgQgQgQgQgQgQgQgRgSgTgUgVgK"};
