/* XPM */
static char *dummy[]={
"30 30 508 2",
"dt c #0000fd",
"cU c #0000ff",
"bx c #00fdfd",
"bT c #00ffff",
"bw c #02eeee",
"bc c #02f0f0",
"d2 c #0303f8",
"da c #0505fa",
"bb c #08c6c6",
"by c #09bcbc",
"bv c #09bdbd",
"bU c #09f7f7",
"dJ c #0c0ceb",
"bu c #0d9f9f",
"dK c #1111e1",
"dI c #1616fa",
"do c #1717da",
"db c #1717fb",
"bS c #19ebeb",
"ba c #1a4c4c",
"b# c #1c4242",
"aw c #202020",
"av c #212121",
"bV c #21e5e5",
"cT c #2222e5",
"cy c #2222e6",
"bd c #244646",
"dL c #2525c2",
"aV c #274343",
"d5 c #2c2cf3",
"au c #2d2d2d",
"bz c #2d6969",
"d# c #3838e8",
"d1 c #3c3cf6",
"d6 c #3d3df6",
"d3 c #4646bd",
"c8 c #474796",
"c7 c #4848f4",
"#y c #4979b6",
"#V c #4a7ab6",
"#g c #4b7bb7",
"aG c #4c7cb6",
"cN c #4e4eee",
"a2 c #4e7cb6",
"aT c #4eb1b1",
"em c #5050f3",
"bk c #507eb8",
"cO c #51518e",
".3 c #527db5",
"a# c #535353",
"bt c #536060",
"#h c #537eb2",
"bF c #537fb7",
"#z c #547eb2",
"#x c #548acf",
"aS c #555555",
"#W c #557fb2",
"b2 c #5580b8",
"#U c #558bcf",
"#i c #558dd4",
".4 c #5680b2",
"ai c #568cd1",
"#A c #568ed4",
"aj c #577fb2",
"#f c #578dd1",
"#X c #5790d6",
"bR c #57c1c1",
"aH c #5880b2",
"aF c #588cd0",
".5 c #5891d6",
"cl c #5983ba",
"ak c #5990d5",
"#j c #5992da",
"a3 c #5a81b2",
"#B c #5a93da",
"#w c #5a93db",
"a1 c #5b8dd0",
"aI c #5b91d5",
"#T c #5b94db",
"#Y c #5b95dc",
"cF c #5c84b9",
"ah c #5c95dc",
".6 c #5c96dc",
"#k c #5c98e1",
"bW c #5cbcbc",
"bl c #5d82b3",
"bj c #5d90d2",
"al c #5d95db",
"#e c #5d96dc",
"#l c #5d97e0",
"#C c #5d98e1",
"#m c #5d99e2",
"a4 c #5e93d6",
"aE c #5e96dc",
"#D c #5e98e0",
"#E c #5e99e2",
"bG c #5f84b3",
"cZ c #5f86ba",
"#n c #5f99e1",
"ag c #5f99e2",
"#Z c #5f9ae2",
"bE c #6091d1",
"aJ c #6096db",
".7 c #609ae1",
".8 c #609be2",
"b3 c #6186b4",
".2 c #6193d5",
"bm c #6194d6",
"a0 c #6197dc",
"aD c #6199e1",
"an c #619ae1",
"am c #619ae2",
"dM c #6262ef",
"b1 c #6292d2",
"a5 c #6298dd",
"#K c #629be1",
"a. c #636363",
"dg c #6389bc",
"bi c #6398dd",
"aK c #639be2",
"aC c #639ce3",
"cm c #6487b5",
"bH c #6496d7",
".S c #6498db",
"aL c #649be1",
"ao c #649de3",
"dp c #65657c",
".Q c #6586b3",
"bn c #6599dc",
"#F c #659de1",
"aZ c #659de3",
"#0 c #659ee3",
"dA c #668bbc",
"ck c #6696d4",
"bD c #669add",
".1 c #669bdf",
"aM c #669ce2",
"a6 c #669de2",
"bh c #669de3",
"fy c #677c98",
"cG c #6789b5",
"b4 c #6799d8",
".T c #679be0",
"a7 c #679de3",
"bg c #679ee3",
"aW c #686868",
"fT c #6883a3",
"bI c #689bdd",
"#o c #689fe2",
"dT c #698dbd",
"b0 c #699cde",
"#G c #699ee0",
".0 c #699ee3",
"#H c #699fe1",
".V c #699fe3",
".U c #699fe4",
".W c #69a0e4",
"dn c #6a6aee",
"en c #6a6cee",
"c0 c #6a8bb6",
"cE c #6a97d3",
".9 c #6aa1e2",
"fJ c #6b88ac",
"cn c #6b9ad8",
".X c #6ba0e4",
"#d c #6ba1e2",
"af c #6ba1e3",
"fn c #6c8ab0",
"ed c #6c8fbe",
"b5 c #6c9edf",
"bK c #6ca0e3",
"bJ c #6ca1e4",
"bZ c #6ca1e5",
"bs c #6d6d6d",
"dh c #6d8db6",
"cY c #6d9ad4",
"cj c #6d9fdf",
"ce c #6db0b0",
"#S c #6ea2e2",
"dB c #6f8eb7",
"ey c #6f90bd",
"cH c #6f9dd9",
".Z c #6fa2e3",
"b6 c #6fa3e5",
"co c #70a0df",
"a8 c #70a3e5",
"b7 c #70a4e5",
"fM c #718aab",
"eP c #7192be",
"df c #719dd6",
"cD c #71a1e0",
"bM c #727272",
"cS c #7272ab",
"du c #7272ee",
"fA c #728db0",
"dU c #7290b7",
".Y c #72a3e3",
"c. c #737373",
".R c #7393bd",
"e5 c #7394c0",
"c1 c #73a0db",
"bo c #73a5e4",
"cp c #73a5e6",
"be c #747474",
"ee c #7492b8",
"ff c #7494bf",
"#L c #74a3de",
"cI c #74a3e0",
"cX c #74a4e1",
"cq c #74a4e6",
"cC c #74a5e6",
"cB c #74a6e7",
"b. c #757575",
".P c #75a3e0",
"ez c #7693b9",
"dz c #769fd6",
"bL c #76a7e5",
"di c #77a2db",
"cJ c #77a8e7",
"at c #787878",
"eQ c #7895b9",
"#v c #78a6df",
"c2 c #78a6e2",
".G c #78a6e4",
"cK c #78a7e7",
"cf c #78a8a8",
"#. c #78a8e1",
"cW c #78a8e8",
"bP c #797979",
"d4 c #7979d1",
"e6 c #7995b9",
"dS c #79a1d7",
"b8 c #79aae7",
"dC c #7aa4dc",
".O c #7baae9",
"ax c #7c7c7c",
"ec c #7ca4d9",
"dj c #7ca8e2",
"c3 c #7caae8",
"c4 c #7cabe9",
".K c #7caceb",
".M c #7cacec",
".L c #7cadec",
"dy c #7da9e3",
"cr c #7daae7",
"de c #7dabe9",
".J c #7daded",
"dq c #7e7e7e",
"fp c #7ea1cc",
"ex c #7ea4d9",
"dV c #7ea7de",
".N c #7eadec",
".H c #7eaeed",
"ay c #7f7f7f",
"ef c #7fa8dd",
"dD c #7faae3",
"cL c #7fade8",
"f1 c #8091a9",
"f0 c #8092a9",
"fS c #809fc6",
"#M c #80aadf",
"dR c #80abe4",
"dl c #80ade9",
"dk c #80aee9",
"bN c #818181",
"f2 c #8191a9",
"fZ c #8192a9",
"fN c #819fc5",
"fI c #81a4ce",
"eO c #81a7d9",
"dx c #81aeea",
".I c #81b2f1",
"c# c #828282",
"f3 c #8293a7",
"eA c #82aade",
"aa c #838383",
"fB c #83a5cf",
"fm c #83a8d7",
"eb c #83ade4",
"dW c #83ade5",
"dQ c #83b0ea",
"cP c #848484",
"fY c #8494a9",
"e4 c #84aadb",
"dE c #84b0ea",
"br c #858585",
"cx c #85859c",
"f4 c #8592a2",
"fe c #85abda",
".v c #85acdd",
"#I c #85aedf",
"eg c #85aee5",
"c5 c #85b0ea",
"dP c #85b1eb",
"cg c #86869d",
"eR c #86ade0",
"#J c #86aedf",
"ew c #86afe5",
".D c #86b0e6",
"fg c #879db9",
"ap c #87a4c8",
"e7 c #87aedf",
"dX c #87b3eb",
"fx c #88adda",
"eB c #88b0e5",
"dm c #88b2eb",
"ea c #88b3eb",
"dY c #88b4ec",
"cQ c #898989",
"fH c #89add9",
"fq c #89afdc",
"eN c #89b2e6",
"cd c #8a9a9a",
"fR c #8aabd3",
"ev c #8ab4eb",
"eh c #8ab5ec",
"fU c #8b95a1",
"bX c #8b9898",
"fO c #8bacd4",
"eS c #8bb4e7",
"eu c #8bb6ed",
"#u c #8c939b",
"fh c #8cb4e4",
"fl c #8cb4e5",
"dF c #8cb5ec",
"aU c #8ce3e3",
"aq c #8d8e90",
"#t c #8d949c",
"fP c #8daed7",
"aN c #8dafdb",
"fC c #8db1dd",
"e8 c #8db5e6",
"fd c #8db5e7",
"eM c #8db6ec",
"eD c #8db7ec",
"eC c #8db7ed",
"as c #8e8e8e",
"fQ c #8eafd8",
"eL c #8eb8ee",
"cu c #8f8f8f",
"#1 c #8fa3bc",
"et c #8fb7eb",
"eT c #8fb9ee",
"fG c #90b5e2",
"fr c #90b7e6",
"fw c #90b7e7",
"dZ c #90b9ed",
"e3 c #90b9ee",
"eU c #90baee",
"e2 c #90baef",
"fD c #91b6e3",
"ei c #91b9ed",
"f. c #91baed",
"e9 c #91baee",
"aQ c #929292",
"fX c #92a0b0",
"fo c #92a3b7",
"fE c #92b7e4",
"eE c #92baed",
"fi c #92bbed",
"fj c #92bbee",
"f# c #92bbef",
"c9 c #939393",
"fF c #93b8e6",
"es c #93baeb",
"fk c #93bcef",
"bA c #949494",
"ds c #9494df",
"#N c #94abc8",
"eK c #94baeb",
"fs c #94bced",
"fv c #94bcee",
".F c #95a9c4",
"e1 c #95bced",
"ft c #95bdee",
"fu c #95bdef",
"ar c #969696",
"#P c #96989a",
"bp c #969da6",
"a9 c #969ea8",
"#p c #96a6b9",
"cw c #979797",
"b9 c #979ea6",
"fc c #97beee",
"#9 c #989898",
"cs c #9898b8",
"cM c #989ea7",
"ct c #999999",
"c6 c #999fa7",
"fK c #99a0a8",
"aB c #99b1ce",
"e0 c #99beed",
"dG c #9aa0a7",
".C c #9ac7fb",
"cc c #9b9b9b",
"fa c #9bc0ed",
"cb c #9c9c9c",
"eJ c #9cbee9",
"#8 c #9da0a4",
"eV c #9dc1ef",
".w c #9eccfd",
"cv c #9f9f9f",
"#R c #a0a9b4",
"#Q c #a1a1a1",
"el c #a1a1e5",
".E c #a1aebf",
"#O c #a2b1c3",
"e# c #a2c1e8",
".l c #a2c9f1",
"eW c #a4adb9",
"d7 c #a5a5e6",
"aO c #a5b1c0",
"er c #a5c2e7",
".s c #a5cff9",
".B c #a5d3fe",
"#7 c #a6b7cb",
"ae c #a6b7cd",
"## c #a6c0e0",
".x c #a6d3fe",
"aY c #a7bcd5",
"f5 c #a8acb2",
".t c #a8bad1",
"az c #a9a9a9",
"fL c #a9b1bb",
"eF c #a9b3bf",
".A c #a9d7fe",
".z c #aad7fe",
".y c #aad8fe",
"aA c #ababab",
"ca c #acacac",
"fb c #acc6e7",
"ad c #adadad",
"eZ c #aec8e8",
"d0 c #afafe4",
"aP c #afb1b4",
"bC c #afc4df",
"bf c #afc4e0",
"bQ c #b0b0b0",
"bY c #b0c5df",
"#s c #b1b3b4",
"#a c #b1c6de",
"eo c #b2b7e3",
"ci c #b2c7e1",
"eq c #b2c8e5",
"#2 c #b3b9c2",
"cA c #b3c6e0",
"cV c #b4c8e0",
"ac c #b5b5b5",
".k c #b5bec9",
".h c #b6bfcb",
"fW c #b7babf",
"dd c #b7cae2",
".g c #b7d0e6",
"dr c #b8b8b8",
"d. c #b8b8ce",
"dw c #b8cae1",
".b c #b9cde1",
"cR c #bababa",
"dO c #bacbe2",
"bq c #bbbbbb",
"aX c #bcbcbc",
"ek c #bcbce1",
"fz c #bcbec2",
"eI c #bccee4",
".d c #bcdef2",
".e c #bde0f3",
".c c #bedbed",
"cz c #bfbfe1",
"eH c #bfcfe2",
"eY c #bfd0e4",
".u c #c0c2c5",
".a c #c0c3c7",
".f c #c0ddef",
".j c #c1c1c1",
".i c #c1c1c2",
".# c #c1c2c2",
"dH c #c2c2e0",
"Qt c #c3c3c3",
"#4 c #c3c5c7",
"ep c #c3cde2",
"#6 c #c3d0de",
"fV c #c4c4c4",
"#c c #c4cedb",
"#r c #c5c5c5",
".r c #c6f0fd",
".m c #c8f2ff",
"dc c #c9c9e1",
"e. c #c9d4e1",
"#5 c #cacbcc",
"#3 c #cad1d9",
"ch c #cfcfd7",
"eG c #cfd6df",
"eX c #d1d8e1",
"bB c #d3d3d3",
"aR c #d4d4d4",
"d8 c #d5d7df",
"d9 c #d5d9df",
"#b c #d6d8da",
".q c #d6f9fd",
".n c #d6fafd",
"#q c #d7d7d7",
"ej c #d7d7df",
"ab c #d8d8d8",
"dN c #d8d8de",
".o c #d9fafd",
".p c #dafbff",
"dv c #dcdcdc",
"bO c #dedede",
"Qt.#.a.b.c.d.e.d.d.e.d.d.e.d.d.e.d.d.e.d.d.e.d.d.e.f.g.h.i.j",
"Qt.k.l.m.n.o.p.o.o.p.o.o.p.o.o.p.o.o.p.o.o.p.o.o.p.q.r.s.t.i",
".u.v.w.x.y.z.z.z.z.z.z.z.z.z.z.z.z.z.z.z.z.z.z.z.z.A.B.C.D.E",
".F.G.H.I.J.K.L.K.K.L.K.K.L.K.K.L.K.K.L.K.K.L.K.K.L.M.N.O.P.Q",
".R.S.T.U.V.V.W.V.V.W.V.V.W.V.V.W.V.V.W.V.V.X.Y.Z.W.V.0.1.2.3",
".4.5.6.7.8.8.8.8.8.8.8.8.8.8.8.8.8.8.9#.###a#b#c#d.8.8#e#f#g",
"#h#i#j#k#l#l#m#l#l#m#l#l#m#l#l#m#n#o#p#q#r#s#t#u#v#l#l#w#x#y",
"#z#A#B#C#D#D#E#F#G#H#I#J#F#K#L#M#N#O#P#q#Q#R#S#D#E#D#D#T#U#V",
"#W#X#Y#n#Z#Z#0#1#2#3#4#5#6#7#8#9a.a#aaabacadaeaf#Z#Zagahai#g",
"ajakalamananaoapaqararas#qatauavawawax#qayazaAaBaCanaDaEaFaG",
"aHaIaJaKaLaMaNaOaPadaAaQaRaSawavawawaTaUaVaWaXaYaZaLaLa0a1a2",
"a3a4a5a6a7a8a9#9adadasb.aRaSavavb#babbbcbdbeaRbfbga7bhbibjbk",
"blbmbn.V.0bobpb.#9bqbrbsaRbtbubvbwbxbybzbebAbBbC.U.0.0bDbEbF",
"bGbHbIbJbKbLbpbMbNbOaAbPbQbRbSbTbUbVbWbXaQbAbBbYbZbKbKb0b1b2",
"b3b4b5b6b7b8b9c.c#bOcab.cbcccdcecfbAbAbAbAcgchcib7b7a8cjckcl",
"cmcncocpcqcrb9bMbNbOcsb.ccctaQcucvcwbAaQcxcyczcAcBcCcqcDcEcF",
"cGcHcIcJcKcLcMbMbNbOcNcOccctcPcQbqcR#9cScTcUczcVcWcKcKcXcYcZ",
"c0c1c2c3c4c5c6c.c#bOc7c8c9azc##9bqd.d#dacUdbdcdddec4c4c2dfdg",
"dhdidjdkdldmc6bMbNbOdndodpbPc.dqdrdscUdtdtdudvdwdxdldldydzdA",
"dBdCdDdEdEdFdGbMbNbOdHdIdJdKdLdqdrdscUdtdMdNdvdOdPdEdQdRdSdT",
"dUdVdWdXdYdZdGc.c#bObOd0d1cUd2d3d4d5d6d7d8d9e.e#dYdYeaebeced",
"eeefegeheheidGbMbNbOdvdvejekelemeneoepeqereseteheuehevewexey",
"ezeAeBeCeDeEeFbMbNbOdvdvbOeGeHeIeJeKeEeDeDeLeDeDeLeDeMeNeOeP",
"eQeReSeTeUeUeVeWc#eXeYeZe0e1eUe2eUeUe2eUeUe2eUeUe2eUe3eSe4e5",
"e6e7e8e9f.f.f#fafbfcf.f.f#f.f.f#f.f.f#f.f.f#f.f.f#f.f.fdfeff",
"fgfefhfifjfjfkfjfjfkfjfjfkfjfjfkfjfjfkfjfjfkfjfjfkfjfiflfmfn",
"fofpfqfrfsftfufufufufufufufufufufufufufufufufufufufvfwfxfpfy",
"fzfAfBfCfDfEfFfEfEfFfEfEfFfEfEfFfEfEfFfEfEfFfEfEfFfGfHfIfJfK",
"#rfLfMfNfOfPfQfPfPfQfPfPfQfPfPfQfPfPfQfPfPfQfPfPfQfRfSfTfUQt",
"#rfVfWfXfYfZf0f1f1f0f1f1f0f1f1f0f1f1f0f1f1f1f1f1f2f3f4f5Qt#r"};
