/* XPM */
static char *dummy[]={
"30 30 570 2",
"eQ c #0404fb",
"do c #07c8c8",
"dp c #09cbcb",
"eR c #0c0bfb",
"f. c #0f0ffc",
"dn c #0f9595",
"ey c #1616ec",
"e5 c #1918dd",
"c4 c #1f2b2b",
"ac c #212020",
"e6 c #2222cb",
"c5 c #226f6f",
"ad c #252321",
"cH c #252525",
"dM c #27e1e1",
"dq c #289292",
"#T c #2a2a2a",
"fr c #2d2de1",
"dN c #30dbdb",
"cG c #353535",
"c7 c #354949",
"e9 c #3939f1",
"eL c #3a3add",
"#U c #3c3b3a",
"dm c #3d6e6e",
"c6 c #3edada",
"#S c #3f3e3e",
"c3 c #444343",
"fq c #4444f2",
"cI c #464b4b",
"er c #4a4ac8",
"ae c #4d3c33",
"ag c #4f433c",
"eP c #5655e8",
"ab c #575656",
"dO c #5bbbbb",
"fs c #5c5ade",
"ex c #6060b9",
"dL c #62b8b8",
"e7 c #65658c",
"ft c #6662e7",
"cF c #666666",
"ay c #674531",
"ax c #675f5a",
"aC c #6d6865",
"eM c #71708a",
"e4 c #7171ec",
"gP c #720c0c",
"gF c #722321",
"av c #727272",
"cz c #75522e",
"cA c #75685c",
"ee c #7574a7",
"dr c #757979",
"gQ c #763330",
"fT c #770000",
"f9 c #780909",
"bd c #797878",
"aQ c #797979",
"fA c #7b0000",
"gx c #7b1413",
"cy c #7b4b1c",
"gK c #7c1010",
"b9 c #7c756f",
"gJ c #7e2c2b",
"ff c #7f0000",
"gE c #7f0404",
"gk c #7f2e2c",
"d9 c #7f7e7e",
"dJ c #7f7f7f",
"ez c #7f7fea",
"gu c #800000",
"#R c #808080",
"g. c #810101",
"gO c #811212",
"c# c #818080",
"f# c #8180e9",
"eW c #820000",
"eO c #828181",
"fp c #8382e9",
"eE c #850000",
"gL c #851414",
"bJ c #858585",
"bH c #878686",
"bg c #878787",
"cK c #878888",
"gM c #881515",
"aB c #885c42",
"ci c #887f7f",
"dP c #889696",
"ej c #890000",
"gy c #890707",
"gN c #891515",
"eu c #898888",
"ec c #8a9595",
"bN c #8b6137",
"cY c #8b6239",
"gm c #8c0101",
"e# c #8c8c98",
"dX c #8d0000",
"gD c #8d0808",
"es c #8d8c8e",
"ea c #8d8d8d",
"fU c #8e0000",
"bM c #8e8174",
"at c #8e8e8e",
"dw c #8f0000",
"az c #8f593b",
"eN c #8f8e8e",
"gt c #900202",
"gj c #910000",
"fm c #917676",
"bm c #918982",
"ef c #9191dc",
"eJ c #927777",
"aZ c #929191",
"db c #930000",
"cX c #936231",
"b8 c #936a42",
"bG c #937557",
"ch c #937777",
"dQ c #939292",
"bl c #939393",
"ed c #939b9b",
"gz c #940c0c",
"d8 c #947676",
"aY c #948b85",
"bk c #949393",
"c. c #949494",
"fB c #950000",
"gC c #950c0c",
"gX c #95665f",
"gY c #956660",
"dI c #957979",
"dl c #958b89",
"aT c #959594",
"et c #959595",
"gn c #960303",
"bi c #96908d",
"eb c #969696",
"cQ c #970000",
"gA c #970d0d",
"gl c #974743",
"#W c #979695",
"gB c #980d0d",
"#z c #988787",
"dK c #989b9b",
"g# c #990000",
"bI c #999999",
"cr c #9a0000",
"gs c #9a0404",
"gZ c #9a6f67",
"gv c #9a7169",
"fF c #9a7979",
"bj c #9a9491",
"bh c #9a9999",
"f8 c #9b0000",
"aS c #9b9b9b",
"gi c #9c0202",
"b1 c #9d0000",
"gW c #9d726a",
"bf c #9d9a98",
"cE c #9d9d9d",
"go c #9e0505",
"#P c #9e9d9d",
"eX c #9f0000",
"aA c #9f6340",
"a# c #9f9e9e",
"ga c #a00202",
"ah c #a0a0a0",
"fS c #a10000",
"gr c #a10606",
"ew c #a1a0ae",
"by c #a20000",
"gp c #a20606",
"cU c #a27878",
"dC c #a27f7f",
"cD c #a2a2a2",
"eF c #a30000",
"gq c #a30606",
"f0 c #a38282",
"gh c #a40404",
"#O c #a4a4a4",
"a9 c #a50000",
"f7 c #a50303",
"b6 c #a57878",
"cv c #a57979",
"bE c #a67979",
"ek c #a70000",
"gb c #a70404",
"cZ c #a7a19b",
"fV c #a80202",
"gc c #a80404",
"bc c #a87878",
"aP c #a87979",
"aU c #a88d7e",
"cC c #a8a6a4",
"aJ c #a90000",
"gd c #a90505",
"ge c #a90606",
"df c #a97878",
"bL c #a9a7a6",
"fe c #aa0000",
"gg c #aa0b0b",
"as c #aa7979",
"c1 c #aaaaaa",
"dY c #ab0000",
"fR c #ab0303",
"bO c #ab8a69",
"f6 c #ac0404",
"gf c #ac1616",
"ck c #acaaaa",
"a. c #acabab",
"fg c #ad0000",
"fW c #ad0404",
"fY c #ad0606",
"#X c #ada9a9",
"au c #adadad",
"an c #ae0000",
"fC c #ae0303",
"fX c #ae0505",
"cL c #afabab",
"c0 c #afadac",
"dx c #b00000",
"#3 c #b00101",
"fz c #b00303",
"f5 c #b00c0c",
"f4 c #b01313",
"#y c #b08080",
"bn c #b09d8b",
"fu c #b09dcc",
"#B c #b0aeae",
"bK c #b0b0b0",
"aX c #b1856c",
"aw c #b1b1b1",
"eY c #b20000",
"#G c #b20303",
"fQ c #b20404",
"cW c #b29578",
"g0 c #b29d92",
"fh c #b30303",
"fD c #b30505",
"fP c #b30707",
"cx c #b3977a",
"cc c #b39d88",
"aD c #b3b2b2",
"eD c #b40000",
"#l c #b40808",
"f3 c #b42626",
"#N c #b48282",
"gV c #b4988e",
"aa c #b4b3b3",
"eS c #b4b3e3",
"a0 c #b4b4b4",
"dc c #b50000",
"fd c #b50303",
"fO c #b50d0d",
".5 c #b52928",
"fZ c #b53636",
"ev c #b5b5b5",
"e8 c #b5b5b8",
"cg c #b67676",
"bU c #b6b3b3",
"fy c #b70404",
"fN c #b71b1b",
"fL c #b75466",
"cB c #b7b7b7",
"fj c #b80404",
"fi c #b80505",
"fE c #b81818",
"ca c #b8b7b7",
"cR c #b90000",
"eZ c #b90303",
"fk c #b90505",
"cd c #b9aa9b",
"eV c #ba0303",
"cb c #bab2ab",
"c2 c #bab9b9",
"#V c #bbb9b9",
"eq c #bbbad0",
"cJ c #bbc3c3",
"el c #bc0000",
"fc c #bc0404",
".Q c #bc5b58",
"#9 c #bca4a4",
"ds c #bcbcbc",
"cs c #bd0000",
"e1 c #bd0404",
"fM c #bd4044",
"eK c #bdbcd1",
"#A c #bdbdbd",
"e0 c #be0505",
"fl c #be1d1d",
"dR c #bebebe",
"dW c #bf0000",
"eG c #bf0303",
"fK c #bf8fa6",
"#Q c #bfbfbf",
"eC c #c00303",
"fx c #c02626",
"gI c #c0a99c",
"dZ c #c10000",
"aV c #c17f5a",
"af c #c1947a",
"#f c #c1bdbd",
"b2 c #c20000",
"eU c #c20404",
"bV c #c28181",
"#g c #c29999",
"em c #c30303",
"eH c #c30505",
"e2 c #c31d1d",
"aW c #c3805a",
"bF c #c3c0be",
"aR c #c3c3c3",
"ei c #c40303",
"f2 c #c46060",
"b7 c #c4c0bd",
"f1 c #c58a8a",
"be c #c5c4c4",
"e. c #c5c4c8",
"bz c #c60000",
"eB c #c60404",
"gR c #c6bdaf",
"da c #c70000",
"eo c #c70404",
"cj c #c7c6c6",
"d0 c #c80303",
"en c #c80505",
"eI c #c81d1d",
"cw c #c8c7c7",
"dg c #c8c8c8",
"dV c #c90303",
"b. c #cb0000",
"eh c #cb0404",
"ce c #cbc1b7",
"cP c #cc0000",
"d2 c #cc0404",
"ep c #cc1d1d",
"fw c #cc7777",
"gw c #ccbdae",
"e3 c #ccccce",
"dy c #cd0303",
"d1 c #cd0505",
"d3 c #cd0606",
"#x c #cd7070",
"dD c #cd9e9e",
"dv c #ce0303",
"d6 c #ce0505",
"d5 c #ce1717",
"bT c #cebebe",
"gG c #cec8b8",
"fn c #cecdcd",
"aK c #cf0000",
"d4 c #cf2222",
"fb c #cf6a6a",
"fv c #cf9a9e",
"#e c #cfb5b5",
"fG c #cfcfcf",
"cq c #d00000",
"dB c #d03636",
"bS c #d05a5a",
"d7 c #d11d1d",
"d# c #d20303",
"dU c #d20404",
"dz c #d20505",
"eT c #d26c6c",
"cl c #d27878",
"dk c #d2a59c",
".E c #d2b3a6",
"fJ c #d2b5bb",
"g1 c #d2cdbd",
"fo c #d2d2de",
"dT c #d30505",
"dA c #d30606",
"bW c #d36565",
"#h c #d37e7e",
"cf c #d3acac",
"ao c #d40000",
"gU c #d4cfbf",
"b0 c #d50000",
"du c #d50404",
"dG c #d52525",
"eA c #d56c6c",
"dt c #d60404",
"dF c #d64242",
"cO c #d70303",
"dd c #d70505",
"de c #d80d0d",
"dH c #d82c2c",
"eg c #d86c6c",
"#C c #d87979",
"dj c #d8c0be",
"cV c #d8d4d1",
"#4 c #d90000",
"cM c #d95858",
"#8 c #d96565",
".v c #d99b91",
"fa c #d9d8dc",
"d. c #da0404",
".u c #daa198",
"bx c #db0000",
"c9 c #db0505",
".F c #db4e4c",
"dS c #db6d6d",
"dE c #db7e7e",
".i c #dbd7c1",
"gS c #dbd7c4",
"cp c #dc0303",
"cS c #dc0505",
"cT c #dc0f0f",
".# c #dcd6c1",
"g2 c #dcd8c5",
"gH c #dcd9c6",
"fI c #dcdbdc",
"dh c #dcdcdc",
"#H c #dd0000",
"c8 c #dd6c6c",
".j c #ddd7c2",
"Qt c #ddd9c3",
"gT c #ddd9c4",
"g3 c #ddd9c5",
"di c #dddbdb",
"fH c #dddddd",
"bA c #de0000",
".R c #de1e1e",
"a8 c #e00000",
"b3 c #e00303",
"#m c #e00404",
"ct c #e00505",
".h c #e0bdb0",
"bZ c #e10303",
"cN c #e10606",
".6 c #e10909",
"bs c #e18d8d",
"#u c #e19090",
"cu c #e20f0f",
".a c #e2b3a8",
".k c #e3918b",
"aI c #e40000",
"co c #e40404",
"#Y c #e46464",
"b# c #e50000",
"bB c #e50303",
"cn c #e50404",
"bP c #e58686",
"bw c #e60303",
"b4 c #e60505",
"b5 c #e60f0f",
"cm c #e61212",
".D c #e75454",
"ai c #e78282",
"bR c #e82424",
"bt c #e86c6c",
"bo c #e88585",
"aL c #e90000",
"bY c #e90404",
"a1 c #e98484",
"am c #ea0000",
"bX c #ea0f0f",
"#d c #ea4b4b",
"#s c #ea5454",
"bC c #eb0505",
"bD c #eb0f0f",
"a7 c #ec0303",
"bQ c #ec0d0d",
"aE c #ec8484",
"br c #ed6060",
"#t c #ed6b6b",
".1 c #ed8484",
"#2 c #ee0000",
"bq c #ee3232",
"#w c #ee4e4e",
"bv c #ef0404",
".P c #ef3b3b",
"#v c #ef6b6b",
".g c #efaaa5",
"aM c #f00303",
"bp c #f00e0e",
".4 c #f02121",
".2 c #f07c7c",
"aH c #f10303",
"#F c #f10404",
"ba c #f10505",
"bu c #f10a0a",
"bb c #f10f0f",
"#5 c #f40000",
"a6 c #f40404",
"#k c #f40b0b",
".b c #f4b1ae",
"ap c #f50303",
"a2 c #f50404",
"a3 c #f50505",
"a4 c #f50909",
"aO c #f50f0f",
"al c #f60303",
"aN c #f60505",
"a5 c #f60808",
"#I c #f80000",
".w c #f86060",
"aG c #f90404",
".0 c #f95f5f",
".t c #f98685",
".f c #f9b7b5",
"aF c #fa0404",
"ar c #fa0f0f",
"#M c #fa1e1e",
".c c #fabcba",
"#1 c #fb0303",
"#n c #fb0404",
"aq c #fb0505",
".S c #fb2323",
".Z c #fb3a3a",
"#r c #fc1414",
"#D c #fc1717",
"#i c #fc2525",
".O c #fc4040",
".G c #fc4140",
".M c #fc4141",
".l c #fc9392",
".d c #fcc5c3",
"#J c #fd0303",
"#0 c #fd0404",
"#L c #fd0505",
"#E c #fd0606",
"#o c #fd0707",
"#q c #fd0808",
".7 c #fd0b0b",
"#c c #fd1e1e",
".T c #fd2424",
".W c #fd2525",
".V c #fd2626",
".Y c #fd2929",
".K c #fd4040",
".J c #fd4141",
".N c #fd4242",
".H c #fd4343",
".s c #fda1a0",
".r c #fdadab",
".o c #fdafae",
".n c #fdb0af",
"ak c #fe0404",
"#6 c #fe0505",
"#7 c #fe0909",
"#j c #fe0d0d",
"## c #fe1616",
".3 c #fe2d2d",
".L c #fe4040",
".I c #fe4444",
".C c #fe6464",
".e c #fec6c4",
"#K c #ff0505",
"aj c #ff0606",
"#Z c #ff0707",
"#p c #ff0808",
".8 c #ff0e0e",
".9 c #ff0f0f",
"#. c #ff1010",
"#a c #ff1111",
"#b c #ff1313",
".U c #ff2525",
".X c #ff2626",
".B c #ff6d6d",
".x c #ff6e6e",
".y c #ff7170",
".A c #ff7271",
".z c #ff7372",
".m c #ffabaa",
".p c #ffb0af",
".q c #ffb1af",
"Qt.#.a.b.c.d.e.d.d.e.d.d.e.d.d.e.d.d.e.d.d.e.d.d.e.f.g.h.i.i",
".j.k.l.m.n.o.p.o.o.p.o.o.p.o.o.p.o.o.p.o.o.p.o.o.q.r.s.t.u.i",
".v.w.x.y.z.y.y.y.y.y.y.y.y.y.y.y.y.y.y.y.y.y.y.y.y.A.B.C.D.E",
".F.G.H.I.J.K.L.K.K.L.K.K.L.K.K.L.M.M.L.K.K.L.K.K.L.J.N.O.P.Q",
".R.S.T.U.V.W.U.W.W.U.W.W.X.Y.Z.0.1.2.3.V.V.X.V.V.X.W.W.S.4.5",
".6.7.8.9#.#.#.#.###a#.#b#c#d#e#f#g#h#i#.#.#.#.#.#.#..9#j#k#l",
"#m#n#o#p#q#r#s#t#u#v#w#x#y#z#A#B#C#D#p#q#q#p#q#q#p#q#q#E#F#G",
"#H#I#J#K#L#M#N#O#P#Q#R#S#T#U#V#W#X#Y#Z#L#L#K#L#L#K#L#0#1#2#3",
"#4#5#1#6#7#8#9a.a#aaabacadaeafagahaiaj#6#6#K#6#6#K#6akalaman",
"ao#2apaqarasatauavawaxayazaAaBaCaDaEaqaFaFaqaFaFaqaFaGaHaIaJ",
"aKaLaMaNaOaPaQaRaSaTaUaVaWaXaYaZa0a1aNa2a2aNa3a4a5a2a6a7a8a9",
"b.b#a7babbbcbdbebfbgbhbibjbkblbmbnbobababpbqbrbsbtbubvbwbxby",
"bzbAbBbCbDbEaQbFbGbHbIbJbKbLbMbNbObPbQbRbSbTbUbVbWbXbYbZb0b1",
"b2#4b3b4b5b6bdb7b8b9c.c#cacbcccdcecfcgchcicjckclcmcncocpcqcr",
"csb0cpctcucvaQcwcxcyczcAcBcCcDcEaRcFcGcHcIcJcKcLcMcN#mcOcPcQ",
"cRcqcOcScTcUbdcwcVcWcXcYcZc0c1c.c2c3acc4c5c6c7bKc8c9d.d#dadb",
"dcb.d#dddedfaQdgdhdidjdkdlatbKavcBdmdndodpdqdrdsc8dtdudvb2dw",
"dxdadydzdAdBdCdDdEdFdGdHdIdJcwbldKdLdMdNdOdPdQdRdSdTdUdVdWdX",
"dYdZd0d1d2d3d4d5d2d6d2d7d8d9e.e#eaebeceddQbleeefegd2eheicRej",
"ekelemeneoeoeneoeoeneoepchd9eqereseteuevewexeyezeAeoeBeCeDeE",
"eFcReGeHeHeHeHeHeHeHeHeIeJd9eKeLeMeNeOc2ePeQeReSeTeHeUeVdxeW",
"eXeYeZe0e1e1e0e1e1e0e1e2eJd9e3e4e5e6e7e8e9f.f#fafbe1fcfdfeff",
"crfgfhfifjfjfkfjfjfkfjflfmd9fnfofpfqfrfsftfufvfwfxfjfyfza9fA",
"fBaJfCfDfDfDfDfDfDfDfDfEfFd9fGfHfIfJfKfLfMfNfOfPfDfDfQfRfSfT",
"fUbyfVfWfWfWfXfWfWfXfWfYfZf0f1f2f3f4f5fYfWfXfWfWfXfWf6f7f8f9",
"g.g#gagbgcgcgdgcgcgdgcgcgegfgggdgcgcgdgcgcgdgcgcgdgcghgigjgk",
"glgmgngogpgqgqgqgqgqgqgqgqgqgqgqgqgqgqgqgqgqgqgqgqgrgsgtgugv",
"gwgxgygzgAgAgBgAgAgBgAgAgBgAgAgBgAgAgBgAgAgBgAgAgBgCgDgEgFgG",
"gHgIgJgKgLgMgNgMgMgNgMgMgNgMgMgNgMgMgNgMgMgNgMgMgNgOgPgQgRgS",
"gTgHgUgVgWgXgXgXgXgXgXgXgXgXgXgXgXgXgXgXgXgXgXgXgYgZg0g1g2g3"};
