/* XPM */
static char *dummy[]={
"30 30 490 2",
"di c #0000fd",
"cM c #0000ff",
"bt c #00fdfd",
"bQ c #00ffff",
"bs c #02eeee",
"a9 c #02f0f0",
"dM c #0303f8",
"c0 c #0505fa",
"a8 c #08c6c6",
"bu c #09bcbc",
"br c #09bdbd",
"bR c #09f7f7",
"dx c #0c0ceb",
"bq c #0d9f9f",
"dy c #1111e1",
"dw c #1616fa",
"dd c #1717da",
"c1 c #1717fb",
"bP c #19ebeb",
"a7 c #1a4c4c",
"a6 c #1c4242",
"as c #202020",
"ar c #212121",
"bS c #21e5e5",
"cL c #2222e5",
"cs c #2222e6",
"b. c #244646",
"dz c #2525c2",
"aR c #274343",
"dP c #2c2cf3",
"aq c #2d2d2d",
"bv c #2d6969",
"cZ c #3838e8",
"dL c #3c3cf6",
"dQ c #3d3df6",
"dN c #4646bd",
"cW c #474796",
"cV c #4848f4",
"cF c #4e4eee",
"aP c #4eb1b1",
"e. c #5050f3",
"cG c #51518e",
"#8 c #535353",
"bp c #536060",
"aO c #555555",
"bO c #57c1c1",
"bT c #5cbcbc",
"dA c #6262ef",
"#7 c #636363",
"de c #65657c",
"aS c #686868",
"fC c #6a1f1f",
"dc c #6a6aee",
"e# c #6c63e2",
"bo c #6d6d6d",
"c# c #6db0b0",
"fr c #701d1d",
"eZ c #720101",
"bJ c #727272",
"cK c #7272ab",
"dj c #7272ee",
"b5 c #737373",
"b# c #747474",
"a5 c #757575",
"fB c #760c0c",
"e7 c #762222",
"eQ c #780000",
"ap c #787878",
"ca c #78a8a8",
"fj c #790b0b",
"bM c #797979",
"dO c #7979d1",
"fv c #7a2323",
"eA c #7c0000",
"at c #7c7c7c",
"df c #7e7e7e",
"ej c #7f0000",
"au c #7f7f7f",
"fw c #801010",
"bK c #818181",
"fg c #820000",
"e0 c #820101",
"fq c #820404",
"b6 c #828282",
"dZ c #830000",
"#9 c #838383",
"cH c #848484",
"dF c #850000",
"fA c #851212",
"bn c #858585",
"cr c #85859c",
"cb c #86869d",
"do c #890000",
"fx c #891313",
"fK c #895a5a",
"cI c #898989",
"fJ c #8a5a5a",
"c. c #8a9a9a",
"fk c #8b0707",
"fy c #8b1414",
"bU c #8b9898",
"fz c #8c1414",
"fh c #8c6060",
"aQ c #8ce3e3",
"c7 c #8d0000",
"e9 c #8d0101",
"fp c #8d0808",
"fL c #8d6161",
"fI c #8e5e5e",
"ao c #8e8e8e",
"co c #8f8f8f",
"cQ c #900000",
"am c #908b8b",
"ff c #910202",
"e6 c #920000",
"e8 c #924242",
"aM c #929292",
"cy c #930000",
"cX c #939393",
"bw c #949494",
"dh c #9494df",
"fl c #950b0b",
"fo c #950c0c",
"eB c #960000",
"an c #969696",
"cq c #979797",
"cg c #980000",
"f. c #980303",
"fm c #980c0c",
"#6 c #989898",
"cm c #9898b8",
"fn c #990c0c",
"cn c #999999",
"bZ c #9a0000",
"ek c #9b0000",
"fe c #9b0404",
"#M c #9b9393",
"b9 c #9b9b9b",
"b8 c #9c9c9c",
"e5 c #9d0303",
"bB c #9e0000",
"d0 c #9f0000",
"f# c #9f0505",
"#t c #9f8282",
"#s c #9f8484",
"cp c #9f9f9f",
"eP c #a10000",
"e1 c #a10202",
"fd c #a10505",
"d6 c #a18989",
"#N c #a1a1a1",
"d9 c #a1a1e5",
"be c #a20000",
"fH c #a28585",
"du c #a28989",
"fM c #a28c8c",
"dG c #a30000",
"fb c #a30505",
"fa c #a30606",
"db c #a38989",
"fc c #a40505",
"cE c #a48989",
"aZ c #a50000",
"e4 c #a50404",
"cl c #a58989",
"#5 c #a59898",
"dR c #a5a5e6",
"ez c #a60000",
"eY c #a60303",
"bI c #a68989",
"bl c #a78989",
"dp c #a80000",
"e2 c #a80404",
"aC c #a90000",
"eR c #a90202",
"e3 c #a90505",
"av c #a9a9a9",
"eC c #aa0000",
"a4 c #aa8888",
"ei c #ab0000",
"eO c #ab0303",
"eH c #ab8585",
"aw c #ababab",
"c8 c #ac0000",
"eX c #ac0404",
"fu c #ac8f8f",
"b7 c #acacac",
"eS c #ad0404",
"aa c #adadad",
"ag c #ae0000",
"eT c #ae0505",
"eD c #af0303",
"dK c #afafe4",
"cR c #b00000",
"#T c #b00101",
"ey c #b00303",
"bN c #b0b0b0",
"dY c #b10000",
"eW c #b11414",
"#x c #b20303",
"eN c #b20404",
"fD c #b2a9a9",
"d1 c #b30000",
"eF c #b30505",
"ep c #b38888",
"el c #b40303",
"eE c #b40505",
"#e c #b40a0a",
"eU c #b41f1f",
"cz c #b50000",
"aL c #b5abab",
"#r c #b5afaf",
"a# c #b5b5b5",
"eh c #b60303",
"eM c #b61212",
"ex c #b70404",
"eL c #b81d1d",
"#O c #b89292",
"ea c #b8a2c7",
"fi c #b8a6a6",
"dg c #b8b8b8",
"cY c #b8b8ce",
"ch c #b90000",
"d2 c #b90303",
"en c #b90404",
"em c #b90505",
".2 c #b93131",
"ew c #ba0505",
".Q c #ba5f5f",
"cJ c #bababa",
"dX c #bb0303",
"ev c #bb1010",
"eu c #bb1818",
"eG c #bb2424",
"fs c #bbb7b7",
"bm c #bbbbbb",
"eg c #bc0404",
"eo c #bc0f0f",
"aT c #bcbcbc",
"d8 c #bcbce1",
"b0 c #bd0000",
"eV c #bd5151",
"d4 c #be0404",
"fN c #bebcbc",
"c6 c #bf0000",
"dH c #bf0303",
"d3 c #bf0505",
"ef c #bf1212",
"et c #bf2d2d",
"fG c #bfbcbc",
"ct c #bfbfe1",
"dE c #c00303",
"#o c #c08080",
".j c #c1c1c1",
"bC c #c20000",
"d5 c #c21515",
"ee c #c21a1a",
".F c #c2a9a9",
".# c #c2c1c1",
"dv c #c2c2e0",
"dq c #c30303",
"dW c #c30404",
"eK c #c35959",
".k c #c3c1c1",
"Qt c #c3c3c3",
"dI c #c40505",
"fE c #c4c4c4",
"dn c #c50303",
"aK c #c59191",
"#q c #c5c5c5",
"bf c #c60000",
"dD c #c60404",
"#Y c #c67070",
"#Z c #c6a8a8",
"ft c #c6c5c5",
"fF c #c6c6c6",
"cx c #c70000",
"ds c #c70404",
"ed c #c74b4b",
"#1 c #c7c1c1",
"cS c #c80000",
"c9 c #c80303",
"dr c #c80505",
"dJ c #c81515",
"c5 c #c90303",
"c2 c #c9c9e1",
"#L c #ca8c8c",
"a0 c #cb0000",
"dt c #cb1515",
"dV c #cb4747",
".v c #cb9191",
"dm c #cc0404",
"ec c #cc6e6e",
"eJ c #cc8888",
".u c #cc9797",
"#2 c #ccc8c8",
"cf c #cd0000",
"d# c #cd0404",
".i c #cdb4b3",
"cP c #ce0303",
"d. c #ce0505",
"es c #ce8282",
"er c #ce8b8b",
"eb c #cfa1a9",
"cc c #cfcfd7",
"aD c #d00000",
"da c #d01515",
"bY c #d10000",
"cA c #d20303",
"c4 c #d20404",
".a c #d2b8b7",
"cw c #d30303",
"cT c #d30505",
"#4 c #d38d8d",
"bx c #d3d3d3",
"#K c #d47373",
"dC c #d48787",
"aN c #d4d4d4",
"ah c #d50000",
"cO c #d50404",
"al c #d55959",
".l c #d58a89",
"ab c #d58b8b",
"b1 c #d60000",
"cC c #d60404",
"cU c #d61515",
"dl c #d68787",
"eq c #d6b8b8",
"ce c #d70303",
"cB c #d70505",
".G c #d74d4d",
"dU c #d7a9a9",
"eI c #d7bbbb",
"dS c #d7d2d9",
"#p c #d7d7d7",
"d7 c #d7d7df",
"a. c #d8d8d8",
"dB c #d8d8de",
"#U c #d90000",
"cD c #d91515",
"ax c #d97474",
"c3 c #d98888",
"cv c #da0404",
"cN c #da8787",
"bD c #db0000",
"cj c #db0404",
"dT c #dbc6c6",
"## c #dbd4d4",
"bd c #dc0000",
"bX c #dc0303",
"ci c #dc0505",
"cu c #dc8787",
"dk c #dcdcdc",
"#y c #dd0000",
"b2 c #dd0303",
"ck c #dd1515",
".R c #dd1f1f",
"aU c #dd8484",
"#0 c #ddc0c0",
"bL c #dedede",
"bg c #df0000",
"cd c #df8888",
"aY c #e00000",
"#f c #e00404",
"bV c #e08787",
"#a c #e0b6b6",
"bE c #e10303",
"b3 c #e10505",
"bA c #e20303",
".3 c #e20b0b",
"by c #e28787",
"b4 c #e31515",
"aB c #e40000",
"bW c #e40404",
"a1 c #e50000",
"ba c #e58888",
"#3 c #e5b1b1",
"bh c #e60303",
"bG c #e60404",
".E c #e65656",
"bc c #e70303",
"bF c #e70505",
"aJ c #e75252",
"bH c #e81515",
"#. c #e89797",
"aE c #e90000",
"af c #ea0000",
"bz c #ea0404",
".h c #eaacab",
"bj c #eb0404",
"aX c #ec0303",
"bi c #ec0505",
"bk c #ec1515",
".9 c #ec8484",
"#S c #ee0000",
".b c #eeb3b2",
"ai c #ef0000",
".P c #ef3d3d",
"aF c #f00303",
"bb c #f00404",
".1 c #f02222",
"aA c #f10303",
"#w c #f10404",
"a2 c #f10505",
"a3 c #f21414",
"#G c #f34949",
"#H c #f34b4b",
"aW c #f40404",
"#d c #f40d0d",
"#J c #f44040",
".g c #f4b0af",
"#V c #f50000",
"aH c #f50404",
"aI c #f50808",
"#u c #f53737",
"ae c #f60303",
"aG c #f60505",
"aV c #f60606",
"#I c #f62d2d",
".w c #f66160",
".c c #f7bab8",
"#z c #f80000",
".8 c #f83939",
".t c #f88685",
"az c #f90404",
".d c #fac0be",
"#R c #fb0303",
"#g c #fb0404",
"aj c #fb0505",
"#E c #fb1818",
".S c #fb2424",
".0 c #fb2525",
".X c #fb3737",
".m c #fb9392",
".f c #fbc0bf",
".e c #fbc1bf",
"ay c #fc0808",
"ak c #fc0a0a",
"#F c #fc1818",
"#P c #fc1f1f",
".Y c #fc3131",
".H c #fc4343",
"#A c #fd0303",
"#Q c #fd0404",
"#C c #fd0505",
"#v c #fd0606",
"#h c #fd0707",
"#j c #fd0808",
"#k c #fd0909",
"#m c #fd0c0c",
".4 c #fd0d0d",
"#D c #fd1111",
"ac c #fd1919",
"#n c #fd1a1a",
".7 c #fd2121",
"#b c #fd2323",
".T c #fd2626",
".Z c #fd2727",
".V c #fd2828",
".L c #fd4342",
".K c #fd4343",
".N c #fd4443",
".O c #fd4444",
".I c #fd4645",
".s c #fda4a2",
".r c #fdb1b0",
".o c #fdb5b4",
".p c #fdb6b4",
"ad c #fe0404",
"#W c #fe0505",
"#c c #fe0f0f",
".W c #fe2a2a",
".M c #fe4342",
".D c #fe6868",
"#B c #ff0505",
"#i c #ff0808",
"#l c #ff0909",
"#X c #ff0e0e",
".5 c #ff1010",
".6 c #ff1111",
".U c #ff2828",
".J c #ff4747",
".x c #ff7171",
".y c #ff7473",
".B c #ff7675",
".A c #ff7676",
".C c #ff7776",
".z c #ff7877",
".n c #ffafae",
".q c #ffb7b5",
"Qt.#.a.b.c.d.e.d.d.e.d.d.e.d.d.e.d.d.e.d.d.e.d.d.f.g.h.i.#.j",
".k.l.m.n.o.p.q.p.p.q.p.p.q.p.p.q.p.p.q.p.p.q.p.p.q.r.s.t.u.#",
".v.w.x.y.z.A.B.B.B.B.B.B.B.B.B.B.B.B.B.B.B.B.B.B.B.C.x.D.E.F",
".G.H.I.J.K.L.M.L.L.M.L.L.M.L.L.M.L.L.M.L.L.M.L.L.M.N.O.H.P.Q",
".R.S.T.U.V.V.U.V.V.U.V.V.U.V.V.U.V.V.U.V.V.W.X.Y.U.V.Z.0.1.2",
".3.4.5.6.6.6.6.6.6.6.6.6.6.6.6.6.6.6.7.8.9#.###a#b.6.6#c#d#e",
"#f#g#h#i#j#k#l#k#k#l#k#k#l#k#k#l#m#n#o#p#q#r#s#t#u#k#j#v#w#x",
"#y#z#A#B#C#C#B#D#E#F#G#H#D#m#I#J#K#L#M#p#N#O#P#C#B#C#Q#R#S#T",
"#U#V#R#W#W#W#X#Y#Z#0#1#2#3#4#5#6#7#8#9a.a#aaabac#B#Wadaeafag",
"ahaiaeaj#g#gakalamananao#papaqarasasat#pauavawaxay#gazaAaBaC",
"aDaEaFaGaHaIaJaKaLaaawaMaNaOasarasasaPaQaRaSaTaUaVaHaWaXaYaZ",
"a0a1aXa2a2a3a4#6aaaaaoa5aNaOarara6a7a8a9b.b#aNbaa2a2bbbcbdbe",
"bfbgbhbibjbkbla5#6bmbnboaNbpbqbrbsbtbubvb#bwbxbybibjbzbAahbB",
"bCbDbEbFbGbHbIbJbKbLawbMbNbObPbQbRbSbTbUaMbwbxbVbFbGbWbXbYbZ",
"b0b1b2b3b3b4bIb5b6bLb7a5b8b9c.c#cabwbwbwbwcbcccdb3b3#fcecfcg",
"chaDcecicjckclbJbKbLcma5b9cnaMcocpcqbwaMcrcsctcucicjcvcwcxcy",
"cza0cAcBcCcDcEbJbKbLcFcGb9cncHcIbmcJ#6cKcLcMctcNcBcCcOcPbCcQ",
"cRcScPcTcTcUcEb5b6bLcVcWcXavb6#6bmcYcZc0cMc1c2c3cTcTc4c5c6c7",
"c8bCc9d.d#dadbbJbKbLdcdddebMb5dfdgdhcMdididjdkdld.d#dmdnchdo",
"dpb0dqdrdsdtdubJbKbLdvdwdxdydzdfdgdhcMdidAdBdkdCdrdsdDdEczdF",
"dGchdHdIdIdJdub5b6bLbLdKdLcMdMdNdOdPdQdRdSdTdUdVdIdIdWdXdYdZ",
"d0d1d2d3d4d5d6bJbKbLdkdkd7d8d9e.e#eaebecedeeefd4d3d4egeheiej",
"ekagelemeneoepbJbKbLdkdkbLeqereseteuevenenewenenewenexeyezeA",
"eBeCeDeEeEeFeGeHb6eIeJeKeLeMeFeFeFeFeFeFeFeFeFeFeEeEeNeOePeQ",
"cQdGeReSeSeSeTeUeVeWeSeSeTeSeSeTeSeSeTeSeSeTeSeSeTeSeXeYekeZ",
"e0bZe1e2e2e2e3e2e2e3e2e2e3e2e2e3e2e2e3e2e2e3e2e2e3e2e4e5e6e7",
"e8e9f.f#fafbfcfbfbfcfbfbfcfbfbfcfbfbfcfbfbfcfbfbfbfdfefffgfh",
"fifjfkflfmfmfnfmfmfnfmfmfnfmfmfnfmfmfnfmfmfnfmfmfnfofpfqfrfs",
"ftfufvfwfxfyfzfyfyfzfyfyfzfyfyfzfyfyfzfyfyfzfyfyfzfAfBfCfDfE",
"fEfFfGfHfIfJfJfJfJfJfJfJfJfJfKfJfKfKfJfKfKfJfKfKfJfLfMfN#q#q"};
