/* XPM */
static char *dummy[]={
"30 30 506 2",
"aw c #202020",
"av c #212121",
"au c #2d2d2d",
"fH c #2d4f77",
"fS c #2e4d70",
"fk c #30537d",
"fa c #345a88",
"fy c #35557c",
"e1 c #355c8c",
"fK c #365578",
"eM c #365e8d",
"fm c #375e8d",
"fv c #375e8e",
"fG c #385e8d",
"ew c #385f90",
"fz c #39608e",
"ea c #396193",
"fw c #3a5472",
"dR c #3a6394",
"b. c #3b2e27",
"dy c #3b6497",
"fj c #3b6597",
"fc c #3b6699",
"fR c #3c6088",
"dd c #3c669a",
"fn c #3c6799",
"fL c #3d6089",
"fF c #3d6695",
"fu c #3d6698",
"cW c #3d689c",
"f# c #3d699c",
"aU c #3e352f",
"cE c #3e6a9e",
"e3 c #3e6aa0",
"e0 c #3e6ba0",
"bc c #3f342e",
"fA c #3f6899",
"cl c #3f6ba2",
"eL c #3f6ca2",
"eO c #3f6ca4",
"fd c #3f6da1",
"fo c #406ca0",
"fi c #406ca1",
"b2 c #406da3",
"ey c #406ea6",
"ft c #416da1",
"ev c #416fa4",
"bE c #416fa5",
"e4 c #416fa6",
"ec c #4170a8",
"e2 c #42638a",
"fE c #426c9c",
"fs c #4270a5",
"fr c #4270a6",
"f. c #4270a7",
"e# c #4271a8",
"bh c #4271a9",
"eP c #4271aa",
"b# c #433229",
"eN c #43648d",
"fQ c #436892",
"fM c #436893",
"fB c #436c9d",
"fC c #436c9e",
"fD c #436c9f",
"fp c #4370a5",
"fq c #4370a6",
"fe c #4371a8",
"fh c #4372a7",
"eZ c #4372a9",
"a1 c #4372ab",
"dT c #4372ac",
"dQ c #4373a9",
"ez c #4373ac",
"ex c #44668e",
"fN c #446a95",
"fP c #446b95",
"fO c #446b96",
"ff c #4472a8",
"fg c #4472a9",
"e5 c #4473ac",
"eK c #4474ac",
"dA c #4474ad",
"eb c #456891",
"e6 c #4574ab",
"dx c #4574ac",
"aF c #4574ad",
"ed c #4575ae",
"eQ c #4575af",
"df c #4576b0",
"dS c #466993",
"eR c #4675af",
"ai c #4675b1",
"eu c #4676af",
"dc c #4676b1",
"eA c #4677b2",
"cY c #4678b5",
"dz c #476b95",
"de c #476c97",
"eB c #4777b1",
"#T c #4777b2",
"eJ c #4777b3",
"e. c #4778b1",
"dU c #4778b2",
"cV c #4778b3",
"cX c #486d99",
"ee c #4879b4",
"dB c #487ab3",
"dP c #487ab4",
"cG c #487ab7",
"cF c #496f9c",
"ef c #4979b4",
"et c #4979b5",
"cD c #497bb5",
"dg c #497bb7",
"cn c #497cba",
"#w c #4a79b5",
"dw c #4a7bb7",
"d9 c #4a7bb8",
"ck c #4a7cb9",
"cZ c #4a7ebc",
"b4 c #4a7ebe",
"cm c #4b709e",
"dV c #4b7cb8",
"db c #4b7dba",
"dC c #4b7eba",
"b1 c #4b7ebb",
"bG c #4b7fbf",
"b3 c #4c71a0",
"dD c #4c7eb9",
"dN c #4c7ebb",
"dO c #4c7fb9",
"dv c #4c7fbc",
"bD c #4c7fbd",
"cH c #4c7fbe",
"bj c #4c81c2",
"f0 c #4d637e",
"fZ c #4d637f",
"bF c #4d73a1",
"bi c #4d74a4",
"dh c #4d7fbd",
"du c #4d80be",
"co c #4d80c0",
"bg c #4d82c1",
"a3 c #4d84c5",
"a2 c #4e76a6",
"#e c #4e7db8",
"cC c #4e82c0",
"c0 c #4e82c1",
"da c #4e83c1",
"b5 c #4e83c4",
"f1 c #4f657e",
"aG c #4f77a8",
"e9 c #4f7bb0",
"eY c #4f7cb2",
"eC c #4f7db5",
"a0 c #4f82c3",
"cJ c #4f83c3",
"cj c #4f83c4",
"cI c #4f84c4",
"cU c #4f84c5",
"bH c #4f84c6",
"aH c #4f85c8",
"aj c #5079ab",
"aE c #5084c6",
"bk c #5086c8",
"#U c #517aad",
"cp c #5185c6",
"cB c #5186c7",
"bC c #5186c9",
"ah c #5187ca",
"ak c #5187cb",
"#x c #527caf",
"es c #527fb7",
"b6 c #5287c9",
"ci c #5287ca",
"b7 c #5288ca",
"bf c #5289cb",
"a4 c #5289cc",
"#V c #528acf",
"a. c #535353",
"b0 c #5388cb",
"#S c #5388cc",
"bJ c #5389cb",
"bI c #5389cc",
"bZ c #538acc",
"#f c #547eb1",
"eI c #547fb5",
".1 c #547fb6",
"aI c #548ace",
"aZ c #548bce",
"bl c #548bcf",
"#y c #548bd1",
"bB c #548cd0",
"aR c #555555",
"eg c #5581b9",
"al c #558cd2",
"a5 c #558dd1",
"a6 c #558ed2",
"dW c #5684bd",
"#v c #568acf",
"#W c #568fd6",
"eX c #5781b5",
"dE c #5786be",
"#g c #578dd3",
"ag c #578ed5",
"aK c #578fd4",
"aJ c #578fd5",
"fY c #586b83",
"e7 c #5881b3",
"er c #5883b9",
"di c #5887c1",
"aY c #5890d6",
"#z c #5890d7",
"#R c #5890d8",
"am c #5891d8",
".2 c #5981b3",
"aL c #5990d5",
"aD c #5990d8",
"an c #5991d8",
"#X c #5993db",
"c1 c #5a8bc5",
"#d c #5a90d3",
"af c #5a93db",
"#Y c #5a94dc",
"cK c #5b8bc7",
"#h c #5b92da",
"aC c #5b93d9",
"#A c #5b96de",
"fb c #5c7593",
"eS c #5c85b8",
".3 c #5c93d7",
"#u c #5c93db",
"ao c #5c94da",
"#B c #5c95dd",
"#C c #5c96de",
"cq c #5d8dc9",
"bx c #5e4a3f",
"br c #5e5a57",
"b8 c #5e8fcd",
"bK c #5e90ce",
"#i c #5e98e0",
"bm c #5f92d2",
"#t c #5f97e0",
"#j c #5f98e0",
"#k c #5f99e1",
"a7 c #6095d5",
"#Z c #6098dd",
".4 c #6098de",
"#I c #6198de",
"#l c #6199e0",
"#9 c #636363",
"eH c #6389b9",
"#D c #639ade",
".5 c #639ce3",
".6 c #649de4",
".7 c #649ee4",
".0 c #6596d7",
"f2 c #677586",
".S c #679bdd",
"#E c #679cdd",
"ae c #679cde",
"#F c #679dde",
"aV c #686868",
".Q c #698bb6",
".Z c #6a9fe1",
".T c #6a9fe2",
"fT c #6c7886",
"#Q c #6c9fdf",
"bq c #6d6d6d",
".V c #6da2e5",
".U c #6da3e6",
".W c #6da4e6",
".8 c #6ea3e4",
".X c #6ea4e6",
"c4 c #6f5b47",
"#c c #6fa4e4",
"cM c #706151",
"dm c #706a65",
"fl c #708299",
"fX c #718091",
"bM c #727272",
"b9 c #737373",
"#J c #73a1db",
".Y c #73a6e5",
"dJ c #744d25",
"bd c #747474",
".P c #74a4e1",
"a9 c #757575",
".R c #7595be",
".G c #76a7e5",
"d8 c #7799c3",
"at c #787878",
"dl c #794817",
"bP c #797979",
"eq c #7999c1",
".O c #79aceb",
"dI c #7a4611",
"#s c #7aa7de",
".M c #7aaded",
".L c #7aaeee",
"e8 c #7b98bc",
".9 c #7baae3",
".K c #7baded",
"dH c #7c440c",
"ax c #7c7c7c",
".N c #7caeee",
".J c #7cafee",
".H c #7dafef",
"d0 c #7e4103",
"dn c #7e7e7e",
".w c #7ea8da",
"#K c #7ea9dd",
"dq c #7f3f00",
"ay c #7f7f7f",
"cS c #804000",
"c8 c #804305",
"eW c #809ec1",
".D c #80aee5",
".I c #80b3f3",
"bN c #818181",
"d1 c #826446",
"c. c #828282",
"cR c #835322",
"a# c #838383",
"ap c #839fc3",
"cy c #845322",
"bs c #845539",
"cN c #848484",
"#G c #84acdd",
"bp c #858585",
"aM c #85a8d3",
"#H c #85addd",
"fI c #868e98",
"dG c #885016",
"cO c #898989",
"c9 c #8a5017",
"#r c #8c939b",
"aq c #8d8e8f",
"#q c #8d949b",
"cQ c #8e7f72",
"as c #8e8e8e",
"#0 c #8ea2ba",
"cu c #8f8f8f",
"d3 c #905e2c",
"c7 c #906438",
"ep c #90a9c8",
"cx c #918b85",
"cf c #928c86",
"aP c #929292",
"eh c #9298a0",
"dX c #9298a1",
"dj c #9299a1",
"c2 c #9299a2",
"c5 c #939393",
"cr c #939aa2",
"bL c #939aa3",
"bn c #939ba3",
"a8 c #939ba5",
"eT c #939eab",
".C c #93c4fb",
"by c #949494",
".F c #94a9c4",
"#L c #94abc7",
"bX c #95918f",
"aB c #95adca",
"ar c #969696",
"#N c #96989a",
"fJ c #969faa",
"cc c #97928f",
"cw c #979797",
"#m c #97a6b9",
"#8 c #989898",
"eD c #98a3b1",
".l c #98c1ed",
".x c #98c9fd",
"dZ c #996a3c",
"ct c #999999",
"d4 c #9a6b3d",
"bw c #9b603f",
"cb c #9b9b9b",
"bt c #9c613f",
"ca c #9c9c9c",
"#7 c #9c9fa3",
".s c #9dc9f6",
"c3 c #9e7348",
"cL c #9e774e",
"eG c #9eb2cb",
"aS c #9f7e6c",
"ce c #9f8f86",
"cv c #9f9f9f",
"f3 c #9fa3a9",
"#P c #9fa8b3",
".B c #9fd0fe",
".y c #9fd1fe",
".E c #a0aebe",
"el c #a17850",
"#O c #a1a1a1",
"#M c #a2b1c3",
"eV c #a2b4cb",
"ba c #a36441",
"cd c #a38d81",
"aN c #a3afbe",
"dM c #a3b7cf",
"aX c #a3b7d1",
"dt c #a3b8d0",
"eF c #a4b6cb",
"em c #a5886c",
"d2 c #a58f79",
"#6 c #a5b5c9",
"ad c #a5b6cb",
"cT c #a5b9d3",
"d# c #a5bad2",
"cA c #a5bad3",
".A c #a5d6fe",
".z c #a5d7fe",
"bY c #a6bbd6",
"bA c #a6bcd7",
".t c #a7b8ce",
"ch c #a7bcd6",
"dK c #a88562",
"cs c #a8a098",
"be c #a8bed9",
"#. c #a8c1e1",
"az c #a9a9a9",
"bW c #aa8b78",
"aA c #ababab",
"dk c #ac8a6a",
"c# c #acacac",
"bR c #ad8a77",
"ac c #adadad",
"fW c #aeb2b6",
"aO c #afb1b4",
"dr c #b09172",
"bQ c #b0b0b0",
".k c #b0bac5",
"#p c #b1b3b4",
"#1 c #b2b9c2",
"## c #b3c7df",
".b c #b4c9dd",
".h c #b4cce3",
"ab c #b5b5b5",
"fx c #b6b9bc",
"eo c #b6c0cd",
"do c #b8b8b8",
"dp c #baa794",
"cP c #bababa",
"d7 c #bac6d4",
".c c #bad7ea",
"bo c #bbbbbb",
".d c #bbdcef",
"aW c #bcbcbc",
".f c #bcdcef",
"en c #bdb9b7",
".g c #bddaed",
".e c #bddef0",
".v c #bfc2c5",
".r c #bfedfd",
"fU c #c0c0c1",
".m c #c0eefe",
"bV c #c1805c",
".# c #c1c1c1",
".u c #c1c1c2",
".j c #c1c2c2",
".a c #c2c3c6",
".i c #c2c7cb",
"#5 c #c2cfdd",
"bu c #c37549",
"ek c #c3b2a1",
"c6 c #c3bdb8",
"Qt c #c3c3c3",
"#3 c #c3c5c6",
"eE c #c3cbd5",
"bb c #c47649",
"bS c #c47f58",
"fV c #c4c4c4",
"#o c #c5c5c5",
"eU c #c5cdd6",
"#b c #c5cfdc",
"d5 c #c6b6a5",
"dY c #cabcaf",
"#4 c #cacbcc",
"#2 c #cad1d9",
"bU c #cb7d50",
"bv c #ce7b4b",
"d6 c #ced3d9",
"ej c #cfc5bc",
".q c #cff8fd",
".n c #cff9fd",
"bT c #d07c4c",
"cz c #d0c8bf",
"dF c #d1c9c2",
".o c #d2fafd",
"aT c #d3b6a6",
"cg c #d3d1cf",
"bz c #d3d3d3",
".p c #d3fbff",
"aQ c #d4d4d4",
"d. c #d5cfc9",
"#a c #d6d8db",
"#n c #d7d7d7",
"aa c #d8d8d8",
"ei c #dbd9d7",
"dL c #dbd9d8",
"ds c #dcdcdc",
"bO c #dedede",
"Qt.#.a.b.c.d.e.f.f.e.f.f.e.f.f.e.f.f.e.f.f.e.f.f.e.g.h.i.j.#",
"Qt.k.l.m.n.o.p.o.o.p.o.o.p.o.o.p.o.o.p.o.o.p.o.o.p.q.r.s.t.u",
".v.w.x.y.z.A.A.A.A.A.A.A.A.A.A.A.A.A.A.A.A.A.A.A.A.A.B.C.D.E",
".F.G.H.I.J.K.L.M.M.L.M.M.L.M.M.L.M.M.L.M.M.L.M.M.L.N.J.O.P.Q",
".R.S.T.U.V.V.W.V.V.W.V.V.W.V.V.W.V.V.W.V.V.X.G.Y.W.V.V.Z.0.1",
".2.3.4.5.6.6.7.6.6.7.6.6.7.6.6.7.6.6.8.9#.###a#b#c.6.6.4#d#e",
"#f#g#h#i#j#j#k#j#j#k#j#j#k#j#j#k#l.T#m#n#o#p#q#r#s#j#t#u#v#w",
"#x#y#z#A#B#B#C#D#E#F#G#H#D#I#J#K#L#M#N#n#O#P#Q#B#C#B#B#R#S#T",
"#U#V#W#X#Y#Y#Z#0#1#2#3#4#5#6#7#8#9a.a#aaabacadae#Y#Yafagahai",
"ajakalamananaoapaqararas#natauavawawax#nayazaAaBaCanaDalaEaF",
"aGaHaIaJaKaLaMaNaOacaAaPaQaRawavawawaSaTaUaVaWaXaYaKaKaZa0a1",
"a2a3a4a5a6a7a8#8acacasa9aQaRavavb.b#babbbcbdaQbea6a6a6bfbgbh",
"bibjbkblblbmbna9#8bobpbqaQbrbsbtbubvbwbxbdbybzbAbBblaZbCbDbE",
"bFbGbHbIbJbKbLbMbNbOaAbPbQbRbSbTbUbVbWbXaPbybzbYbZbJb0aEb1b2",
"b3b4b5b6b7b8bLb9c.bOc#a9cacbcccdcebybybybycfcgchb7b7cicjckcl",
"cmcncocpcpcqcrbMbNbOcsa9cbctaPcucvcwbyaPcxcyczcAcBcpcpcCcDcE",
"cFcGcHcIcJcKcrbMbNbOcLcMcbctcNcObocP#8cQcRcSczcTcUcJcJcHcVcW",
"cXcYcZbgc0c1c2b9c.bOc3c4c5azc.#8boc6c7c8cSc9d.d#dac0c0dbdcdd",
"dedfdgbDdhdidjbMbNbOdkdldmbPb9dndodpcSdqdqdrdsdtdudhdvdwdxdy",
"dzdAdBdCdDdEdjbMbNbOdFdGdHdIdJdndodpcSdqdKdLdsdMdNdOdDdPdQdR",
"dSdTdUdwdVdWdXb9c.bObOdYdZcSd0d1d2d3d4d5#nd6d7d8dVdVd9e.e#ea",
"ebecedeeefegehbMbNbOdsdseiejekelemeneoepeqeresefetefefeuevew",
"exeyezeAeBeCeDbMbNbOdsdsbOeEeFeGeHeIeCeBeBeJeBeBeJeBeBeKeLeM",
"eNeOePeQeReReSeTc.eUeVeWeXeYeReReReReReReReReReReReReReZe0e1",
"e2e3e4e5dxe6dxe7e8e9e6e6dxe6e6dxe6e6dxe6e6dxe6e6aFdxdxf.f#fa",
"fbfcfdfefffffgfffffgfffffgfffffgfffffgfffffgfffffgfffhfifjfk",
"flfmfnfofpfqfrfrfrfrfrfrfrfrfrfrfrfrfrfrfrfrfrfrfrfsftfufvfw",
"fxfyfzfAfBfCfDfCfCfDfCfCfDfCfCfDfCfCfDfCfCfDfCfCfDfEfFfGfHfI",
"#ofJfKfLfMfNfOfPfPfOfPfPfOfPfPfOfPfPfOfPfPfOfPfPfOfQfRfSfTfU",
"#ofVfWfXfYfZf0f0f0f0f0f0f0f0f0f0f0f0f0f0f0f0f0f0fZf1f2f3Qt#o"};
