/* XPM */
static char *dummy[]={
"30 30 513 2",
"ak c #202020",
"aj c #212121",
"ai c #2d2d2d",
"a0 c #3b2e27",
"aJ c #3e352f",
"a4 c #3f342e",
"a1 c #433229",
"#Y c #535353",
"aG c #555555",
"bp c #5e4a3f",
"bj c #5e5a57",
"#X c #636363",
"aK c #686868",
"bi c #6d6d6d",
"c4 c #6f5b47",
"cJ c #706151",
"dn c #706a65",
"bE c #727272",
"b3 c #737373",
"dL c #744d25",
"a5 c #747474",
"aZ c #757575",
"ah c #787878",
"dm c #794817",
"bH c #797979",
"dK c #7a4611",
"dJ c #7c440c",
"al c #7c7c7c",
"d1 c #7e4103",
"do c #7e7e7e",
"dr c #7f3f00",
"am c #7f7f7f",
"cP c #804000",
"c8 c #804305",
"bF c #818181",
"d2 c #826446",
"b4 c #828282",
"cO c #835322",
"#Z c #838383",
"ct c #845322",
"bk c #845539",
"cK c #848484",
"bh c #858585",
"dI c #885016",
"cL c #898989",
"c9 c #8a5017",
"cN c #8e7f72",
"ag c #8e8e8e",
"cp c #8f8f8f",
"d4 c #905e2c",
"c7 c #906438",
"ae c #90908d",
"cs c #918b85",
"c# c #928c86",
"aE c #929292",
"c5 c #939393",
"bq c #949494",
"bP c #95918f",
"af c #969696",
"b8 c #97928f",
"cr c #979797",
"#W c #989898",
"d0 c #996a3c",
"co c #999999",
"d5 c #9a6b3d",
"bo c #9b603f",
"#D c #9b9b96",
"b7 c #9b9b9b",
"bl c #9c613f",
"b6 c #9c9c9c",
"c3 c #9e7348",
"cI c #9e774e",
"aH c #9f7e6c",
"c. c #9f8f86",
"#m c #9f9f8c",
"#l c #9f9f8d",
"cq c #9f9f9f",
"en c #a17850",
"#E c #a1a1a1",
"a2 c #a36441",
"b9 c #a38d81",
"d3 c #a58f79",
"fB c #a5945c",
"#V c #a5a59c",
"dM c #a88562",
"cn c #a8a098",
"fZ c #a9850f",
"fN c #a9860f",
"an c #a9a9a9",
"bO c #aa8b78",
"f9 c #aa9860",
"ej c #aaa68d",
"dY c #aaa68e",
"dG c #aaa78e",
"c2 c #aaa78f",
"cm c #aaa890",
"b2 c #aaa891",
"bD c #aaa991",
"bf c #aaa992",
"ao c #ababab",
"dl c #ac8a6a",
"aY c #acab92",
"b5 c #acacac",
"bJ c #ad8a77",
"#2 c #adadad",
"f0 c #aea58b",
"eo c #af8d64",
"ds c #b09172",
"fr c #b09742",
"bI c #b0b0b0",
"f8 c #b19643",
"fh c #b49831",
"eP c #b49c36",
"ey c #b49d38",
"dS c #b5a03c",
"dz c #b5a23e",
"cW c #b5a542",
"cB c #b5a644",
"bV c #b5a948",
"bw c #b5aa4a",
"aD c #b5b5ae",
"#k c #b5b5b1",
"#1 c #b5b5b5",
"e5 c #b69c34",
"f3 c #b69d4e",
"ec c #b6a03a",
"aR c #b6ae4f",
"au c #b6af51",
"#J c #b6b256",
"#p c #b6b357",
"f7 c #b79730",
"f4 c #b79835",
"de c #b7a540",
"cf c #b7a947",
"b. c #b7ad4d",
"#8 c #b7b253",
"f6 c #b89730",
"f5 c #b89830",
"#d c #b8b559",
"g. c #b8b5ab",
"#F c #b8b89f",
"dp c #b8b8b8",
"dq c #baa794",
"cM c #bababa",
"fO c #bbb9b2",
"bg c #bbbbbb",
"fQ c #bca660",
"eW c #bcb58b",
"aL c #bcbcbc",
".1 c #bdbb6a",
"#h c #c0c096",
"bN c #c1805c",
"f2 c #c1b48e",
".j c #c1c1c1",
".# c #c2c2c1",
".v c #c2c2c2",
"bm c #c37549",
"em c #c3b2a1",
"c6 c #c3bdb8",
".Q c #c3c289",
".G c #c3c2b9",
".k c #c3c3c1",
"Qt c #c3c3c3",
"a3 c #c47649",
"bK c #c47f58",
"fC c #c4b277",
"eF c #c4bc8e",
"f1 c #c4c4c3",
"fP c #c5c5c3",
"#j c #c5c5c5",
"d6 c #c6b6a5",
"#O c #c6c68d",
"aC c #c6c6a1",
"#P c #c6c6b2",
"#R c #c7c7c3",
".i c #c8c8bb",
"fR c #c99c0d",
"dZ c #cabcaf",
"#C c #cacaa2",
".u c #cacaae",
"bM c #cb7d50",
"fs c #cba523",
"#S c #ccccca",
"bn c #ce7b4b",
"el c #cfc5bc",
".a c #cfcfab",
"bL c #d07c4c",
"cu c #d0c8bf",
"dH c #d1c9c2",
".w c #d1d09b",
"aI c #d3b6a6",
"ep c #d3c6a5",
"ca c #d3d1cf",
"#U c #d3d3a5",
"br c #d3d3d3",
"fD c #d4a60b",
"#B c #d4d493",
"aF c #d4d4d4",
"fY c #d5a60f",
"d. c #d5cfc9",
"#3 c #d5d5a4",
"ad c #d6d680",
"#i c #d7d7d7",
"#0 c #d8d8d8",
".l c #dad985",
"ap c #dada93",
"fA c #dbac0b",
"ek c #dbd9d7",
"dN c #dbd9d8",
"#. c #dbdbd6",
"d7 c #dcdad3",
"dt c #dcdcdc",
"#Q c #ddddca",
"fi c #deb00f",
".h c #dede95",
"bG c #dedede",
"aM c #e0dfa0",
"## c #e0e0c3",
"fM c #e1b00c",
"d8 c #e1deca",
"eG c #e2ddbc",
"eq c #e3daa9",
"eX c #e3debe",
"#T c #e5e5c2",
"d9 c #e6dfb1",
".H c #e6e464",
"fS c #e8b615",
".b c #e8e894",
".9 c #e8e8af",
"fX c #e9b715",
"e6 c #e9bc12",
"eH c #e9dd95",
"dO c #e9e097",
"du c #e9e299",
"cQ c #e9e49c",
"cv c #e9e49d",
"bQ c #e9e6a0",
"bs c #e9e7a1",
"eQ c #eabf15",
"ez c #eac119",
"ed c #eac31c",
"dT c #eac61f",
"dA c #eac823",
"df c #eacb26",
".F c #eae85d",
"cX c #ebcd2a",
"cC c #ebcf2d",
"cg c #ebd130",
"bW c #ebd434",
"bx c #ebd637",
"b# c #ebd83a",
"aS c #ebda3d",
"av c #ebdd41",
"eY c #ebdd92",
"eI c #ebde8e",
"#9 c #ebe045",
"d# c #ebe49b",
"#q c #ebe54b",
"cb c #ebe79f",
".R c #ebe84f",
"a6 c #ebe9a4",
"fq c #ecbc10",
"#K c #ece349",
"#e c #ece74e",
".2 c #ece84e",
"aB c #ecec80",
".8 c #ececa3",
"er c #edde7e",
".g c #eded93",
"fT c #eebc17",
"fL c #f0bc0f",
"fU c #f0bd16",
".c c #f0f08f",
"fE c #f1bd0f",
"fV c #f1be16",
"fW c #f1be17",
"ft c #f1bf0e",
"fc c #f1da5e",
"fz c #f2bf0e",
"eZ c #f2dd68",
"fg c #f3c414",
"eO c #f3c91a",
"ex c #f3cb1e",
"dR c #f3cf25",
"dy c #f3d229",
"cV c #f3d730",
"cA c #f3d933",
"es c #f3df60",
".d c #f3f289",
"#x c #f3f383",
"#y c #f3f384",
".f c #f3f38f",
"e4 c #f4c717",
"eb c #f4ce22",
"dd c #f4d52c",
"bU c #f4de3a",
"bv c #f4e03e",
"e. c #f4e25f",
"aQ c #f4e645",
"at c #f4e848",
"#I c #f4ed50",
"#o c #f4ef52",
".e c #f4f38b",
"#A c #f4f47d",
"ce c #f5dd36",
"a9 c #f5e441",
"#7 c #f5ec4c",
"#c c #f5f152",
"#n c #f5f578",
".t c #f6f56c",
"#z c #f6f672",
"eJ c #f7de44",
".0 c #f7f353",
".P c #f7f555",
".7 c #f8f875",
"fK c #fac612",
"fF c #fac613",
"fj c #fbc912",
"fp c #fbca13",
"e0 c #fbdd33",
"eK c #fbde31",
"eu c #fbe030",
"et c #fbe137",
".X c #fbfb66",
".m c #fbfb73",
"fu c #fcc810",
"fG c #fcca14",
"fb c #fcdc32",
"e1 c #fcdd29",
".x c #fcfb60",
".Y c #fcfc62",
"#w c #fcfc66",
"#G c #fcfc6b",
"fH c #fdca14",
"fy c #fdcb11",
"fJ c #fdcb14",
"e7 c #fdce15",
"fk c #fdd014",
"eA c #fdd31c",
"fo c #fdd415",
"e8 c #fdd518",
"ee c #fdd520",
"fm c #fdd717",
"fe c #fdd819",
"f# c #fdda19",
"f. c #fdda1a",
"eB c #fdda1f",
"dB c #fddb27",
"ef c #fddc23",
"eM c #fddd21",
"eD c #fdde21",
"dg c #fdde2c",
"ev c #fddf24",
"eL c #fddf2b",
"eh c #fde024",
"eE c #fde02b",
"eV c #fde039",
"dC c #fde22a",
"ei c #fde233",
"cD c #fde333",
"dP c #fde42c",
"dh c #fde52f",
"ch c #fde536",
"dE c #fde62c",
"dw c #fde830",
"dF c #fde83a",
"dj c #fdea31",
"cE c #fdea36",
"by c #fdea3d",
"dk c #fdeb3f",
"ci c #fdec39",
"cT c #fded38",
"ba c #fded41",
"cG c #fdee38",
"cS c #fdee39",
"cy c #fdef3b",
"cH c #fdef45",
"ck c #fdf13b",
"cx c #fdf13c",
"bz c #fdf141",
"cl c #fdf248",
"aw c #fdf249",
"bb c #fdf344",
"bS c #fdf442",
"bB c #fdf543",
"a. c #fdf54d",
"bt c #fdf646",
"bC c #fdf64f",
"bd c #fdf847",
"be c #fdf853",
"ax c #fdf94d",
"#r c #fdfa55",
"aO c #fdfb4e",
"a# c #fdfb51",
"#f c #fdfb57",
"ar c #fdfc52",
"az c #fdfd4f",
"aA c #fdfd51",
"ab c #fdfd53",
"#s c #fdfd58",
".S c #fdfd59",
"#u c #fdfd5a",
".T c #fdfd5b",
".V c #fdfd5c",
"#g c #fdfd5d",
".N c #fdfd5f",
".I c #fdfd60",
".L c #fdfd61",
"#v c #fdfd62",
".J c #fdfd64",
"#4 c #fdfd65",
".6 c #fdfd67",
"#a c #fdfd68",
".s c #fdfd80",
".r c #fdfd95",
".o c #fdfd9c",
".p c #fdfd9d",
"fI c #fecc14",
"ff c #fed017",
"eR c #fed218",
"e3 c #fed21a",
"eN c #fed41e",
"ew c #fed621",
"dU c #fed923",
"ea c #feda25",
"dQ c #fedc28",
"dx c #fedf2d",
"dc c #fee131",
"cY c #fee230",
"cU c #fee435",
"cz c #fee638",
"bX c #fee93a",
"cd c #fee93b",
"bT c #feeb3f",
"bu c #feed43",
"a8 c #fef046",
"aP c #fef24a",
"as c #fef54d",
"#6 c #fef851",
"#H c #fefa55",
"#b c #fefc58",
".Z c #fefe59",
".W c #fefe5e",
"fv c #ffd112",
"fx c #ffd313",
"fw c #ffd513",
"fl c #ffd716",
"fn c #ffd817",
"eS c #ffd91b",
"e9 c #ffda1a",
"fd c #ffdb19",
"fa c #ffdb1a",
"e2 c #ffdc1d",
"eT c #ffdd1d",
"eU c #ffdd1e",
"eC c #ffdf21",
"dV c #ffe026",
"eg c #ffe124",
"e# c #ffe328",
"dW c #ffe428",
"dX c #ffe636",
"dD c #ffe72c",
"cZ c #ffe933",
"di c #ffea31",
"dv c #ffeb31",
"db c #ffeb34",
"c0 c #ffed35",
"da c #ffee35",
"cF c #ffef38",
"c1 c #ffef42",
"cR c #fff039",
"bY c #fff03d",
"aT c #fff044",
"cj c #fff13b",
"cw c #fff23c",
"cc c #fff33f",
"bZ c #fff43f",
"b0 c #fff53f",
"b1 c #fff54c",
"bA c #fff643",
"bR c #fff743",
"aU c #fff748",
"bc c #fff947",
"#L c #fff951",
"a7 c #fffa4a",
"aV c #fffb4a",
"aW c #fffb4b",
"aX c #fffb56",
".3 c #fffd57",
"ay c #fffe4f",
"aN c #fffe51",
"#M c #fffe54",
"#5 c #fffe56",
"aa c #ffff53",
"aq c #ffff55",
"ac c #ffff56",
"#N c #ffff57",
"#t c #ffff5a",
".4 c #ffff5b",
".U c #ffff5c",
".5 c #ffff5d",
".O c #ffff5e",
".M c #ffff60",
".K c #ffff63",
".E c #ffff68",
".D c #ffff73",
".y c #ffff75",
".z c #ffff7a",
".C c #ffff7b",
".B c #ffff7d",
".A c #ffff7e",
".n c #ffff93",
".q c #ffff9e",
"Qt.#.a.b.c.d.e.d.d.e.d.d.e.d.d.e.d.d.e.d.d.e.d.d.f.g.h.i.j.j",
".k.l.m.n.o.p.q.p.p.q.p.p.q.p.p.q.p.p.q.p.p.q.p.p.q.r.s.t.u.v",
".w.x.y.z.A.B.B.B.B.B.B.B.B.B.B.B.B.B.B.B.B.B.B.B.B.C.D.E.F.G",
".H.I.J.K.L.I.M.N.N.M.N.N.M.N.N.M.N.N.M.N.N.M.N.N.M.L.I.O.P.Q",
".R.S.T.U.V.V.U.V.V.U.V.V.U.V.V.U.V.V.U.V.V.W.X.Y.U.V.V.Z.0.1",
".2.3.4.5.5.5.5.5.5.5.5.5.5.5.5.5.5.5.6.7.8.9#.###a.5.5#b#c#d",
"#e#f.T.5#g#g.5#g#g.5#g#g.5#g#g.5.N#a#h#i#j#k#l#m#n#g.V#b#o#p",
"#q#r#s#t#u#u#t#v.X#w#x#y#v.N#z#A#B#C#D#i#E#F#G#u#t#u#u#H#I#J",
"#K#L#M#N#N#N.O#O#P#Q#R#S#T#U#V#W#X#Y#Z#0#1#2#3#4#N#N#5#6#7#8",
"#9a.a#aaababacadaeafafag#iahaiajakakal#iamanaoapaqabarasatau",
"avawaxayazaAaBaCaD#2aoaEaFaGakajakakaHaIaJaKaLaMaNazaOaPaQaR",
"aSaTaUaVaWaXaY#W#2#2agaZaFaGajaja0a1a2a3a4a5aFa6aWaWa7a8a9b.",
"b#babbbcbdbebfaZ#WbgbhbiaFbjbkblbmbnbobpa5bqbrbsbcbdbtbubvbw",
"bxbybzbAbBbCbDbEbFbGaobHbIbJbKbLbMbNbObPaEbqbrbQbRbBbSbTbUbV",
"bWbXbYbZb0b1b2b3b4bGb5aZb6b7b8b9c.bqbqbqbqc#cacbb0b0cccdcecf",
"cgchcicjckclcmbEbFbGcnaZb7coaEcpcqcrbqaEcsctcucvcwcxcyczcAcB",
"cCcDcEcFcGcHcmbEbFbGcIcJb7cocKcLbgcM#WcNcOcPcucQcRcScTcUcVcW",
"cXcYcZc0c0c1c2b3b4bGc3c4c5anb4#Wbgc6c7c8cPc9d.d#dac0dbdcddde",
"dfdgdhdidjdkc2bEbFbGdldmdnbHb3dodpdqcPdrdrdsdtdudvdjdwdxdydz",
"dAdBdCdDdEdFdGbEbFbGdHdIdJdKdLdodpdqcPdrdMdNdtdOdDdEdPdQdRdS",
"dTdUdVdWdWdXdYb3b4bGbGdZd0cPd1d2d3d4d5d6d7d8d9e.dWdWe#eaebec",
"edeeefegeheiejbEbFbGdtdtekelemeneoepeqereseteuehegehevewexey",
"ezeAeBeCeDeEeFbEbFbGdtdtbGeGeHeIeJeKeLeDeDeCeDeDeCeDeMeNeOeP",
"eQeReSeTeTeUeVeWb4eXeYeZe0e1eTeTeTeTeTeTeTeTeTeTeTeTe2e3e4e5",
"e6e7e8e9f.f#fafbfcdBf#f#fdf#f#fdf#f#fdf#f#fdf#f#faf.fefffgfh",
"fifjfkflfmfmfnfmfmfnfmfmfnfmfmfnfmfmfnfmfmfnfmfmfnfmfofpfqfr",
"fsftfufvfwfwfwfwfwfwfwfwfwfwfwfwfwfwfwfwfwfwfwfwfwfxfyfzfAfB",
"fCfDfEfFfGfHfIfHfHfIfHfHfIfHfHfIfHfHfIfHfHfIfHfHfJfKfLfMfNfO",
"fPfQfRfSfTfUfVfUfUfVfUfUfVfUfUfVfUfUfVfUfUfVfUfUfWfXfYfZf0Qt",
"#jf1f2f3f4f5f6f7f7f6f7f7f6f7f7f6f7f7f6f7f7f6f7f7f6f8f9g.Qt#j"};
