/* XPM */
static char *dummy[]={
"30 30 591 2",
"e4 c #0404fb",
"dx c #07c8c8",
"dy c #09cccb",
"e5 c #0c0cfb",
"fn c #0f0ffc",
"dw c #0f9595",
"eL c #1616ec",
"fi c #1919dd",
"d. c #1f2c2b",
"ae c #212120",
"fj c #2222cb",
"d# c #22706f",
"af c #252321",
"cK c #252525",
"dX c #27e2e1",
"dz c #289292",
"#U c #2a2a2a",
"fG c #2d2de1",
"dY c #30dbdb",
"cJ c #353535",
"db c #354949",
"fm c #3939f1",
"eZ c #3a3add",
"#V c #3c3c3a",
"dv c #3d6e6e",
"da c #3edada",
"#T c #3f3f3e",
"c9 c #444443",
"fF c #4444f2",
"cL c #464c4b",
"eE c #4a4ac8",
"ag c #4d3d33",
"ai c #4f433c",
"e3 c #5656e8",
"ad c #575756",
"dZ c #5bbbbb",
"fH c #5c5cde",
"eK c #6060b9",
"dW c #62b8b8",
"fk c #65658c",
"cI c #666666",
"aA c #674531",
"az c #675f5a",
"fI c #6866e9",
"aE c #6d6965",
"e0 c #71718a",
"fh c #7171ec",
"ax c #727272",
"cC c #75522e",
"cD c #75695c",
"eo c #7575a7",
"dA c #757a79",
"be c #797978",
"aR c #797979",
"cB c #7b4c1c",
"c. c #7c766f",
"eh c #7f7f7e",
"dU c #7f7f7f",
"eM c #7f7fea",
"#S c #808080",
"ca c #818180",
"fo c #8181e9",
"e2 c #828281",
"fE c #8383e9",
"bJ c #858585",
"bH c #878786",
"bh c #878787",
"cN c #878988",
"aD c #885c42",
"cj c #888581",
"d0 c #889696",
"eH c #898988",
"em c #8a9695",
"bN c #8b6137",
"c4 c #8b6339",
"ej c #8c8c98",
"ek c #8d8d8d",
"eF c #8d8d8e",
"bM c #8e8174",
"av c #8e8e8e",
"aB c #8f5a3b",
"e1 c #8f8f8e",
"bn c #918a82",
"ep c #9191dc",
"a0 c #929291",
"c3 c #936331",
"b9 c #936b42",
"bG c #937557",
"d1 c #939392",
"bm c #939393",
"en c #939c9b",
"aZ c #948b85",
"bl c #949493",
"c# c #949494",
"ci c #958b7f",
"aU c #959594",
"eG c #959595",
"bj c #96908d",
"dt c #96928c",
"el c #969696",
"#X c #979795",
"#z c #98918a",
"dV c #989b9b",
"bI c #999999",
"bk c #9a9591",
"bi c #9a9a99",
"eg c #9b9181",
"eC c #9b9182",
"dT c #9b9183",
"eX c #9b9282",
"ff c #9b9283",
"fB c #9b9383",
"aT c #9b9b9b",
"bg c #9d9b98",
"cH c #9d9d9d",
"#Q c #9e9e9d",
"aC c #9f6340",
"ab c #9f9f9e",
"aj c #a0a0a0",
"eJ c #a1a1ae",
"cG c #a2a2a2",
"h# c #a48851",
"#P c #a4a4a4",
"c5 c #a7a19b",
"gZ c #a88850",
"aV c #a88d7e",
"fW c #a89e8a",
"cF c #a8a6a4",
"b7 c #a99984",
"c0 c #a99a85",
"bL c #a9a8a6",
"aQ c #aa9883",
"bd c #aa9984",
"dN c #aa9e8c",
"c7 c #aaaaaa",
"bO c #ab8a69",
"au c #ab9883",
"cy c #ab9b86",
"cl c #acabaa",
"aa c #acacab",
"#Y c #adabaa",
"aw c #adadad",
"c6 c #afadac",
"cO c #afaeac",
"#y c #b09c87",
"bo c #b09e8b",
"#B c #b0afae",
"bK c #b0b0b0",
"aY c #b1856c",
"gQ c #b1a080",
"ay c #b1b1b1",
"c2 c #b29678",
"gF c #b39768",
"cA c #b3977a",
"cd c #b39d88",
"dn c #b3a288",
"gi c #b3a994",
"aF c #b3b3b2",
"#O c #b4a18c",
"ac c #b4b4b3",
"a1 c #b4b4b4",
"e6 c #b4b4e3",
"hj c #b5a27a",
"eI c #b5b5b5",
"fl c #b5b5b8",
"hi c #b6a276",
"bU c #b6b5b3",
"eu c #b78a50",
"eR c #b78b52",
"fu c #b78e54",
"fQ c #b79056",
"hh c #b7a276",
"hg c #b7a378",
"fJ c #b7b1d6",
"cE c #b7b7b7",
"du c #b7b8b7",
"#H c #b87b40",
"#4 c #b87c41",
"aL c #b87f43",
"a9 c #b87f45",
"b1 c #b88248",
"cs c #b88349",
"dh c #b8864c",
"dH c #b8884d",
"f# c #b88e53",
"g. c #b89358",
"cb c #b8b8b7",
"ao c #b97d42",
"bA c #b98246",
"cU c #b9864b",
"d7 c #b98a4f",
"ce c #b9aa9b",
"#l c #ba7b40",
"gs c #ba975d",
"hk c #baad8f",
"cc c #bab3ab",
"c8 c #babab9",
"#W c #bbbab9",
"eD c #bbbbd0",
"cM c #bbc3c3",
"ch c #bca588",
"a# c #bcb3a9",
"dB c #bcbcbc",
"#A c #bdbdbd",
"eY c #bdbdd1",
"d2 c #bebebe",
".8 c #bf844c",
"#R c #bfbfbf",
"hf c #c0ae88",
"aW c #c17f5a",
"ah c #c1947a",
"#g c #c1c0bd",
"g3 c #c29c56",
"#h c #c2b19f",
"aX c #c3805a",
"bF c #c3c1be",
"aS c #c3c3c3",
"ha c #c4beab",
"b8 c #c4c1bd",
"bf c #c5c5c4",
"ei c #c5c5c8",
"ck c #c7c7c6",
"h. c #c8a055",
"bV c #c8b092",
"g2 c #c8b691",
"cz c #c8c8c7",
"do c #c8c8c8",
".T c #ca9c6a",
"gG c #caa25d",
"cf c #cbc1b7",
"gS c #cc9f50",
"fg c #ccccce",
"#x c #cda77f",
"hl c #cdcab9",
"g0 c #cecab9",
"fC c #cececd",
"#f c #cfc4b8",
"he c #cfc8b2",
"bT c #cfc9c2",
"fX c #cfcfcf",
"gR c #d2c19c",
"fD c #d2d2de",
"#i c #d3af8a",
"gP c #d4a34f",
"f1 c #d5c6bf",
"cg c #d6c8b6",
"dO c #d7c7af",
".I c #d7caaf",
"#C c #d8b188",
"hm c #d8d5c4",
"c1 c #d8d5d1",
"a. c #d9ad7c",
"ds c #d9c4a9",
"hb c #d9d6c3",
"hd c #d9d6c4",
"fp c #d9d9dc",
"gt c #daa54f",
"bS c #daae79",
"gY c #dbab55",
"cm c #dbba90",
".k c #dbd7c1",
".x c #dbd7c2",
"g1 c #dbd7c5",
"bW c #dcb481",
"dr c #dcd2c5",
".# c #dcd7c0",
".j c #dcd7c1",
"dp c #dcdcdc",
"fZ c #dcdcdd",
"g4 c #ddb260",
".w c #ddba90",
".l c #ddd7c1",
"Qt c #ddd9c3",
"hc c #dddac5",
"dq c #dddcdb",
"fY c #dddddd",
"g9 c #e0b462",
"f0 c #e0d6ca",
".y c #e1b07a",
"#u c #e1c09d",
"gj c #e1cfaa",
".i c #e2d4b8",
"f2 c #e3c499",
"#Z c #e4b27d",
"fK c #e5d4b7",
"bu c #e6c6a1",
"g5 c #e7bb66",
"ak c #e7c196",
".a c #e7ca9e",
".J c #e88a30",
"g# c #e8ae51",
"d8 c #eaa143",
"ev c #eaa345",
"eS c #eaa548",
"#e c #eaa660",
"fa c #eaa74a",
"fv c #eaaa4c",
"fR c #eaac4e",
"#s c #eaad6c",
"gE c #eab154",
"g8 c #eabd67",
"g6 c #eabd68",
".U c #eb8526",
"#I c #eb882b",
"ap c #eb8d2e",
"aM c #eb8f30",
"b. c #eb9133",
"bB c #eb9335",
"b2 c #eb9538",
"ct c #eb973a",
"cV c #eb9a3d",
"di c #eb9c3f",
"dI c #eb9f41",
"cP c #ebbc7f",
"g7 c #ebbe68",
".9 c #ec8427",
"#m c #ec8629",
".H c #ec8929",
"#5 c #ec8a2c",
".m c #ecaa63",
"#t c #edb77f",
"gT c #edb95f",
".2 c #edbb86",
"aG c #edc79a",
"a2 c #edc89b",
"bP c #edca9f",
"#w c #eead69",
"gH c #eeb759",
"bv c #eec18a",
"bp c #eeca9d",
"fL c #eed3a0",
"gO c #efb95a",
"#v c #efb981",
"dc c #efc790",
"dP c #efd0a0",
".3 c #f0b87e",
"dM c #f1bd6e",
".h c #f1be77",
"gh c #f2cb7c",
"dC c #f2cb93",
"d3 c #f2cd94",
"eq c #f2ce95",
"eN c #f2cf97",
"e7 c #f2d098",
"fq c #f2d198",
"dg c #f3a040",
"dG c #f3a242",
"et c #f3a646",
"eQ c #f3a849",
"ft c #f3ad4e",
"fP c #f3b050",
"gr c #f3b555",
"#G c #f48a2b",
"#3 c #f48c2d",
"aK c #f49131",
"a8 c #f49433",
"b0 c #f49838",
"cr c #f49b3b",
"d6 c #f4a544",
"f. c #f4ac4c",
"f9 c #f4b452",
"bt c #f4c082",
"f3 c #f4cc84",
"gk c #f4d597",
"#k c #f58a29",
"an c #f5902f",
"bz c #f59736",
"cT c #f59e3d",
".7 c #f68928",
".b c #f6c26d",
"dQ c #f7c478",
".S c #f88e2a",
"bR c #f8af57",
".g c #f8ba55",
"gX c #f8c366",
".v c #f9a239",
".1 c #f9b063",
"bs c #f9b35f",
"gU c #f9c465",
"#N c #faa549",
"gu c #fabe5b",
"gD c #fabf5c",
"ec c #fabf64",
"gI c #fac15f",
"gl c #face75",
".0 c #fba041",
"ed c #fbbd5d",
"dR c #fbbf65",
".c c #fbc055",
"gN c #fbc461",
"gV c #fbc768",
"gA c #fbce6e",
"#r c #fc9e3b",
"#D c #fc9f3e",
"#j c #fca143",
"bX c #fcab48",
".d c #fcc352",
"gW c #fcc868",
"f4 c #fcca6a",
"fM c #fccb70",
"gm c #fccc6a",
"#n c #fd922e",
".V c #fd932b",
"#J c #fd9530",
".W c #fd962d",
".5 c #fd972f",
"#o c #fd9731",
".Y c #fd982f",
"#E c #fd9932",
".O c #fd9a30",
".Q c #fd9a31",
"#q c #fd9a32",
"#K c #fd9a33",
"aq c #fd9a34",
".N c #fd9b30",
".K c #fd9b31",
"#1 c #fd9c35",
"aN c #fd9c36",
"#M c #fd9d35",
".L c #fd9e34",
"ar c #fd9f37",
"#d c #fd9f3c",
"bC c #fda03b",
".z c #fda135",
"aI c #fda139",
"aH c #fda239",
"a6 c #fda33b",
"b3 c #fda33e",
"a3 c #fda43b",
"a4 c #fda63f",
"at c #fda641",
"bY c #fda840",
"aP c #fda843",
"cW c #fda844",
"b4 c #fda942",
"cp c #fdaa43",
"co c #fdab43",
"dj c #fdab46",
"bE c #fdac48",
"cX c #fdae48",
"b6 c #fdae4b",
"de c #fdb049",
"d9 c #fdb04a",
"cn c #fdb04d",
"dk c #fdb14a",
"dd c #fdb24a",
"ew c #fdb24d",
"dE c #fdb34c",
"dD c #fdb54c",
"cZ c #fdb551",
"e. c #fdb64e",
"dm c #fdb753",
"er c #fdb850",
"ex c #fdb851",
"ea c #fdba51",
"eb c #fdba52",
"eO c #fdba53",
"fw c #fdba55",
".n c #fdbb4d",
"ez c #fdbc54",
"fb c #fdbd57",
"ga c #fdbf5a",
"fr c #fdc058",
"fx c #fdc059",
"ef c #fdc062",
"fd c #fdc159",
"eB c #fdc264",
".f c #fdc351",
"fN c #fdc35a",
"dS c #fdc36a",
".e c #fdc452",
".u c #fdc456",
"fz c #fdc45b",
"gb c #fdc65e",
"gv c #fdc65f",
"fe c #fdc669",
"gp c #fdc860",
"gd c #fdc961",
"gC c #fdc962",
"fA c #fdc96b",
"ge c #fdca61",
"gg c #fdca62",
"gx c #fdcd64",
"gB c #fdcd68",
".t c #fdd667",
".p c #fddc6b",
".q c #fddd6c",
".6 c #fe922c",
"#F c #fe942e",
"#2 c #fe9631",
"am c #fe9834",
"aJ c #fe9a36",
".4 c #fe9c35",
"a7 c #fe9d38",
"by c #fe9f3a",
"#9 c #fea23b",
"bZ c #fea23d",
"cq c #fea440",
"cu c #fea641",
"a5 c #fea73e",
"cS c #fea742",
"bw c #fea942",
"df c #fea945",
"br c #feaa45",
"bc c #feab46",
"dF c #feac47",
"dJ c #feaf48",
"d5 c #feaf49",
"es c #feb14c",
"cx c #feb24e",
"eP c #feb34e",
"eT c #feb550",
"e9 c #feb651",
"fs c #feb953",
"fO c #febc56",
"fS c #febe57",
"f8 c #febe58",
"gq c #fec15b",
"eW c #fec566",
"f6 c #fec75f",
"f5 c #fec862",
"fV c #fecb69",
"gn c #fecc66",
"#. c #ff922b",
"## c #ff962e",
"#6 c #ff9832",
".X c #ff992f",
".R c #ff9930",
".Z c #ff9a2f",
"#a c #ff9a30",
"#b c #ff9a31",
".P c #ff9b30",
"#p c #ff9b32",
"#c c #ff9b33",
"#7 c #ff9d35",
"#L c #ff9e35",
".M c #ff9f34",
"#0 c #ff9f37",
"b# c #ff9f39",
"#8 c #ffa037",
"al c #ffa138",
"as c #ffa339",
"ba c #ffa43c",
".G c #ffa53a",
"aO c #ffa53b",
"bx c #ffa63e",
"bq c #ffa73e",
"bb c #ffa83e",
"bD c #ffa940",
"b5 c #ffac43",
"cv c #ffac44",
"bQ c #ffac47",
"cR c #ffae45",
".F c #ffaf42",
"cw c #ffaf46",
"cQ c #ffaf47",
".A c #ffb244",
"cY c #ffb34a",
".B c #ffb546",
"dl c #ffb54c",
".D c #ffb749",
"d4 c #ffb74e",
".E c #ffb849",
"dK c #ffb84e",
".C c #ffb94a",
"dL c #ffb94f",
"e# c #ffba51",
"ee c #ffbb51",
"eU c #ffbc53",
"ey c #ffbc54",
"eA c #ffbd54",
"e8 c #ffbe55",
"eV c #ffbf56",
"fc c #ffc259",
"fT c #ffc45b",
"fy c #ffc55b",
"f7 c #ffc65c",
"fU c #ffc75d",
"gc c #ffca60",
"go c #ffca61",
"gJ c #ffca64",
"gf c #ffcb61",
"gM c #ffcc66",
"gw c #ffcd63",
"gy c #ffce64",
"gz c #ffce65",
"gK c #ffce67",
"gL c #ffcf67",
".o c #ffd766",
".s c #ffde6c",
".r c #ffde6d",
"Qt.#.a.b.c.d.e.d.d.e.d.d.e.d.d.e.d.d.e.d.d.e.d.d.f.g.h.i.j.k",
".l.m.n.o.p.q.r.q.q.r.q.q.r.q.q.r.q.q.r.q.q.r.q.q.s.t.u.v.w.x",
".y.z.A.B.C.D.D.D.D.D.D.D.D.D.D.D.D.D.D.D.D.D.D.D.E.D.F.G.H.I",
".J.K.L.M.N.O.P.O.O.P.O.O.P.O.O.P.K.K.P.O.O.P.O.O.P.K.Q.R.S.T",
".U.V.W.X.Y.Y.Z.Y.Y.Z.Y.Y.Z.Q.0.1.2.3.4.Y.Y.Z.Y.Y.Z.Y.5.6.7.8",
".9#.###a#a#a#a#b.4#b#b#c#d#e#f#g#h#i#j#a#a#a#a#a#a#a.R.6#k#l",
"#m#n#o#p#q#r#s#t#u#v#w#x#y#z#A#B#C#D#p#q#q#p#q#q#p#q#E#F#G#H",
"#I#J#K#L#M#N#O#P#Q#R#S#T#U#V#W#X#Y#Z#0#M#M#L#M#M#L#M#1#2#3#4",
"#5#6#7#8#9a.a#aaabacadaeafagahaiajakal#8#8#8#8#8#8#8#0amanao",
"apaqarasatauavawaxayazaAaBaCaDaEaFaGasaHaHasaHaHasaHaIaJaKaL",
"aMaNaIaOaPaQaRaSaTaUaVaWaXaYaZa0a1a2aOa3a3aOa3a4a5a3a6a7a8a9",
"b.b#babbbcbdbebfbgbhbibjbkblbmbnbobpbbbqbrbsbtbubvbwbxbybzbA",
"bBbCa4bDbEbdaRbFbGbHbIbJbKbLbMbNbObPbQbRbSbTbUbVbWbXbYbZb0b1",
"b2b3b4b5b6b7beb8b9c.c#cacbcccdcecfcgchcicjckclcmcncocpcqcrcs",
"ctcucvcwcxcyaRczcAcBcCcDcEcFcGcHaScIcJcKcLcMcNcOcPcQcRcScTcU",
"cVcWcXcYcZc0beczc1c2c3c4c5c6c7c#c8c9aed.d#dadbbKdcdddedfdgdh",
"didjdkdldmdnaRdodpdqdrdsdtavbKaxdudvdwdxdydzdAdBdCdDdEdFdGdH",
"dIdJdldKdLdMdNdOdPdQdRdSdTdUczbmdVdWdXdYdZd0d1d2d3dLd4d5d6d7",
"d8d9e.e#eaebecedeaeeeaefegeheiejekelemend1bmeoepeqeaereseteu",
"evewexeyezezeAezezeAezeBeCeheDeEeFeGeHeIeJeKeLeMeNezeOePeQeR",
"eSeTeUeVeVeVeVeVeVeVeVeWeXeheYeZe0e1e2c8e3e4e5e6e7eVe8e9f.f#",
"fadmfbfcfdfdfcfdfdfcfdfeffehfgfhfifjfkflfmfnfofpfqfdfrfsftfu",
"fvfwfxfyfzfzfyfzfzfyfzfAfBehfCfDfEfFfGfHfIfJfKfLfMfzfNfOfPfQ",
"fRfSfTfUfUfUfUfUfUfUfUfVfWehfXfYfZf0f1f2f3f4f5f6fUfUf7f8f9g.",
"g#gagbgcgdgegfgegegfgeggghgigjgkglgmgngggegfgegegogdgpgqgrgs",
"gtgugvgwgxgxgygxgxgygxgxgzgAgBgygxgxgygxgxgygxgxgygxgCgDgEgF",
"gGgHgIgJgKgLgLgLgLgLgLgLgLgLgLgLgLgLgLgLgLgLgLgLgLgMgNgOgPgQ",
"gRgSgTgUgVgVgWgVgVgWgVgVgWgVgVgWgVgVgWgVgVgWgVgVgWgXgTgYgZg0",
"g1g2g3g4g5g6g7g6g6g7g6g6g7g6g6g7g6g6g7g6g6g7g6g6g8g9h.h#hahb",
"hchdhehfhghhhihihihihihihihihihihihihihihihihihihihjhkhlhmhc"};
