/* XPM */
static char *dummy[]={
"30 30 495 2",
"aC c #202020",
"aB c #212121",
"aA c #2d2d2d",
"bf c #3b2e27",
"a0 c #3e352f",
"bj c #3f342e",
"bg c #433229",
"af c #535353",
"aX c #555555",
"bF c #5e4a3f",
"bz c #5e5a57",
"ae c #636363",
"a1 c #686868",
"by c #6d6d6d",
"c5 c #6f5b47",
"cL c #706151",
"dm c #706a65",
"bS c #727272",
"cb c #737373",
"dF c #744d25",
"bk c #747474",
"be c #757575",
"az c #787878",
"dl c #794817",
"bV c #797979",
"dE c #7a4611",
"dD c #7c440c",
"aD c #7c7c7c",
"dW c #7e4103",
"dn c #7e7e7e",
"dq c #7f3f00",
"aE c #7f7f7f",
"cR c #804000",
"c9 c #804305",
"bT c #818181",
"dX c #826446",
"cc c #828282",
"cQ c #835322",
"ag c #838383",
"cy c #845322",
"bA c #845539",
"cM c #848484",
"bx c #858585",
"dC c #885016",
"cN c #898989",
"d. c #8a5017",
"fy c #8c501c",
"fJ c #8c501e",
"cP c #8e7f72",
"ay c #8e8e8e",
"cu c #8f8f8f",
"dZ c #905e2c",
"c8 c #906438",
"aw c #908e8c",
"cx c #918b85",
"cj c #928c86",
"aV c #929292",
"c6 c #939393",
"bG c #949494",
"b3 c #95918f",
"ax c #969696",
"fn c #977a62",
"cg c #97928f",
"cw c #979797",
"ad c #989898",
"dV c #996a3c",
"ct c #999999",
"d0 c #9a6b3d",
"bE c #9b603f",
"fR c #9b714e",
"fS c #9b7f67",
"#V c #9b9894",
"cf c #9b9b9b",
"bB c #9c613f",
"fd c #9c6f49",
"ce c #9c9c9c",
"fQ c #9d693d",
"fO c #9d6b42",
"e6 c #9e6739",
"fP c #9e693e",
"c4 c #9e7348",
"cK c #9e774e",
"aY c #9f7e6c",
"ci c #9f8f86",
"#A c #9f9387",
"#z c #9f9488",
"cv c #9f9f9f",
"eT c #a16839",
"eF c #a16939",
"eg c #a17850",
"fN c #a17958",
"#W c #a1a1a1",
"ep c #a2693a",
"bh c #a36441",
"ch c #a38d81",
"fC c #a55d20",
"dN c #a56b3a",
"dY c #a58f79",
"ac c #a5a09a",
"dx c #a66c3b",
"ec c #a7998d",
"fK c #a7998f",
"dT c #a79a8d",
"dd c #a86d3b",
"dG c #a88562",
"c3 c #a89a8e",
"cs c #a8a098",
"cX c #a96e3b",
"cJ c #a99a8e",
"ca c #a99b8e",
"aF c #a9a9a9",
"cE c #aa6f3b",
"fB c #aa876a",
"b2 c #aa8b78",
"bv c #aa9b8e",
"aG c #ababab",
"fe c #ac672f",
"dk c #ac8a6a",
"bd c #ac9c8d",
"cd c #acacac",
"cn c #ad703c",
"b7 c #ad713c",
"bX c #ad8a77",
"aj c #adadad",
"fp c #ae5f1c",
"eh c #ae8864",
"fI c #af6423",
"bM c #af723c",
"dr c #b09172",
"bW c #b0b0b0",
"bp c #b1733c",
"a8 c #b1743c",
"aM c #b2753d",
"ap c #b4763d",
"#2 c #b4763e",
"fm c #b5611b",
"#F c #b5773e",
"fo c #b5967d",
"aU c #b5b1ad",
"#y c #b5b3b0",
"ai c #b5b5b5",
"eK c #b7a08d",
"fM c #b7a493",
"fx c #b8641e",
"#n c #b8783f",
"#X c #b8a898",
"do c #b8b8b8",
"e7 c #b9631b",
"fz c #b9b6b3",
"dp c #baa794",
"cO c #bababa",
"bw c #bbbbbb",
"a2 c #bcbcbc",
".9 c #bd8653",
"ev c #bea590",
"fD c #bf6e29",
"fH c #c0702a",
"#v c #c0a68b",
"b1 c #c1805c",
".j c #c1c1c1",
".# c #c2c1c1",
".w c #c2c2c2",
"bC c #c37549",
".W c #c39c7a",
"ef c #c3b2a1",
".J c #c3bcb7",
"c7 c #c3bdb8",
".k c #c3c2c1",
"Qt c #c3c3c3",
"bi c #c47649",
"bY c #c47f58",
"fL c #c4c3c3",
"eU c #c5691d",
"fc c #c56b1e",
"fw c #c56d22",
"fA c #c5c4c3",
"#x c #c5c5c5",
"fq c #c66d22",
"fE c #c6732d",
"#7 c #c6a27f",
"aT c #c6af9a",
"d1 c #c6b6a5",
"#8 c #c6b9ad",
"eG c #c76b1d",
"fF c #c7742d",
"a. c #c7c5c2",
"ff c #c86c1e",
"fG c #c8742d",
".i c #c8c0b8",
"fl c #c96c20",
"eq c #c96d1e",
"#U c #cab197",
".v c #cab9a8",
"dU c #cabcaf",
"d9 c #cb6e1e",
"b0 c #cb7d50",
"e5 c #cc6f1f",
"a# c #cccbc9",
"dO c #ce701f",
"bD c #ce7b4b",
"fv c #cf7527",
".a c #cfb9a2",
"ee c #cfc5bc",
"dy c #d0711f",
"eS c #d07120",
"fr c #d07427",
"bZ c #d07c4c",
"ei c #d0baa6",
"cz c #d0c8bf",
"de c #d17220",
".x c #d1ae8d",
"dB c #d1c9c2",
"fg c #d27221",
"e8 c #d37220",
"cY c #d37420",
"fs c #d37728",
"ab c #d3b699",
"aZ c #d3b6a6",
"ck c #d3d1cf",
"bH c #d3d3d3",
"fb c #d47322",
"ft c #d47728",
"#T c #d4ab82",
"aW c #d4d4d4",
"fk c #d57423",
"cF c #d57521",
"fu c #d57728",
"ak c #d5b698",
"d# c #d5cfc9",
"d8 c #d67521",
"av c #d6a06e",
"co c #d77621",
"dM c #d77622",
"#w c #d7d7d7",
"eV c #d87521",
"ah c #d8d8d8",
"dw c #d97722",
"e4 c #d97723",
"b8 c #da7822",
".l c #daa570",
"aH c #daae84",
"eH c #db7721",
"e9 c #db7723",
"eR c #db7823",
"fh c #db7824",
"#h c #dbd8d5",
"ed c #dbd9d7",
"dH c #dbd9d8",
"dc c #dc7922",
"bN c #dc7923",
"d2 c #dcd7d3",
"ds c #dcdcdc",
"fj c #dd7924",
"#9 c #ddd1c5",
"e. c #de7a22",
"eE c #de7a23",
"fa c #de7a25",
"cW c #de7b23",
".h c #deb481",
"ej c #dec2aa",
"ew c #decdbe",
"bU c #dedede",
"fi c #df7925",
"eW c #df7a24",
"bq c #df7b23",
"eL c #dfcec0",
"d3 c #dfd4ca",
"eo c #e07b24",
"cD c #e07c24",
"e1 c #e09e67",
"a3 c #e0b894",
"#i c #e0cebb",
"f. c #e17b25",
"a9 c #e17c24",
"eM c #e1b895",
"ex c #e1b998",
"d4 c #e1c8b1",
"f# c #e27b25",
"dP c #e27c23",
"d7 c #e27c24",
"e3 c #e27d25",
"ey c #e2b791",
"aN c #e37d24",
"er c #e37d25",
"eY c #e37e25",
"eN c #e3a46d",
"ek c #e3ad7f",
"dI c #e3ba95",
"eX c #e47d26",
"cm c #e47e24",
"dL c #e47e25",
"eZ c #e47e26",
"e2 c #e48433",
"e0 c #e48a3c",
"dt c #e4ba95",
"eQ c #e57e26",
"aq c #e57f25",
"aa c #e5cfba",
"df c #e67e24",
"dv c #e67f25",
"eD c #e67f26",
"eP c #e68532",
"eO c #e68a3b",
"ez c #e69149",
".K c #e69242",
"el c #e69f62",
"cS c #e6bb96",
"bL c #e77f25",
"eI c #e77f26",
"eA c #e78837",
"cA c #e7bc96",
"da c #e7bc97",
"#3 c #e88025",
"et c #e88026",
"db c #e88027",
"eJ c #e88e41",
"d5 c #e89f5f",
".b c #e8bb7c",
"#g c #e8c59f",
"cZ c #e98025",
"dQ c #e98026",
"es c #e98027",
"eC c #e98127",
"#G c #e98226",
"eu c #e98530",
"eB c #e98630",
"en c #e98732",
"b4 c #e9bd96",
"bI c #e9be97",
"cG c #ea8125",
"bo c #ea8126",
"ea c #ea8127",
"cV c #ea8227",
"#o c #ea8326",
"em c #ea8b39",
".I c #ea903a",
"a7 c #eb8226",
"e# c #eb8227",
".X c #eb8526",
"eb c #eb8935",
"bl c #ebbf98",
"cp c #ec8226",
"dg c #ec8227",
"d6 c #ec8228",
"#. c #ec8426",
"aS c #eca96c",
"#f c #ecbf8f",
"dK c #ed8228",
"aL c #ed8327",
"dR c #ed8328",
"cC c #ed8427",
"dS c #ed8428",
".g c #edbf78",
"dz c #ee8428",
"du c #ef8428",
"dJ c #ef8528",
"dA c #ef8c36",
"cl c #f08527",
"c0 c #f08528",
"ao c #f08627",
".c c #f0c072",
"b9 c #f18526",
"di c #f18529",
"#1 c #f18628",
"dj c #f18d37",
"bO c #f28527",
"dh c #f28629",
"b6 c #f28728",
"#E c #f38729",
"#N c #f3ad66",
"#O c #f3ae68",
".d c #f3c068",
".f c #f3c36e",
"br c #f48727",
"cU c #f48729",
"bK c #f48828",
"c1 c #f4882a",
"#S c #f4aa5e",
".e c #f4c168",
"cH c #f5882a",
"#m c #f58928",
"c2 c #f59037",
"#B c #f5a756",
"bn c #f68929",
"cB c #f6892a",
"cI c #f69038",
"#R c #f6a34f",
".u c #f6a445",
"b. c #f78928",
"cT c #f7892a",
".8 c #f78a28",
"c. c #f78a29",
".V c #f78e2a",
"aO c #f88929",
"a6 c #f88a2a",
"cr c #f89238",
"#e c #f8a651",
"cq c #f98b2b",
"ar c #fa8b29",
"bs c #fa8b2a",
"aK c #fa8c2b",
"b5 c #fb8c2b",
"#L c #fb9d3f",
".4 c #fb9e3c",
".m c #fbb547",
"bQ c #fc8d2b",
"bJ c #fc8d2c",
"an c #fc8e2b",
"c# c #fc9439",
".5 c #fc9c38",
"#M c #fc9e3f",
".y c #fc9f34",
"#Y c #fca145",
"#H c #fd8e2a",
"b# c #fd8e2b",
"aP c #fd8e2c",
"#0 c #fd8f2c",
"#p c #fd902b",
"as c #fd902c",
"a5 c #fd902d",
"aJ c #fd912e",
"aR c #fd9230",
"#I c #fd932d",
"at c #fd932e",
".Y c #fd942c",
"#q c #fd942e",
"#Z c #fd952f",
"bR c #fd9539",
"bu c #fd963a",
".Z c #fd972e",
".6 c #fd972f",
"#C c #fd9730",
".1 c #fd982f",
"#s c #fd9830",
"#t c #fd9933",
"#Q c #fd9a36",
"#K c #fd9b39",
".L c #fd9c33",
"#P c #fd9c39",
".P c #fd9d32",
".T c #fd9d33",
".O c #fd9e34",
"al c #fd9e40",
".S c #fd9f34",
"#d c #fd9f3d",
"#u c #fd9f3f",
"#j c #fda03f",
".M c #fda135",
".t c #fdc354",
".s c #fdd969",
".o c #fde170",
".p c #fde272",
"bP c #fe8e2c",
"bm c #fe8f2d",
"#D c #fe902d",
"#l c #fe912c",
".7 c #fe932c",
".3 c #fe9a31",
"bt c #ff8f2c",
"ba c #ff902d",
"bb c #ff902e",
"## c #ff912b",
"aQ c #ff922e",
"a4 c #ff922f",
"#4 c #ff932d",
"am c #ff942e",
"aI c #ff9531",
"#a c #ff962e",
"#5 c #ff962f",
"au c #ff9633",
"#J c #ff972f",
"bc c #ff973a",
"#k c #ff982f",
"#r c #ff9830",
".0 c #ff992f",
"#b c #ff9930",
".2 c #ff9a2f",
"#c c #ff9a30",
".U c #ff9a32",
"#6 c #ff9a38",
".Q c #ff9e32",
".R c #ff9e33",
".N c #ffa236",
".H c #ffa83c",
".G c #ffb446",
".z c #ffb647",
".A c #ffbb4c",
".F c #ffbd4e",
".C c #ffbe4f",
".D c #ffbe50",
".E c #ffbf50",
".B c #ffc050",
".n c #ffd866",
".r c #ffe371",
".q c #ffe372",
"Qt.#.a.b.c.d.e.d.d.e.d.d.e.d.d.e.d.d.e.d.d.e.d.d.f.g.h.i.j.j",
".k.l.m.n.o.p.q.p.p.q.p.p.q.p.p.q.p.p.q.p.p.q.p.p.r.s.t.u.v.w",
".x.y.z.A.B.C.D.C.C.D.C.C.D.C.C.D.C.C.D.C.C.D.C.C.E.F.G.H.I.J",
".K.L.M.N.O.P.Q.P.P.Q.P.P.Q.P.P.Q.P.P.Q.P.P.Q.P.P.R.S.T.U.V.W",
".X.Y.Z.0.1.1.2.1.1.2.1.1.2.1.1.2.1.1.2.1.1.3.4.5.2.1.6.7.8.9",
"#.###a#b#c#c#c#c#c#c#c#c#c#c#c#c#c#c#d#e#f#g#h#i#j#c#k#l#m#n",
"#o#p#q#r#s#s#b#s#s#b#s#s#b#s#s#b#t#u#v#w#x#y#z#A#B#s#C#D#E#F",
"#G#H#I#J.6.6#r#K#L#M#N#O#P#Q#R#S#T#U#V#w#W#X#Y.6#r.6#Z#0#1#2",
"#3#H#4#5#5#5#6#7#8#9a.a#aaabacadaeafagahaiajakal#5#5amanaoap",
"aqarasamatatauavawaxaxay#wazaAaBaCaCaD#waEaFaGaHaIataJaKaLaM",
"aNaOaPaQaJaRaSaTaUajaGaVaWaXaCaBaCaCaYaZa0a1a2a3a4aJa5a6a7a8",
"a9b.b#babbbcbdadajajaybeaWaXaBaBbfbgbhbibjbkaWblbbbbbmbnbobp",
"bqbrbsbtaPbubvbeadbwbxbyaWbzbAbBbCbDbEbFbkbGbHbIbtaPbJbKbLbM",
"bNbOa6bPbQbRbvbSbTbUaGbVbWbXbYbZb0b1b2b3aVbGbHb4bPbQb5b6aqb7",
"b8b9c.bQbQc#cacbccbUcdbececfcgchcibGbGbGbGcjckbIbQbQbsclcmcn",
"cocp#Ecqa6crcabSbTbUcsbecfctaVcucvcwbGaVcxcyczcAcqa6cBcCcDcE",
"cFcG#1cBcHcIcJbSbTbUcKcLcfctcMcNbwcOadcPcQcRczcScTcHcUcVcWcX",
"cYcZc0c1c1c2c3cbccbUc4c5c6aFccadbwc7c8c9cRd.d#dacHc1#Edbdcdd",
"dedfdgdhdidjc3bSbTbUdkdldmbVcbdndodpcRdqdqdrdsdtdhdidudvdwdx",
"dyaNbodudzdAc3bSbTbUdBdCdDdEdFdndodpcRdqdGdHdsdIdJdzdKdLdMdN",
"dOdPdQdRdSdAdTcbccbUbUdUdVcRdWdXdYdZd0d1d2d3d4d5dzdSd6d7d8dN",
"d9e.aqe#eaebecbSbTbUdsdsedeeefegeheiejekelemeneae#eadbeocYep",
"eqdcereseteuevbSbTbUdsdsbUewexeyezeAeBeteteCeteteCeteDeEdeeF",
"eGeHd7eIeIeIeJeKcceLeMeNeOePeIeIeIeIeIeIeIeIeIeIeIeIeQeReSeT",
"eUeVeWeXeYeYeZe0e1e2eYeYeZeYeYeZeYeYeZeYeYeZeYeYeZeYe3e4e5e6",
"e7e8e9f.f.f.f#f.f.f#f.f.f#f.f.f#f.f.f#f.f.f#f.f.f#f.fafbfcfd",
"fefffgfhfifififififififififififififififififififififjfkflfmfn",
"fofpfqfrfsftfuftftfuftftfuftftfuftftfuftftfuftftfufvfwfxfyfz",
"fAfBfCfDfEfFfGfFfFfGfFfFfGfFfFfGfFfFfGfFfFfGfFfFfGfHfIfJfKQt",
"#xfLfMfNfOfPfQfQfQfQfQfQfQfQfQfQfQfQfQfQfQfQfQfQfQfRfSaUQt#x"};
