/* XPM */
static char *dummy[]={
"30 30 574 2",
"eM c #0404fb",
"dg c #07c8c8",
"dh c #09cbcb",
"eN c #0c0bfb",
"e9 c #0f0ffc",
"df c #0f9595",
"et c #1616ec",
"e4 c #1918dd",
"cU c #1f2b2b",
"#6 c #212020",
"e5 c #2222cb",
"cV c #226f6f",
"#7 c #252321",
"cv c #252525",
"dG c #27e1e1",
"di c #289292",
"#N c #2a2a2a",
"fr c #2d2de1",
"dH c #30dbdb",
"cu c #353535",
"cX c #354949",
"e8 c #3939f1",
"eH c #3a3add",
"#O c #3c3b3a",
"de c #3d6e6e",
"cW c #3edada",
"#M c #3f3e3e",
"cT c #444343",
"fq c #4444f2",
"cw c #464b4b",
"em c #4a4ac8",
"#8 c #4d3c33",
"a. c #4f433c",
"eL c #5655e8",
"#5 c #575656",
"dI c #5bbbbb",
"fs c #5c5cdf",
"es c #6060b9",
"dF c #62b8b8",
"e6 c #65658d",
"ct c #666666",
"ap c #674531",
"ao c #675f5a",
"ft c #6865eb",
"at c #6d6865",
"eI c #71708a",
"e3 c #7171ec",
"am c #727272",
"cn c #75522e",
"co c #75685c",
"d8 c #7574a7",
"dj c #757979",
"a4 c #797878",
"aH c #797979",
"cm c #7b4b1c",
"bY c #7c756f",
"d1 c #7f7e7e",
"dD c #7f7f7f",
"eu c #7f7fea",
"#L c #808080",
"b0 c #818080",
"f. c #8181ea",
"eK c #828181",
"fp c #8383e9",
"by c #858585",
"bw c #878686",
"a7 c #878787",
"cy c #878888",
"as c #885c42",
"b9 c #888080",
"dJ c #889696",
"ep c #898888",
"d6 c #8a9595",
"bC c #8b6137",
"cO c #8b6239",
"d3 c #8c8c98",
"en c #8d8c8e",
"d4 c #8d8d8d",
"bB c #8e8174",
"ak c #8e8e8e",
"aq c #8f593b",
"eJ c #8f8e8e",
"bb c #918982",
"d9 c #9191dc",
"aQ c #929191",
"cN c #936231",
"bX c #936a42",
"bv c #937557",
"dK c #939292",
"ba c #939393",
"d7 c #939b9b",
"aP c #948b85",
"b# c #949393",
"bZ c #949494",
"b8 c #957e7e",
"aK c #959594",
"eo c #959595",
"dd c #968e8c",
"a9 c #96908d",
"d5 c #969696",
"#Q c #979695",
"#v c #988787",
"dE c #989b9b",
"bx c #999999",
"b. c #9a9491",
"a8 c #9a9999",
"d0 c #9b8585",
"dC c #9b8686",
"ek c #9b8787",
"e1 c #9b8989",
"fm c #9b8a8a",
"aJ c #9b9b9b",
"gT c #9d7d7b",
"a6 c #9d9a98",
"cs c #9d9d9d",
"#J c #9e9d9d",
"ar c #9f6340",
"#3 c #9f9e9e",
"gI c #a07877",
"a# c #a0a0a0",
"er c #a1a0ae",
"cr c #a2a2a2",
"gl c #a47774",
"#I c #a4a4a4",
"ga c #a66665",
"fI c #a79493",
"cP c #a7a19b",
"fB c #a85c5c",
"aL c #a88d7e",
"cq c #a8a6a4",
"fe c #a95756",
"fW c #a96161",
"bV c #a98383",
"cK c #a98686",
"bA c #a9a7a6",
"aG c #aa7f7f",
"a3 c #aa8181",
"bt c #aa8282",
"dw c #aa908f",
"cR c #aaaaaa",
"ez c #ab4c4b",
"eT c #ab5151",
"aj c #ab7f7f",
"cj c #ab8686",
"bD c #ab8a69",
"ec c #ac4545",
"gw c #ac928b",
"c# c #acaaaa",
"#2 c #acabab",
"dp c #ad3b3a",
"dQ c #ad4140",
"g2 c #ad9793",
"g3 c #ad9794",
"g4 c #ad9a95",
"#R c #ada9a9",
"al c #adadad",
"c3 c #ae3534",
"g1 c #ae9894",
"g0 c #ae9995",
"cd c #af2a2a",
"gM c #af8988",
"g5 c #afa199",
"cz c #afacac",
"cQ c #afadac",
"cE c #b02f2f",
"#u c #b08080",
"bc c #b09d8b",
"#x c #b0aeae",
"bz c #b0b0b0",
"bQ c #b12525",
"aO c #b1856c",
"an c #b1b1b1",
"aA c #b21414",
"aX c #b21a1a",
"cM c #b29578",
"f3 c #b2a09f",
"bn c #b31f1f",
"c9 c #b38b8b",
"cl c #b3977a",
"b3 c #b39d88",
"au c #b3b2b2",
"#C c #b40808",
"#V c #b40a0a",
"ae c #b40f0f",
"#H c #b48585",
"#4 c #b4b3b3",
"eO c #b4b3e3",
"aR c #b4b4b4",
"#h c #b50b0b",
"eq c #b5b5b5",
"e7 c #b5b5b8",
"bJ c #b6b3b3",
"gZ c #b7a69f",
"fu c #b7abdb",
"cp c #b7b7b7",
"b1 c #b8b7b7",
".1 c #b93534",
"b4 c #b9aa9b",
"gy c #ba8685",
"b2 c #bab2ab",
"cS c #bab9b9",
"gU c #bbb2a7",
"#P c #bbb9b9",
"el c #bbbad0",
"cx c #bbc3c3",
"b7 c #bc8686",
"#1 c #bca6a6",
"dk c #bcbcbc",
"eG c #bdbcd1",
"#w c #bdbdbd",
"gS c #be9291",
"gm c #be9490",
"dL c #bebebe",
"#K c #bfbfbf",
"aM c #c17f5a",
"#9 c #c1947a",
"#b c #c1bdbd",
"gb c #c27e7d",
"#c c #c29999",
"aN c #c3805a",
"gL c #c3b2a9",
"bu c #c3c0be",
"aI c #c3c3c3",
"bW c #c4c0bd",
"a5 c #c5c4c4",
"d2 c #c5c4c8",
"c. c #c7c6c6",
".N c #c8746e",
"bK c #c89090",
"gJ c #c8c3b5",
"ck c #c8c7c7",
"d. c #c8c8c8",
"gv c #c98a89",
"gN c #cb9d9c",
"b5 c #cbc1b7",
"gH c #cc9493",
"g6 c #ccc9ba",
"e2 c #cccccf",
"#t c #cd7171",
"gY c #cdc6b9",
"fn c #cecece",
"#a c #cfb5b5",
"gx c #cfc1b5",
"bI c #cfc2c2",
"fJ c #cfcfcf",
"fX c #d1807f",
"gR c #d1a2a1",
"fC c #d27979",
"fo c #d2d2de",
"ff c #d37272",
"#d c #d37f7f",
"eU c #d46b6b",
"fN c #d4b7ce",
".D c #d4bcad",
"gO c #d5a6a5",
"ed c #d65e5d",
"eA c #d66564",
".u c #d6a69a",
"b6 c #d6b6b6",
".E c #d75250",
"dR c #d75757",
"dx c #d7b3b3",
"dq c #d84f4f",
"#y c #d87b7b",
"gz c #d89d9c",
"gP c #d8a8a7",
".s c #d8afa4",
"cL c #d8d4d1",
"g7 c #d8d5c3",
"c4 c #d94848",
"#0 c #d96e6e",
"gn c #d99594",
".j c #d99b93",
"gQ c #d9a9a8",
"dc c #d9b4ab",
"gV c #d9d5c3",
"gX c #d9d6c4",
"f# c #d9d8dd",
"bH c #da7474",
"gk c #da8d8c",
"gG c #da9f9e",
"cF c #db4241",
"ca c #db8e8e",
".# c #dbd7c1",
".t c #dbd7c2",
"gK c #dbd7c5",
".O c #dc2222",
"ce c #dc3b3b",
"bL c #dc7e7e",
"db c #dcc9c6",
".i c #dcd7c1",
"d# c #dcdcdc",
"fL c #dcdcdd",
"bR c #dd3434",
"gu c #dd9897",
"Qt c #ddd9c3",
"gW c #dddac5",
"da c #dddcdb",
"fK c #dddddd",
"bo c #de2d2d",
"aB c #df1f1f",
"aY c #df2626",
"f4 c #dfbebe",
".a c #dfc7b8",
"fM c #dfced3",
".h c #dfcfbe",
"af c #e01818",
"#W c #e11111",
"g# c #e18988",
"#q c #e19191",
"fO c #e1a5b7",
"#i c #e20909",
"#D c #e20b0b",
".2 c #e20d0d",
".C c #e25858",
"gA c #e3a6a6",
"#S c #e46a6a",
"fA c #e47b7b",
"fV c #e48382",
"fv c #e4c2c6",
"fd c #e57474",
"gc c #e59594",
"gF c #e5a7a6",
"bh c #e69b9b",
"go c #e69e9d",
"ey c #e76565",
"eS c #e76d6c",
"aa c #e78a8a",
"eb c #e85e5d",
"gB c #e8aaa9",
"gC c #e9aaa9",
"gE c #e9acab",
"## c #ea4e4e",
"do c #ea4f4e",
"dP c #ea5756",
"#o c #ea5757",
"gj c #ea9897",
"gt c #eaa2a1",
"gD c #eaacab",
"c2 c #eb4747",
"cA c #eb8080",
"fY c #eb908f",
".g c #ebb8b0",
"#p c #ed6d6d",
".W c #ed8686",
"av c #ed9090",
"aS c #ed9393",
"bE c #ed9b9b",
"fw c #edb7b7",
"cc c #ee3838",
"cD c #ee3f3f",
"#s c #ee5151",
"fg c #ee807f",
"bi c #ee8282",
"fD c #ee8988",
"bd c #ee9898",
"gd c #ee9b9a",
"f2 c #eea7a6",
"bP c #ef3131",
".M c #ef4040",
"#r c #ef6d6d",
"eV c #ef7979",
"g. c #ef9291",
"cY c #ef9393",
"gp c #efa6a5",
"dy c #efa9a9",
".f c #efb0ad",
".b c #efbbb4",
".0 c #f02525",
".X c #f07e7e",
"fU c #f08b8a",
"f5 c #f0b9b9",
"aW c #f12222",
"bm c #f12929",
"ee c #f16a69",
"eB c #f17271",
"dv c #f17c7c",
"fz c #f18383",
"fP c #f1a6a9",
"fa c #f1aeae",
"az c #f21b1b",
"dS c #f26262",
"fc c #f27b7b",
"dl c #f29a99",
"dM c #f29e9e",
"e. c #f2a3a2",
"ev c #f2a7a6",
"eP c #f2abaa",
".c c #f2b6b4",
"eR c #f37473",
"fZ c #f39594",
"#B c #f40a0a",
"#U c #f40d0d",
"#g c #f40f0f",
"ad c #f41313",
"ex c #f46c6b",
"bg c #f47979",
".r c #f48684",
"gi c #f49f9e",
"gs c #f4a8a7",
".d c #f4b5b4",
"c5 c #f55252",
"dr c #f55a5a",
".v c #f56362",
"ea c #f56464",
"fh c #f58584",
"fE c #f58e8d",
"f6 c #f5a4a3",
"gg c #f5a6a5",
"gq c #f5a9a8",
".e c #f5b6b5",
"cG c #f64b4a",
"dO c #f65c5c",
"eW c #f67e7d",
"gh c #f6a3a2",
"gr c #f6aaa9",
"dn c #f75453",
"dz c #f78686",
"f9 c #f79897",
"f7 c #f79e9d",
"ge c #f7a1a0",
"bS c #f83b3b",
"cf c #f84343",
"c1 c #f84c4c",
"bG c #f84f4f",
"f1 c #f89998",
"fQ c #f89999",
"gf c #f8a2a1",
"bp c #f93333",
"cC c #f94444",
"bf c #f95454",
".V c #f96262",
"ef c #f96e6e",
"eC c #f97776",
".k c #f99492",
"fx c #f99898",
"f0 c #f99a99",
"f8 c #f99d9c",
"#G c #fa2929",
"cb c #fa3d3d",
"dT c #fa6666",
"dX c #fa7979",
"fy c #fa8887",
"fT c #fa9090",
"fF c #fa9190",
"fl c #fa9493",
"fR c #fa9494",
"ag c #fb1c1c",
"aC c #fb2424",
".P c #fb2727",
".Z c #fb2828",
"bO c #fb3535",
".U c #fb3d3d",
"dY c #fb7473",
"dA c #fb7675",
"fb c #fb807f",
"fj c #fb8888",
"fi c #fb8989",
"e0 c #fb8c8c",
"fG c #fb9190",
"fS c #fb9292",
"fH c #fb9999",
"#j c #fc0b0b",
"#E c #fc0e0e",
"#n c #fc1919",
"#z c #fc1c1c",
"aV c #fc2525",
"#e c #fc2929",
"aZ c #fc2c2c",
"bl c #fc2d2d",
"bM c #fc4040",
".F c #fc4747",
"cH c #fc4e4e",
"c6 c #fc5656",
"ds c #fc5e5e",
"eY c #fc8080",
"eX c #fc8181",
"fk c #fc8a89",
"#k c #fd0d0d",
"#m c #fd0e0e",
".3 c #fd1010",
"#f c #fd1111",
"#F c #fd1212",
"#X c #fd1414",
"ay c #fd1e1e",
"ah c #fd1f1f",
"ax c #fd2020",
"aw c #fd2121",
"#. c #fd2222",
"aD c #fd2626",
".Q c #fd2828",
".S c #fd2a2a",
"aT c #fd2c2c",
".T c #fd2d2d",
"aF c #fd3131",
"bq c #fd3636",
"bN c #fd3838",
"bT c #fd3e3e",
"bs c #fd4040",
".J c #fd4747",
".I c #fd4848",
".L c #fd4948",
".G c #fd4a4a",
"c0 c #fd5050",
"cZ c #fd5150",
"cJ c #fd5857",
"dm c #fd5958",
"c8 c #fd5f5e",
"dV c #fd6969",
"e# c #fd6a69",
"dW c #fd6a6a",
"ew c #fd7170",
"eh c #fd7171",
"dZ c #fd7877",
"eQ c #fd7978",
"eD c #fd7979",
"dB c #fd7b7a",
"ej c #fd7f7e",
"eZ c #fd8181",
"eF c #fd8685",
".q c #fda6a5",
".p c #fdb8b7",
".m c #fdbcbb",
".n c #fdbebc",
"#A c #fe0d0d",
"#T c #fe0f0f",
"ac c #fe1717",
".7 c #fe1919",
"#Z c #fe1d1d",
"aU c #fe2b2b",
".Y c #fe3131",
"bj c #fe3535",
"be c #fe3838",
"a2 c #fe3939",
"cg c #fe4545",
".K c #fe4747",
"ci c #fe5050",
"dN c #fe6161",
".B c #fe6d6c",
"eg c #fe7171",
"eE c #fe7979",
"#l c #ff0e0e",
".4 c #ff1212",
".5 c #ff1313",
".6 c #ff1414",
".8 c #ff1515",
".9 c #ff1717",
"#Y c #ff1919",
"ab c #ff1a1a",
"ai c #ff2121",
"aE c #ff2828",
".R c #ff2a2a",
"a0 c #ff2f2f",
"bk c #ff3030",
"a1 c #ff3131",
"br c #ff3838",
"bF c #ff3f3f",
"bU c #ff4040",
"ch c #ff4848",
"cB c #ff4949",
".H c #ff4c4b",
"cI c #ff5150",
"c7 c #ff5958",
"dt c #ff6261",
"du c #ff6262",
"dU c #ff6969",
"ei c #ff7171",
".w c #ff7776",
".x c #ff7b7a",
".z c #ff7e7d",
".A c #ff7e7e",
".y c #ff7f7f",
".l c #ffb4b3",
".o c #ffbfbd",
"Qt.#.a.b.c.d.e.d.d.e.d.d.e.d.d.e.d.d.e.d.d.e.d.d.e.f.g.h.#.#",
".i.j.k.l.m.n.o.n.n.o.n.n.o.n.n.o.n.n.o.n.n.o.n.n.o.p.q.r.s.t",
".u.v.w.x.y.z.z.z.z.z.z.z.z.z.z.z.z.z.z.z.z.z.z.z.A.z.w.B.C.D",
".E.F.G.H.I.J.K.J.J.K.J.J.K.J.J.K.I.I.K.J.J.K.J.J.K.L.L.J.M.N",
".O.P.Q.R.S.S.R.S.S.R.S.S.R.T.U.V.W.X.Y.S.S.R.S.S.R.S.S.Z.0.1",
".2.3.4.5.5.5.6.6.7.8.6.9#.###a#b#c#d#e.5.5.6.5.5.6.5.5#f#g#h",
"#i#j#k#l#m#n#o#p#q#r#s#t#u#v#w#x#y#z#l#m#m#l#m#m#l#m#m#A#B#C",
"#D#E.3.4#F#G#H#I#J#K#L#M#N#O#P#Q#R#S.6#F#F.4#F#F.4#F#f#T#U#V",
"#W#X.9#Y#Z#0#1#2#3#4#5#6#7#8#9a.a#aaab#Y#Y#Y#Y#Y#Y#Y#Yacadae",
"afagahai.SajakalamanaoapaqarasatauavaiawawaiawawaiawaxayazaA",
"aBaCaDaEaFaGaHaIaJaKaLaMaNaOaPaQaRaSaE.Q.QaE.QaTaU.Q.QaVaWaX",
"aYaZa0a1a2a3a4a5a6a7a8a9b.b#babbbcbda1a1bebfbgbhbibjbkblbmbn",
"bobpbqbrbsbtaHbubvbwbxbybzbAbBbCbDbEbFbGbHbIbJbKbLbMbNbObPbQ",
"bRbSbTbU.IbVa4bWbXbYbZb0b1b2b3b4b5b6b7b8b9c.c#ca.Gbsbscbcccd",
"cecfcgchcicjaHckclcmcncocpcqcrcsaIctcucvcwcxcyczcAcBchcCcDcE",
"cFcGcHcIcJcKa4ckcLcMcNcOcPcQcRbZcScT#6cUcVcWcXbzcYcZc0c1c2c3",
"c4c5c6c7c8c9aHd.d#dadbdcddakbzamcpdedfdgdhdidjdkdldmdmdndodp",
"dqdrdsdtdudvdwdxdydzdAdBdCdDckbadEdFdGdHdIdJdKdLdMdtdNdOdPdQ",
"dRdSdTdUdVdWdXdYdVdUdVdZd0d1d2d3d4d5d6d7dKbad8d9e.e#dVeaebec",
"edeeefegeheheieheheiehejekd1elemeneoepeqereseteuevehewexeyez",
"eAeBeCeDeEeEeEeEeEeEeEeFekd1eGeHeIeJeKcSeLeMeNeOePeEeQeReSeT",
"eUeVeWeXeYeYeZeYeYeZeYe0e1dDe2e3e4e5e6e7e8e9f.f#faeYfbfcfdfe",
"fffgfhfifjfjfkfjfjfkfjflfmdDfnfofpfqfrfsftfufvfwfxfjfyfzfAfB",
"fCfDfEfFfGfGfGfGfGfGfGfHfIdDfJfKfLfMfNfOfPfQfRfSfGfGfTfUfVfW",
"fXfYfZf0f1f1f0f1f1f0f1f1f2f3f4f5f6f7f8f1f1f0f1f1f0f1f9g.g#ga",
"gbgcgdgegegegfgegegfgegegfggghgfgegegfgegegfgegegfgegigjgkgl",
"gmgngogpgqgrgrgrgrgrgrgrgrgrgrgrgrgrgrgrgrgrgrgrgrgsgtgugvgw",
"gxgygzgAgBgCgDgCgCgDgCgCgDgCgCgDgCgCgDgCgCgDgCgCgEgFgGgHgIgJ",
"gKgLgMgNgOgPgQgPgPgQgPgPgQgPgPgQgPgPgQgPgPgQgPgPgQgRgSgTgUgV",
"gWgXgYgZg0g1g2g2g2g2g2g2g2g2g2g2g2g2g2g2g2g2g2g2g3g4g5g6g7gW"};
