/* XPM */
static char *dummy[]={
"30 30 510 2",
"aB c #202020",
"aA c #212121",
"az c #2d2d2d",
"bc c #3b2e27",
"aY c #3e352f",
"bg c #3f342e",
"bd c #433229",
"ad c #535353",
"aV c #555555",
"bD c #5e4a3f",
"bx c #5e5a57",
"ac c #636363",
"aZ c #686868",
"bw c #6d6d6d",
"d# c #6f5b47",
"cS c #706151",
"dv c #706a65",
"bS c #727272",
"cc c #737373",
"dS c #744d25",
"bh c #747474",
"bb c #757575",
"ay c #787878",
"du c #794817",
"bV c #797979",
"dR c #7a4611",
"dQ c #7c440c",
"aC c #7c7c7c",
"d8 c #7e4103",
"dw c #7e7e7e",
"dz c #7f3f00",
"aD c #7f7f7f",
"cY c #804000",
"dd c #804305",
"bT c #818181",
"d9 c #826446",
"cd c #828282",
"cX c #835322",
"ae c #838383",
"cE c #845322",
"by c #845539",
"cT c #848484",
"bv c #858585",
"dP c #885016",
"cU c #898989",
"de c #8a5017",
"cW c #8e7f72",
"ax c #8e8e8e",
"cA c #8f8f8f",
"e# c #905e2c",
"dc c #906438",
"av c #908e8c",
"cD c #918b85",
"ck c #928c86",
"aT c #929292",
"da c #939393",
"bE c #949494",
"b3 c #95918f",
"aw c #969696",
"ch c #97928f",
"cC c #979797",
"ab c #989898",
"d7 c #996a3c",
"cz c #999999",
"ea c #9a6b3d",
"bC c #9b603f",
"#S c #9b9894",
"cg c #9b9b9b",
"bz c #9c613f",
"cf c #9c9c9c",
"d. c #9e7348",
"cR c #9e774e",
"aW c #9f7e6c",
"cj c #9f8f86",
"#w c #9f9387",
"#v c #9f9489",
"cB c #9f9f9f",
"eu c #a17850",
"#T c #a1a1a1",
"be c #a36441",
"ci c #a38d81",
"e. c #a58f79",
"aa c #a5a09b",
"dT c #a88562",
"cy c #a8a098",
"aE c #a9a9a9",
"b2 c #aa8b78",
"bt c #aa9e91",
"bR c #aa9f91",
"cx c #aaa092",
"ds c #aaa193",
"eq c #aaa194",
"f6 c #ab956a",
"aF c #ababab",
"dt c #ac8a6a",
"fD c #ac9673",
"ba c #ac9f90",
"ce c #acacac",
"bX c #ad8a77",
"ah c #adadad",
"fZ c #aea28d",
"ev c #af8c67",
"dA c #b09172",
"ft c #b09261",
"bW c #b0b0b0",
"f7 c #b3aea3",
"eF c #b48c54",
"eV c #b48d55",
"fj c #b49058",
"fO c #b4afa9",
"bK c #b57f47",
"b8 c #b58149",
"cK c #b5844c",
"c4 c #b5854d",
"dH c #b58850",
"d0 c #b58951",
"fN c #b58c45",
"aS c #b5b2ad",
"#u c #b5b3b0",
"ag c #b5b5b5",
"#B c #b6783f",
"#Z c #b67941",
"aL c #b67d43",
"a6 c #b67e44",
"ej c #b68b53",
"e9 c #b69057",
"an c #b77b42",
"bm c #b77f46",
"cq c #b7834a",
"dl c #b7884e",
"fY c #b79049",
"#j c #b8793f",
"f5 c #b89756",
"#U c #b8a999",
"dx c #b8b8b8",
"f2 c #ba9e66",
"dy c #baa794",
"f1 c #baac93",
"cV c #bababa",
"bu c #bbbbbb",
"e0 c #bcb099",
"a0 c #bcbcbc",
"fQ c #bea16f",
"f3 c #c09c56",
"f4 c #c09c57",
".U c #c09e7f",
"#r c #c0a68b",
"b1 c #c1805c",
".j c #c1c1c1",
".5 c #c28d5d",
".# c #c2c1c1",
".w c #c2c2c2",
"bA c #c37549",
"et c #c3b2a1",
"db c #c3bdb8",
".k c #c3c3c2",
"Qt c #c3c3c3",
"bf c #c47649",
"bY c #c47f58",
"fE c #c4ad85",
"eM c #c4b69c",
".I c #c4c1bf",
".i c #c4c3c1",
"f0 c #c4c3c2",
"#t c #c5c5c5",
"#5 c #c6a581",
"aR c #c6b39c",
"eb c #c6b6a5",
"#6 c #c6baae",
"fP c #c6c4c0",
".v c #c7beb5",
".a c #c7c2be",
"#8 c #c7c5c2",
"#R c #cab298",
"d6 c #cabcaf",
"b0 c #cb7d50",
"#9 c #cccbc9",
".x c #cdb6a0",
"bB c #ce7b4b",
"fu c #cea052",
"es c #cfc5bc",
"bZ c #d07c4c",
"cF c #d0c8bf",
"dO c #d1c9c2",
".h c #d2bca4",
"aX c #d3b6a6",
"a# c #d3b89b",
"ew c #d3c2ac",
"cl c #d3d1cf",
"bF c #d3d3d3",
"fR c #d4a958",
"#Q c #d4ad84",
".l c #d4baa0",
"aU c #d4d4d4",
"ai c #d5b99a",
"df c #d5cfc9",
"au c #d6a874",
"#s c #d7d7d7",
"af c #d8d8d8",
"aG c #dab388",
"#d c #dbd8d5",
"er c #dbd9d7",
"dU c #dbd9d8",
"fF c #dcaa55",
".b c #dcb88c",
"ec c #dcd9d4",
"dB c #dcdcdc",
"#7 c #ddd2c6",
"bU c #dedede",
"fC c #dfab52",
"fX c #e0b15d",
"a1 c #e0bf98",
"#e c #e0cebb",
"fk c #e1aa50",
".g c #e1b47c",
"ed c #e1dacf",
".H c #e29244",
"eN c #e2d8c6",
".J c #e39851",
"ex c #e3d2b6",
"e1 c #e3dac9",
".c c #e4ba7f",
"fM c #e5b258",
"a. c #e5d1bb",
"ee c #e6d6bd",
"#c c #e8c59f",
".d c #e9bd7d",
"bG c #e9c89e",
"b4 c #e9c99f",
"cG c #e9cba2",
"cZ c #e9cca3",
"dC c #e9cea5",
"dV c #e9cfa6",
"eO c #e9d3ab",
"dm c #eaa042",
"dI c #eaa244",
"d1 c #eaa447",
"ek c #eaa74a",
"eG c #eaa94c",
"eW c #eaab4e",
"f. c #eaae50",
".f c #eabe7c",
".e c #eabe7d",
".V c #eb8527",
"ao c #eb8b2d",
"aM c #eb8e2f",
"a7 c #eb9032",
"bn c #eb9234",
"bL c #eb9437",
"b9 c #eb9639",
"cr c #eb993c",
"cL c #eb9b3e",
"c5 c #eb9e40",
"bi c #ebc89e",
"cm c #ebcba1",
"dg c #ebcfa5",
"eP c #ebd3a7",
"e2 c #ebd5ab",
".6 c #ec8426",
"#k c #ec8528",
"#C c #ec872a",
"#0 c #ec892c",
".u c #eca556",
"aQ c #ecb473",
"#b c #ecbf8f",
"ey c #edce98",
"fs c #eeb455",
"fW c #eebe66",
"fS c #efbe65",
"fe c #f1cf8b",
"fL c #f2bc5f",
"e3 c #f2d08f",
"c3 c #f3a142",
"dG c #f3a646",
"dZ c #f3a848",
"eE c #f3ad4d",
"eU c #f3af4f",
"#K c #f3b069",
"#L c #f3b16b",
"fi c #f3b454",
"fG c #f3bd5f",
"fT c #f3c368",
"ez c #f3c982",
"#A c #f4892a",
"#Y c #f48b2d",
"aK c #f49030",
"a5 c #f49332",
"bJ c #f49737",
"b7 c #f4993a",
"cJ c #f49e3f",
"dk c #f4a443",
"ei c #f4ab4b",
"#P c #f4ad61",
"e8 c #f4b352",
"fB c #f4bc5b",
"fU c #f4c369",
"ef c #f4c87f",
"am c #f58f2e",
"bl c #f59635",
"cp c #f59d3d",
"#x c #f5a857",
"fv c #f5bb5a",
"fV c #f5c469",
"#i c #f68929",
".T c #f68d2b",
"#O c #f6a753",
"eQ c #f7c773",
".4 c #f88b29",
"#a c #f8a650",
".m c #f8af49",
".y c #faa03b",
".0 c #fb9e3c",
"#I c #fba243",
"eB c #fbc260",
"eA c #fbc465",
"eR c #fbc565",
"fK c #fbc665",
"e4 c #fbca6c",
".1 c #fc9c37",
"#J c #fca343",
"#V c #fca649",
"fl c #fcbf5b",
"fr c #fcc15b",
"fH c #fcc665",
"e5 c #fcc865",
"fd c #fccd70",
"#l c #fd922d",
"#D c #fd942f",
".W c #fd962d",
"#m c #fd9730",
".2 c #fd982e",
".X c #fd982f",
"ap c #fd9833",
"#y c #fd9931",
"#E c #fd9932",
"#o c #fd9a32",
"#W c #fd9b34",
"#p c #fd9b35",
"#G c #fd9c34",
"aq c #fd9d36",
".K c #fd9f34",
"aI c #fd9f38",
"#N c #fd9f3a",
"## c #fd9f3d",
".R c #fda036",
"as c #fda038",
"bo c #fda03b",
"#H c #fda03e",
"#f c #fda03f",
".O c #fda137",
"#M c #fda13e",
"#q c #fda140",
"a3 c #fda23a",
"bM c #fda23d",
".N c #fda338",
"aO c #fda33a",
".L c #fda439",
"aP c #fda43d",
"bp c #fda53e",
"bH c #fda63f",
"aj c #fda647",
"br c #fda73f",
"bN c #fda841",
"cs c #fda843",
"b5 c #fda942",
"bP c #fdaa42",
"cM c #fdaa45",
"ct c #fdad46",
"bs c #fdad4c",
"cH c #fdaf48",
"dn c #fdaf49",
"cN c #fdb049",
"bQ c #fdb04f",
"cv c #fdb149",
"dJ c #fdb14c",
"c1 c #fdb24b",
"cP c #fdb44c",
"do c #fdb54d",
"el c #fdb652",
"cw c #fdb655",
"dE c #fdb74f",
"dK c #fdb750",
"cQ c #fdb857",
"dq c #fdb950",
"eH c #fdb954",
"dX c #fdba52",
"dM c #fdbb52",
"em c #fdbc56",
".t c #fdbd4e",
"dr c #fdbd5b",
"f# c #fdbe58",
"eC c #fdbf57",
"eI c #fdbf58",
"dN c #fdbf5e",
"eo c #fdc058",
"eS c #fdc15a",
"eK c #fdc25a",
"fw c #fdc35f",
"fa c #fdc45d",
"ep c #fdc463",
"eL c #fdc561",
"fm c #fdc65f",
"fg c #fdc75f",
"fc c #fdc85f",
"fq c #fdc962",
"fI c #fdca67",
"fo c #fdcb63",
"ff c #fdcb68",
"eZ c #fdcc70",
".s c #fdd767",
".o c #fde06e",
".p c #fde371",
"#h c #fe912c",
"#z c #fe932e",
".3 c #fe942d",
"#X c #fe9530",
"al c #fe9733",
"aJ c #fe9935",
".Z c #fe9a31",
"a4 c #fe9d37",
"bk c #fe9f39",
"bI c #fea13c",
"b6 c #fea33e",
"co c #fea641",
"cI c #fea844",
"c2 c #feaa46",
"dj c #fead49",
"c6 c #feae47",
"dF c #feb04b",
"dY c #feb34d",
"d2 c #feb54f",
"eh c #feb550",
"eD c #feb852",
"eT c #feba55",
"eX c #febd56",
"e7 c #febd58",
"fh c #febf5a",
"fA c #fec761",
".7 c #ff922b",
".8 c #ff962e",
"#1 c #ff9731",
"#g c #ff982f",
".9 c #ff9930",
".Y c #ff9a2f",
"#. c #ff9a30",
"#n c #ff9b32",
".S c #ff9c33",
"#2 c #ff9c34",
"#F c #ff9d34",
"ak c #ff9e36",
"a8 c #ff9e38",
"#3 c #ff9f36",
"ar c #ffa138",
".P c #ffa237",
".Q c #ffa337",
"aH c #ffa33b",
"at c #ffa33c",
"#4 c #ffa33e",
"aN c #ffa43a",
".M c #ffa539",
"a2 c #ffa53c",
"bj c #ffa63c",
"b. c #ffa63d",
"c. c #ffa640",
"a9 c #ffa73d",
"bq c #ffa83f",
".G c #ffaa3f",
"bO c #ffab42",
"c# c #ffac43",
"b# c #ffac49",
"cn c #ffad45",
"ca c #ffae45",
"cu c #ffb249",
"cb c #ffb351",
"cO c #ffb44b",
"c0 c #ffb54c",
"di c #ffb64d",
"c7 c #ffb74d",
"c8 c #ffb74e",
"dh c #ffb84e",
"dp c #ffb94f",
".F c #ffba4b",
"dD c #ffba50",
".z c #ffbb4b",
"dL c #ffbb52",
"d3 c #ffbb53",
"dW c #ffbc52",
"c9 c #ffbc59",
"eg c #ffbd54",
"d4 c #ffbe55",
"en c #ffc158",
"d5 c #ffc260",
".A c #ffc353",
"eJ c #ffc35a",
".E c #ffc455",
".C c #ffc657",
"e6 c #ffc65c",
".D c #ffc757",
".B c #ffc758",
"eY c #ffc75d",
"fb c #ffc95f",
"fJ c #ffcb67",
"fn c #ffcc62",
"fp c #ffcc63",
"fx c #ffcc64",
"fz c #ffce65",
"fy c #ffcf65",
".n c #ffd461",
".r c #ffe471",
".q c #ffe472",
"Qt.#.a.b.c.d.e.d.d.e.d.d.e.d.d.e.d.d.e.d.d.e.d.d.f.g.h.i.j.j",
".k.l.m.n.o.p.q.p.p.q.p.p.q.p.p.q.p.p.q.p.p.q.p.p.r.s.t.u.v.w",
".x.y.z.A.B.C.C.C.C.C.C.C.C.C.C.C.C.C.C.C.C.C.C.C.D.E.F.G.H.I",
".J.K.L.M.N.O.P.O.O.P.O.O.P.O.O.P.O.O.P.O.O.P.O.O.Q.N.R.S.T.U",
".V.W.X.Y.X.X.Y.X.X.Y.X.X.Y.X.X.Y.X.X.Y.X.X.Z.0.1.Y.X.2.3.4.5",
".6.7.8.9#.#.#.#.#.#.#.#.#.#.#.#.#.#.###a#b#c#d#e#f#.#g#h#i#j",
"#k#l#m#n#o#o#n#o#o#n#o#o#n#o#o#n#p#q#r#s#t#u#v#w#x#o#y#z#A#B",
"#C#D#E#F#G#G#F#H#I#J#K#L#M#N#O#P#Q#R#S#s#T#U#V#G#F#G#W#X#Y#Z",
"#0#1#2#3#3#3#4#5#6#7#8#9a.a#aaabacadaeafagahaiaj#3#3akalaman",
"aoapaqarasasatauavawawax#sayazaAaBaBaC#saDaEaFaGaHasaIaJaKaL",
"aM#pasaNaOaPaQaRaSahaFaTaUaVaBaAaBaBaWaXaYaZa0a1a2aOa3a4a5a6",
"a7a8aHa9b.b#baabahahaxbbaUaVaAaAbcbdbebfbgbhaUbia9b.bjbkblbm",
"bnbobpbqbrbsbtbbabbubvbwaUbxbybzbAbBbCbDbhbEbFbGbqbrbHbIbJbK",
"bLbMbNbObPbQbRbSbTbUaFbVbWbXbYbZb0b1b2b3aTbEbFb4bObPb5b6b7b8",
"b9c.c#cacacbbRcccdbUcebbcfcgchcicjbEbEbEbEckclcmcacacncocpcq",
"crcsctcucvcwcxbSbTbUcybbcgczaTcAcBcCbEaTcDcEcFcGcucvcHcIcJcK",
"cLcMcNcOcPcQcxbSbTbUcRcScgczcTcUbucVabcWcXcYcFcZc0cPc1c2c3c4",
"c5c6cOc7c8c9cxcccdbUd.d#daaEcdabbudbdcddcYdedfdgdhc8didjdkdl",
"dmdndodpdqdrdsbSbTbUdtdudvbVccdwdxdycYdzdzdAdBdCdDdqdEdFdGdH",
"dIdJdKdLdMdNdsbSbTbUdOdPdQdRdSdwdxdycYdzdTdUdBdVdWdMdXdYdZd0",
"d1d2d3d4d4d5dscccdbUbUd6d7cYd8d9e.e#eaebecedeeefd4d4egeheiej",
"ekelemeneoepeqbSbTbUdBdBereseteuevewexeyezeAeBeoeneoeCeDeEeF",
"eGeHeIeJeKeLeMbSbTbUdBdBbUeNeOePeQeReLeKeKeJeKeKeJeKeSeTeUeV",
"eWeXeJeYeYeYeZe0cde1e2e3e4e5eYeYeYeYeYeYeYeYeYeYeYeYe6e7e8e9",
"f.f#fafbfcfcfbfdfefffcfcfbfcfcfbfcfcfbfcfcfbfcfcfbfcfgfhfifj",
"fkflfmfnfofofpfofofpfofofpfofofpfofofpfofofpfofofpfofqfrfsft",
"fufvfwfxfyfyfyfyfyfyfyfyfyfyfyfyfyfyfyfyfyfyfyfyfyfzfAfBfCfD",
"fEfFfGfHfIfIfJfIfIfJfIfIfJfIfIfJfIfIfJfIfIfJfIfIfJfKfLfMfNfO",
"fPfQfRfSfTfUfVfUfUfVfUfUfVfUfUfVfUfUfVfUfUfVfUfUfVfWfXfYfZQt",
"#tf0f1f2f3f4f4f4f4f4f4f4f4f4f4f4f4f4f4f4f4f4f4f4f4f5f6f7Qt#t"};
