/* XPM */
static char *dummy[]={
"30 30 507 2",
"dx c #0000fd",
"cX c #0000ff",
"bA c #00fdfd",
"bY c #00ffff",
"bz c #02eeee",
"be c #02f0f0",
"d4 c #0303f8",
"dc c #0505fa",
"bd c #08c6c6",
"bB c #09bcbc",
"by c #09bdbd",
"bZ c #09f7f7",
"dN c #0c0ceb",
"bx c #0d9f9f",
"dO c #1111e1",
"dM c #1616fa",
"ds c #1717da",
"dd c #1717fb",
"bX c #19ebeb",
"bc c #1a4c4c",
"bb c #1c4242",
"az c #202020",
"ay c #212121",
"b0 c #21e5e5",
"cW c #2222e5",
"cD c #2222e6",
"bf c #244646",
"dP c #2525c2",
"aY c #274343",
"d7 c #2c2cf3",
"ax c #2d2d2d",
"bC c #2d6969",
"db c #3838e8",
"d3 c #3c3cf6",
"d8 c #3d3df6",
"d5 c #4646bd",
"d. c #474796",
"c9 c #4848f4",
"cQ c #4e4eee",
"aW c #4eb1b1",
"eq c #5050f3",
"cR c #51518e",
"ab c #535353",
"bw c #536060",
"aV c #555555",
"bW c #57c1c1",
"b1 c #5cbcbc",
"dQ c #6262ef",
"aa c #636363",
"dt c #65657c",
"aZ c #686868",
"dr c #6a6aee",
"bv c #6d6d6d",
"ch c #6db0b0",
"er c #706de6",
"bR c #727272",
"cV c #7272ab",
"dy c #7272ee",
"cb c #737373",
"bg c #747474",
"ba c #757575",
"aw c #787878",
"ci c #78a8a8",
"bU c #797979",
"d6 c #7979d1",
"aA c #7c7c7c",
"du c #7e7e7e",
"aB c #7f7f7f",
"bS c #818181",
"cc c #828282",
"ac c #838383",
"cS c #848484",
"bu c #858585",
"cC c #85859c",
"cj c #86869d",
"cT c #898989",
"cg c #8a9a9a",
"b2 c #8b9898",
"aX c #8ce3e3",
"av c #8e8e8e",
"cz c #8f8f8f",
"at c #908e8c",
"aT c #929292",
"d# c #939393",
"bD c #949494",
"dw c #9494df",
"au c #969696",
"cB c #979797",
"a# c #989898",
"cx c #9898b8",
"cy c #999999",
"#Q c #9b9894",
"cf c #9b9b9b",
"ce c #9c9c9c",
"#u c #9f9387",
"#t c #9f9489",
"cA c #9f9f9f",
"#R c #a1a1a1",
"ep c #a1a1e5",
"a. c #a5a09b",
"d9 c #a5a5e6",
"fA c #a79475",
"f3 c #a99774",
"aC c #a9a9a9",
"bs c #aa9e91",
"bQ c #aa9f91",
"cw c #aaa092",
"dq c #aaa193",
"d1 c #aaa194",
"em c #aaa294",
"aD c #ababab",
"fK c #ac8747",
"b# c #ac9f90",
"cd c #acacac",
"fV c #ad8a4a",
"af c #adadad",
"fW c #afa698",
"d2 c #afafe4",
"fp c #b09364",
"bV c #b0b0b0",
"f2 c #b39864",
"eB c #b48c54",
"eQ c #b48e56",
"ff c #b49058",
"bJ c #b58048",
"b7 c #b58149",
"cJ c #b5844c",
"c3 c #b5854d",
"dE c #b58850",
"dW c #b58952",
"aS c #b5b2ad",
"#s c #b5b3b0",
"ae c #b5b5b5",
"#z c #b6793f",
"#X c #b67a41",
"aJ c #b67d43",
"a6 c #b67e44",
"ef c #b68b53",
"e5 c #b69057",
"fZ c #b6a074",
"al c #b77b42",
"bl c #b77f46",
"cp c #b7834a",
"dj c #b7884e",
"f4 c #b7b3ac",
"#i c #b8793f",
"f0 c #b89b62",
"#S c #b8a999",
"dv c #b8b8b8",
"da c #b8b8ce",
"f1 c #ba9b5c",
"cU c #bababa",
"fL c #bbb9b5",
"bt c #bbbbbb",
"eW c #bcb099",
"a0 c #bcbcbc",
"eo c #bcbce1",
".4 c #bd8553",
"fN c #bea67c",
"cE c #bfbfe1",
"#p c #c0a68b",
"fY c #c0b49c",
"es c #c0b8d1",
".j c #c1c1c1",
".T c #c29c7a",
".# c #c2c2c1",
".v c #c2c2c2",
"dL c #c2c2e0",
"fB c #c3b191",
".k c #c3c2c1",
"Qt c #c3c3c3",
"eI c #c4b69c",
".I c #c4bfbb",
"fX c #c4c4c3",
"fM c #c5c5c4",
"#r c #c5c5c5",
"#3 c #c6a581",
"aR c #c6b39c",
"#4 c #c6baae",
".i c #c6c3c0",
".u c #c7b7a7",
"#6 c #c7c5c2",
"de c #c9c9e1",
"#P c #cab298",
"fO c #cba155",
"fq c #cca056",
"#7 c #cccbc9",
".a c #cdc0b3",
"ck c #cfcfd7",
".w c #d1b294",
"#9 c #d3b89b",
"bE c #d3d3d3",
"#O c #d4ad84",
"aU c #d4d4d4",
"fC c #d5a552",
"ag c #d5b99a",
"as c #d6a874",
"fU c #d7ab5a",
"#q c #d7d7d7",
"en c #d7d7df",
"ad c #d8d8d8",
"dR c #d8d8de",
"e. c #d9d7db",
".l c #dab084",
"aE c #dab388",
"fz c #dba851",
"#c c #dbd8d5",
".h c #dcb689",
"dz c #dcdcdc",
"#5 c #ddd2c6",
"fg c #dea84f",
"bT c #dedede",
"et c #dfd0be",
"a1 c #e0bf98",
"#d c #e0cebb",
"e# c #e1dacf",
"fJ c #e2af57",
"eJ c #e2d9c7",
".b c #e3bd87",
"eX c #e3dac9",
"#8 c #e5d1bb",
".J c #e69142",
"ea c #e6d6bd",
".H c #e88f39",
"#b c #e8c59f",
"fP c #e9bb64",
"bF c #e9c89f",
"b3 c #e9c9a0",
"cF c #e9cba2",
"cY c #e9cca3",
"dA c #e9cea5",
"dS c #e9cfa6",
"eK c #e9d3ab",
"dk c #eaa043",
"dF c #eaa245",
"dX c #eaa448",
"eg c #eaa74a",
"eC c #eaaa4c",
"eR c #eaac4e",
"e6 c #eaae50",
"fT c #eabc65",
".U c #eb8526",
"am c #eb8c2e",
"aK c #eb8e30",
"a7 c #eb9032",
"bm c #eb9235",
"bK c #eb9537",
"b8 c #eb9739",
"cq c #eb9a3c",
"cK c #eb9c3e",
"c4 c #eb9f40",
"bh c #ebc89f",
"cl c #ebcba2",
"df c #ebcfa5",
"eL c #ebd3a7",
"eY c #ebd5ab",
".5 c #ec8426",
"#j c #ec8528",
"#A c #ec872a",
"#Y c #ec8a2c",
"fo c #ecb355",
"aQ c #ecb473",
".g c #ecbd79",
"#a c #ecbf8f",
".c c #edc279",
"eu c #edcf99",
"fQ c #f0c169",
"fD c #f1bb5f",
"fR c #f1c269",
".d c #f1c475",
"fa c #f1cf8b",
"fr c #f2ba5a",
"fy c #f2ba5b",
"fS c #f2c369",
".f c #f2c475",
".e c #f2c575",
"eZ c #f2d08f",
"cI c #f39f3f",
"c2 c #f3a142",
"dD c #f3a646",
"dV c #f3a849",
"eA c #f3ad4e",
"eP c #f3af4f",
"#I c #f3b069",
"#J c #f3b16b",
"fe c #f3b554",
"ev c #f3ca83",
"#y c #f48a2a",
"#W c #f48c2d",
"aI c #f49130",
"a5 c #f49333",
"bI c #f49738",
"b6 c #f4993a",
".t c #f4a244",
"di c #f4a543",
"ee c #f4ac4b",
"#N c #f4ad61",
"e4 c #f4b352",
"eb c #f4c980",
"ak c #f5902e",
"bk c #f59735",
"co c #f59d3d",
"#v c #f5a857",
"#h c #f68929",
"#M c #f6a753",
".3 c #f78b28",
".S c #f78e2a",
"eM c #f7c873",
"## c #f8a651",
"fI c #fac566",
".x c #fb9e34",
".0 c #fb9e3c",
"#G c #fba243",
"fh c #fbbf5a",
"ex c #fbc261",
"fE c #fbc565",
"ew c #fbc566",
"e0 c #fbca6c",
".1 c #fc9c38",
"#H c #fca343",
"#T c #fca649",
".m c #fcb850",
"fn c #fcc05c",
"fs c #fcc35f",
"e1 c #fcc865",
"fF c #fcc867",
"f# c #fccd70",
"#k c #fd922d",
"#B c #fd942f",
".V c #fd952c",
".W c #fd972e",
"#l c #fd9730",
".Y c #fd982f",
"#w c #fd9931",
"#C c #fd9932",
"an c #fd9933",
"#m c #fd9a32",
"#U c #fd9b34",
"aL c #fd9b36",
"#E c #fd9c34",
"#n c #fd9c35",
".K c #fd9d33",
"ao c #fd9e36",
".N c #fd9f34",
".Q c #fd9f35",
"#L c #fd9f3a",
"#. c #fd9f3d",
"aG c #fda038",
"aM c #fda039",
"bn c #fda03b",
"#F c #fda03e",
"#e c #fda03f",
"aq c #fda138",
"#K c #fda13e",
"#o c #fda141",
".L c #fda237",
"a3 c #fda23a",
"aO c #fda33a",
"bL c #fda33e",
"aP c #fda43d",
"bo c #fda53f",
"ah c #fda647",
"bG c #fda740",
"bq c #fda840",
"bM c #fda841",
"cr c #fda843",
"b4 c #fdaa43",
"cL c #fdaa45",
"bO c #fdab43",
"cs c #fdad46",
"br c #fdae4d",
"dl c #fdaf4a",
"cG c #fdb048",
"cM c #fdb049",
"cu c #fdb149",
"dG c #fdb14d",
"bP c #fdb14f",
"c0 c #fdb24b",
"cO c #fdb44c",
"dm c #fdb54e",
"eh c #fdb653",
"cv c #fdb655",
"dH c #fdb751",
"dB c #fdb84f",
"cP c #fdb857",
"do c #fdb950",
"eD c #fdb954",
"dT c #fdba52",
"dJ c #fdbb53",
"ei c #fdbd56",
"dp c #fdbd5b",
"e7 c #fdbe58",
"ey c #fdbf58",
"dK c #fdbf5e",
"eE c #fdc058",
"ek c #fdc159",
".s c #fdc252",
"eN c #fdc25a",
"eG c #fdc35b",
"e8 c #fdc45d",
"el c #fdc564",
"fi c #fdc65f",
"fx c #fdc661",
"eH c #fdc662",
"fc c #fdc75f",
"f. c #fdc85f",
"fm c #fdc962",
"fG c #fdc967",
"fk c #fdcb63",
"fb c #fdcb68",
"eV c #fdcd70",
".r c #fdd969",
".o c #fde170",
".p c #fde272",
"#g c #fe912c",
"#x c #fe932e",
".2 c #fe942c",
"#V c #fe9630",
"aj c #fe9833",
".Z c #fe9a31",
"aH c #fe9a35",
"a4 c #fe9d37",
"bj c #fe9f3a",
"bH c #fea13d",
"b5 c #fea33f",
"b9 c #fea640",
"cn c #fea641",
"cH c #fea944",
"c1 c #feac46",
"c5 c #feae48",
"dh c #feaf49",
"dC c #feb14b",
"dU c #feb34e",
"dY c #feb550",
"ed c #feb551",
"ez c #feb853",
"eO c #feba56",
"eS c #febd56",
"e3 c #febd58",
"fd c #fec05b",
"fH c #feca67",
".6 c #ff912b",
".7 c #ff962e",
"#Z c #ff9731",
"#f c #ff9830",
".8 c #ff9930",
".X c #ff9a2f",
".9 c #ff9a30",
".R c #ff9b32",
"#0 c #ff9c34",
"#D c #ff9d34",
".O c #ff9e33",
"ai c #ff9e36",
".P c #ff9f33",
"#1 c #ff9f36",
"a8 c #ff9f38",
".M c #ffa236",
"ap c #ffa238",
"aF c #ffa33b",
"#2 c #ffa33e",
"aN c #ffa43a",
"ar c #ffa43c",
"a2 c #ffa53c",
"bi c #ffa63d",
"a9 c #ffa73e",
".G c #ffa83d",
"bp c #ffa940",
"bN c #ffac43",
"c. c #ffac44",
"cm c #ffad45",
"b. c #ffad4a",
"c# c #ffaf46",
"ct c #ffb249",
"cN c #ffb44b",
"ca c #ffb452",
".F c #ffb548",
"cZ c #ffb54c",
"c6 c #ffb74d",
"c7 c #ffb74e",
".y c #ffb849",
"dg c #ffb84e",
"dn c #ffba50",
".z c #ffbc4d",
"dI c #ffbc53",
"c8 c #ffbc59",
".E c #ffbe4f",
"ec c #ffbe55",
".B c #ffbf50",
".C c #ffbf51",
"dZ c #ffbf56",
".D c #ffc051",
".A c #ffc151",
"ej c #ffc259",
"eT c #ffc35a",
"d0 c #ffc361",
"eF c #ffc45b",
"e2 c #ffc65c",
"eU c #ffc75d",
"e9 c #ffc95f",
"ft c #ffcb64",
"fj c #ffcc62",
"fl c #ffcc63",
"fw c #ffcd65",
"fu c #ffce66",
"fv c #ffcf66",
".n c #ffd765",
".q c #ffe472",
"Qt.#.a.b.c.d.e.d.d.e.d.d.e.d.d.e.d.d.e.d.d.e.d.d.f.g.h.i.j.j",
".k.l.m.n.o.p.q.p.p.q.p.p.q.p.p.q.p.p.q.p.p.q.p.p.q.r.s.t.u.v",
".w.x.y.z.A.B.C.B.B.C.B.B.C.B.B.C.B.B.C.B.B.C.B.B.D.E.F.G.H.I",
".J.K.L.M.N.K.O.K.K.O.K.K.O.K.K.O.K.K.O.K.K.O.K.K.P.Q.K.R.S.T",
".U.V.W.X.Y.Y.X.Y.Y.X.Y.Y.X.Y.Y.X.Y.Y.X.Y.Y.Z.0.1.X.Y.Y.2.3.4",
".5.6.7.8.9.9.9.9.9.9.9.9.9.9.9.9.9.9#.###a#b#c#d#e.9#f#g#h#i",
"#j#k#l.R#m#m.R#m#m.R#m#m.R#m#m.R#n#o#p#q#r#s#t#u#v#m#w#x#y#z",
"#A#B#C#D#E#E#D#F#G#H#I#J#K#L#M#N#O#P#Q#q#R#S#T#E#D#E#U#V#W#X",
"#Y#Z#0#1#1#1#2#3#4#5#6#7#8#9a.a#aaabacadaeafagah#1#1aiajakal",
"amanaoapaqaqarasatauauav#qawaxayazazaA#qaBaCaDaEaFaqaGaHaIaJ",
"aKaLaMaNaOaPaQaRaSafaDaTaUaVazayazazaWaXaYaZa0a1a2aOa3a4a5a6",
"a7a8ara9a9b.b#a#afafavbaaUaVayaybbbcbdbebfbgaUbha9a9bibjbkbl",
"bmbnbobpbqbrbsbaa#btbubvaUbwbxbybzbAbBbCbgbDbEbFbpbqbGbHbIbJ",
"bKbLbMbNbObPbQbRbSbTaDbUbVbWbXbYbZb0b1b2aTbDbEb3bNbOb4b5b6b7",
"b8b9c.c#c#cabQcbccbTcdbacecfcgchcibDbDbDbDcjckclc#c#cmcncocp",
"cqcrcsctcucvcwbRbSbTcxbacfcyaTczcAcBbDaTcCcDcEcFctcucGcHcIcJ",
"cKcLcMcNcOcPcwbRbSbTcQcRcfcycScTbtcUa#cVcWcXcEcYcZcOc0c1c2c3",
"c4c5cNc6c7c8cwcbccbTc9d.d#aCcca#btdadbdccXdddedfdgc7c6dhdidj",
"dkdldmdndodpdqbRbSbTdrdsdtbUcbdudvdwcXdxdxdydzdAdndodBdCdDdE",
"dFdGdHdIdJdKdqbRbSbTdLdMdNdOdPdudvdwcXdxdQdRdzdSdIdJdTdUdVdW",
"dXdYdIdZdZd0d1cbccbTbTd2d3cXd4d5d6d7d8d9e.e#eaebdZdZecedeeef",
"egeheiejekelembRbSbTdzdzeneoepeqereseteuevewexekejekeyezeAeB",
"eCeDeEeFeGeHeIbRbSbTdzdzbTeJeKeLeMeweHeGeGeFeGeGeFeGeNeOePeQ",
"eReSeTeUeUeUeVeWcceXeYeZe0e1eUeUeUeUeUeUeUeUeUeUeUeUe2e3e4e5",
"e6e7e8e9f.f.e9f#fafbf.f.e9f.f.e9f.f.e9f.f.e9f.f.e9f.fcfdfeff",
"fgfhfifjfkfkflfkfkflfkfkflfkfkflfkfkflfkfkflfkfkflfkfmfnfofp",
"fqfrfsftfufufvfufufvfufufvfufufvfufufvfufufvfufufvfwfxfyfzfA",
"fBfCfDfEfFfGfHfGfGfHfGfGfHfGfGfHfGfGfHfGfGfHfGfGfHfIfDfJfKfL",
"fMfNfOfPfQfRfSfRfRfSfRfRfSfRfRfSfRfRfSfRfRfSfRfRfSfTfUfVfWQt",
"#rfXfYfZf0f1f1f1f1f1f1f1f1f1f1f1f1f1f1f1f1f1f1f1f1f2f3f4Qt#r"};
