/* XPM */
static char *dummy[]={
"30 30 500 2",
"dl c #0000fd",
"cL c #0000ff",
"bo c #00fdfd",
"bK c #00ffff",
"bn c #02eeee",
"a4 c #02f0f0",
"dU c #0303f8",
"c2 c #0505fa",
"a3 c #08c6c6",
"bp c #09bcbc",
"bm c #09bdbd",
"bL c #09f7f7",
"dB c #0c0ceb",
"bl c #0d9f9f",
"dC c #1111e1",
"dA c #1616fa",
"dg c #1717da",
"c3 c #1717fb",
"bJ c #19ebeb",
"a2 c #1a4c4c",
"a1 c #1c4242",
"ar c #202020",
"aq c #212121",
"bM c #21e5e5",
"cK c #2222e5",
"cp c #2222e6",
"a5 c #244646",
"dD c #2525c2",
"aN c #274343",
"dX c #2c2cf3",
"ap c #2d2d2d",
"bq c #2d6969",
"c1 c #3838e8",
"dT c #3c3cf6",
"dY c #3d3df6",
"dV c #4646bd",
"cY c #474796",
"cX c #4848f4",
"cE c #4e4eee",
"aL c #4eb1b1",
"ef c #5050f3",
"cF c #51518e",
"#7 c #535353",
"bk c #536060",
"aK c #555555",
"bI c #57c1c1",
"bN c #5cbcbc",
"dE c #6262ef",
"#6 c #636363",
"dh c #65657c",
"aO c #686868",
"df c #6a6aee",
"bj c #6d6d6d",
"b5 c #6db0b0",
"eg c #7069e8",
"bD c #727272",
"cJ c #7272ab",
"dm c #7272ee",
"bZ c #737373",
"a6 c #747474",
"a0 c #757575",
"ao c #787878",
"b6 c #78a8a8",
"bG c #797979",
"dW c #7979d1",
"as c #7c7c7c",
"di c #7e7e7e",
"at c #7f7f7f",
"bE c #818181",
"b0 c #828282",
"#8 c #838383",
"cG c #848484",
"bi c #858585",
"co c #85859c",
"b7 c #86869d",
"cH c #898989",
"b4 c #8a9a9a",
"bO c #8b9898",
"aM c #8ce3e3",
"an c #8e8e8e",
"cl c #8f8f8f",
"al c #908c8c",
"aI c #929292",
"cZ c #939393",
"br c #949494",
"dk c #9494df",
"am c #969696",
"cn c #979797",
"#5 c #989898",
"cj c #9898b8",
"ck c #999999",
"fP c #9a7574",
"#O c #9b9393",
"b3 c #9b9b9b",
"b2 c #9c9c9c",
"fF c #9d7271",
"#v c #9f8383",
"#u c #9f8585",
"cm c #9f9f9f",
"fu c #a18686",
"#P c #a1a1a1",
"ee c #a1a1e5",
"fW c #a29292",
"fj c #a47675",
"#4 c #a59999",
"dZ c #a5a5e6",
"f# c #a66665",
"fV c #a79291",
"fQ c #a79d9d",
"eJ c #a85c5c",
"er c #a95756",
"eY c #a96161",
"eb c #a99999",
"au c #a9a9a9",
"bg c #aa9090",
"bC c #aa9191",
"bY c #aa9292",
"ci c #aa9393",
"cD c #aa9494",
"cW c #aa9595",
"de c #aa9696",
"dy c #aa9797",
"dR c #aa9898",
"dK c #ab4b4b",
"d6 c #ab5050",
"fU c #ab9292",
"av c #ababab",
"ds c #ac4545",
"aZ c #ac8e8e",
"b1 c #acacac",
"cQ c #ad3a39",
"c9 c #ad4040",
"a# c #adadad",
"cw c #ae3434",
"fT c #af9b9b",
"dS c #afafe4",
"bS c #b02a2a",
"cb c #b02f2f",
"bH c #b0b0b0",
"bw c #b12424",
"fG c #b1adad",
"aA c #b21313",
"aU c #b21919",
"b# c #b31f1f",
"fI c #b38888",
"#z c #b40808",
"#T c #b40909",
"#i c #b40c0c",
"ad c #b40e0e",
".5 c #b53535",
"aH c #b5adad",
"#t c #b5b0b0",
"fX c #b5b2b2",
"a. c #b5b5b5",
"fH c #b6a5a5",
"#Q c #b89494",
"dj c #b8b8b8",
"c0 c #b8b8ce",
"fk c #ba8d8c",
"cI c #bababa",
"eQ c #bba5a4",
"bh c #bbbbbb",
"fw c #bc8786",
"fS c #bcb7b7",
"aP c #bcbcbc",
"ed c #bcbce1",
".T c #be6f6e",
"fv c #bfb1b0",
"eh c #bfb1d7",
"cq c #bfbfe1",
"#q c #c08181",
".k c #c1c1c1",
".G c #c2b3b3",
".# c #c2c1c1",
".j c #c2c2c2",
"dz c #c2c2e0",
"fO c #c39695",
"ey c #c3a8a8",
".l c #c3c2c2",
"Qt c #c3c3c3",
"fa c #c47e7d",
"fR c #c4c4c4",
"#s c #c5c5c5",
"#X c #c67777",
"aG c #c69898",
"#Y c #c6aaaa",
".v c #c7a6a5",
"#0 c #c7c1c1",
".w c #c8a0a0",
".i c #c9c0c0",
"c4 c #c9c9e1",
"#N c #ca8f8f",
".a c #cab6b6",
"ft c #cb8a89",
"#1 c #ccc9c9",
"fE c #ce9594",
"fJ c #cfa0a0",
"b8 c #cfcfd7",
".m c #d09d9c",
"eZ c #d17f7e",
"eK c #d27878",
"es c #d37171",
"#3 c #d39292",
"bs c #d3d3d3",
"d7 c #d46a6a",
"#M c #d47777",
"aJ c #d4d4d4",
".H c #d55857",
"aa c #d59090",
"fN c #d5a4a3",
"dt c #d65d5d",
"dL c #d66463",
"ak c #d66868",
"d. c #d75656",
"#r c #d7d7d7",
"ec c #d7d7df",
"cR c #d84f4f",
"#9 c #d8d8d8",
"dF c #d8d8de",
"cx c #d94848",
"fx c #d99e9d",
"fK c #d9a9a8",
"d0 c #d9d5dc",
"aw c #da7f7f",
"fL c #daaaa9",
".U c #db2424",
"cc c #db4141",
"fi c #db8d8c",
"fl c #db9594",
"#d c #dbd4d4",
"bT c #dc3a3a",
"fD c #dc9f9e",
"fM c #dcabaa",
"dn c #dcdcdc",
"bx c #dd3434",
"#Z c #ddc2c2",
"ba c #de2d2d",
".h c #deafae",
"bF c #dedede",
"aB c #df1e1e",
"aV c #df2525",
".F c #df5858",
"fs c #df9897",
"ei c #dfc1c8",
"ae c #e01717",
"aQ c #e09191",
"#e c #e0b7b7",
"#U c #e11010",
"f. c #e18887",
"d1 c #e1d3d3",
"#j c #e20808",
"#A c #e20b0b",
".6 c #e20e0e",
"ez c #e2cfcf",
"eR c #e2d2d1",
"eI c #e47b7a",
"eX c #e48281",
"fy c #e4a7a6",
"eq c #e57373",
"#2 c #e5b4b4",
".b c #e5b7b6",
"d2 c #e5c6c5",
"fb c #e69493",
"fC c #e6a8a7",
"dJ c #e76565",
"d5 c #e76c6c",
"fm c #e79e9d",
"dr c #e85d5d",
"#c c #e89999",
"eA c #e8bebe",
"bt c #e99b9b",
"bP c #e99e9e",
"cr c #e9a5a5",
"cM c #e9a8a8",
"fz c #e9aaa9",
"do c #e9aeae",
"dG c #e9b2b1",
"eS c #e9c0c0",
"cP c #ea4e4d",
"c8 c #ea5655",
"fh c #ea9896",
"fA c #eaabaa",
"eB c #eabbbb",
"a7 c #eb9999",
"b9 c #eba2a2",
"fB c #ebacab",
"c5 c #ebacac",
"cv c #ec4646",
"aF c #ec6767",
"#b c #ec8686",
"e0 c #ec8f8e",
"fr c #eca2a1",
"ej c #ecaeae",
".g c #ecbcbb",
"bR c #ee3838",
"ca c #ee3f3f",
"et c #ee807f",
"eL c #ee8887",
"e6 c #eeb0b0",
".c c #eebbba",
".4 c #ef2727",
"bv c #ef3030",
".S c #ef4342",
"d8 c #ef7978",
"e9 c #ef9291",
"fc c #ef9a99",
"eT c #efafaf",
".u c #f08584",
"eW c #f08a89",
"fn c #f0a6a5",
".d c #f0b9b8",
"aT c #f12222",
"b. c #f12929",
"du c #f16968",
"dM c #f17170",
"eH c #f18282",
"ek c #f19f9f",
".e c #f1bab9",
".f c #f1bdbc",
"az c #f21a1a",
"d# c #f26161",
"ep c #f27b7a",
"#h c #f31010",
"#H c #f35151",
"#I c #f35353",
".x c #f36564",
"d4 c #f37373",
"e1 c #f39493",
"#y c #f40a0a",
"#S c #f40d0d",
"ac c #f41212",
"#L c #f44848",
"dI c #f46c6b",
"d3 c #f49898",
"fq c #f4a8a7",
"#w c #f53c3c",
"cy c #f55251",
"cS c #f55a59",
"dq c #f56464",
"eu c #f58584",
"eM c #f58d8d",
"eC c #f59898",
"fg c #f59e9d",
"#K c #f63636",
"cd c #f64949",
"c7 c #f65c5b",
"d9 c #f67e7e",
"fo c #f6a9a8",
"fp c #f6aaa9",
"cO c #f75353",
".n c #f79392",
"e8 c #f79796",
"eU c #f79a99",
"fe c #f7a09f",
"e5 c #f7a2a1",
"by c #f83b3b",
"#a c #f83c3c",
"eD c #f88f8f",
"e7 c #f89e9d",
"fd c #f8a09f",
"ff c #f8a1a0",
"bb c #f93333",
"bU c #f94242",
"cu c #f94c4b",
"dv c #f96e6d",
"dN c #f97675",
"eV c #f99695",
"e3 c #f99897",
"e2 c #f99998",
"eP c #f99e9d",
"bQ c #fa3c3c",
"c# c #fa4444",
"da c #fa6565",
"em c #fa8685",
"eG c #fa8787",
"el c #fa8b8a",
"eE c #fa8d8d",
"eN c #fa9090",
"e4 c #fa9998",
"af c #fb1b1b",
"#F c #fb2323",
".3 c #fb2a2a",
"bu c #fb3434",
".0 c #fb3b3b",
"eo c #fb7f7f",
"ew c #fb8787",
"ev c #fb8988",
"ex c #fb8d8d",
"eO c #fb9190",
"#k c #fc0a0a",
"#B c #fc0d0d",
"#G c #fc2323",
"aS c #fc2525",
".V c #fc2a2a",
"a9 c #fc2d2d",
".1 c #fc3636",
".I c #fc4a4a",
"ce c #fc4d4d",
"cz c #fc5555",
"cT c #fc5e5d",
"e# c #fc807f",
"e. c #fc8180",
"ea c #fc8888",
"eF c #fc8989",
"#l c #fd0d0d",
"#n c #fd0e0e",
"#C c #fd1010",
".7 c #fd1111",
"#o c #fd1212",
"#g c #fd1313",
"#J c #fd1818",
"#E c #fd1c1c",
"ay c #fd1d1d",
"ag c #fd1e1e",
"#p c #fd1f1f",
"ai c #fd2020",
"## c #fd2525",
"#f c #fd2727",
"aD c #fd2828",
"aE c #fd2a2a",
".W c #fd2b2b",
".2 c #fd2c2c",
".Y c #fd2d2d",
"bc c #fd3636",
"be c #fd3838",
"bz c #fd3e3e",
"bB c #fd4040",
"bf c #fd4545",
".R c #fd4949",
".O c #fd4a4a",
".M c #fd4b4a",
".Q c #fd4c4b",
".L c #fd4c4c",
".J c #fd4d4d",
"ct c #fd504f",
"cg c #fd5050",
"cN c #fd5757",
"cB c #fd5857",
"ch c #fd5b5b",
"cC c #fd6362",
"dp c #fd6968",
"dc c #fd6969",
"dw c #fd7170",
"dd c #fd7272",
"dO c #fd7978",
"dx c #fd7a7a",
"en c #fd8180",
".t c #fdaaa8",
".s c #fdbcba",
".p c #fdc0be",
".q c #fdc2c0",
"#x c #fe0c0c",
"#R c #fe0f0f",
"ab c #fe1515",
".Z c #fe2f2f",
"bV c #fe4545",
".N c #fe4a4a",
".P c #fe4b4a",
"c6 c #fe605f",
".E c #fe7070",
"dP c #fe7978",
"dQ c #fe8281",
"#m c #ff0e0e",
"#D c #ff1111",
".8 c #ff1313",
".9 c #ff1515",
"#. c #ff1616",
"#V c #ff1818",
"ah c #ff2020",
"#W c #ff2121",
"ax c #ff2323",
"aj c #ff2424",
"aC c #ff2828",
"aR c #ff2929",
".X c #ff2d2d",
"aW c #ff2e2e",
"aX c #ff3030",
"a8 c #ff3131",
"bd c #ff3838",
"aY c #ff3d3d",
"bA c #ff4040",
"c. c #ff4747",
"bW c #ff4848",
".K c #ff4f4f",
"cf c #ff504f",
"cs c #ff5050",
"bX c #ff5353",
"cA c #ff5857",
"cU c #ff6060",
"db c #ff6868",
"cV c #ff6a6a",
"dH c #ff7170",
".y c #ff7b7a",
".D c #ff7c7b",
".z c #ff7f7e",
".B c #ff8281",
".C c #ff8282",
".A c #ff8483",
".o c #ffb7b5",
".r c #ffc3c1",
"Qt.#.a.b.c.d.e.d.d.e.d.d.e.d.d.e.d.d.e.d.d.e.d.d.f.g.h.i.j.k",
".l.m.n.o.p.q.r.q.q.r.q.q.r.q.q.r.q.q.r.q.q.r.q.q.r.s.t.u.v.j",
".w.x.y.z.A.B.B.B.B.B.B.B.B.B.B.B.B.B.B.B.B.B.B.B.C.B.D.E.F.G",
".H.I.J.K.L.M.N.O.O.N.O.O.N.O.O.N.O.O.N.O.O.N.O.O.P.L.Q.R.S.T",
".U.V.W.X.Y.Y.X.Y.Y.X.Y.Y.X.Y.Y.X.Y.Y.X.Y.Y.Z.0.1.X.Y.2.3.4.5",
".6.7.8.9#.#.#.#.#.#.#.#.#.#.#.#.#.#.###a#b#c#d#e#f#..9#g#h#i",
"#j#k#l#m#n#n#m#n#n#m#n#n#m#n#n#m#o#p#q#r#s#t#u#v#w#n#n#x#y#z",
"#A#B#C#D.7.7#D#E#F#G#H#I#E#J#K#L#M#N#O#r#P#Q.V.7#D.7.7#R#S#T",
"#U#g#.#V#V#V#W#X#Y#Z#0#1#2#3#4#5#6#7#8#9a.a#aa.W#V#V#Vabacad",
"aeafagahaiaiajakalamaman#raoapaqararas#ratauavawaxai#payazaA",
"aB#F##aCaDaEaFaGaHa#avaIaJaKaraqararaLaMaNaOaPaQaRaD#faSaTaU",
"aV.VaWaXaXaYaZ#5a#a#ana0aJaKaqaqa1a2a3a4a5a6aJa7a8aXaXa9b.b#",
"babbbcbdbebfbga0#5bhbibjaJbkblbmbnbobpbqa6brbsbtbdbebebubvbw",
"bxbybzbAbB.LbCbDbEbFavbGbHbIbJbKbLbMbNbOaIbrbsbPbAbBbBbQbRbS",
"bTbUbVbWbWbXbYbZb0bFb1a0b2b3b4b5b6brbrbrbrb7b8b9bWbWc.c#cacb",
"cccdcecfcgchcibDbEbFcja0b3ckaIclcmcnbraIcocpcqcrcscgctcucvcw",
"cxcyczcAcBcCcDbDbEbFcEcFb3ckcGcHbhcI#5cJcKcLcqcMcAcBcNcOcPcQ",
"cRcScTcUcUcVcWbZb0bFcXcYcZaub0#5bhc0c1c2cLc3c4c5cUcUc6c7c8c9",
"d.d#dadbdcdddebDbEbFdfdgdhbGbZdidjdkcLdldldmdndodbdcdpdqdrds",
"dtdudv.EdwdxdybDbEbFdzdAdBdCdDdidjdkcLdldEdFdndGdHdwdwdIdJdK",
"dLdMdNdOdPdQdRbZb0bFbFdSdTcLdUdVdWdXdYdZd0d1d2d3dPdPdOd4d5d6",
"d7d8d9e.e#eaebbDbEbFdndnecedeeefegeheiejekeleme#ene#eoepeqer",
"eseteuevewexeybDbEbFdndnbFezeAeBeCeDeEeweweFeweweFeweGeHeIeJ",
"eKeLeMeNeOeOePeQb0eReSeTeUeVeOeOeOeOeOeOeOeOeOeOeOeOeNeWeXeY",
"eZe0e1e2e3e3e4e5e6e7e3e3e4e3e3e4e3e3e4e3e3e4e3e3e4e3e8e9f.f#",
"fafbfcfdfefefffefefffefefffefefffefefffefefffefefffefgfhfifj",
"fkflfmfnfofofpfofofpfofofpfofofpfofofpfofofpfofofofqfrfsftfu",
"fvfwfxfyfzfAfBfAfAfBfAfAfBfAfAfBfAfAfBfAfAfBfAfAfBfCfDfEfFfG",
"#sfHfIfJfKfLfMfLfLfMfLfLfMfLfLfMfLfLfMfLfLfMfLfLfMfNfOfPfQQt",
"#sfRfSfTcifUbYbYbYbYbYbYbYbYbYbYbYbYbYbYbYbYbYbYfUfVfWfXQt#s"};
