/* XPM */
static char *dummy[]={
"30 30 584 2",
"e3 c #0404fb",
"dA c #07c8c8",
"dB c #08cccc",
"e4 c #0b0bfc",
"fl c #0f0ffc",
"dz c #0f9595",
"eJ c #1616ed",
"fg c #1818dd",
"dd c #1f2c2c",
"al c #202121",
"fh c #2222cb",
"de c #227070",
"am c #252322",
"cO c #252525",
"dY c #27e2e2",
"dC c #289292",
"#1 c #2a2a2a",
"fD c #2d2de1",
"gw c #2d4e76",
"gR c #304c6e",
"dZ c #30dbdb",
"gj c #345986",
"cN c #353535",
"dg c #354949",
"gF c #355b88",
"f5 c #355b8b",
"fM c #365d8c",
"g2 c #37567b",
"gW c #37577b",
"gQ c #375c88",
"fr c #375f8f",
"gJ c #385d87",
"fk c #3939f1",
"e9 c #396192",
"eX c #3a3add",
"eO c #3a6294",
"gv c #3a6393",
"gl c #3a6496",
"et c #3b6496",
"#2 c #3c3c3b",
"gE c #3c6494",
"gy c #3c6596",
"d7 c #3c669a",
"gP c #3d6592",
"dI c #3d679b",
"gi c #3d689b",
"f7 c #3d6a9e",
"dy c #3d6e6e",
"#0 c #3e3f3f",
"dm c #3e699e",
"f4 c #3e6aa0",
"fO c #3e6ba3",
"df c #3edada",
"g1 c #3f6288",
"gm c #3f6a9e",
"cY c #3f6aa1",
"gu c #3f6b9e",
"fL c #3f6ca1",
"ft c #3f6da4",
"gX c #406188",
"gK c #406796",
"gz c #406a9d",
"gD c #406b9d",
"cy c #406ca2",
"fq c #406ea4",
"g3 c #415770",
"c. c #416ea5",
"f8 c #416fa5",
"f# c #416fa7",
"gY c #42648c",
"g0 c #42648d",
"gZ c #42648e",
"gC c #426fa3",
"gh c #426fa5",
"gn c #4270a6",
"e8 c #4270a7",
"bI c #4270a8",
"fP c #4270a9",
"dc c #434444",
"gO c #436b99",
"gL c #436b9a",
"gM c #436c9b",
"gN c #436c9c",
"gA c #436ea3",
"gB c #436fa4",
"gt c #4370a6",
"go c #4371a7",
"gp c #4371a8",
"f3 c #4371a9",
"eN c #4372a9",
"bh c #4372aa",
"eQ c #4372ab",
"fC c #4444f2",
"fN c #44658c",
"gq c #4472a9",
"f9 c #4472ab",
"g. c #4473aa",
"fK c #4473ab",
"es c #4474ac",
"ev c #4474ad",
"cP c #454c4c",
"fs c #45668e",
"f. c #456890",
"aT c #4573ac",
"g# c #4574ab",
"fQ c #4574ae",
"fp c #4575ae",
"d9 c #4575b0",
"d6 c #4576b0",
"aw c #4675b0",
"fv c #4676af",
"fu c #4676b0",
"fw c #4676b1",
"eR c #4677b1",
"dK c #4677b4",
"dH c #4678b2",
"eP c #476a92",
"f2 c #4776af",
"a# c #4776b1",
"e7 c #4777b1",
"do c #4779b6",
"eu c #486c94",
"gs c #4875a9",
"fa c #4878b3",
"fb c #4878b4",
"eM c #4879b3",
"ew c #487ab3",
"dl c #487ab4",
"d8 c #496c96",
"dJ c #496e99",
"gg c #4977ad",
"#O c #4978b4",
"e. c #497bb6",
"cX c #497bb8",
"c0 c #497bb9",
"eD c #4a4ac8",
"gI c #4a6481",
"dn c #4a6f9b",
"eS c #4a7bb6",
"eT c #4a7bb7",
"cx c #4a7db9",
"dL c #4a7dba",
"cA c #4a7dbd",
"cZ c #4b709d",
"f1 c #4b79b0",
"ex c #4b7dba",
"b9 c #4b7fbc",
"dp c #4b7fbd",
"ca c #4b7fbe",
"an c #4c3d34",
"#s c #4c7bb8",
"ey c #4c7eb9",
"ez c #4c7eba",
"er c #4c7fbb",
"e# c #4c7fbc",
"bK c #4c80c1",
"cz c #4d729f",
"c# c #4d73a1",
"ea c #4d7fbc",
"ee c #4d80bd",
"c1 c #4d80bf",
"dk c #4d81bf",
"bH c #4d81c0",
"bj c #4d84c5",
"ap c #4e433d",
"f6 c #4e6c8f",
"bJ c #4e75a3",
"gf c #4e7aae",
"eb c #4e7fbc",
"d5 c #4e81c0",
"dM c #4e82c0",
"dG c #4e82c2",
"bg c #4e82c3",
"dq c #4e83c3",
"bi c #4f77a5",
"gr c #4f7aab",
"cW c #4f82c2",
"cb c #4f83c5",
"aV c #4f85c7",
"aU c #5078a7",
"dj c #5084c4",
"cw c #5084c5",
"aS c #5084c6",
"c2 c #5085c5",
"bL c #5085c8",
"ay c #5087ca",
"ax c #5179aa",
"di c #5185c5",
"b8 c #5186c7",
"cB c #5186c8",
"av c #5186ca",
"ab c #5189ce",
"aa c #527bac",
"cV c #5286c8",
"a. c #5287cb",
"bG c #5288ca",
"bk c #5289cb",
"#P c #537dae",
"fR c #537fb4",
"## c #537fb7",
"cU c #5387c9",
"cv c #5387ca",
"cu c #5388ca",
"aW c #538acd",
"bf c #538ace",
"#Q c #538ad0",
"gV c #546b83",
"b7 c #548acd",
"az c #548cd0",
"e2 c #5555e9",
"#t c #557eb0",
"f0 c #557fb3",
"dr c #5587c4",
"#N c #5589ce",
"aR c #558cd1",
"#u c #558cd2",
"bl c #558dd1",
"bz c #558ed2",
"ak c #565757",
".T c #567eae",
"be c #568ed3",
"ac c #568ed4",
"aX c #568fd4",
"bb c #578fd3",
"#R c #578fd6",
"ba c #5790d5",
"#a c #5880b2",
"fx c #5882b7",
"c3 c #5889c7",
"#r c #588dd1",
"#9 c #5890d6",
"aQ c #5890d7",
"aA c #5891d7",
"aP c #5891d8",
"gG c #596b7e",
"ed c #5987be",
"cC c #598cca",
"bF c #5990d2",
"#b c #5990d6",
"bd c #5991d5",
"#v c #5991d9",
"ad c #5992da",
"au c #5993da",
"at c #5993db",
"fc c #5a84ba",
"cc c #5a8ccc",
"b6 c #5a8ecf",
"bZ c #5a8fd0",
"bc c #5a91d4",
"#M c #5a92d9",
"as c #5a93db",
"#S c #5a94dc",
"d0 c #5abbbb",
"fE c #5b5bdf",
"bM c #5b8ecf",
"bA c #5b91d3",
"#T c #5b94dc",
"#8 c #5b95dd",
"ge c #5c83b2",
"eU c #5c88be",
"ct c #5c8ecd",
"bm c #5c92d3",
"ae c #5c95db",
"#7 c #5c96de",
"eA c #5d89c0",
"aY c #5d93d5",
"#c c #5d95dc",
"#L c #5d96df",
"#w c #5d97df",
"#K c #5d98e0",
"fJ c #5e87b9",
"ef c #5e8bc2",
"#q c #5e95dc",
"aB c #5f95d8",
"eI c #6060b9",
"ec c #608cc0",
"#d c #609ae2",
"#. c #6194d4",
"#p c #619ae2",
"#e c #619be2",
"#g c #629be2",
"dX c #62b8b8",
"fF c #6364ec",
"#h c #639ce3",
"dS c #6490c5",
".V c #6498da",
"#x c #649adf",
"fi c #65658d",
"#f c #659de3",
"aI c #664532",
"cM c #666666",
"ga c #6689b3",
".9 c #669bdf",
"#J c #669cdf",
"aH c #675f5b",
"gk c #677d95",
"b0 c #6796cf",
".W c #679ce0",
"dT c #6994c9",
".X c #69a1e4",
"#U c #6a9cdc",
".8 c #6a9fe4",
"#i c #6aa0e2",
".Y c #6aa0e4",
".0 c #6aa1e5",
".Z c #6ba0e4",
".1 c #6ba1e5",
".2 c #6ca1e4",
"aM c #6d6966",
".U c #6d90ba",
"dN c #6d93c2",
"fZ c #6f91be",
".S c #6fa0de",
"#o c #6fa2e2",
".7 c #6fa4e6",
"eY c #70708a",
"ff c #7171ec",
"aF c #727272",
"bB c #729fd5",
".K c #72a4e3",
"cH c #74695d",
"eo c #7475a8",
"dD c #747a7a",
".O c #74a7e8",
".R c #74a8e8",
".P c #74a9e9",
"cG c #75522f",
".Q c #75a8e8",
".N c #75a8e9",
".L c #76a9ea",
"dR c #779cc9",
".3 c #77a7e5",
"bo c #787979",
".M c #78adee",
"a0 c #797979",
"ha c #79858f",
"h# c #798590",
"h. c #798690",
"fY c #7994c7",
".y c #7aa9e2",
"cF c #7b4c1d",
"hb c #7b8791",
"cf c #7c7670",
"eB c #7e7e7f",
"eh c #7e7f7f",
".H c #7eade6",
"dV c #7f7f7f",
"eK c #7f7fea",
"#Z c #808080",
"fm c #8080ea",
"ch c #808181",
"cp c #80878f",
"fy c #808790",
"e0 c #818182",
"cq c #818487",
"fd c #818890",
"eV c #818891",
"eg c #818991",
"#j c #81a8d8",
"fB c #8282e9",
"b1 c #829fc1",
"dU c #838a92",
"g9 c #849097",
"#C c #84abda",
"bS c #858585",
"cR c #868989",
"fS c #868e99",
"c4 c #86919e",
"gd c #86a1c2",
"cT c #86a5cb",
"bQ c #878786",
"br c #878787",
"cd c #87929f",
"#y c #87abd7",
"aL c #885c43",
"eF c #888989",
"bN c #8893a0",
"aZ c #8894a1",
"d1 c #889696",
"bn c #8994a2",
"aC c #8995a3",
"ds c #8996a5",
".G c #89baf5",
"em c #8a9696",
"b5 c #8aa5c5",
"bW c #8b6137",
"c9 c #8b633a",
"eE c #8c8c8e",
"ej c #8c8c98",
"dO c #8c949f",
"co c #8c9cae",
"af c #8ca7c9",
"ek c #8d8d8d",
"#F c #8d9196",
"bV c #8e8174",
"aD c #8e8e8e",
"eZ c #8e8e8f",
"gb c #8e98a2",
".v c #8eaed2",
"aJ c #8f5a3c",
"#D c #8fa6c2",
"fo c #8fa9ca",
"#6 c #8fadd3",
".4 c #8fb6e7",
"bx c #908a82",
"dx c #909090",
"#E c #909caa",
"bC c #90b2da",
".z c #90c2fb",
"ep c #9191dc",
"a9 c #919292",
"ce c #926b42",
"d2 c #929393",
"e6 c #92accc",
"c8 c #936331",
"bP c #937557",
"bw c #939393",
"bv c #939494",
"en c #939c9c",
"gx c #939fa5",
"#V c #939fad",
".J c #93abc4",
"eL c #93adce",
"eq c #93aecf",
"dh c #93afd1",
".F c #93c5fb",
"a8 c #948b85",
"cg c #949494",
"d4 c #94afd1",
"dF c #94b0d2",
".D c #94c7fb",
".A c #94c7fd",
"bt c #95908d",
"a3 c #959595",
".C c #95c7fb",
"el c #969696",
"cs c #96acc6",
"fI c #96adc9",
"bE c #96b4d7",
".E c #96c8fc",
"#4 c #979796",
"b4 c #97a7ba",
"#z c #97b6dc",
".B c #97c9fc",
"dW c #989b9b",
"#B c #98b8de",
"bR c #999999",
"bs c #999a9a",
"#I c #99b0cd",
"bu c #9a9592",
"a2 c #9b9b9b",
"#n c #9bafc8",
".n c #9bcaf7",
"bq c #9c9b98",
"cL c #9d9d9d",
"#X c #9d9e9e",
"aK c #9e6341",
"ai c #9e9f9f",
".6 c #9fbde2",
"aq c #a0a0a0",
"eH c #a0a0af",
"gc c #a0b0c4",
".I c #a0b2c0",
"dQ c #a0b7d2",
"hc c #a1a6a4",
"fX c #a1aed6",
".u c #a1d0fc",
"cK c #a2a2a2",
"g4 c #a3a7a3",
"fG c #a3a8df",
"#W c #a4a4a4",
"ar c #a4bcd9",
".5 c #a5bfe1",
"d. c #a7a19b",
"#m c #a7b1bd",
"bY c #a7bdd9",
"b# c #a7bfdb",
"aO c #a7bfdd",
"a4 c #a88d7e",
"cJ c #a8a6a4",
"bU c #a9a8a6",
"bD c #a9bed6",
"da c #aaaaaa",
"#5 c #aaabac",
"bX c #ab8a69",
"ah c #abacac",
".m c #abbdcc",
"cS c #acadae",
"ag c #acb2b9",
"#A c #acbfd7",
"aE c #adadad",
"#H c #aeafb0",
"dP c #aebac9",
"fH c #aebcd1",
"by c #af9e8c",
"d# c #afadac",
".h c #afd5f2",
"bT c #b0b0b0",
"a7 c #b1856d",
"aG c #b1b1b1",
"c7 c #b29679",
"aN c #b2b3b3",
"gS c #b2b4ab",
"g8 c #b2b5b0",
"cE c #b3977b",
"ck c #b39d88",
"e5 c #b3b3e3",
"aj c #b3b4b4",
"b3 c #b3b5b5",
".i c #b3c8d9",
"b. c #b4b4b4",
"eG c #b5b5b5",
"fj c #b5b5b8",
"cI c #b7b7b7",
"ci c #b7b8b8",
".b c #b8d9f0",
"cl c #b9aa9b",
"e1 c #b9b9ba",
"db c #b9baba",
"cn c #b9c3ce",
".t c #b9e8fd",
"cj c #bab3ab",
"eC c #babad0",
"cQ c #bac3c3",
"#3 c #bbbab9",
"dw c #bbbbbd",
".c c #bbe5fa",
"dE c #bcbcbc",
"eW c #bcbcd2",
".o c #bcebff",
"#G c #bdbdbd",
"d3 c #bebebe",
"#l c #bec0c1",
"#k c #bec4cc",
"#Y c #bfbfbf",
"a5 c #c07f5a",
"fW c #c0c8d8",
".g c #c0e8fc",
"ao c #c1947a",
".s c #c2f0fd",
"a6 c #c3805a",
"bO c #c3c1be",
"a1 c #c3c3c3",
".q c #c3f1fd",
"gU c #c4c4ba",
"bp c #c4c5c4",
"ei c #c4c5c9",
"b2 c #c4c8cc",
".p c #c4f1fd",
".r c #c4f2ff",
".x c #c5cac5",
"cr c #c6c7c7",
"c5 c #c7c8c8",
".a c #c7d0d1",
"cD c #c8c8c7",
"dt c #c8c8c8",
".d c #c8eefd",
".f c #c9effd",
".e c #caf0ff",
"cm c #cbc1b7",
"dv c #cbcdd0",
"fe c #cccccf",
"fz c #cdcdce",
"fT c #cfcfcf",
"hd c #d0cdbe",
"gH c #d1cfc1",
"fA c #d2d2de",
"g7 c #d4d1c1",
".w c #d6d4c3",
".j c #d7d5c4",
"c6 c #d7d5d2",
"fn c #d8d8dd",
".k c #dbd7c1",
".# c #dbd7c2",
"g5 c #dbd7c4",
"fV c #dbdbdd",
"he c #dcd8c5",
".l c #dcd9c3",
"gT c #dcd9c6",
"du c #dcdcdc",
"Qt c #ddd9c3",
"g6 c #ddd9c4",
"hf c #ddd9c5",
"fU c #dddddd",
"Qt.#.a.b.c.d.e.f.f.e.f.f.e.f.f.e.f.f.e.f.f.e.f.f.e.g.h.i.j.k",
".l.m.n.o.p.q.r.q.q.r.q.q.r.q.q.r.q.q.r.q.q.r.q.q.r.s.t.u.v.w",
".x.y.z.A.B.C.D.D.D.D.D.D.D.D.D.D.D.D.D.D.D.D.D.D.D.E.F.G.H.I",
".J.K.L.M.N.O.P.O.O.P.O.O.P.O.O.P.Q.Q.P.O.O.P.O.O.P.R.N.R.S.T",
".U.V.W.X.Y.Z.0.Y.Y.0.Y.Y.1.2.3.4.5.6.7.Z.Z.1.Z.Z.1.Y.8.9#.##",
"#a#b#c#d#e#e#e#e#f#g#e#h#i#j#k#l#m#n#o#e#e#e#e#e#e#e#p#q#r#s",
"#t#u#v#w#w#x#y#z#A#B#C#D#E#F#G#H#I#J#K#w#w#K#w#w#K#w#L#M#N#O",
"#P#Q#R#S#T#U#V#W#X#Y#Z#0#1#2#3#4#5#6#7#T#T#8#T#T#8#T#T#9a.a#",
"aaabacadaeafagahaiajakalamanaoapaqarasatatatatatatatauacavaw",
"axayazaAaBaCaDaEaFaGaHaIaJaKaLaMaNaOaPaQaQaPaQaQaPaQ#9aRaSaT",
"aUaVaWaXaYaZa0a1a2a3a4a5a6a7a8a9b.b#babbbbbabbbcbdbbbebfbgbh",
"bibjbkblbmbnbobpbqbrbsbtbubvbwbxbyb#bzbzbAbBbCbDbEbFblbGbHbI",
"bJbKbLbfbMbNa0bObPbQbRbSbTbUbVbWbXbYbZb0b1b2b3b4b5b6b7b8b9c.",
"c#cacbbGcccdbobOcecfcgchcicjckclcmcncocpcqcr#5csctcucvcwcxcy",
"czcAbgcBcCbNa0cDcEcFcGcHcIcJcKcLa1cMcNcOcPcQcRcScTcUcVcWcXcY",
"cZc0c1c2c3c4boc5c6c7c8c9d.d#dacgdbdcaldddedfdgbTdhdidjdkdldm",
"dndodpdqdrdsa0dtdududvdwdxaDbTaFcidydzdAdBdCdDdEdFcWdGdpdHdI",
"dJdKdLdkdMdNdOdPdQdRdSdTdUdVc5bwdWdXdYdZd0d1d2d3d4d5bHcxd6d7",
"d8d9e.e#eaebecedeaeeeaefegeheiejekelemend2bweoepeqeaere.eset",
"euevewexeyeyezeyeyezeyeAegeBeCeDeEa3eFeGeHeIeJeKeLeyeyeMeNeO",
"ePeQeReSeTeTeTeTeTeTeTeUeVeBeWeXeYeZe0e1e2e3e4e5e6eTeTe7e8e9",
"f.f#evfafafafbfafafbfafcfdeBfefffgfhfifjfkflfmfnfofafafpfqfr",
"fsftbhfufvfvfwfvfvfwfvfxfyeBfzfAfBfCfDfEfFfGfHfIfJfvfvfKfLfM",
"fNfOfPfQfQfQfQfQfQfQfQfRfSeBfTfUfVfWfXfYfZf0f1f2fQfQfQf3f4f5",
"f6f7f8f9g.g.fKg.g.fKg.g#gagbgcgdgegfggg#g.fKg.g.fKg.g.ghgigj",
"gkglgmgngogogpgogogpgogogqgrgsgpgogogpgogogpgogogpgogtgugvgw",
"gxgjgygzgAgBgBgBgBgBgBgBgBgBgBgBgBgBgBgBgBgBgBgBgBgCgDgEgFgG",
"gHgIgJgKgLgMgNgMgMgNgMgMgNgMgMgNgMgMgNgMgMgNgMgMgNgOgPgQgRgS",
"gTgUgVgWgXgYgZg0g0gZg0g0gZg0g0gZg0g0gZg0g0gZg0g0gZg1g2g3g4g5",
"g6gTg7g8g9h.h#h#h#h#h#h#h#h#h#h#h#h#h#hahahahahah#hbhchdhehf"};
