/* XPM */
static char *dummy[]={
"30 30 271 2",
"bA c #0404fb",
"a9 c #07c8c8",
"b. c #09cccc",
"bB c #0c0cfc",
"bL c #0f0ffc",
"a8 c #0f9595",
"bu c #1616ed",
"bG c #1919dd",
"aW c #1f2c2c",
"#E c #212121",
"bH c #2222cb",
"aX c #227070",
"#F c #252322",
"aI c #252525",
"be c #27e2e2",
"b# c #289292",
"#q c #2a2a2a",
"bR c #2d2de1",
"bf c #30dbdb",
"aH c #353535",
"aZ c #354949",
"bK c #3939f1",
"bx c #3a3add",
"#r c #3c3c3b",
"a7 c #3d6e6e",
"aY c #3edada",
"#p c #3f3f3f",
"aV c #444444",
"bQ c #4444f2",
"aJ c #464c4c",
"bq c #4a4ac8",
"#G c #4d3d34",
"#I c #4f433d",
"bz c #5656e9",
"#D c #575757",
"bg c #5bbbbb",
"bS c #5c5cdf",
"bt c #6060b9",
"bd c #62b8b8",
"bI c #65658d",
"aG c #666666",
"bT c #6666eb",
"#O c #674532",
"#N c #675f5b",
"#j c #696969",
"#K c #6a6a6a",
"#. c #6c6c6c",
"#S c #6d6966",
"#k c #6d6d6d",
"## c #6e6e6e",
"#y c #6f6f6f",
".Y c #707070",
".Z c #717171",
"by c #71718a",
"bF c #7171ec",
"#M c #727272",
"#U c #737373",
"a0 c #747474",
"aC c #75522f",
"aD c #75695d",
"ab c #757575",
"bn c #7575a8",
"ba c #757a7a",
"c# c #767675",
"am c #767676",
"ay c #777777",
"aN c #787878",
"#V c #797979",
"a1 c #7a7a7a",
"aB c #7b4c1d",
"bb c #7b7b7b",
"ap c #7c7670",
"bi c #7c7c7c",
"#x c #7e7e7e",
"#i c #7f7f7f",
"bv c #7f7fea",
"#o c #808080",
"#l c #818181",
"bM c #8181ea",
".9 c #828282",
"b4 c #83827e",
"b6 c #838382",
"#z c #838383",
"bP c #8383e9",
"#L c #848484",
"c. c #858583",
".N c #858584",
"#w c #858585",
"#h c #868686",
"af c #878786",
".0 c #878787",
"aL c #878989",
"#R c #885c43",
"aw c #888888",
"bh c #889696",
"#v c #898989",
".8 c #8a8a8a",
"bl c #8a9696",
"ai c #8b6137",
"aR c #8b633a",
".M c #8b8a88",
".1 c #8b8b8b",
".X c #8c8c8c",
"bk c #8c8c98",
"#J c #8d8d8d",
"br c #8d8d8e",
"ah c #8e8174",
"b2 c #8e8e8c",
"#A c #8e8e8e",
"#P c #8f5a3c",
".2 c #8f8f8f",
".4 c #909090",
"#9 c #918a82",
".O c #919191",
"bo c #9191dc",
".3 c #929292",
"aQ c #936331",
"ao c #936b42",
"ae c #937557",
"a5 c #93918f",
"#8 c #939393",
"bm c #939c9c",
"#1 c #948b85",
"ci c #94938f",
".W c #949494",
"ch c #95948f",
".P c #959595",
"#6 c #96908d",
"cj c #969590",
"#2 c #969696",
"cg c #979691",
"#t c #979796",
"ac c #979797",
".R c #989898",
"bc c #989b9b",
".Q c #999999",
"#7 c #9a9592",
"#5 c #9a9a9a",
"#W c #9b9b9b",
".L c #9c9c9c",
"#4 c #9d9b98",
"#m c #9d9d9d",
"#n c #9e9e9e",
"#Q c #9f6341",
"#B c #9f9f9f",
"ck c #a09e96",
".S c #a0a0a0",
"b3 c #a19f99",
"#e c #a1a1a1",
"bs c #a1a1af",
".G c #a2a2a2",
"#d c #a3a3a3",
".F c #a4a39e",
"#a c #a4a4a4",
".K c #a5a5a5",
".J c #a6a6a6",
"aS c #a7a19b",
".H c #a7a7a7",
"#X c #a88d7e",
"aF c #a8a6a4",
"#u c #a8a8a8",
"ca c #a9a79d",
"ag c #a9a8a6",
".D c #a9a9a9",
"al c #aaaaaa",
"aj c #ab8a69",
".I c #ababab",
"#g c #acacac",
"cf c #adaba2",
".w c #adadad",
"aM c #aeaeae",
"bU c #aeaede",
"aT c #afadac",
".7 c #afafaf",
"a. c #b09e8c",
"#b c #b0b0b0",
"b0 c #b0b0c3",
"#0 c #b1856d",
".T c #b1b1b1",
"aP c #b29679",
"aA c #b3977b",
"as c #b39d88",
"#T c #b3b3b3",
"#C c #b4b4b4",
"bC c #b4b4e3",
"ak c #b5b5b5",
"bJ c #b5b5b8",
"b1 c #b5b5b9",
"aa c #b6b6b6",
"aE c #b7b7b7",
"a6 c #b7b8b8",
"b7 c #b8b6a9",
"aq c #b8b8b8",
"at c #b9aa9b",
".E c #b9b6aa",
".V c #b9b9b9",
"ar c #bab3ab",
"aU c #bababa",
"#s c #bbbab9",
"#c c #bbbbbb",
"bp c #bbbbd0",
"aK c #bbc3c3",
".U c #bcbcbc",
"bZ c #bcbcd3",
"#f c #bdbdbd",
"bw c #bdbdd2",
".C c #bebebe",
"b9 c #bfbdb1",
".t c #bfbeb5",
".6 c #bfbfbf",
"bD c #c0c0c0",
"#Y c #c17f5a",
"#H c #c1947a",
".k c #c1c0b7",
"a# c #c1c1c1",
"#Z c #c3805a",
"ad c #c3c1be",
".5 c #c3c3c3",
"an c #c4c1be",
"av c #c4c4c4",
"#3 c #c5c5c4",
"bj c #c5c5c9",
"ax c #c7c7c7",
"a4 c #c8bfb6",
"az c #c8c8c7",
".x c #c8c8c8",
".B c #c9c9c9",
".v c #cac8b9",
"bV c #cacace",
"au c #cbc1b7",
"cl c #cbc8ba",
".y c #cbcbcb",
"b5 c #cccabb",
"bE c #cccccf",
"ce c #cdcabc",
".A c #cdcdcd",
".z c #cecece",
".s c #cfcfcf",
".l c #d1d1d1",
"bY c #d1d1d7",
"a3 c #d2d0cd",
"bO c #d2d2de",
".h c #d4d1c3",
".a c #d5d2c3",
"cm c #d8d5c3",
"aO c #d8d5d2",
"cb c #d9d5c3",
"cd c #d9d6c4",
"bN c #d9d9dd",
".u c #dad7c1",
".g c #dad9d5",
".i c #dbd7c1",
".# c #dbd7c2",
"b8 c #dbd8c5",
".j c #dcd8c3",
"a2 c #dcdcdc",
"bX c #dcdcdd",
"Qt c #ddd9c3",
"cc c #dddac5",
"bW c #dddddd",
".b c #dfded9",
".f c #e4e3e3",
".c c #e6e6e5",
".d c #e9e9e9",
".e c #eaeaea",
".r c #ededed",
".m c #f2f2f2",
".q c #f6f6f6",
".o c #f7f7f7",
".n c #f8f8f8",
".p c #f9f9f9",
"Qt.#.a.b.c.d.e.d.d.e.d.d.e.d.d.e.d.d.e.d.d.e.d.d.e.f.g.h.i.i",
".j.k.l.m.n.o.p.o.o.p.o.o.p.o.o.p.o.o.p.o.o.p.o.o.p.q.r.s.t.u",
".v.w.x.y.z.A.A.A.A.A.A.A.A.A.A.A.A.A.A.A.A.A.A.A.A.z.B.C.D.E",
".F.G.H.I.J.K.J.K.K.J.K.K.J.K.K.J.J.J.J.K.K.J.K.K.J.J.J.K.L.M",
".N.O.P.Q.R.R.Q.R.R.Q.R.R.Q.Q.S.T.U.V.L.R.R.Q.R.R.Q.R.R.W.X.Y",
".Z.0.1.2.2.2.2.2.3.4.2.O.P.S.5.6.7.I.R.2.2.2.2.2.2.2.2.8.9#.",
"##.9.0.1.8.2#a#b#c.T#d#e.Q.4#f.7#g.O.X.1.1.X.1.1.X.1.8#h#i#j",
"#k#l#h.8.8.W#m#a#n.6#o#p#q#r#s#t.I#u.X.8.8.1.8.8.1.8#v#w#x#j",
"#y#z#v.X#A#a.T#g#B#C#D#E#F#G#H#I.S.V#J.X.X.X.X.X.X.X.X.0#o#K",
".Z#L#v#A.3.W#A.w#M.T#N#O#P#Q#R#S#T.C#A#J#J#A#J#J#A#J#J#v#l#.",
"#U#h.X.4.W.W#V.5#W.P#X#Y#Z#0#1.3#C.6.4.2.2.4.2.O.3.2.2.1.9#k",
"#U#v#A.O#2.P#V#3#4.0#5#6#7.W#8#9a.a#.3.3.P.G#C.6aa.W.O.X#w#y",
"ab.8.2#8ac.W#Vadaeaf.Q#w#bagahaiaja#ac.L#d.xakal.D#2.3.2#w.Y",
"am.1.4.P.R.W#Vanaoap.W#laqarasatauav#Baw#Lax.I.T#5.W#8.4.0.Z",
"ay#A#8ac.L#2#VazaAaBaCaDaEaF.G#m.5aGaHaIaJaKaLaMaM.Rac.3.8#U",
"aN#A#8.Q.L.P#V.xaOaPaQaRaSaTal.WaUaV#EaWaXaYaZ#b.V.Rac#8.8a0",
"a1.4.P#W#n#W#V.xa2a2a3a4a5#A#b#Ma6a7a8a9b.b#ba.U#f#5#5.P.1am",
"bb.3.R.L#m#u.Qa#.5#b.H.I#A#i.x#8bcbdbebfbgbh#8.C.C#m.L#2#Aam",
"bi#8.R#n#m#n.J#d#m#n#m.J#J#ibjbk#J#2blbm#8#8bnbo.6#m#m.R#AaN",
"#x.W#5#B#B#B.S#B#B.S#B#u#J#ibpbqbr.P#vakbsbtbubv.6#B#n.Q.2#V",
"#iac#m#e#e#e#e#e#e#e#eal#A#ibwbxby.2.9aUbzbAbBbCbD#e#e#W.3a1",
"#l.R#m.G.G.G#d.G.G#d.Gal#A#ibEbFbGbHbIbJbKbLbMbNa#.G#e#m#8bb",
".9.Q#B#a#d#d#a#d#d#a#d#g#A#i.zbObPbQbRbSbTbUbV.5.7#d#d#n.Wbi",
"#z#W.G.J.J.J.J.J.J.J.J#g.R#i.sbWbXbYbZb0b1#g#u.H.J.J.J.Sac#x",
"#z.L.G.H.H.H#u.H.H#u.H.H.T.G.5a##b.Ial.H.H#u.H.H#u.H.J#eac#x",
"b2#W#e.D.D.Dal.D.Dal.D.Dal.w.Ial.D.Dal.D.Dal.D.Dal.D#u#e#2.Y",
"b3.3#n.Kal.I.I.I.I.I.I.I.I.I.I.I.I.I.I.I.I.I.I.I.I.D#d#5#Jb4",
"b5b6#2#e.K.J.H.J.J.H.J.J.H.J.J.H.J.J.H.J.J.H.J.J.H#d.L.3.Zb7",
"b8b9c..2#W#m#n#m#m#n#m#m#n#m#m#n#m#m#n#m#m#n#m#m#n.R.8c#cacb",
"cccdcecfcgchcicicicicicicicicicicicicicicicicicicicjckclcmcc"};
