/* XPM */
static char *dummy[]={
"30 30 486 2",
"ai c #202020",
"ah c #212121",
"ag c #2d2d2d",
"aP c #3b2e27",
"aC c #3e352f",
"aT c #3f342e",
"aQ c #433229",
"#Y c #535353",
"az c #555555",
"bd c #5e4a3f",
"a9 c #5e5a57",
"#X c #636363",
"aD c #686868",
"a8 c #6d6d6d",
"cH c #6f5b47",
"cp c #706151",
"c2 c #706a65",
"br c #727272",
"bM c #737373",
"dn c #744d25",
"aU c #747474",
"aO c #757575",
"af c #787878",
"c1 c #794817",
"bu c #797979",
"dm c #7a4611",
"dl c #7c440c",
"aj c #7c7c7c",
"dE c #7e4103",
"c3 c #7e7e7e",
"c6 c #7f3f00",
"ak c #7f7f7f",
"cv c #804000",
"cL c #804305",
"bs c #818181",
"dF c #826446",
"bN c #828282",
"cu c #835322",
"#Z c #838383",
"ca c #845322",
"b. c #845539",
"cq c #848484",
"a7 c #858585",
"dk c #885016",
"cr c #898989",
"cM c #8a5017",
"ct c #8e7f72",
"ae c #8e8e8e",
"b8 c #8f8f8f",
"dH c #905e2c",
"cK c #906438",
"ac c #90908d",
"c# c #918b85",
"bU c #928c86",
"ax c #929292",
"cI c #939393",
"be c #949494",
"bC c #95918f",
"ad c #969696",
"bR c #97928f",
"c. c #979797",
"#W c #989898",
"dD c #996a3c",
"b7 c #999999",
"dI c #9a6b3d",
"bc c #9b603f",
"#D c #9b9b96",
"bQ c #9b9b9b",
"b# c #9c613f",
"bP c #9c9c9c",
"cG c #9e7348",
"co c #9e774e",
"aA c #9f7e6c",
"bT c #9f8f86",
"#l c #9f9f8d",
"#k c #9f9f8e",
"b9 c #9f9f9f",
"d1 c #a17850",
"#E c #a1a1a1",
"aR c #a36441",
"bS c #a38d81",
"dG c #a58f79",
"#V c #a5a59d",
"do c #a88562",
"b6 c #a8a098",
"al c #a9a9a9",
"bB c #aa8b78",
"cZ c #aaa998",
"di c #aaa999",
"a5 c #aaaa96",
"bq c #aaaa97",
"cn c #aaaa98",
"fI c #aba07a",
"am c #ababab",
"c0 c #ac8a6a",
"fd c #aca380",
"aN c #acac96",
"bO c #acacac",
"bw c #ad8a77",
"#2 c #adadad",
"fB c #aea895",
"d2 c #af8f69",
"c7 c #b09172",
"e4 c #b0a574",
"bv c #b0b0b0",
"fJ c #b3b0a7",
"eU c #b4a96e",
"ea c #b4aa6a",
"es c #b4aa6b",
"fq c #b4b1ab",
"fp c #b5a460",
"db c #b5ac67",
"dv c #b5ac68",
"cA c #b5ad65",
"cg c #b5ae64",
"bG c #b5af60",
"bj c #b5b05f",
"aw c #b5b5af",
"#j c #b5b5b1",
"#1 c #b5b5b5",
"eH c #b6aa6c",
"dR c #b6ac69",
"aI c #b6b15d",
"ar c #b6b25b",
"#p c #b6b358",
"#J c #b6b359",
"fA c #b7a564",
"cS c #b7ae66",
"b0 c #b7b062",
"aZ c #b7b25e",
"#8 c #b7b45a",
"fH c #b8a76e",
"#a c #b8b558",
"#F c #b8b8a0",
"c4 c #b8b8b8",
"c5 c #baa794",
"fD c #baac7b",
"fC c #bab39d",
"cs c #bababa",
"a6 c #bbbbbb",
"ez c #bcbba2",
"aE c #bcbcbc",
"fs c #beb081",
"fE c #c0ae70",
"fF c #c0ae71",
"fG c #c0ae72",
".O c #c0bf8c",
"#g c #c0c097",
"bA c #c1805c",
".i c #c1c1c1",
".Y c #c2c072",
".# c #c2c2c1",
".u c #c2c2c2",
"ba c #c37549",
"d0 c #c3b2a1",
"cJ c #c3bdb8",
"Qt c #c3c3c3",
"aS c #c47649",
"bx c #c47f58",
"fe c #c4ba94",
"eh c #c4c2a6",
".D c #c4c4c0",
".h c #c4c4c2",
"#i c #c5c5c5",
"dJ c #c6b6a5",
"fr c #c6c5c2",
"#O c #c6c691",
"av c #c6c6a6",
"#P c #c6c6b3",
".t c #c7c6b9",
".a c #c7c7bf",
"#R c #c7c7c3",
"dC c #cabcaf",
"#C c #cacaa3",
"bz c #cb7d50",
"#S c #ccccca",
".v c #cdcca9",
"bb c #ce7b4b",
"e5 c #cebc6f",
"dZ c #cfc5bc",
"by c #d07c4c",
"cb c #d0c8bf",
"dj c #d1c9c2",
".g c #d2d1ad",
"aB c #d3b6a6",
"d3 c #d3c8b1",
"bV c #d3d1cf",
"#U c #d3d3a8",
"bf c #d3d3d3",
"ft c #d4bf76",
"#B c #d4d496",
".j c #d4d4aa",
"ay c #d4d4d4",
"cN c #d5cfc9",
"#3 c #d5d5a8",
"ab c #d6d68a",
"#h c #d7d7d7",
"#0 c #d8d8d8",
"an c #dada9b",
"dY c #dbd9d7",
"dp c #dbd9d8",
".7 c #dbdbd6",
"ff c #dcc675",
"dK c #dcdad5",
".b c #dcdb9d",
"c8 c #dcdcdc",
"#Q c #ddddcb",
"bt c #dedede",
"fc c #dfcb73",
"fz c #e0ca7d",
"aF c #e0e0a9",
".8 c #e0e0c3",
"eV c #e1cd72",
".f c #e1e091",
"dL c #e1e1d4",
".C c #e2e064",
"ei c #e2e1ce",
".E c #e3e06f",
"d4 c #e3e0c1",
"eA c #e3e2d0",
".c c #e4e495",
"fo c #e5cf7a",
"#T c #e5e5c4",
"dM c #e6e4c7",
".6 c #e8e8af",
"ej c #e9e7bb",
"dq c #e9e8b7",
".d c #e9e995",
"bg c #e9e9b0",
"bD c #e9e9b1",
"cc c #e9e9b3",
"cw c #e9e9b4",
"c9 c #e9e9b6",
"eI c #ead574",
"eb c #ead770",
"et c #ead773",
"dw c #ead96c",
"dS c #ead96e",
"dc c #eada6b",
"cT c #eadb69",
".e c #eaea96",
"cB c #ebdc67",
"ch c #ebdd65",
"b1 c #ebde63",
"bH c #ebdf60",
"bk c #ebe05e",
"a0 c #ebe15c",
"aJ c #ebe35a",
"as c #ebe458",
"#9 c #ebe556",
".P c #ebe74f",
"eB c #ebe8bc",
"ek c #ebe9b8",
"cO c #ebeab6",
"aV c #ebebb0",
"bW c #ebebb3",
"#K c #ece654",
"#q c #ece752",
".Z c #ece84f",
"#b c #ece850",
".s c #ecec75",
"au c #ecec8f",
".5 c #ececa3",
"d5 c #edebad",
"fy c #eed886",
"e3 c #eed97a",
"fu c #efd887",
"eP c #f1eca6",
"fn c #f2db81",
"eC c #f2eda9",
"fg c #f3db82",
"fv c #f3dc8a",
"eT c #f3de7a",
"e# c #f3e074",
"er c #f3e076",
"du c #f3e270",
"da c #f3e36e",
"cz c #f3e66a",
"d6 c #f3f09f",
"#x c #f3f388",
"#y c #f3f389",
"fb c #f4dd7f",
"fw c #f4dd8a",
"eG c #f4e078",
"dQ c #f4e272",
"cR c #f4e66c",
"cf c #f4e767",
"bF c #f4e962",
"bi c #f4ea60",
"aH c #f4ec5c",
"aq c #f4ed5a",
"#o c #f4f054",
"#I c #f4f056",
"dN c #f4f19d",
"#A c #f4f482",
"e6 c #f5de7f",
"fx c #f5de8b",
"bZ c #f5e965",
"aY c #f5ec5e",
"#7 c #f5f058",
"#m c #f5f57a",
"## c #f6f252",
".N c #f6f455",
"#z c #f6f678",
"el c #f7f294",
".X c #f8f453",
".k c #f8f772",
".4 c #f8f875",
".w c #faf964",
"fm c #fbe689",
"em c #fbf58b",
"eD c #fbf591",
"d8 c #fbf786",
"d7 c #fbf78b",
".U c #fbfb65",
"#v c #fbfb6c",
"eW c #fce681",
"fh c #fce689",
"e2 c #fce782",
"eO c #fcf594",
"eE c #fcf68c",
".V c #fcfc62",
"#w c #fcfc6d",
"#G c #fcfc72",
"e7 c #fde785",
"fi c #fde98c",
"eJ c #fdea7f",
"fj c #fdeb8c",
"dT c #fdec7a",
"ec c #fdec7c",
"dd c #fdee76",
"eX c #fdee86",
"cU c #fdf074",
"eK c #fdf184",
"ci c #fdf270",
"e1 c #fdf288",
"b2 c #fdf36d",
"ed c #fdf380",
"dU c #fdf47f",
"eR c #fdf486",
"eZ c #fdf58a",
"eQ c #fdf58f",
"bl c #fdf668",
"de c #fdf67a",
"ep c #fdf682",
"eM c #fdf688",
"a1 c #fdf766",
"cV c #fdf778",
"d9 c #fdf780",
"eo c #fdf783",
"en c #fdf789",
"ey c #fdf795",
"dW c #fdf881",
"ef c #fdf883",
"eg c #fdf888",
"at c #fdf961",
"cj c #fdf974",
"ds c #fdf97d",
"dX c #fdf989",
"a. c #fdfa5f",
"b3 c #fdfa71",
"d. c #fdfa7a",
"dg c #fdfa7d",
"dh c #fdfa85",
"#r c #fdfb5b",
"cX c #fdfb7b",
"cY c #fdfb82",
"#c c #fdfc59",
"bm c #fdfc6d",
"cd c #fdfc74",
"cx c #fdfc76",
".Q c #fdfd5a",
".R c #fdfd5c",
"#d c #fdfd5d",
"#e c #fdfd5f",
".F c #fdfd61",
"#t c #fdfd62",
".L c #fdfd63",
".J c #fdfd64",
".I c #fdfd65",
".G c #fdfd66",
".3 c #fdfd67",
".9 c #fdfd68",
"#u c #fdfd69",
"#f c #fdfd6a",
"a3 c #fdfd6c",
"bo c #fdfd6e",
"#4 c #fdfd71",
"b4 c #fdfd74",
"a4 c #fdfd76",
"cl c #fdfd77",
"bp c #fdfd78",
".r c #fdfd7a",
"b5 c #fdfd7d",
"cm c #fdfd7f",
".q c #fdfd93",
".m c #fdfd9a",
".n c #fdfd9d",
"eS c #feeb81",
"fa c #feeb87",
"eu c #feec7f",
"eq c #feed7d",
"dx c #feee78",
"e. c #feee7b",
"dP c #feef79",
"dt c #fef077",
"d# c #fef175",
"cC c #fef272",
"cQ c #fef273",
"cy c #fef370",
"ce c #fef46e",
"bY c #fef56b",
"bE c #fef669",
"bh c #fef766",
"aX c #fef864",
"aG c #fef962",
"ap c #fefa60",
"#H c #fefb5c",
"#6 c #fefb5e",
"#. c #fefc58",
"#n c #fefd5a",
".W c #fefe59",
".T c #fefe5d",
"fl c #ffeb8d",
"fk c #ffec8d",
"e8 c #fff18b",
"ev c #fff383",
"f# c #fff38c",
"e9 c #fff48d",
"eY c #fff58a",
"f. c #fff58d",
"bI c #fff66b",
"dy c #fff67d",
"eF c #fff686",
"eL c #fff689",
"e0 c #fff68b",
"eN c #fff789",
"ew c #fff886",
"ex c #fff887",
"aK c #fff964",
"cD c #fff976",
"dO c #fff97f",
"dV c #fff982",
"ee c #fff984",
"dz c #fffa7f",
"dA c #fffa80",
"df c #fffb7d",
"dr c #fffb7e",
"dB c #fffb88",
"#L c #fffc5d",
"bJ c #fffc6f",
"cP c #fffc78",
"cW c #fffc7b",
"cE c #fffd79",
"cF c #fffd81",
".0 c #fffe57",
"aL c #fffe68",
"aW c #fffe6a",
"bX c #fffe71",
"ck c #fffe77",
".1 c #ffff5b",
".S c #ffff5c",
".2 c #ffff5d",
".M c #ffff5f",
"#M c #ffff61",
"#s c #ffff62",
"#5 c #ffff63",
".K c #ffff64",
"a# c #ffff66",
".H c #ffff67",
"ao c #ffff68",
"aa c #ffff69",
"#N c #ffff6a",
".B c #ffff6b",
"a2 c #ffff6c",
"bn c #ffff6e",
"bK c #ffff71",
"aM c #ffff74",
".x c #ffff79",
"bL c #ffff7a",
".y c #ffff81",
".A c #ffff84",
".z c #ffff85",
".l c #ffff8e",
".p c #ffff9e",
".o c #ffff9f",
"Qt.#.a.b.c.d.e.d.d.e.d.d.e.d.d.e.d.d.e.d.d.e.d.d.e.f.g.h.i.i",
"Qt.j.k.l.m.n.o.n.n.o.n.n.o.n.n.o.n.n.o.n.n.o.n.n.p.q.r.s.t.u",
".v.w.x.y.z.A.A.A.A.A.A.A.A.A.A.A.A.A.A.A.A.A.A.A.A.y.x.B.C.D",
".E.F.G.H.I.J.K.J.J.K.J.J.K.J.J.K.J.J.K.J.J.K.J.J.K.G.L.M.N.O",
".P.Q.R.S.R.R.S.R.R.S.R.R.S.R.R.S.R.R.S.R.R.T.U.V.S.R.R.W.X.Y",
".Z.0.1.2.2.2.2.2.2.2.2.2.2.2.2.2.2.2.3.4.5.6.7.8.9.2.S#.###a",
"#b#c#d.M#e#e.M#e#e.M#e#e.M#e#e.M.F#f#g#h#i#j#k#l#m#e#e#n#o#p",
"#q#r#e#s#t#t#s#u#v#w#x#y#u.3#z#A#B#C#D#h#E#F#G#t#s#t.F#H#I#J",
"#K#L#M.K.K.K#N#O#P#Q#R#S#T#U#V#W#X#Y#Z#0#1#2#3#4.K.K#5#6#7#8",
"#9a..La#.G.Gaaabacadadae#hafagahaiaiaj#hakalamanao.G.Iapaqar",
"asat.Iao.9#fauavaw#2amaxayazaiahaiaiaAaBaCaDaEaFaa.9.3aGaHaI",
"aJaKaL#N#NaMaN#W#2#2aeaOayazahahaPaQaRaSaTaUayaV#N#NaWaXaYaZ",
"a0a1#fa2a3a4a5aO#Wa6a7a8aya9b.b#babbbcbdaUbebfbga2a3a3bhbibj",
"bkblbmbnbobpbqbrbsbtambubvbwbxbybzbAbBbCaxbebfbDbnbobobEbFbG",
"bHbIbJbKbKbLbqbMbNbtbOaObPbQbRbSbTbebebebebUbVbWbKbKbXbYbZb0",
"b1b2b3aMb4b5bqbrbsbtb6aObQb7axb8b9c.beaxc#cacbccaMb4cdcecfcg",
"chcicjckclcmcnbrbsbtcocpbQb7cqcra6cs#WctcucvcbcwckclcxcyczcA",
"cBcCcDcEcEcFcnbMbNbtcGcHcIalbN#Wa6cJcKcLcvcMcNcOcEcEcPcQcRcS",
"cTcUcVcWcXcYcZbrbsbtc0c1c2bubMc3c4c5cvc6c6c7c8c9cWcXd.d#dadb",
"dcdddedfdgdhdibrbsbtdjdkdldmdnc3c4c5cvc6dodpc8dqdrdgdsdtdudv",
"dwdxdydzdAdBdibMbNbtbtdCdDcvdEdFdGdHdIdJdKdLdMdNdAdAdOdPdQdR",
"dSdTdUdVdWdXdibrbsbtc8c8dYdZd0d1d2d3d4d5d6d7d8dWdVdWd9e.e#ea",
"ebecedeeefegehbrbsbtc8c8bteiejekelemenefefeeefefeeeoepeqeres",
"eteuevewexexeyezbNeAeBeCeDeEexexexexexexexexexexexexeFeueGeH",
"eIeJeKeLeMeMeNeOePeQeMeMeNeMeMeNeMeMeNeMeMeNeMeMeNeMeReSeTeU",
"eVeWeXeYeZeZe0eZeZe0eZeZe0eZeZe0eZeZe0eZeZe0eZeZe0eZe1e2e3e4",
"e5e6e7e8e9f.f.f.f.f.f.f.f.f.f.f.f.f.f.f.f.f.f.f.f.f#fafbfcfd",
"fefffgfhfifjfkfjfjfkfjfjfkfjfjfkfjfjfkfjfjfkfjfjflfmfnfofpfq",
"frfsftfufvfwfxfwfwfxfwfwfxfwfwfxfwfwfxfwfwfxfwfwfxfyfzfAfBQt",
"#i.hfCfDfEfFfGfFfFfGfFfFfGfFfFfGfFfFfGfFfFfGfFfFfFfHfIfJQt#i"};
