/* XPM */
static char *dummy[]={
"30 30 581 2",
"eU c #0404fb",
"dn c #07c8c8",
"do c #09cccb",
"eV c #0c0cfb",
"fd c #0f0ffc",
"dm c #0f9595",
"eB c #1616ec",
"f. c #1919dd",
"c0 c #1f2c2b",
"#5 c #212120",
"f# c #2222cb",
"c1 c #22706f",
"#6 c #252321",
"cA c #252525",
"dO c #27e2e1",
"dp c #289292",
"#L c #2a2a2a",
"fw c #2d2de1",
"dP c #30dbdb",
"cz c #353535",
"c3 c #354949",
"fc c #3939f1",
"eP c #3a3add",
"#M c #3c3c3a",
"dl c #3d6e6e",
"c2 c #3edada",
"#K c #3f3f3e",
"cZ c #444443",
"fv c #4444f2",
"cB c #464c4b",
"eu c #4a4ac8",
"#7 c #4d3d33",
"#9 c #4f433c",
"eT c #5656e8",
"#4 c #575756",
"dQ c #5bbbbb",
"fx c #5c5cde",
"eA c #6060b9",
"dN c #62b8b8",
"fa c #65658c",
"cy c #666666",
"ap c #674531",
"ao c #675f5a",
"fy c #6867e8",
"at c #6d6965",
"eQ c #71718a",
"e9 c #7171ec",
"am c #727272",
"cs c #75522e",
"ct c #75695c",
"ef c #7575a7",
"dq c #757a79",
"a5 c #797978",
"aH c #797979",
"cr c #7b4c1c",
"b0 c #7c766f",
"e. c #7f7f7e",
"dL c #7f7f7f",
"eC c #7f7fea",
"#J c #808080",
"b2 c #818180",
"fe c #8181e9",
"eS c #828281",
"fu c #8383e9",
"bz c #858585",
"bx c #878786",
"a8 c #878787",
"cD c #878988",
"as c #885c42",
"c# c #888881",
"dR c #889696",
"ex c #898988",
"ed c #8a9695",
"bD c #8b6137",
"cU c #8b6339",
"ea c #8c8c98",
"eb c #8d8d8d",
"ev c #8d8d8e",
"bC c #8e8174",
"ak c #8e8e8e",
"aq c #8f5a3b",
"eR c #8f8f8e",
"bc c #918a82",
"eg c #9191dc",
"aQ c #929291",
"cT c #936331",
"bZ c #936b42",
"bw c #937557",
"dS c #939392",
"bb c #939393",
"ee c #939c9b",
"aP c #948b85",
"ba c #949493",
"b1 c #949494",
"c. c #95947f",
"aK c #959594",
"ew c #959595",
"b. c #96908d",
"dj c #96938b",
"ec c #969696",
"#O c #979795",
"#u c #98988d",
"dM c #989b9b",
"by c #999999",
"b# c #9a9591",
"a9 c #9a9a99",
"fr c #9b967b",
"eN c #9b977c",
"d9 c #9b987d",
"dK c #9b9980",
"aJ c #9b9b9b",
"a7 c #9d9b98",
"cx c #9d9d9d",
"#H c #9e9e9d",
"ar c #9f6340",
"#2 c #9f9f9e",
"a. c #a0a0a0",
"ez c #a1a1ae",
"cw c #a2a2a2",
"#G c #a4a4a4",
"cV c #a7a19b",
"aL c #a88d7e",
"fM c #a8a27e",
"cv c #a8a6a4",
"cQ c #a9a782",
"bX c #a9a884",
"bB c #a9a8a6",
"dE c #aaa787",
"bu c #aaa885",
"aG c #aaaa87",
"cX c #aaaaaa",
"bE c #ab8a69",
"co c #aba985",
"aj c #abab88",
"cb c #acacaa",
"#1 c #acacab",
"#P c #adadaa",
"al c #adadad",
"gC c #ae9b59",
"gO c #af8808",
"cW c #afadac",
"cE c #afafac",
"g0 c #b08808",
"ha c #b0984e",
"bd c #b09e8b",
"#t c #b0b090",
"#w c #b0b0ae",
"bA c #b0b0b0",
"aO c #b1856c",
"an c #b1b1b1",
"cS c #b29678",
"cq c #b3977a",
"b5 c #b39d88",
"f8 c #b3ac86",
"dd c #b3af84",
"au c #b3b3b2",
"#F c #b4b493",
"#3 c #b4b4b3",
"aR c #b4b4b4",
"eW c #b4b4e3",
"ey c #b5b5b5",
"fb c #b5b5b8",
"gs c #b69d42",
"bK c #b6b6b3",
"gf c #b79c31",
"fG c #b79e36",
"fk c #b79f38",
"eH c #b7a33c",
"em c #b7a53e",
"fz c #b7b4cf",
"cu c #b7b7b7",
"dk c #b7b8b7",
"h# c #b89425",
"fZ c #b89e34",
"e1 c #b8a33a",
"dx c #b8a742",
"c9 c #b8a845",
"ci c #b8ab49",
"bR c #b8ad4b",
"aZ c #b8b04f",
"aA c #b8b151",
"#T c #b8b456",
"#A c #b8b657",
"b3 c #b8b8b7",
"dY c #b9a740",
"b6 c #b9aa9b",
"cK c #b9ab47",
"g1 c #b9ad81",
"bo c #b9af4d",
"ae c #b9b453",
"b4 c #bab3ab",
"#h c #bab859",
"cY c #babab9",
"g6 c #bb9d3f",
"#N c #bbbab9",
"et c #bbbbd0",
"cC c #bbc3c3",
"b9 c #bcba88",
"#0 c #bcbcac",
"dr c #bcbcbc",
"#v c #bdbdbd",
"eO c #bdbdd1",
"h. c #be9514",
"g9 c #be9614",
"g7 c #be9719",
"dT c #bebebe",
"g8 c #bf9614",
"#I c #bfbfbf",
"aM c #c17f5a",
"#8 c #c1947a",
"gP c #c1bca3",
"#b c #c1c1be",
"#c c #c2c2a6",
"aN c #c3805a",
"bv c #c3c1be",
"aI c #c3c3c3",
"bY c #c4c1bd",
"gR c #c5a743",
"hb c #c5bfa5",
".5 c #c5c36e",
"a6 c #c5c5c4",
"e# c #c5c5c8",
"ca c #c7c7c6",
"g5 c #c8b985",
"bL c #c8c694",
"cp c #c8c8c7",
"de c #c8c8c8",
".R c #cac787",
"b7 c #cbc1b7",
"e8 c #ccccce",
"#s c #cdcd8f",
"gt c #cea61c",
"gD c #ceb96f",
"fs c #cececd",
"gS c #cfa10e",
"#a c #cfcfbd",
"bJ c #cfcfc3",
"fN c #cfcfcf",
"ft c #d2d2de",
"#d c #d3d39a",
"fQ c #d5ccac",
"b8 c #d6d5b7",
"dF c #d7d3a8",
"gE c #d8a90b",
"hc c #d8d5c3",
"cR c #d8d5d1",
"#x c #d8d899",
"di c #d9cda5",
"g4 c #d9d5c2",
"g2 c #d9d5c3",
"#Z c #d9d98b",
"ff c #d9d9dc",
"bI c #dad77d",
"gQ c #dbd6c1",
".i c #dbd7c1",
".v c #dbd7c2",
"cc c #dbd890",
".# c #dbd8c1",
"gZ c #dcac0f",
".G c #dcd8c0",
"dh c #dcd8c3",
"bM c #dcd984",
".u c #dcd9b4",
"df c #dcdcdc",
"gB c #ddae0c",
".j c #ddd9c2",
"Qt c #ddd9c3",
"g3 c #dddac5",
"dg c #dddcdb",
"fO c #dddddd",
".h c #dedac3",
".w c #dfdba4",
"gg c #e0b20f",
"fP c #e0dabf",
".a c #e0dcbb",
"f9 c #e1d491",
"#p c #e1e1ab",
"gN c #e3b20c",
"fR c #e3d074",
".k c #e4e298",
"#Q c #e4e48f",
"fA c #e5dba6",
".H c #e6e363",
".g c #e6e3a1",
"bi c #e6e5a6",
"a# c #e7e7a3",
".F c #e9e661",
"f0 c #eabc12",
"fH c #eabf15",
"fl c #eac119",
"e2 c #eac31c",
"eI c #eac620",
"en c #eac823",
"dZ c #eacb27",
"## c #eaea7e",
"#n c #eaea87",
"dy c #ebcd2a",
"d. c #ebcf2e",
"cL c #ebd230",
"cj c #ebd434",
"bS c #ebd637",
"bp c #ebd83a",
"a0 c #ebdb3e",
"aB c #ebde42",
"af c #ebe045",
"cF c #ebe57b",
".S c #ebe74f",
"gT c #ecb915",
"#U c #ece349",
"#B c #ece54c",
"#i c #ece74e",
".6 c #ece84f",
"gY c #edba15",
"gr c #edbd10",
"bF c #edeba2",
"#o c #eded96",
".0 c #eded9c",
"aS c #ededa4",
"av c #ededa5",
"fB c #eedf84",
".b c #eeec99",
"be c #eeeda3",
"#r c #eeee84",
"bj c #eeee92",
"dG c #efe794",
"c4 c #efe889",
"#q c #efef98",
".f c #f0ee94",
".1 c #f0f096",
"gM c #f1be0f",
"dD c #f1e45a",
".c c #f1f098",
"gF c #f2be0f",
"gU c #f2be17",
"gV c #f2bf17",
"f7 c #f2d746",
"fg c #f2e37c",
"eX c #f2e480",
"eD c #f2e682",
"eh c #f2e884",
"dU c #f2e987",
"ds c #f2ea88",
"gu c #f3c00e",
"gA c #f3c00f",
"gX c #f3c017",
"ge c #f3c414",
"fF c #f3c91a",
"fj c #f3cb1e",
"eG c #f3cf25",
"el c #f3d229",
"dw c #f3d731",
"c8 c #f3d933",
".d c #f3f295",
"gW c #f4c017",
"fY c #f4c817",
"e0 c #f4ce22",
"dX c #f4d62d",
"fS c #f4dc56",
"ch c #f4de3a",
"g. c #f4de6d",
"bQ c #f4e03e",
"aY c #f4e645",
"az c #f4e949",
"#S c #f4ee50",
"#z c #f4f052",
".t c #f4f371",
"bh c #f4f38b",
".e c #f4f396",
"cJ c #f5dd36",
"bn c #f5e441",
"ad c #f5ec4d",
"#g c #f6f252",
"dH c #f7ea65",
".Q c #f7f455",
"bH c #f8f35d",
".4 c #f8f453",
"bg c #f9f76b",
".Z c #f9f984",
"g# c #fadb37",
"d5 c #fae948",
"#E c #fafa6a",
"gL c #fbc713",
"gG c #fbc813",
"gh c #fbc912",
"gn c #fbd827",
"d6 c #fbe940",
"dI c #fbec4f",
".x c #fbfa5e",
".Y c #fbfb69",
".l c #fbfb76",
"gv c #fcc911",
"gq c #fccb13",
"ga c #fcda27",
"fT c #fcde31",
"fC c #fce13e",
"bN c #fcf74e",
"#m c #fcfc64",
"#y c #fcfc66",
"#e c #fcfc6b",
"gH c #fdcb14",
"gz c #fdcc11",
"gI c #fdcc14",
"f1 c #fdce15",
"gi c #fdd114",
"fm c #fdd31c",
"gp c #fdd416",
"f2 c #fdd518",
"e3 c #fdd620",
"gk c #fdd717",
"gc c #fdd819",
"go c #fdd81d",
"f4 c #fdda1a",
"f6 c #fdda1b",
"fn c #fdda1f",
"e4 c #fddc23",
"eo c #fddc29",
"fD c #fddd21",
"fp c #fdde21",
"d0 c #fdde2d",
"fh c #fddf24",
"e6 c #fde025",
"fq c #fde137",
"ep c #fde32b",
"d# c #fde333",
"e7 c #fde33a",
"eE c #fde52c",
"cM c #fde536",
"d1 c #fde630",
"er c #fde72d",
"ej c #fde831",
"es c #fde941",
"ei c #fdea31",
"d3 c #fdea32",
"d4 c #fdea33",
"da c #fdea36",
"bT c #fdea3d",
"d8 c #fdeb46",
"cN c #fdec39",
"du c #fded38",
"bq c #fded41",
"dt c #fdee39",
"c6 c #fdef3b",
"dc c #fdef40",
"dJ c #fdef55",
"c5 c #fdf13c",
"bU c #fdf141",
"cP c #fdf144",
"aC c #fdf34a",
"cf c #fdf442",
"br c #fdf445",
"ce c #fdf543",
"ag c #fdf54e",
"bO c #fdf647",
"bW c #fdf64a",
"cd c #fdf64d",
"bt c #fdf84f",
"aD c #fdf94d",
"#C c #fdfa55",
"ah c #fdfb51",
"#j c #fdfb57",
"aW c #fdfc4e",
"aT c #fdfd4f",
"aU c #fdfd50",
"ax c #fdfd53",
"aw c #fdfd54",
"aF c #fdfd57",
"#D c #fdfd58",
".T c #fdfd5a",
"#k c #fdfd5b",
".U c #fdfd5c",
"#l c #fdfd5d",
".X c #fdfd5e",
".I c #fdfd61",
".N c #fdfd62",
".L c #fdfd63",
".J c #fdfd65",
"#. c #fdfd66",
".s c #fdfd7e",
".r c #fdfd95",
".n c #fdfd9c",
".o c #fdfd9f",
"gK c #fecd14",
"gd c #fed017",
"fI c #fed218",
"fX c #fed21a",
"fE c #fed41e",
"fi c #fed621",
"eJ c #feda24",
"eZ c #feda26",
"gb c #fedb20",
"eF c #fedc29",
"fV c #fede20",
"fU c #fede25",
"ek c #fedf2d",
"fL c #fedf2f",
"dW c #fee131",
"dz c #fee230",
"dv c #fee435",
"c7 c #fee638",
"eM c #fee63e",
"cI c #fee93b",
"cg c #feeb3f",
"bP c #feed43",
"bm c #fef046",
"aX c #fef24a",
"cn c #fef547",
"ay c #fef64e",
"ac c #fef852",
"#R c #fefa56",
"bf c #fefb52",
"bk c #fefc4f",
"a4 c #fefc53",
"#f c #fefc58",
"aV c #fefe52",
".3 c #fefe59",
"#Y c #fefe5a",
".2 c #fefe61",
"gJ c #ffcd14",
"gw c #ffd213",
"gy c #ffd413",
"gx c #ffd613",
"gj c #ffd816",
"gl c #ffd817",
"gm c #ffd818",
"fJ c #ffd91b",
"f3 c #ffda1a",
"f5 c #ffdb1a",
"fW c #ffdc1d",
"fK c #ffdd1d",
"fo c #ffdf21",
"e5 c #ffe125",
"eK c #ffe128",
"eY c #ffe329",
"eL c #ffe529",
"eq c #ffe82d",
"dA c #ffe933",
"ck c #ffe93a",
"d2 c #ffeb31",
"d7 c #ffeb32",
"dV c #ffec35",
"dB c #ffed35",
"dC c #ffee36",
"db c #ffef39",
"cl c #fff03d",
"cO c #fff13c",
"a1 c #fff146",
"cH c #fff33f",
"cm c #fff43f",
"cG c #fff540",
"bV c #fff643",
"a2 c #fff849",
"bs c #fff947",
"bG c #fff94e",
"#V c #fff951",
"bl c #fffa4b",
"a3 c #fffc4c",
"aE c #fffe4f",
"#W c #fffe54",
".7 c #fffe57",
"ai c #ffff54",
"ab c #ffff56",
"#X c #ffff57",
"aa c #ffff58",
".8 c #ffff5b",
".W c #ffff5c",
".V c #ffff5d",
".9 c #ffff5e",
".P c #ffff5f",
".M c #ffff61",
".O c #ffff62",
".K c #ffff65",
".E c #ffff6a",
".D c #ffff76",
".y c #ffff77",
".z c #ffff7d",
".C c #ffff7e",
".B c #ffff80",
".A c #ffff81",
".m c #ffff91",
".q c #ffff9f",
".p c #ffffa0",
"Qt.#.a.b.c.d.e.d.d.e.d.d.e.d.d.e.d.d.e.d.d.e.d.d.e.f.g.h.i.i",
".j.k.l.m.n.o.p.o.o.p.o.o.p.o.o.p.o.o.p.o.o.p.o.o.q.r.s.t.u.v",
".w.x.y.z.A.B.B.B.B.B.B.B.B.B.B.B.B.B.B.B.B.B.B.B.B.C.D.E.F.G",
".H.I.J.K.L.I.M.I.I.M.I.I.M.I.I.M.N.N.M.I.I.M.I.I.O.L.N.P.Q.R",
".S.T.U.V.U.U.W.U.U.W.U.U.W.X.Y.Z.0.1.2.U.U.W.U.U.W.U.U.3.4.5",
".6.7.8.V.V.V.V.V.2.9.V.P#.###a#b#c#d#e.V.V.V.V.V.V.V.V#f#g#h",
"#i#j#k.V#l#m#n#o#p#q#r#s#t#u#v#w#x#y.V#l#l.V#l#l.V#l.U#f#z#A",
"#B#C#D.8#k#E#F#G#H#I#J#K#L#M#N#O#P#Q.W#k#k.8#k#k.8#k.T#R#S#T",
"#U#V#W#X#Y#Z#0#1#2#3#4#5#6#7#8#9a.a#aa#X#X#X#X#X#X#Xabacadae",
"afagahai#kajakalamanaoapaqarasatauavaiawawaiawawaiawaxayazaA",
"aBaCaDaEaFaGaHaIaJaKaLaMaNaOaPaQaRaSaEaTaTaEaUaxaVaTaWaXaYaZ",
"a0a1a2a3a4aGa5a6a7a8a9b.b#babbbcbdbea3a3bfbgbhbibjbkblbmbnbo",
"bpbqbrbsbtbuaHbvbwbxbybzbAbBbCbDbEbFbGbHbIbJbKbLbMbNbObPbQbR",
"bSbTbUbVbWbXa5bYbZb0b1b2b3b4b5b6b7b8b9c.c#cacbcccdcecfcgchci",
"cjckclcmcncoaHcpcqcrcsctcucvcwcxaIcyczcAcBcCcDcEcFcGcHcIcJcK",
"cLcMcNcOcPcQa5cpcRcScTcUcVcWcXb1cYcZ#5c0c1c2c3bAc4c5c6c7c8c9",
"d.d#dadbdcddaHdedfdgdhdidjakbAamdkdldmdndodpdqdrdsdtdudvdwdx",
"dydzdAdBdCdDdEdFdGdHdIdJdKdLcpbbdMdNdOdPdQdRdSdTdUdBdVdWdXdY",
"dZd0d1d2d3d4d5d6d3d7d3d8d9e.e#eaebecedeedSbbefegeheiejekelem",
"eneoepeqerereqerereqeresd9e.eteuevewexeyezeAeBeCeDereEeFeGeH",
"eIeJeKeLeLeLeLeLeLeLeLeMeNe.eOePeQeReScYeTeUeVeWeXeLeYeZe0e1",
"e2e3e4e5e6e6e5e6e6e5e6e7eNe.e8e9f.f#fafbfcfdfefffge6fhfifjfk",
"flfmfnfofpfpfofpfpfofpfqfre.fsftfufvfwfxfyfzfAfBfCfpfDfEfFfG",
"fHfIfJfKfKfKfKfKfKfKfKfLfMe.fNfOdffPfQfRfSfTfUfVfKfKfWfXfYfZ",
"f0f1f2f3f4f4f5f4f4f5f4f6f7f8f9g.g#gagbf6f4f5f4f4f5f4gcgdgegf",
"ggghgigjgkgkglgkgkglgkgkgmgngoglgkgkglgkgkglgkgkglgkgpgqgrgs",
"gtgugvgwgxgxgxgxgxgxgxgxgxgxgxgxgxgxgxgxgxgxgxgxgxgygzgAgBgC",
"gDgEgFgGgHgIgJgIgIgJgIgIgJgIgIgJgIgIgJgIgIgJgIgIgKgLgMgNgOgP",
"gQgRgSgTgUgVgWgVgVgWgVgVgWgVgVgWgVgVgWgVgVgWgVgVgXgYgZg0g1g2",
"g3g4g5g6g7g8g8g8g8g8g8g8g8g9g9g9g9g9g9g9g9g9g9g9h.h#hahbhcg3"};
