/* XPM */
static char *dummy[]={
"30 30 499 2",
"dq c #0000fd",
"cU c #0000ff",
"bA c #00fdfd",
"bV c #00ffff",
"bz c #02eeee",
"bf c #02f0f0",
"dX c #0303f8",
"d. c #0505fa",
"be c #08c6c6",
"bB c #09bcbc",
"by c #09bdbd",
"bW c #09f7f7",
"dE c #0c0ceb",
"bx c #0d9f9f",
"dF c #1111e1",
"dD c #1616fa",
"dl c #1717da",
"d# c #1717fb",
"bU c #19ebeb",
"bd c #1a4c4c",
"bc c #1c4242",
"aA c #202020",
"az c #212121",
"bX c #21e5e5",
"cT c #2222e5",
"cz c #2222e6",
"bg c #244646",
"dG c #2525c2",
"aY c #274343",
"d0 c #2c2cf3",
"ay c #2d2d2d",
"bC c #2d6969",
"c9 c #3838e8",
"dW c #3c3cf6",
"d1 c #3d3df6",
"dY c #4646bd",
"c6 c #474796",
"c5 c #4848f4",
"cN c #4e4eee",
"aW c #4eb1b1",
"ei c #5050f3",
"cO c #51518e",
"ad c #535353",
"bw c #536060",
"aV c #555555",
"bT c #57c1c1",
"bY c #5cbcbc",
"dH c #6262ef",
"ac c #636363",
"dm c #65657c",
"aZ c #686868",
"dk c #6a6aee",
"bv c #6d6d6d",
"cf c #6db0b0",
"ej c #6f69e3",
"bO c #727272",
"cS c #7272ab",
"dr c #7272ee",
"c# c #737373",
"bh c #747474",
"bb c #757575",
"ax c #787878",
"cg c #78a8a8",
"bR c #797979",
"dZ c #7979d1",
"aB c #7c7c7c",
"dn c #7e7e7e",
"aC c #7f7f7f",
"bP c #818181",
"ca c #828282",
"ae c #838383",
"cP c #848484",
"bu c #858585",
"cy c #85859c",
"ch c #86869d",
"cQ c #898989",
"fN c #8a582e",
"ce c #8a9a9a",
"bZ c #8b9898",
"aX c #8ce3e3",
"fC c #8e582d",
"aw c #8e8e8e",
"cv c #8f8f8f",
"au c #908e8c",
"aT c #929292",
"c7 c #939393",
"bD c #949494",
"dp c #9494df",
"av c #969696",
"cx c #979797",
"ab c #989898",
"ct c #9898b8",
"cu c #999999",
"#R c #9b9894",
"cd c #9b9b9b",
"fg c #9c724d",
"cc c #9c9c9c",
"fU c #9d7d62",
"fr c #9d8571",
"fG c #9f5d25",
"fT c #9f795b",
"#w c #9f9387",
"#v c #9f9488",
"cw c #9f9f9f",
"fS c #a07c5e",
"eV c #a16839",
"eJ c #a16939",
"e8 c #a16c3e",
"#S c #a1a1a1",
"eh c #a1a1e5",
"et c #a2693a",
"fV c #a4907f",
"e. c #a56a3a",
"dO c #a56b3a",
"aa c #a5a09a",
"d2 c #a5a5e6",
"fM c #a65e22",
"dy c #a66c3b",
"ee c #a7998d",
"dU c #a79a8d",
"ft c #a85c1c",
"de c #a86d3b",
"c0 c #a86e3b",
"fR c #a88a72",
"cM c #a89a8e",
"cs c #a99a8e",
"c. c #a99b8e",
"aD c #a9a9a9",
"fh c #aa6934",
"cF c #aa6f3b",
"bs c #aa9b8e",
"aE c #ababab",
"ba c #ac9c8d",
"cb c #acacac",
"cl c #ad703c",
"b4 c #ad713c",
"ah c #adadad",
"bJ c #af723c",
"dV c #afafe4",
"fq c #b05e1a",
"fF c #b0947e",
"bS c #b0b0b0",
"a6 c #b1733c",
"aK c #b2753d",
"fO c #b2aca7",
"fB c #b4621d",
"an c #b4753d",
"#Y c #b4763e",
"#B c #b5773e",
"aS c #b5b1ad",
"#u c #b5b3b0",
"ag c #b5b5b5",
"e9 c #b6611a",
"fH c #b76929",
"eO c #b7a08d",
"#j c #b8793f",
"#T c #b8a898",
"do c #b8b8b8",
"c8 c #b8b8ce",
"fs c #b9a08b",
"fL c #ba6c2a",
".6 c #ba804c",
"cR c #bababa",
"fQ c #bbb2ab",
"fD c #bbb9b7",
"fW c #bbb9b8",
"bt c #bbbbbb",
"a0 c #bcbcbc",
"eg c #bcbce1",
"ek c #bdb1cb",
"ey c #bea590",
"cA c #bfbfe1",
"fI c #c0702c",
"#r c #c0a68b",
".T c #c1936a",
".k c #c1c1c1",
"fJ c #c2722d",
".I c #c2b8af",
".# c #c2c1c0",
".j c #c2c2c1",
".x c #c2c2c2",
"dC c #c2c2e0",
"ff c #c3691d",
"fA c #c36c22",
"fu c #c36d23",
"fK c #c3722d",
".l c #c3c1c0",
"Qt c #c3c3c3",
"eW c #c4691d",
"fP c #c4c4c4",
"fi c #c56a1e",
"fE c #c5c5c4",
"#t c #c5c5c5",
"fp c #c66b1f",
"#5 c #c6a27f",
"aR c #c6af9a",
"#6 c #c6b9ad",
"eK c #c76a1d",
"#8 c #c7c5c2",
"eu c #c96c1e",
"da c #c9c9e1",
"#Q c #cab197",
"e# c #cb6e1e",
"e7 c #cc6f1f",
"#9 c #cccbc9",
"dP c #cd701f",
"fz c #cd7427",
".i c #cdc2b8",
"fv c #ce7327",
".w c #ceaf92",
"dz c #cf701f",
"ci c #cfcfd7",
"fj c #d07121",
"eI c #d07220",
"f. c #d1711f",
"df c #d17120",
"fw c #d17629",
"fx c #d17728",
"fe c #d27221",
"fo c #d27323",
"fy c #d27728",
"c1 c #d37320",
"es c #d37420",
"a# c #d3b699",
"bE c #d3d3d3",
".y c #d4a67a",
"#P c #d4ab82",
"aU c #d4d4d4",
"cG c #d57421",
"ai c #d5b698",
"d9 c #d67521",
"at c #d6a06e",
".a c #d6bc9d",
"eX c #d77521",
"cm c #d77621",
"dN c #d77622",
"#s c #d7d7d7",
"ef c #d7d7df",
"d3 c #d8d5da",
"af c #d8d8d8",
"dI c #d8d8de",
"f# c #d97622",
"e6 c #d97623",
"dx c #d97722",
"fk c #d97725",
"b5 c #da7722",
"aF c #daad84",
"el c #dac0b1",
"eL c #db7721",
"eU c #db7823",
"fn c #db7825",
"#d c #dbd8d5",
"bK c #dc7922",
"ds c #dcdcdc",
"eH c #dd7923",
"fd c #dd7924",
"fl c #dd7925",
"cZ c #dd7a23",
"#7 c #ddd1c5",
"fm c #de7925",
"ea c #de7a22",
"eY c #de7a24",
"bm c #de7b23",
"ez c #decdbe",
"bQ c #dedede",
"er c #df7b24",
"cE c #df7c24",
"e3 c #df9e67",
"eP c #dfcec0",
"d4 c #dfd4ca",
"fa c #e07a24",
"fb c #e07a25",
"a7 c #e07c23",
"a1 c #e0b894",
"eQ c #e0b895",
"#e c #e0cebb",
"fc c #e17a25",
"d8 c #e17c24",
"e5 c #e17c25",
"eA c #e1b998",
"d5 c #e1c8b1",
"dQ c #e27c23",
"eM c #e27c24",
"aL c #e27d24",
"e0 c #e27d25",
"eR c #e2a36d",
"eB c #e2b791",
"eZ c #e37c26",
"ck c #e37d24",
"ev c #e37d25",
"e1 c #e37d26",
"e4 c #e38433",
"e2 c #e3893c",
".m c #e3a362",
"em c #e3ad7f",
"dJ c #e3ba95",
"dM c #e47e25",
"dt c #e4ba95",
"dg c #e57e24",
"b3 c #e57f24",
"ao c #e57f25",
"eT c #e58532",
"eS c #e58a3b",
"a. c #e5cfba",
"dw c #e67f25",
"eG c #e67f26",
".J c #e68930",
"eC c #e69149",
"en c #e69f62",
"cV c #e6bb96",
"db c #e6bc97",
"bI c #e77f25",
"#Z c #e78025",
"eD c #e78837",
"eN c #e78e41",
"cB c #e7bc96",
"c2 c #e88025",
"dd c #e88026",
"eq c #e88027",
"d6 c #e89f5f",
".h c #e8b676",
"#c c #e8c59f",
"cH c #e98025",
"dR c #e98026",
"ew c #e98027",
"eF c #e98127",
"#C c #e98226",
"ex c #e98530",
"eE c #e98630",
"ep c #e98732",
"b0 c #e9bd96",
"bF c #e9be97",
"bl c #ea8126",
"ec c #ea8127",
"cY c #ea8227",
"#k c #ea8326",
"eo c #ea8b39",
"a5 c #eb8126",
"eb c #eb8227",
".U c #eb8526",
".H c #eb8929",
"ed c #eb8935",
"bi c #ebbf98",
"cn c #ec8226",
"dh c #ec8227",
"d7 c #ec8228",
"cD c #ec8327",
".7 c #ec8426",
"aQ c #eca96c",
"#b c #ecbf8f",
"dL c #ed8228",
"aJ c #ed8327",
"dS c #ed8328",
"dT c #ed8428",
"dA c #ee8428",
"cj c #ef8427",
"dv c #ef8428",
"c3 c #ef8527",
"dK c #ef8528",
"dB c #ef8c36",
"b6 c #f08526",
"am c #f08527",
"cI c #f08528",
"bL c #f18527",
"di c #f18529",
"#X c #f18628",
"du c #f18629",
"dj c #f18d37",
"b2 c #f28628",
"dc c #f28629",
".b c #f2bc6b",
"cX c #f38629",
"#A c #f38728",
"co c #f38729",
"#K c #f3ad66",
"#L c #f3ad68",
"bn c #f48727",
"bH c #f48828",
"cK c #f48829",
"c4 c #f48f37",
"#O c #f4aa5e",
"cC c #f5882a",
"#i c #f58928",
"cJ c #f5892a",
"cL c #f58f37",
"#x c #f5a756",
"bk c #f68929",
"cW c #f6892a",
".5 c #f68a28",
"#N c #f6a24f",
".g c #f6b652",
"a8 c #f78928",
"cq c #f7892a",
"b7 c #f78a29",
"cr c #f79138",
"aM c #f88928",
"a4 c #f88a2a",
"cp c #f88b2a",
".S c #f88e2a",
"#a c #f8a651",
".v c #f9a138",
".c c #f9bd52",
"ap c #fa8b29",
"bo c #fa8b2a",
"aI c #fa8c2b",
"b1 c #fb8c2b",
"b8 c #fb8d2b",
"#I c #fb9c3f",
".1 c #fb9e3c",
".d c #fbc050",
"#0 c #fc8d29",
"al c #fc8d2b",
"bG c #fc8d2c",
"b9 c #fc9439",
".2 c #fc9c38",
"#J c #fc9e3f",
"#U c #fca045",
"#D c #fd8e2a",
"aN c #fd8e2b",
"bq c #fd8e2c",
"#l c #fd8f2b",
"#W c #fd8f2c",
"a3 c #fd8f2d",
"#z c #fd902c",
"aH c #fd912e",
"ar c #fd922e",
"aP c #fd9230",
".V c #fd932b",
"#E c #fd932d",
"#m c #fd942e",
"#V c #fd952f",
"bN c #fd9539",
".W c #fd962d",
"#y c #fd962f",
"br c #fd963a",
".3 c #fd972f",
".Y c #fd982f",
"#o c #fd9830",
"#p c #fd9933",
"#M c #fd9936",
".O c #fd9a30",
".N c #fd9b31",
".K c #fd9b32",
"#H c #fd9b39",
".Q c #fd9c32",
"aj c #fd9d40",
".L c #fd9e34",
"## c #fd9f3d",
"#q c #fd9f3f",
"#f c #fda03f",
".z c #fda135",
".n c #fdbb4c",
".f c #fdc04f",
".e c #fdc150",
".u c #fdc556",
".t c #fdd768",
".p c #fddd6d",
".q c #fdde6d",
"bM c #fe8e2c",
"bj c #fe8f2d",
"#h c #fe912c",
".4 c #fe922c",
".0 c #fe9a31",
"bp c #ff8f2c",
"a9 c #ff902d",
"b. c #ff902e",
".8 c #ff912b",
"#1 c #ff922c",
"aO c #ff922d",
"a2 c #ff922f",
"aq c #ff932e",
"ak c #ff942e",
"#2 c #ff952e",
"#3 c #ff952f",
"aG c #ff9531",
".9 c #ff962e",
"as c #ff9633",
"#F c #ff972f",
"#G c #ff9730",
"b# c #ff973a",
"#g c #ff982f",
"#n c #ff9830",
".X c #ff992f",
".R c #ff9930",
"#4 c #ff9937",
".Z c #ff9a2f",
"#. c #ff9a30",
".P c #ff9b30",
".M c #ff9f34",
".G c #ffa53b",
".F c #ffb043",
".A c #ffb344",
".B c #ffb647",
".D c #ffb84a",
".E c #ffb94a",
".C c #ffba4b",
".o c #ffd866",
".s c #ffdf6d",
".r c #ffdf6e",
"Qt.#.a.b.c.d.e.d.d.e.d.d.e.d.d.e.d.d.e.d.d.e.d.d.f.g.h.i.j.k",
".l.m.n.o.p.q.r.q.q.r.q.q.r.q.q.r.q.q.r.q.q.r.q.q.s.t.u.v.w.x",
".y.z.A.B.C.D.D.D.D.D.D.D.D.D.D.D.D.D.D.D.D.D.D.D.E.D.F.G.H.I",
".J.K.L.M.N.O.P.O.O.P.O.O.P.O.O.P.O.O.P.O.O.P.O.O.P.Q.N.R.S.T",
".U.V.W.X.Y.Y.Z.Y.Y.Z.Y.Y.Z.Y.Y.Z.Y.Y.Z.Y.Y.0.1.2.Z.Y.3.4.5.6",
".7.8.9.R#.#.#.#.#.#.#.#.#.#.#.#.#.#.###a#b#c#d#e#f#.#g#h#i#j",
"#k#l#m#n#o#o.R#o#o.R#o#o.R#o#o.R#p#q#r#s#t#u#v#w#x#o#y#z#A#B",
"#C#D#E#F#y#y#G#H#I#J#K#L#H#M#N#O#P#Q#R#s#S#T#U#y#G#y#V#W#X#Y",
"#Z#0#1#2#3#3#4#5#6#7#8#9a.a#aaabacadaeafagahaiaj#3#3akalaman",
"aoap#Waqararasatauavavaw#saxayazaAaAaB#saCaDaEaFaGaraHaIaJaK",
"aLaMaNaOaHaPaQaRaSahaEaTaUaVaAazaAaAaWaXaYaZa0a1a2aHa3a4a5a6",
"a7a8aNa9b.b#baabahahawbbaUaVazazbcbdbebfbgbhaUbib.b.bjbkbla6",
"bmbnbobpbqbrbsbbabbtbubvaUbwbxbybzbAbBbCbhbDbEbFbpbqbGbHbIbJ",
"bKbLa4bMalbNbsbObPbQaEbRbSbTbUbVbWbXbYbZaTbDbEb0bMalb1b2b3b4",
"b5b6b7b8b8b9c.c#cabQcbbbcccdcecfcgbDbDbDbDchcibFb8b8bocjckcl",
"cmcncocpcqcrcsbObPbQctbbcdcuaTcvcwcxbDaTcyczcAcBcpcqcCcDcEcF",
"cGcHcIcJcKcLcMbObPbQcNcOcdcucPcQbtcRabcScTcUcAcVcWcKcXcYcZc0",
"c1c2c3cococ4cMc#cabQc5c6c7aDcaabbtc8c9d.cUd#dadbcKcodcddbKde",
"dfdgdhdicIdjcMbObPbQdkdldmbRc#dndodpcUdqdqdrdsdtducIdvdwdxdy",
"dzckbldvdAdBcMbObPbQdCdDdEdFdGdndodpcUdqdHdIdsdJdKdAdLdMdNdO",
"dPdQdRdSdTdBdUc#cabQbQdVdWcUdXdYdZd0d1d2d3d4d5d6dAdTd7d8d9e.",
"e#eaaoebecedeebObPbQdsdsefegeheiejekelemeneoepecebeceqereset",
"eubKevewddexeybObPbQdsdsbQezeAeBeCeDeEddddeFddddeFddeGeHeIeJ",
"eKeLeMeGeGeGeNeOcaePeQeReSeTeGeGeGeGeGeGeGeGeGeGeGeGdMeUdzeV",
"eWeXeYeZe0e0e1e2e3e4e0e0e1e0e0e1e0e0e1e0e0e1e0e0e1e0e5e6e7e8",
"e9f.f#fafbfbfcfbfbfcfbfbfcfbfbfcfbfbfcfbfbfcfbfbfcfbfdfefffg",
"fhfifjfkflfmfmfmfmfmfmfmfmfmfmfmfmfmfmfmfmfmfmfmfmfnfofpfqfr",
"fsftfufvfwfxfyfxfxfyfxfxfyfxfxfyfxfxfyfxfxfyfxfxfyfzfAfBfCfD",
"fEfFfGfHfIfJfKfJfJfKfJfJfKfJfJfKfJfJfKfJfJfKfJfJfJfLfMfNfOQt",
"#tfPfQfRfSfTfTfTfTfTfTfTfTfTfTfTfTfTfTfTfTfTfTfTfTfUfVfWfP#t"};
