/* XPM */
static char *dummy[]={
"30 30 576 2",
"eU c #0404fb",
"dt c #07c8c8",
"du c #08cccc",
"eV c #0c0cfc",
"fe c #0f0ffc",
"ds c #0f9595",
"eA c #1616ed",
"f# c #1919dd",
"c9 c #1f2c2c",
"ah c #202121",
"fa c #2222cb",
"d. c #227070",
"ai c #252322",
"cI c #252525",
"dS c #27e2e2",
"dv c #289292",
"#Y c #2a2a2a",
"fy c #2d2de1",
"dT c #30dbdb",
"cH c #353535",
"da c #354949",
"fd c #3939f1",
"eO c #3a3add",
"#Z c #3c3c3b",
"dr c #3d6e6e",
"#X c #3e3f3f",
"d# c #3edada",
"c8 c #434444",
"fx c #4444f2",
"cJ c #454c4c",
"#L c #4979b6",
"eu c #4a4ac8",
"#8 c #4a7ab6",
"#p c #4b7bb7",
"aj c #4c3d34",
"aM c #4d7cb6",
"al c #4e433d",
"b# c #4e7db6",
"bB c #507eb8",
".9 c #517db5",
"b3 c #537fb8",
"#K c #548acf",
"#q c #557fb2",
"cq c #5580b8",
"#7 c #558bcf",
"#r c #558dd4",
"eT c #5656e9",
"ag c #565757",
"#M c #567fb2",
"#N c #568ed4",
"#. c #5780b2",
"ap c #578cd1",
"#o c #578dd1",
"#9 c #5790d6",
"aq c #5881b2",
"## c #5890d5",
"cS c #5983ba",
"aL c #598cd0",
"ar c #5990d5",
"#s c #5992da",
"aN c #5a81b2",
"#O c #5a93da",
"#J c #5a93db",
"dU c #5abbbb",
"b. c #5b8dd0",
"aO c #5b91d5",
"#6 c #5b94db",
"a. c #5b95dc",
"fz c #5c5ce0",
"ba c #5c82b2",
"df c #5c84b9",
"#a c #5c95dc",
"#t c #5c98e1",
"bA c #5d90d2",
"as c #5d95db",
"#n c #5d95dc",
"#u c #5d97e0",
"#P c #5d98e1",
"#I c #5d99e2",
"bC c #5e84b3",
"bb c #5e93d6",
"aK c #5e96dc",
"#Q c #5e98e0",
"#5 c #5e99e2",
"dB c #5f86ba",
"a# c #5f99e1",
"#b c #5f9ae1",
"#4 c #5f9ae2",
"ez c #6060b9",
"b2 c #6091d2",
".8 c #6093d4",
"aP c #6096db",
"#c c #609ae2",
"ao c #609be2",
"b4 c #6185b3",
"bD c #6194d6",
"a9 c #6197dc",
"at c #619ae2",
"#e c #619be2",
".V c #6297da",
"bc c #6298dd",
"aJ c #629ae1",
"aI c #629be3",
"#f c #629ce2",
"aa c #629ce3",
"dR c #62b8b8",
"cr c #6387b4",
"d1 c #638abc",
"cp c #6393d2",
"bz c #6398dd",
"#v c #639be1",
"aQ c #639be2",
"#d c #639ce2",
"gW c #647e9d",
"b5 c #6496d7",
"a6 c #649be1",
"a5 c #649ce3",
"fb c #65658d",
"fA c #6566ed",
"bE c #6599dc",
".7 c #659ade",
".W c #659bdf",
"aB c #664532",
"cG c #666666",
"cT c #6688b5",
"el c #668bbc",
"cR c #6696d4",
"b1 c #669add",
"#H c #669ce1",
"bd c #669de2",
"a8 c #669de3",
"aA c #675f5b",
".T c #6788b5",
"a7 c #679de2",
"bt c #679de3",
"bs c #679ee3",
"gL c #6884a7",
"cs c #6899d9",
"au c #689ee2",
".6 c #689ee3",
".X c #689ee4",
"dg c #698ab5",
"eG c #698dbd",
"b6 c #699cdd",
"co c #699dde",
".Y c #699ee3",
"#g c #699fe2",
"bF c #699fe3",
".Z c #699fe4",
"de c #6a97d3",
".0 c #6a9fe3",
"gr c #6b89af",
"aR c #6b9fe2",
"dC c #6c8cb6",
"e1 c #6c8fbe",
"cU c #6c9ad9",
"cn c #6ca0e3",
"bu c #6ca1e4",
"aF c #6d6966",
"cQ c #6d9fdf",
"ct c #6d9fe0",
"#R c #6da0e0",
"be c #6da1e4",
"#m c #6da2e2",
".5 c #6da2e5",
"dA c #6e9ad4",
"bT c #6ea3e5",
"d2 c #6f8eb6",
"fl c #6f90bd",
"dh c #6f9dd9",
"b0 c #6fa2e3",
"bG c #6fa2e4",
"gz c #70849b",
"cu c #70a3e5",
"cP c #70a3e6",
"eP c #71718a",
"f. c #7171ec",
"em c #7190b7",
"fI c #7192be",
"cV c #71a0df",
"dd c #71a1e0",
"cO c #71a4e6",
"ay c #727272",
".U c #7293bc",
"d0 c #729dd6",
"b7 c #72a4e4",
"eH c #7391b7",
"f2 c #7394c0",
"dD c #73a0db",
".S c #73a1df",
"cB c #74695d",
"dw c #747a7a",
"gg c #7494be",
"di c #74a3e0",
"cW c #74a5e6",
"cm c #74a6e5",
"cA c #75522f",
"eg c #7575a8",
"e2 c #7593b8",
"dz c #75a4e1",
".1 c #75a5e4",
"dc c #75a5e6",
"ek c #769fd6",
".I c #76a4e3",
"cv c #76a7e6",
"gB c #7790ae",
"fm c #7795b9",
"d3 c #77a2db",
"bg c #787979",
"gP c #788ea9",
"dj c #78a8e7",
"aT c #797979",
"fJ c #7996b9",
"eF c #79a1d7",
"dE c #79a6e2",
".O c #79a9e9",
".M c #79a9ea",
".N c #79aaeb",
"bU c #7aa7e1",
"cX c #7aa8e7",
".P c #7aaaea",
".Q c #7aaaeb",
"cz c #7b4c1d",
"en c #7ba4dc",
".L c #7baaeb",
".R c #7babeb",
"b9 c #7c7670",
"e0 c #7ca4d9",
".J c #7cabeb",
"gt c #7d9fc9",
"d4 c #7da8e2",
"ej c #7da9e3",
"dk c #7dabe7",
"dF c #7dabe9",
"dZ c #7dace9",
"gQ c #7e9bc0",
"gV c #7e9cc1",
"gy c #7ea0cb",
"eI c #7ea7de",
"dG c #7eace9",
"dP c #7f7f7f",
"eB c #7f7fea",
"f3 c #7f99bb",
"fk c #7fa5d9",
"eo c #7faae3",
"bv c #7fabe3",
".K c #7fb0f0",
"#W c #808080",
"c# c #808181",
"#h c #80a7d7",
"e3 c #80a9dd",
"eE c #80abe4",
"d6 c #80ade9",
"ff c #8181ea",
"gK c #81a3cc",
"fH c #81a7da",
"d5 c #81aee9",
"d9 c #81aeea",
"eR c #828282",
"ci c #828587",
"gC c #82a4cd",
"fw c #8383e9",
"ch c #838a92",
"gq c #83a8d6",
"fn c #83abde",
"eZ c #83ade4",
"eJ c #83ade5",
"eD c #83b0ea",
"f1 c #84aadb",
"#A c #84abdb",
"ep c #84b0ea",
"bM c #858585",
"gi c #85abd9",
"gf c #85abda",
"e4 c #85afe5",
"eq c #85b1eb",
"cL c #868989",
".x c #86aee0",
"fj c #86b0e6",
".F c #86b0e7",
"bK c #878786",
"bj c #878787",
"#w c #87abd8",
"f4 c #87aedf",
"eK c #87b3eb",
"aE c #885c43",
"dV c #889696",
"g5 c #8897a7",
"g4 c #8897a8",
"gx c #88add9",
"fo c #88b1e5",
"d8 c #88b2e9",
"eY c #88b3eb",
"eL c #88b4ec",
"ew c #898989",
"e# c #898f98",
"dO c #899098",
"gR c #89a9d0",
"gJ c #89acd8",
"fG c #89b2e6",
"es c #8a9098",
"e8 c #8a9198",
"ee c #8a9696",
"gu c #8aaedc",
"fi c #8ab4eb",
"e5 c #8ab5ec",
"bQ c #8b6137",
"c3 c #8b633a",
"ft c #8b9198",
"aS c #8b96a4",
"av c #8b97a5",
"gS c #8badd5",
"f0 c #8bb4e7",
"e6 c #8bb6ed",
"eb c #8c8c98",
"bH c #8c97a4",
"bf c #8c97a5",
"g6 c #8c99a6",
"gh c #8ca0b8",
"gU c #8cadd5",
"gD c #8cb0dc",
"gj c #8cb3e4",
"fK c #8cb4e7",
"e. c #8cb5eb",
"ec c #8d8d8d",
"ev c #8d8d8e",
"#D c #8d9196",
"g3 c #8d9ba8",
"bV c #8da9cc",
"gT c #8daed6",
"gp c #8db4e4",
"f5 c #8db4e6",
"dM c #8db4e9",
"ge c #8db5e7",
"fF c #8db6ec",
"fq c #8db7ec",
"fp c #8db7ed",
"bP c #8e8174",
"aw c #8e8e8e",
"cY c #8e98a5",
"cw c #8e99a6",
"d7 c #8eb4e8",
".2 c #8eb5e6",
"fr c #8eb8ee",
"aC c #8f5a3c",
"eQ c #8f8f8f",
"#B c #8fa6c2",
"ab c #8fabcc",
"fL c #8fb9ee",
"bp c #908a82",
"g7 c #909ca3",
"#C c #909caa",
"gI c #90b4e1",
"gE c #90b5e2",
"gv c #90b6e6",
"er c #90b7ec",
"fM c #90baee",
"fN c #90baef",
"dq c #919191",
"eh c #9191dc",
"a2 c #919292",
"#3 c #91afd5",
"dH c #91b3e1",
"gF c #91b6e3",
"gH c #91b7e3",
"dN c #91b8eb",
"f7 c #91baed",
"f6 c #91baee",
"fZ c #91bbef",
"b8 c #926b42",
"dW c #929393",
"gG c #92b8e5",
"gk c #92bbed",
"f8 c #92bbef",
"c2 c #936331",
"bJ c #937557",
"bo c #939393",
"bn c #939494",
"fP c #939ba5",
"ef c #939c9c",
"dl c #939eae",
"cg c #93a2b5",
"eM c #93bbed",
"fY c #93bcee",
"a1 c #948b85",
"c. c #949494",
"dI c #949ca6",
"#S c #94a0ae",
"gw c #94bced",
"gl c #94bdef",
"gm c #94bdf0",
"bl c #95908d",
"aW c #959595",
"bZ c #95afd0",
"e7 c #95bbed",
"go c #95bdee",
"gd c #95bdef",
"ed c #969696",
"#x c #96b6dd",
"gc c #96bded",
"#1 c #979796",
"cN c #97b5dc",
"#z c #97b8df",
"fs c #97bdee",
".E c #97c3fa",
"dQ c #989b9b",
"fX c #98beed",
"fO c #98bfef",
"bL c #999999",
"bk c #999a9a",
"#G c #99b0cd",
"gn c #99bfed",
"bm c #9a9592",
"gX c #9aa1a3",
"#l c #9aafc9",
"bw c #9abbe4",
"dL c #9abbe8",
"aV c #9b9b9b",
"fE c #9bbfed",
"bi c #9c9b98",
".y c #9ccafc",
"cF c #9d9d9d",
"#U c #9d9e9e",
"gb c #9dc0ec",
"aD c #9e6341",
"ae c #9e9f9f",
"g. c #9ea6af",
"bY c #9eadc0",
".H c #9eb1c5",
".4 c #9ebce2",
"by c #9fbce0",
"am c #a0a0a0",
"cl c #a0b6d0",
"f9 c #a0bfe6",
"ey c #a1a1af",
"cE c #a2a2a2",
".D c #a2cffd",
".z c #a2cffe",
"#T c #a4a4a4",
"gM c #a4a8a6",
"gs c #a4b0b8",
"fV c #a4bcec",
".3 c #a4bee0",
"fW c #a5c3ed",
"g2 c #a6aeb0",
"#k c #a6b1bd",
"db c #a6c0e2",
".m c #a6cdf4",
".C c #a6d3fd",
".B c #a6d3fe",
"c4 c #a7a19b",
"an c #a7bfdc",
".A c #a7d4fe",
"aX c #a88d7e",
"cD c #a8a6a4",
".t c #a8d2fb",
"bO c #a9a8a6",
".G c #a9b6bf",
"c6 c #aaaaaa",
"ck c #aaabac",
"#2 c #aaabad",
"dy c #aac4e6",
"bR c #ab8a69",
"ad c #abacac",
"fB c #abb0e5",
"#y c #abbfd7",
"aH c #abc3e1",
".u c #acbfd3",
"a4 c #acc4e1",
"ax c #adadad",
"cM c #adaeaf",
"ac c #adb3ba",
"dY c #adc6e7",
"#F c #aeafb0",
"br c #aec5e3",
"bq c #af9e8c",
"c5 c #afadac",
"bx c #afc3dc",
"ei c #afc7e7",
"bN c #b0b0b0",
"bS c #b0c6e2",
"a0 c #b1856d",
"az c #b1b1b1",
"eC c #b1c9e8",
"c1 c #b29679",
"aG c #b2b3b3",
"cy c #b3977b",
"cc c #b39d88",
"af c #b3b4b4",
"eX c #b3cae8",
"fh c #b3cbe9",
"a3 c #b4b4b4",
"eW c #b4b4e3",
"bX c #b4b5b6",
"ga c #b4ccea",
"ex c #b5b5b5",
"fc c #b5b5b8",
"dK c #b6cae6",
"cC c #b7b7b7",
"ca c #b7b8b8",
"fU c #b7c2e8",
"fD c #b8cde6",
"cd c #b9aa9b",
"c7 c #b9baba",
"cb c #bab3ab",
"eS c #bababa",
"cK c #bac3c3",
"dJ c #bac5d3",
".g c #baddf2",
".f c #badff5",
"#0 c #bbbab9",
"et c #bbbbd0",
"g# c #bbc9db",
".e c #bbe0f6",
"dx c #bcbcbc",
"#E c #bdbdbd",
"eN c #bdbdd2",
"#i c #bdc4cc",
"cf c #bdc6d2",
".h c #bdd8eb",
"dX c #bebebe",
"g8 c #bebfb6",
"#j c #bec0c1",
".d c #bee2f5",
"#V c #bfbfbf",
"gO c #bfc2bb",
".c c #bfe0f1",
"aY c #c07f5a",
"ak c #c1947a",
".b c #c1d7e3",
"dp c #c2c2c4",
"aZ c #c3805a",
"bI c #c3c1be",
"aU c #c3c3c3",
".i c #c3ced0",
"fC c #c3d0e3",
"bh c #c4c5c4",
"ea c #c5c5c9",
"bW c #c5c9ce",
".l c #c5cdcc",
"cj c #c6c7c7",
".s c #c6f0fd",
"cZ c #c7c8c8",
".n c #c7f1ff",
"cx c #c8c8c7",
"dm c #c8c8c8",
"ce c #cbc1b7",
"g1 c #cccbbd",
"e9 c #cccccf",
"fT c #cdd4e3",
"fu c #cecece",
".w c #cecfc3",
"fQ c #cfcfcf",
"do c #cfd1d4",
"gA c #d0cfc2",
"fv c #d2d2de",
".r c #d3f8fd",
".o c #d4f9fd",
".a c #d6d7c8",
".p c #d6f9fd",
"c0 c #d7d5d2",
".q c #d7faff",
"g9 c #d8d5c3",
"fg c #d8d9dd",
"gY c #d9d5c3",
"g0 c #d9d6c4",
".v c #dad7c3",
".k c #dbd7c1",
".# c #dbd7c2",
".j c #dbd8c3",
"gN c #dbd8c5",
"dn c #dcdcdc",
"fS c #dcdcdd",
"Qt c #ddd9c3",
"gZ c #dddac5",
"fR c #dddddd",
"Qt.#.a.b.c.d.e.f.f.e.f.f.e.f.f.e.f.f.e.f.f.e.f.f.e.g.h.i.j.k",
"Qt.l.m.n.o.p.q.p.p.q.p.p.q.p.p.q.p.p.q.p.p.q.p.p.q.r.s.t.u.v",
".w.x.y.z.A.B.C.C.C.C.C.C.C.C.C.C.C.C.C.C.C.C.C.C.C.B.D.E.F.G",
".H.I.J.K.L.M.N.O.O.N.O.O.N.O.O.N.P.P.N.O.O.N.O.O.N.Q.R.O.S.T",
".U.V.W.X.Y.Y.Z.Y.Y.Z.Y.Y.Z.0.1.2.3.4.5.Y.Y.Z.Y.Y.Z.Y.6.7.8.9",
"#.###a#b#c#c#c#c#d#e#c#f#g#h#i#j#k#l#m#c#c#c#c#c#c#c#c#n#o#p",
"#q#r#s#t#u#v#w#x#y#z#A#B#C#D#E#F#G#H#I#u#u#I#u#u#I#u#u#J#K#L",
"#M#N#O#P#Q#R#S#T#U#V#W#X#Y#Z#0#1#2#3#4#Q#Q#5#Q#Q#5#Q#Q#6#7#8",
"#.#9a.a#aaabacadaeafagahaiajakalamanao#4#4#4#4#4#4#4#4#aap#p",
"aqarasatauavawaxayazaAaBaCaDaEaFaGaHaIaJaJaIaJaJaIaJaJaKaLaM",
"aNaOaPaQaRaSaTaUaVaWaXaYaZa0a1a2a3a4a5a6a6a5a6a7a8a6a6a9b.b#",
"babbbcbdbebfbgbhbibjbkblbmbnbobpbqbrbsbtbubvbwbxby.0a8bzbAbB",
"bCbDbEbFbGbHaTbIbJbKbLbMbNbObPbQbRbSbTbUbVbWbXbYbZb0.Yb1b2b3",
"b4b5b6bub7bHbgbIb8b9c.c#cacbcccdcecfcgchcicjckclcmcncncocpcq",
"crcsctcucvcwaTcxcyczcAcBcCcDcEcFaUcGcHcIcJcKcLcMcNcOcPcQcRcS",
"cTcUcVcWcXcYbgcZc0c1c2c3c4c5c6c.c7c8ahc9d.d#dabNdbdcdcdddedf",
"dgdhdidjdkdlaTdmdndndodpdqawbNaycadrdsdtdudvdwdxdydjdjdzdAdB",
"dCdDdEdFdGdHdIdJdKdLdMdNdOdPdmbodQdRdSdTdUdVdWdXdYdZdZdEd0d1",
"d2d3d4d5d6d5d7d8d6d9d6e.e#dPeaebecedeeefboboegeheid6d6ejekel",
"emeneoepepepeqepepeqeperesdPeteuevaWewexeyezeAeBeCepeDeEeFeG",
"eHeIeJeKeLeLeLeLeLeLeLeMesdPeNeOePeQeReSeTeUeVeWeXeLeYeZe0e1",
"e2e3e4e5e5e5e6e5e5e6e5e7e8dPe9f.f#fafbfcfdfefffgfhe5fifjfkfl",
"fmfnfofpfqfqfrfqfqfrfqfsftdPfufvfwfxfyfzfAfBfCfDfEfqfFfGfHfI",
"fJ.xfKfLfMfMfNfMfMfNfMfOfPdPfQfRfSfTfUfVfWfXfYfZfNfMfMf0f1f2",
"f3f4f5f6f7f7f8f7f7f8f7f6f9g.g#gagbgcgdf7f7f8f7f7f8f7f7gegfgg",
"ghgigjgkfYfYglfYfYglfYfYgmgngoglfYfYglfYfYglfYfYglfYgkgpgqgr",
"gsgtgugvgwgogogogogogogogogogogogogogogogogogogogogwgvgxgygz",
"gAgBgCgDgEgFgGgHgHgGgHgHgGgHgHgGgHgHgGgHgHgGgHgHgGgIgJgKgLgM",
"gNgOgPgQgRgSgTgUgUgTgUgUgTgUgUgTgUgUgTgUgUgTgUgUgTgRgVgWgXgY",
"gZg0g1g2g3g4g4g4g4g4g4g4g4g4g4g4g4g4g4g4g4g5g5g5g4g6g7g8g9gZ"};
