/* XPM */
static char *dummy[]={
"30 30 234 2",
"aY c #0000fd",
"aH c #0000ff",
"#9 c #00fdfd",
"ai c #00ffff",
"#8 c #02eeee",
"#X c #02f0f0",
"bf c #0303f8",
"aP c #0505fa",
"#W c #08c6c6",
"a. c #09bcbc",
"#7 c #09bdbd",
"aj c #09f7f7",
"a6 c #0c0ceb",
"#6 c #0d9f9f",
"a7 c #1111e1",
"a5 c #1616fa",
"aV c #1717da",
"aQ c #1717fb",
"ah c #19ebeb",
"#V c #1a4c4c",
"#U c #1c4242",
"#F c #202020",
"#E c #212121",
"ak c #21e5e5",
"aG c #2222e5",
"az c #2222e6",
"#Y c #244646",
"a8 c #2525c2",
"#P c #274343",
"bi c #2c2cf3",
"#D c #2d2d2d",
"a# c #2d6969",
"bK c #323232",
"bH c #353535",
"aO c #3838e8",
"be c #3c3cf6",
"bL c #3d3d3d",
"bj c #3d3df6",
"bF c #3f3f3f",
"bI c #414141",
"bE c #424242",
"bA c #434343",
"bB c #444444",
"bJ c #454545",
"bx c #464646",
"bg c #4646bd",
"by c #474747",
"aL c #474796",
"bo c #484848",
"aK c #4848f4",
"bp c #494949",
"ba c #4a4a4a",
"bb c #4b4b4b",
"a3 c #4c4c4c",
"bG c #4d4d4d",
"aT c #4e4e4e",
"aC c #4e4eee",
"#N c #4eb1b1",
"bD c #4f4f4f",
"aI c #505050",
"bt c #5050f3",
"bC c #515151",
"aD c #51518e",
"aB c #525252",
"#w c #535353",
"#5 c #536060",
"aw c #545454",
"#M c #555555",
"ao c #565656",
"bn c #575757",
"ag c #57c1c1",
"ap c #585858",
"ad c #595959",
"ae c #5a5a5a",
"#1 c #5b5b5b",
"a2 c #5c5c5c",
"al c #5cbcbc",
"#S c #5d5d5d",
"bc c #5e5e5e",
"#I c #5f5f5f",
"b# c #606060",
"#A c #616161",
"aJ c #626262",
"a9 c #6262ef",
"#v c #636363",
"#j c #646464",
"aS c #656565",
"aW c #65657c",
"#k c #666666",
".9 c #676767",
"bu c #6767e6",
"#. c #686868",
"aq c #696969",
"bN c #6a6a6a",
"aU c #6a6aee",
".Y c #6b6b6b",
".X c #6c6c6c",
"#4 c #6d6d6d",
"as c #6db0b0",
"#0 c #6e6e6e",
"#2 c #6f6f6f",
".P c #707070",
"#R c #717171",
"ac c #727272",
"aF c #7272ab",
"aZ c #7272ee",
"#H c #737373",
"#J c #747474",
"#T c #757575",
"#z c #767676",
"#3 c #777777",
"#i c #787878",
"at c #78a8a8",
"#l c #797979",
"bh c #7979d1",
"#G c #7a7a7a",
"#B c #7b7b7b",
".8 c #7c7c7c",
"#m c #7d7d7d",
"#K c #7e7e7e",
"#h c #7f7f7f",
".Z c #808080",
"#n c #818181",
"#o c #828282",
".W c #838383",
".H c #848484",
"## c #858585",
"ay c #85859c",
".Q c #868686",
"au c #86869d",
".7 c #878787",
".G c #888888",
".0 c #898989",
".V c #8a8a8a",
"ar c #8a9a9a",
".R c #8b8b8b",
"am c #8b9898",
".O c #8c8c8c",
"#O c #8ce3e3",
"#a c #8d8d8d",
"#C c #8e8e8e",
".S c #8f8f8f",
".1 c #909090",
".6 c #919191",
".I c #929292",
"aM c #939393",
".N c #949494",
"aX c #9494df",
".J c #959595",
".U c #969696",
"#g c #979797",
".M c #989898",
"ax c #9898b8",
".K c #999999",
".L c #9a9a9a",
"#p c #9b9b9b",
".F c #9c9c9c",
"#d c #9d9d9d",
".z c #9e9e9e",
"#u c #9f9f9f",
"#b c #a0a0a0",
"#c c #a1a1a1",
"bs c #a1a1e5",
".2 c #a2a2a2",
".A c #a3a3a3",
"#e c #a4a4a4",
".E c #a5a5a5",
"bk c #a5a5e6",
".D c #a6a6a6",
".B c #a7a7a7",
".x c #a9a9a9",
".y c #aaaaaa",
".C c #ababab",
"#f c #acacac",
"bv c #acacd2",
".q c #adadad",
"a1 c #aeaeae",
"bd c #afafe4",
"#t c #b0b0b0",
"#y c #b1b1b1",
".5 c #b2b2b2",
"an c #b3b3b3",
"ab c #b4b4b4",
"#x c #b5b5b5",
"#Z c #b6b6b6",
"#q c #b7b7b7",
"bw c #b7b7bf",
".p c #b8b8b8",
"aN c #b8b8ce",
"bM c #b9b9b9",
"aE c #bababa",
".h c #bbbbbb",
"#Q c #bcbcbc",
"br c #bcbce1",
".w c #bebebe",
"bm c #bfbfbf",
"aA c #bfbfe1",
".g c #c1c1c1",
".# c #c2c2c2",
"a4 c #c2c2e0",
"Qt c #c3c3c3",
"#r c #c4c4c4",
".4 c #c5c5c5",
"bz c #c6c6c6",
".r c #c8c8c8",
"aR c #c9c9e1",
".v c #cacaca",
"#s c #cbcbcb",
".s c #cccccc",
".T c #cdcdcd",
".u c #cecece",
".o c #cfcfcf",
"av c #cfcfd7",
".t c #d0d0d0",
".i c #d1d1d1",
"aa c #d3d3d3",
"#L c #d4d4d4",
"bl c #d4d4db",
".f c #d5d5d5",
".3 c #d7d7d7",
"bq c #d7d7df",
".a c #d8d8d8",
"b. c #d8d8de",
"a0 c #dcdcdc",
"af c #dedede",
".e c #e2e2e2",
".b c #e3e3e3",
".c c #e8e8e8",
".d c #e9e9e9",
".n c #ededed",
".j c #f3f3f3",
".m c #f7f7f7",
".k c #f8f8f8",
".l c #f9f9f9",
"Qt.#Qt.a.b.c.d.c.c.d.c.c.d.c.c.d.c.c.d.c.c.d.c.c.d.e.fQt.g.g",
"Qt.h.i.j.k.k.l.k.k.l.k.k.l.k.k.l.k.k.l.k.k.l.k.k.l.m.n.o.p.g",
".p.q.r.s.t.o.u.u.u.u.u.u.u.u.u.u.u.u.u.u.u.u.u.u.o.o.v.w.x.y",
".z.A.B.C.B.D.B.D.D.B.D.D.B.D.D.B.D.D.B.D.D.B.D.D.B.B.B.E.F.G",
".H.I.J.K.K.K.L.K.K.L.K.K.L.K.K.L.K.K.L.K.K.L.z.F.L.K.M.N.O.P",
".P.Q.R.S.S.S.S.S.S.S.S.S.S.S.S.S.S.S.J.z.h.#.a.T.U.S.S.V.W.X",
".Y.Z.H.0.G.G.0.G.G.0.G.G.0.G.G.0.V.1.2.3.4.5.I.6.L.G.7.W.8.9",
"#..8.Z##.H.H##.V.O#a#b#c.V.G.N#d#e#f#g.3#c.D.1.H##.H.W#h#i#j",
"#k#l#m#n#o#o.7#p#q.o#r.v#s#t#u.M#v#w.W.a#x.q#y.O#o#o#n#m#z#A",
"#j#z#B#h#h#h#o.U#C.U.U#C.3#i#D#E#F#F.8.3#h.x.C.E#n#h#h#G#H#I",
"#A#J#i.8.8#K.F.C#t.q.C.I#L#M#F#E#F#F#N#O#P#.#Q#t#m.8.8#i#R#S",
"#I#R#T#l#l#n.M.M.q.q#C#T#L#M#E#E#U#V#W#X#Y#J#L#Z#l#l#l#T#0#1",
"#S#2#H#z#3#h.M#T.M.h###4#L#5#6#7#8#9a.a##J.Naaab#3#3#zac.Xad",
"ae.X.P#H#J#m#gac#naf.C#l#tagahaiajakalam.I.Naaan#J#J#J#2#.ao",
"apaq#0#R#R#B#g#H#oaf#f#T.F#parasat.N.N.N.Nauavan#R#R#R.X#kaw",
"ao#k.Y#0#0#3#gac#nafax#T#p.K.I.S#u#g.N.IayazaA#t#0#0#0aq#vaB",
"aw#j#..Y.Y#T.Uac#nafaCaD#p.K.H.0.haE.MaFaGaHaA#t.Y.Y.Y.9#AaI",
"aBaJ#kaqaq#H.U#H#oafaKaLaM.x#o.M.haNaOaPaHaQaR#taqaqaqaS#IaT",
"aI#I#v.9.9#R.Uac#nafaUaVaW#l#H#K.paXaHaYaYaZa0a1.9.9.9#va2a3",
"aTa2#A#j#j#0.Jac#nafa4a5a6a7a8#K.paXaHaYa9b.a0.q#j#j#jb#aeba",
"bbaebc#A#A.X.J#H#oafafbdbeaHbfbgbhbibjbkbl.tbm.7#A#A#A#Sbnbo",
"bpbn#1bcbcaq.Jac#nafa0a0bqbrbsbtbubvbw#p.7.Y#kbcbcbcbcaeawbx",
"byawap#1a2#v.Fac#nafa0a0afbz.C.B#J.9#va2a2a2a2a2a2#1#1bnaBbA",
"bBbC#Madadad#4.M#o.r.x.O#.#AadadadadadadadadadadadadapawbDbE",
"bEaTaB#Maoaoao.9.H#Iaoaoaoaoaoaoaoaoaoaoaoaoaoaoaoao#MaBa3bF",
"bGbaaTaB#w#w#w#w#w#w#w#w#w#w#w#w#w#w#w#w#w#w#w#w#w#w#waTbobH",
"acbAbpbGaIaIaIaIaIaIaIaIaIaIaIaIaIaIaIaIaIaIaIaIaIaIbGbobIad",
"anbAbJa3bDbDaIbDbDaIbDbDaIbDbDaIbDbDaIbDbDaIbDbDaIaTbpbEbK#c",
".4.AbabBbbbGbGbGbGbGbGbGbGbGbGbGbGbGbGbGbGbGbGbGbGbabEbL#aQt",
".4#rbM.V.YbNbNbNbNbNbNbNbNbNbNbNbNbNbNbNbNbNbNbNbN.X.8#qQt.4"};
