/* XPM */
static char *dummy[]={
"30 30 198 2",
"#x c #202020",
"#w c #212121",
"#v c #2d2d2d",
"#Q c #3b2e27",
"#J c #3e352f",
"#U c #3f342e",
"#R c #433229",
"#o c #535353",
"#G c #555555",
"#5 c #5e4a3f",
"#Z c #5e5a57",
"#n c #636363",
"#K c #686868",
"#g c #696969",
".6 c #6a6a6a",
"#C c #6b6b6b",
"#N c #6d6d6d",
".Y c #6e6e6e",
"az c #6f5b47",
"#8 c #6f6f6f",
"at c #706151",
"aI c #706a65",
"#s c #707070",
"ag c #717171",
"#D c #727272",
".P c #737373",
"aS c #744d25",
"#V c #747474",
"#P c #757575",
"aF c #767676",
".O c #777777",
"#u c #787878",
"aH c #794817",
"a. c #797979",
"aR c #7a4611",
"ar c #7a7a7a",
"b# c #7b7b7b",
"aQ c #7c440c",
"#y c #7c7c7c",
"aN c #7d7d7d",
"aX c #7e4103",
"aJ c #7e7e7e",
"aL c #7f3f00",
".5 c #7f7f7f",
"ax c #804000",
"aC c #804305",
"#B c #808080",
".7 c #818181",
"aY c #826446",
".Z c #828282",
"aw c #835322",
"#p c #838383",
"ap c #845322",
"#0 c #845539",
"#X c #848484",
"#E c #858585",
".X c #868686",
".0 c #878787",
"aP c #885016",
"#h c #888888",
"#f c #898989",
"aD c #8a5017",
".Q c #8a8a8a",
".G c #8b8b8b",
".1 c #8c8c8c",
".W c #8d8d8d",
"av c #8e7f72",
".R c #8e8e8e",
".8 c #8f8f8f",
"a0 c #905e2c",
"aB c #906438",
"## c #909090",
"ao c #918b85",
".4 c #919191",
"al c #928c86",
".S c #929292",
".F c #939393",
"#r c #949494",
"af c #95918f",
"#e c #959595",
"#t c #969696",
"ai c #97928f",
"#c c #979797",
".H c #989898",
"aW c #996a3c",
".T c #999999",
"a1 c #9a6b3d",
".N c #9a9a9a",
"#4 c #9b603f",
".I c #9b9b9b",
"#1 c #9c613f",
"#O c #9c9c9c",
".K c #9d9d9d",
"ay c #9e7348",
"as c #9e774e",
".J c #9e9e9e",
"#H c #9f7e6c",
"ak c #9f8f86",
".L c #9f9f9f",
"#a c #a0a0a0",
"a7 c #a17850",
".M c #a1a1a1",
".E c #a2a2a2",
"#S c #a36441",
"aj c #a38d81",
".2 c #a3a3a3",
".9 c #a4a4a4",
"aZ c #a58f79",
"#. c #a5a5a5",
"#b c #a6a6a6",
"#d c #a7a7a7",
"aT c #a88562",
"an c #a8a098",
".x c #a8a8a8",
"#z c #a9a9a9",
"a8 c #aa8a6b",
"ae c #aa8b78",
".y c #aaaaaa",
"#A c #ababab",
"aG c #ac8a6a",
"ah c #acacac",
"a# c #ad8a77",
".p c #adadad",
".v c #aeaeae",
"aM c #b09172",
".B c #b0b0b0",
".C c #b1b1b1",
".z c #b2b2b2",
".D c #b3b3b3",
"#q c #b5b5b5",
".A c #b6b6b6",
"#M c #b7b7b7",
"#i c #b8b8b8",
".w c #b9b9b9",
"aK c #baa794",
"au c #bababa",
"#Y c #bbbbbb",
"#L c #bcbcbc",
".U c #bdbdbd",
".h c #bebebe",
"#7 c #bfbfbf",
"#W c #c0c0c0",
"ad c #c1805c",
".# c #c1c1c1",
".a c #c2c2c2",
"#2 c #c37549",
"a6 c #c3b2a1",
"aA c #c3bdb8",
"Qt c #c3c3c3",
"#T c #c47649",
"aa c #c47f58",
"#k c #c4c4c4",
".g c #c5c5c5",
"a2 c #c6b6a5",
"bb c #c6c6c6",
"a9 c #c7beb4",
"ba c #c7c7c7",
"bd c #c8c8c8",
".b c #c9c9c9",
"aV c #cabcaf",
".u c #cacaca",
"ac c #cb7d50",
"#l c #cbcbcb",
"b. c #cccac8",
"#m c #cccccc",
".i c #cdcdcd",
"#3 c #ce7b4b",
"a5 c #cfc5bc",
"#j c #cfcfcf",
"ab c #d07c4c",
"aq c #d0c8bf",
".c c #d0d0d0",
"aO c #d1c9c2",
".f c #d1d1d1",
"#I c #d3b6a6",
"am c #d3d1cf",
"#6 c #d3d3d3",
"#F c #d4d4d4",
"aE c #d5cfc9",
"bc c #d5d5d5",
".3 c #d7d7d7",
".V c #d8d8d8",
".d c #d9d9d9",
"a3 c #dad8d6",
".e c #dadada",
"a4 c #dbd9d7",
"aU c #dbd9d8",
".q c #dcdcdc",
"#9 c #dedede",
".t c #e0e0e0",
".s c #e1e1e1",
".r c #e2e2e2",
".o c #ececec",
".j c #f2f2f2",
".n c #fbfbfb",
".k c #fcfcfc",
".l c #fdfdfd",
".m c #fefefe",
"Qt.#.a.b.c.d.e.d.d.e.d.d.e.d.d.e.d.d.e.d.d.e.d.d.e.f.g.g.a.#",
"Qt.h.i.j.k.l.m.l.l.m.l.l.m.l.l.m.l.l.m.l.l.m.l.l.m.n.o.b.#.a",
".a.p.f.q.r.s.s.s.s.s.s.s.s.s.s.s.s.s.s.s.s.s.s.s.s.t.d.u.v.w",
".x.y.z.A.z.B.C.B.B.C.B.B.C.B.B.C.B.B.C.B.B.C.B.B.z.D.C.p.E.F",
".G.H.I.J.K.K.J.K.K.J.K.K.J.K.K.J.K.K.J.K.K.L.E.M.J.K.K.N.F.O",
".P.Q.R.S.S.S.S.S.S.S.S.S.S.S.S.S.S.S.T.M.UQt.V.i.T.S.S.W.X.Y",
".Y.Z.0.G.G.G.1.G.G.1.G.G.1.G.G.1.W.F.2.3.g.z.S.4.K.G.Q.X.5.6",
".Y.7.X.Q.Q.Q.G.8.4.S.9#.##.W.H#a#b.v#c.3.M#d#e.Q.G.Q#f.X.5#g",
".Y.Z#h.G.G.G##.J#i#j#k#l#m.D.L.H#n#o#p.V#q.p.D#r.G.G.G.X.5#g",
"#s#p#h.W.1.1##.J.R#t#t.R.3#u#v#w#x#x#y.3.5#z#A#A.8.1.1#h#B#C",
"#D#E.G.8.R###d.v.C.p#A.S#F#G#x#w#x#x#H#I#J#K#L#M##.R.R.G.Z#N",
".P#h.W.4.4.H#O.H.p.p.R#P#F#G#w#w#Q#R#S#T#U#V#F#W.4.4.4.1#X.Y",
"#V#f.R.S.4.H.I#P.H#Y#E#N#F#Z#0#1#2#3#4#5#V#r#6#7.S.4.4.R#E#8",
"#P.G###r.F.N#O#D.7#9#Aa..Ba#aaabacadaeaf.S#r#6#W#r.F.F.8.Xag",
".O.R.F#c#c.K#O.P.Z#9ah#P#O.Iaiajak#r#r#r#ralam.a#c#c#c.4#f#D",
"#u.R.F.H.H.J#O#D.7#9an#P.I.T.S.8.L#c#r.Saoapaq.#.T.H#c.S#f.P",
"ar###e.N.N#a.K#D.7#9asat.I.T#X#f#Yau.Havawaxaq.a.I.N.T#r.G#P",
"ar.S#c.I#O.E.K.P.Z#9ayaz.F#z.Z.H#YaAaBaCaxaDaE#k#O#O.I#e.WaF",
"#y.S.H.K.K.2.K#D.7#9aGaHaIa..PaJ#iaKaxaLaLaM.qQt.J.K#O#c.R.O",
"aN#r.T.J.J.9.K#D.7#9aOaPaQaRaSaJ#iaKaxaLaTaU.q#k.L.J.K.T.8#u",
".5#c#O#a.M#d.K.P.Z#9#9aVaWaxaXaYaZa0a1a2a3.3#j.D.M.M#a.I.Sar",
"#B#c#O.M.M#d.K#D.7#9.q.qa4a5a6a7a8a9b..h#q.x.9.M.E.M.M#O.Sb#",
".Z.T.J.9.2#d.v#D.7#9.q.q#9#6babb.v.x#d.2.2.9.2.2.9.2.2.J#r#y",
"#p.I.M#.#b#b.B#z.Zbcbd#Lah#z#b#b#b#b#b#b#b#b#b#b#b#b#..L#taN",
"#X#O.E#d#b#b.x.v.w#A#b#b#d#b#b#d#b#b#d#b#b#d#b#b#d#b#b.M#caJ",
".0#O.E.x.x.x#z.x.x#z.x.x#z.x.x#z.x.x#z.x.x#z.x.x#z.x#d.M#t.O",
"#e#c#a#d.y.y#A.y.y#A.y.y#A.y.y#A.y.y#A.y.y#A.y.y#A.y#b.K.Sa.",
".B#X.N.2#d.x#z.x.x#z.x.x#z.x.x#z.x.x#z.x.x#z.x.x#z#..J#t.5#t",
".g.K#X#O.E.2.9.2.2.9.2.2.9.2.2.9.2.2.9.2.2.9.2.2.9#a#c#B#E.#",
".g#k.y.G#X#X#X#X#X#X#X#X#X#X#X#X#X#X#X#X#X#X#X#X#X.5#p.N.#.g"};
