/* XPM */
static char *dummy[]={
"30 30 487 2",
"c7 c #0000fd",
"cw c #0000ff",
"bg c #00fdfd",
"bC c #00ffff",
"bf c #02eeee",
"aW c #02f0f0",
"dE c #0303f8",
"cM c #0505fa",
"aV c #08c6c6",
"bh c #09bcbc",
"be c #09bdbd",
"bD c #09f7f7",
"dm c #0c0ceb",
"bd c #0d9f9f",
"dn c #1111e1",
"dl c #1616fa",
"c2 c #1717da",
"cN c #1717fb",
"bB c #19ebeb",
"aU c #1a4c4c",
"aT c #1c4242",
"ak c #202020",
"aj c #212121",
"bE c #21e5e5",
"cv c #2222e5",
"cd c #2222e6",
"aX c #244646",
"do c #2525c2",
"aF c #274343",
"dH c #2c2cf3",
"ai c #2d2d2d",
"bi c #2d6969",
"cL c #3838e8",
"dD c #3c3cf6",
"dI c #3d3df6",
"dF c #4646bd",
"cI c #474796",
"cH c #4848f4",
"cp c #4e4eee",
"aD c #4eb1b1",
"d1 c #5050f3",
"cq c #51518e",
"#Z c #535353",
"bc c #536060",
"aC c #555555",
"bA c #57c1c1",
"bF c #5cbcbc",
"dp c #6262ef",
"#Y c #636363",
"c3 c #65657c",
"aG c #686868",
"c1 c #6a6aee",
"bb c #6d6d6d",
"bV c #6db0b0",
"d2 c #706fe8",
"bv c #727272",
"cu c #7272ab",
"c8 c #7272ee",
"bP c #737373",
"aY c #747474",
"aS c #757575",
"ah c #787878",
"bW c #78a8a8",
"by c #797979",
"dG c #7979d1",
"al c #7c7c7c",
"c4 c #7e7e7e",
"am c #7f7f7f",
"bw c #818181",
"bQ c #828282",
"#0 c #838383",
"cr c #848484",
"ba c #858585",
"cc c #85859c",
"bX c #86869d",
"cs c #898989",
"bU c #8a9a9a",
"bG c #8b9898",
"aE c #8ce3e3",
"ag c #8e8e8e",
"c# c #8f8f8f",
"ae c #90908d",
"aA c #929292",
"cJ c #939393",
"bj c #949494",
"c6 c #9494df",
"af c #969696",
"cb c #979797",
"#X c #989898",
"b9 c #9898b8",
"c. c #999999",
"#E c #9b9b96",
"bT c #9b9b9b",
"bS c #9c9c9c",
"#n c #9f9f8d",
"#m c #9f9f8e",
"ca c #9f9f9f",
"#F c #a1a1a1",
"d0 c #a1a1e5",
"#W c #a5a59d",
"dJ c #a5a5e6",
"fe c #a79f81",
"fJ c #a99f81",
"an c #a9a9a9",
"c0 c #aaa998",
"dj c #aaa999",
"b. c #aaaa97",
"co c #aaaa98",
"ao c #ababab",
"fp c #ac9c60",
"aR c #acac96",
"bR c #acacac",
"fA c #ad9c62",
"#3 c #adadad",
"fB c #afab9e",
"dC c #afafe4",
"e5 c #b0a576",
"bz c #b0b0b0",
"fI c #b3a578",
"eV c #b4a86e",
"eb c #b4aa6a",
"et c #b4aa6b",
"dv c #b5ab68",
"dc c #b5ac67",
"cB c #b5ad65",
"cj c #b5ae64",
"bK c #b5af61",
"bo c #b5b060",
"az c #b5b5af",
"#l c #b5b5b1",
"#2 c #b5b5b5",
"eI c #b6aa6d",
"fE c #b6aa84",
"dR c #b6ab69",
"aL c #b6b15d",
"au c #b6b25b",
"#r c #b6b358",
"#K c #b6b359",
"cT c #b7ae66",
"b3 c #b7b062",
"a3 c #b7b25e",
"#9 c #b7b35a",
"fK c #b7b4af",
"fF c #b8a978",
"#a c #b8b559",
"#G c #b8b8a0",
"c5 c #b8b8b8",
"cK c #b8b8ce",
"fH c #baa974",
"fG c #baa975",
"ct c #bababa",
"fq c #bbbab7",
"b# c #bbbbbb",
"eA c #bcbba2",
"aH c #bcbcbc",
"dZ c #bcbce1",
".Z c #bdbb69",
"fs c #beb28b",
"ce c #bfbfe1",
"fD c #c0baa5",
"d3 c #c0bfd7",
"#i c #c0c097",
".i c #c1c1c1",
".O c #c2c088",
".# c #c2c2c1",
".u c #c2c2c2",
"dk c #c2c2e0",
"ff c #c3bb9d",
".j c #c3c3c2",
"Qt c #c3c3c3",
"ei c #c4c2a6",
".F c #c4c4bd",
"fC c #c4c4c3",
"fr c #c5c5c4",
"#k c #c5c5c5",
"#P c #c6c691",
"ay c #c6c6a6",
"#Q c #c6c6b3",
".h c #c6c6c1",
".t c #c7c7ad",
"#S c #c7c7c3",
"cO c #c9c9e1",
"#D c #cacaa3",
"ft c #cbb772",
"e6 c #ccba71",
"#T c #ccccca",
".a c #cdccb8",
"bY c #cfcfd7",
".v c #d1d0a0",
"#V c #d3d3a8",
"bk c #d3d3d3",
"#C c #d4d496",
"aB c #d4d4d4",
"fg c #d5c172",
"#4 c #d5d5a8",
"ad c #d6d68a",
"fz c #d7c279",
"#j c #d7d7d7",
"dY c #d7d7df",
"#1 c #d8d8d8",
"dq c #d8d8de",
"dK c #d9d8dc",
".k c #dad995",
"ap c #dada9b",
"fd c #dbc672",
".7 c #dbdbd6",
".g c #dcdb9a",
"c9 c #dcdcdc",
"#R c #ddddcb",
"eW c #deca71",
"bx c #dedede",
"d4 c #dfdec8",
"aI c #e0e0a9",
".8 c #e0e0c3",
"dL c #e1e1d4",
"fo c #e2cc79",
"ej c #e2e1ce",
"eB c #e3e2d0",
".b c #e3e39c",
"#U c #e5e5c4",
".G c #e6e363",
"dM c #e6e4c7",
".E c #e8e55d",
".6 c #e8e8af",
"fu c #e9d385",
"ek c #e9e7bb",
"dr c #e9e8b7",
"bl c #e9e9b0",
"bH c #e9e9b1",
"cf c #e9e9b3",
"cx c #e9e9b4",
"d. c #e9e9b6",
"fy c #ead484",
"eJ c #ead575",
"eu c #ead673",
"ec c #ead771",
"dw c #ead96d",
"dS c #ead96f",
"dd c #eada6b",
"cU c #eadb69",
"cC c #ebdc67",
"ck c #ebdd65",
"b4 c #ebde63",
"bL c #ebdf60",
"bp c #ebe05e",
"a4 c #ebe15c",
"aM c #ebe25b",
"av c #ebe459",
"a. c #ebe557",
".P c #ebe84f",
"eC c #ebe8bc",
"el c #ebe9b9",
"cP c #ebeab6",
"aZ c #ebebb1",
"bZ c #ebebb3",
"e4 c #ecd779",
"#L c #ece655",
"#s c #ece752",
".0 c #ece84f",
"#b c #ece850",
".f c #eceb93",
"ax c #ecec8f",
".5 c #ececa3",
"d5 c #edeaae",
".c c #eded95",
"fv c #f0d989",
"fn c #f1d980",
"fh c #f1d981",
"fw c #f1da8a",
"eQ c #f1eca6",
".d c #f1f092",
"e7 c #f2db7e",
"fx c #f2db8b",
"fc c #f2dc7f",
"eD c #f2eda9",
".e c #f2f193",
"eU c #f3de7a",
"ea c #f3e074",
"es c #f3e076",
"du c #f3e270",
"db c #f3e36e",
"cA c #f3e56a",
"ci c #f3e767",
"d6 c #f3efa0",
"#y c #f3f388",
"#z c #f3f389",
"eH c #f4e078",
"dQ c #f4e272",
"cS c #f4e56c",
"bJ c #f4e963",
"bn c #f4ea61",
"aK c #f4ec5d",
"at c #f4ed5b",
"#J c #f4ef57",
"#q c #f4f054",
"dN c #f4f19d",
".s c #f4f46a",
"#B c #f4f482",
"b2 c #f5e965",
"a2 c #f5ec5f",
"#8 c #f5ef59",
"#o c #f5f57a",
"## c #f6f253",
"#A c #f6f678",
"em c #f7f294",
".Y c #f7f353",
".N c #f7f555",
".4 c #f8f875",
"fm c #fae388",
"fi c #fbe489",
"eX c #fbe580",
"en c #fbf58c",
"eE c #fbf591",
"d8 c #fbf687",
"d7 c #fbf68c",
".w c #fbfb5f",
".V c #fbfb66",
"#w c #fbfb6c",
"e8 c #fce585",
"e3 c #fce782",
"fj c #fce78b",
"eP c #fcf594",
"eF c #fcf68c",
".W c #fcfc62",
"#x c #fcfc6d",
"#H c #fcfc72",
".l c #fcfc7a",
"fk c #fde88b",
"fb c #fde987",
"eK c #fdea7f",
"dT c #fdec7b",
"ed c #fdec7d",
"de c #fdee76",
"eY c #fdee86",
"cV c #fdef74",
"eL c #fdf184",
"cl c #fdf270",
"e2 c #fdf288",
"b5 c #fdf36d",
"ee c #fdf380",
"dU c #fdf47f",
"eS c #fdf487",
"bq c #fdf569",
"e0 c #fdf58a",
"eR c #fdf58f",
"a5 c #fdf667",
"df c #fdf67b",
"eq c #fdf683",
"eN c #fdf688",
"cW c #fdf779",
"e. c #fdf781",
"eg c #fdf784",
"eo c #fdf78a",
"ez c #fdf795",
"ds c #fdf87d",
"dW c #fdf882",
"eh c #fdf889",
"dX c #fdf88a",
"aw c #fdf961",
"cm c #fdf974",
"a# c #fdfa5f",
"b6 c #fdfa71",
"d# c #fdfa7a",
"dh c #fdfa7e",
"di c #fdfa85",
"#t c #fdfb5b",
"br c #fdfb6d",
"cY c #fdfb7b",
"cZ c #fdfb83",
"#c c #fdfc59",
"a6 c #fdfc6b",
"cg c #fdfc74",
"cy c #fdfc76",
".Q c #fdfd5a",
".R c #fdfd5c",
"#d c #fdfd5d",
"#f c #fdfd5f",
".H c #fdfd60",
"#g c #fdfd61",
".K c #fdfd62",
"aa c #fdfd63",
".I c #fdfd64",
"ar c #fdfd65",
"ac c #fdfd66",
".3 c #fdfd67",
".9 c #fdfd68",
"#v c #fdfd69",
"#h c #fdfd6a",
"a8 c #fdfd6d",
"bt c #fdfd6f",
"#5 c #fdfd71",
"b7 c #fdfd74",
"a9 c #fdfd77",
"bu c #fdfd79",
"b8 c #fdfd7d",
".r c #fdfd7f",
".q c #fdfd95",
".n c #fdfd9c",
".o c #fdfd9e",
"fl c #fee98c",
"eT c #feeb82",
"ev c #feec7f",
"er c #feed7e",
"dx c #feee79",
"dP c #feee7a",
"e# c #feee7c",
"dt c #feef77",
"da c #fef075",
"cD c #fef272",
"cR c #fef273",
"cz c #fef371",
"ch c #fef46e",
"b1 c #fef56b",
"bI c #fef669",
"bM c #fef66b",
"bm c #fef767",
"a1 c #fef865",
"aJ c #fef962",
"as c #fefa60",
"#I c #fefb5c",
"#7 c #fefb5e",
"#. c #fefc58",
"#p c #fefd5a",
".X c #fefe59",
".U c #fefe5e",
"e9 c #ffef8b",
"fa c #fff28c",
"ew c #fff383",
"f. c #fff38d",
"f# c #fff48d",
"eZ c #fff58a",
"dy c #fff67d",
"eG c #fff686",
"eM c #fff689",
"e1 c #fff68b",
"eO c #fff789",
"dO c #fff87f",
"ex c #fff886",
"ey c #fff887",
"aN c #fff964",
"cE c #fff977",
"dV c #fff982",
"d9 c #fff983",
"ef c #fff984",
"ep c #fff985",
"dz c #fffa80",
"dA c #fffa81",
"dB c #fffa89",
"dg c #fffb7e",
"#M c #fffc5d",
"bN c #fffc6f",
"cQ c #fffc78",
"cX c #fffc7b",
".1 c #fffd58",
"cF c #fffd79",
"cG c #fffd81",
"aO c #fffe68",
"a0 c #fffe6a",
"b0 c #fffe71",
"cn c #fffe77",
".2 c #ffff5b",
".T c #ffff5c",
".S c #ffff5d",
".M c #ffff5e",
"#e c #ffff5f",
".L c #ffff60",
"#N c #ffff61",
"#u c #ffff62",
"#6 c #ffff63",
".J c #ffff64",
"ab c #ffff66",
"aq c #ffff68",
".D c #ffff69",
"#O c #ffff6a",
"aP c #ffff6b",
"a7 c #ffff6d",
"bs c #ffff6f",
"bO c #ffff72",
"aQ c #ffff74",
".C c #ffff75",
".x c #ffff76",
".y c #ffff7b",
".B c #ffff7d",
".A c #ffff7e",
".z c #ffff7f",
".m c #ffff92",
".p c #ffff9f",
"Qt.#.a.b.c.d.e.d.d.e.d.d.e.d.d.e.d.d.e.d.d.e.d.d.e.f.g.h.i.i",
".j.k.l.m.n.o.p.o.o.p.o.o.p.o.o.p.o.o.p.o.o.p.o.o.p.q.r.s.t.u",
".v.w.x.y.z.A.A.A.A.A.A.A.A.A.A.A.A.A.A.A.A.A.A.A.A.B.C.D.E.F",
".G.H.I.J.K.H.L.H.H.L.H.H.L.H.H.L.H.H.L.H.H.L.H.H.L.K.H.M.N.O",
".P.Q.R.S.R.R.T.R.R.T.R.R.T.R.R.T.R.R.T.R.R.U.V.W.T.R.R.X.Y.Z",
".0.1.2.S.S.S.S.S.S.S.S.S.S.S.S.S.S.S.3.4.5.6.7.8.9.S.S#.###a",
"#b#c#d#e#f#f#e#f#f#e#f#f#e#f#f#e#g#h#i#j#k#l#m#n#o#f#f#p#q#r",
"#s#t#f#u.K.K#u#v#w#x#y#z#v.3#A#B#C#D#E#j#F#G#H.K#u.K#g#I#J#K",
"#L#M#N.J.J.J#O#P#Q#R#S#T#U#V#W#X#Y#Z#0#1#2#3#4#5.J.J#6#7#8#9",
"a.a#aaabacac.Dadaeafafag#jahaiajakakal#jamanaoapaqacarasatau",
"avawacaq.9#haxayaz#3aoaAaBaCakajakakaDaEaFaGaHaI.D.9.9aJaKaL",
"aMaNaOaPaPaQaR#X#3#3agaSaBaCajajaTaUaVaWaXaYaBaZaPaPa0a1a2a3",
"a4a5a6a7a8a9b.aS#Xb#babbaBbcbdbebfbgbhbiaYbjbkbla7a8a8bmbnbo",
"bpbqbrbsbtbub.bvbwbxaobybzbAbBbCbDbEbFbGaAbjbkbHbsbtbtbIbJbK",
"bLbMbNbObO.yb.bPbQbxbRaSbSbTbUbVbWbjbjbjbjbXbYbZbObOb0b1b2b3",
"b4b5b6aQb7b8b.bvbwbxb9aSbTc.aAc#cacbbjaAcccdcecfaQb7cgchcicj",
"ckclcmcna9.rcobvbwbxcpcqbTc.crcsb#ct#Xcucvcwcecxcna9cyczcAcB",
"cCcDcEcFcFcGcobPbQbxcHcIcJanbQ#Xb#cKcLcMcwcNcOcPcFcFcQcRcScT",
"cUcVcWcXcYcZc0bvbwbxc1c2c3bybPc4c5c6cwc7c7c8c9d.cXcYd#dadbdc",
"dddedfdgdhdidjbvbwbxdkdldmdndoc4c5c6cwc7dpdqc9drdgdhdsdtdudv",
"dwdxdydzdAdBdjbPbQbxbxdCdDcwdEdFdGdHdIdJdKdLdMdNdAdAdOdPdQdR",
"dSdTdUdVdWdXdjbvbwbxc9c9dYdZd0d1d2d3d4d5d6d7d8dWd9dWe.e#eaeb",
"ecedeeefegeheibvbwbxc9c9bxejekelemeneoegegepegegepegeqereset",
"euevewexeyeyezeAbQeBeCeDeEeFeyeyeyeyeyeyeyeyeyeyeyeyeGeveHeI",
"eJeKeLeMeNeNeOePeQeReNeNeOeNeNeOeNeNeOeNeNeOeNeNeOeNeSeTeUeV",
"eWeXeYeZe0e0e1e0e0e1e0e0e1e0e0e1e0e0e1e0e0e1e0e0e1e0e2e3e4e5",
"e6e7e8e9f.f#f#f#f#f#f#f#f#f#f#f#f#f#f#f#f#f#f#f#f#fafbfcfdfe",
"fffgfhfifjfkflfkfkflfkfkflfkfkflfkfkflfkfkflfkfkflfmfnfofpfq",
"frfsftfufvfwfxfwfwfxfwfwfxfwfwfxfwfwfxfwfwfxfwfwfxfyfzfAfBQt",
"#kfCfDfEfFfGfGfGfGfGfGfGfGfGfGfGfGfGfGfGfGfGfGfGfHfIfJfKQt#k"};
