/* XPM */
static char *dummy[]={
"30 30 193 2",
"aJ c #0000fd",
"au c #0000ff",
"#1 c #00fdfd",
"a# c #00ffff",
"#0 c #02eeee",
"#R c #02f0f0",
"aU c #0303f8",
"aA c #0505fa",
"#Q c #08c6c6",
"#2 c #09bcbc",
"#Z c #09bdbd",
"aa c #09f7f7",
"aN c #0c0ceb",
"#Y c #0d9f9f",
"aO c #1111e1",
"aM c #1616fa",
"aF c #1717da",
"aB c #1717fb",
"a. c #19ebeb",
"#P c #1a4c4c",
"#O c #1c4242",
"#B c #202020",
"#A c #212121",
"ab c #21e5e5",
"at c #2222e5",
"an c #2222e6",
"#S c #244646",
"aP c #2525c2",
"#J c #274343",
"aX c #2c2cf3",
"#z c #2d2d2d",
"#3 c #2d6969",
"az c #3838e8",
"aT c #3c3cf6",
"aY c #3d3df6",
"aV c #4646bd",
"ax c #474796",
"aw c #4848f4",
"aq c #4e4eee",
"#H c #4eb1b1",
"a5 c #5050f3",
"ar c #51518e",
"#s c #535353",
"#X c #536060",
"#G c #555555",
"#9 c #57c1c1",
"ac c #5cbcbc",
"aQ c #6262ef",
"#r c #636363",
"aG c #65657c",
"#K c #686868",
"#j c #696969",
"#d c #6a6a6a",
"aE c #6a6aee",
"a6 c #6b6bea",
"#E c #6c6c6c",
".2 c #6d6d6d",
"ah c #6db0b0",
".3 c #6e6e6e",
"#V c #6f6f6f",
".T c #707070",
"ae c #717171",
".U c #727272",
"as c #7272ab",
"aK c #7272ee",
"#M c #737373",
"#T c #747474",
"#N c #757575",
"#5 c #767676",
"af c #777777",
"#y c #787878",
"ai c #78a8a8",
"#7 c #797979",
"aW c #7979d1",
"ap c #7a7a7a",
"av c #7b7b7b",
"#C c #7c7c7c",
"aH c #7e7e7e",
"#c c #7f7f7f",
"#D c #808080",
"#e c #818181",
".4 c #828282",
"#k c #838383",
".1 c #848484",
"#W c #858585",
"am c #85859c",
"#b c #868686",
"aj c #86869d",
".5 c #878787",
".V c #888888",
"#i c #898989",
".J c #8a8a8a",
"ag c #8a9a9a",
".0 c #8b8b8b",
"ad c #8b9898",
".6 c #8c8c8c",
"#I c #8ce3e3",
".W c #8d8d8d",
"#w c #8e8e8e",
".S c #8f8f8f",
".I c #909090",
".X c #919191",
"## c #929292",
".7 c #939393",
"#v c #949494",
"aI c #9494df",
".K c #959595",
"#x c #969696",
".R c #979797",
".L c #989898",
"al c #9898b8",
".Q c #999999",
".N c #9a9a9a",
".M c #9b9b9b",
".O c #9c9c9c",
"#a c #9d9d9d",
".P c #9e9e9e",
"#q c #9f9f9f",
".H c #a0a0a0",
"#h c #a1a1a1",
"a4 c #a1a1e5",
".8 c #a2a2a2",
"aD c #a3a3a3",
"#f c #a4a4a4",
"#g c #a5a5a5",
"aZ c #a5a5e6",
".z c #a6a6a6",
".A c #a7a7a7",
".x c #a8a8a8",
".G c #a9a9a9",
".E c #aaaaaa",
".F c #ababab",
".D c #acacac",
"#u c #adadad",
".B c #aeaeae",
".r c #afafaf",
"aS c #afafe4",
"#8 c #b0b0b0",
".C c #b1b1b1",
"#. c #b2b2b2",
"#p c #b3b3b3",
"a1 c #b4b4b4",
"#t c #b5b5b5",
"a7 c #b5b5da",
"#L c #b7b7b7",
"#l c #b8b8b8",
"ay c #b8b8ce",
".p c #b9b9b9",
".y c #bababa",
".q c #bbbbbb",
".Y c #bcbcbc",
"a3 c #bcbce1",
"a9 c #bebebe",
".h c #bfbfbf",
"ao c #bfbfe1",
"#U c #c0c0c0",
".g c #c1c1c1",
".# c #c2c2c2",
"aL c #c2c2e0",
"Qt c #c3c3c3",
"#n c #c4c4c4",
".w c #c5c5c5",
".f c #c6c6c6",
".o c #c7c7c7",
"b. c #c8c8c8",
"a8 c #c9c9d0",
"aC c #c9c9e1",
".e c #cbcbcb",
"#o c #cccccc",
".i c #cdcdcd",
".a c #cecece",
"#m c #cfcfcf",
"ak c #cfcfd7",
".v c #d2d2d2",
"#4 c #d3d3d3",
"#F c #d4d4d4",
".s c #d5d5d5",
"a0 c #d6d6dd",
".9 c #d7d7d7",
"a2 c #d7d7df",
".Z c #d8d8d8",
"aR c #d8d8de",
".u c #d9d9d9",
".t c #dadada",
".b c #dcdcdc",
"#6 c #dedede",
".c c #e2e2e2",
".d c #e4e4e4",
".n c #efefef",
".j c #f5f5f5",
".m c #fafafa",
".k c #fbfbfb",
".l c #fcfcfc",
"Qt.#Qt.a.b.c.d.c.c.d.c.c.d.c.c.d.c.c.d.c.c.d.c.c.d.b.e.f.#.g",
"Qt.h.i.j.k.k.l.k.k.l.k.k.l.k.k.l.k.k.l.k.k.l.k.k.l.m.n.o.p.#",
".q.r.a.s.t.u.u.u.u.u.u.u.u.u.u.u.u.u.u.u.u.u.u.u.u.u.v.w.x.y",
".z.A.B.C.D.E.F.E.E.F.E.E.F.E.E.F.E.E.F.E.E.F.E.E.F.D.F.G.H.I",
".J.K.L.M.N.N.M.N.N.M.N.N.M.N.N.M.N.N.M.N.N.O.H.P.M.N.Q.R.S.T",
".U.V.W.I.X.X.X.X.X.X.X.X.X.X.X.X.X.X.R.H.Y.#.Z.i.L.X.I.0.1.2",
".3.4.5.0.0.0.6.0.0.6.0.0.6.0.0.6.6.7.8.9.w#.##.X#a.0.J#b#c#d",
".3#e#b.J.J.J.0.S.X###f#g.I.W.L.H.z.B.R.9#h.A.K.J.0.J#i#b#c#j",
".3#k.V.0.0.0.I.P#l#m#n.e#o#p#q.L#r#s#k.Z#t#u#p#v.0.0.0#b#c#d",
".T.1#i.W.6.6.I.P#w#x#x#w.9#y#z#A#B#B#C.9#c.G.F.F.S.6.6#i#D#E",
".U#b.0.S#w.I.A.B.C#u.F###F#G#B#A#B#B#H#I#J#K.Y#L.I#w#w.0.4.2",
"#M#i#w.X.X.L.O.L#u#u#w#N#F#G#A#A#O#P#Q#R#S#T#F#U.X.X.X.6.1#V",
"#N.J.S.7##.Q.O#N.L.q#W.2#F#X#Y#Z#0#1#2#3#T#v#4.h.7#####w#W.T",
"#5.0.I#v#v.M.O.U#e#6.F#7#8#9a.a#aaabacad###v#4#U.K#v.7.S#bae",
"af#w.7.R.R.P.O#M.4#6.D#N.O.Magahai#v#v#v#vajak.#.R.R.R.X#i.U",
"#y#w.7.L.L.P.O.U#e#6al#N.M.Q##.S#q.R#v##amanao.g.Q.L.R.7#i#M",
"ap.I.K.N.N.H#a.U#e#6aqar.M.Q.1#i.q.y.Lasatauao.#.M.N.Q.K.0#N",
"av##.R.M.O.8#a#M.4#6awax.7.G.4.L.qayazaAauaBaC#n.O.O.M#x#w#5",
"#C.7.L#a#aaD#a.U#e#6aEaFaG#7#MaH#laIauaJaJaK.bQt.P#a.O.L#waf",
"aH#v.Q.P.P#f#a.U#e#6aLaMaNaOaPaH#laIauaJaQaR.b#n#q.P.P.Q.S#y",
"#c.R#a#h#h.A#a#M.4#6#6aSaTauaUaVaWaXaYaZa0.9#ma1#h#h#h.M##ap",
"#D.R#a.8.8.x.P.U#e#6.b.ba2a3a4a5a6a7a8a9#t.G#g.8aD.8#h.O##av",
".4.Q#q#faD.A.B.U#e#6.b.b#6#4.o.f.B.x.xaDaD#faDaD#faDaD.P#v#C",
"#k.M#h#g.z.z#8.G.4.sb..Y.D.G.z.z.z.z.z.z.z.z.z.z.z.z#g#q#xaH",
".1.O.8.A.z.z.x.B.p.F.z.z.A.z.z.A.z.z.A.z.z.A.z.z.A.z.z#h.R#c",
".V.M.8.x.x.x.G.x.x.G.x.x.G.x.x.G.x.x.G.x.x.G.x.x.G.x.A#h#x#T",
".Q.K#q.z.E.E.F.E.E.F.E.E.F.E.E.F.E.E.F.E.E.F.E.E.F.E#g.O.I#C",
"#t.4.Q.8.z.A.x.A.A.x.A.A.x.A.A.x.A.A.x.A.A.x.A.A.x#g#a#vap.O",
".w#f#D.L.H#h.8#h#h.8#h#h.8#h#h.8#h#h.8#h#h.8#h#h.8.P.7#y.RQt",
".w#n#t#v#i.1.1.1.1.1.1.1.1.1.1.1.1.1.1.1.1.1.1.1.1.5.6.EQt.w"};
